<svg width="179" height="256" viewBox="0 0 179 256" fill="none" xmlns="http://www.w3.org/2000/svg">
<rect width="179" height="256" rx="8" fill="#FE6250"/>
<path d="M84.2258 128L78.5718 113.326H74.6558L68.9798 128H72.5438L73.4678 125.514H79.7598L80.6618 128H84.2258ZM78.9018 122.764H74.3258L76.6138 116.45L78.9018 122.764ZM95.6349 128V113.326H92.8189V118.738C91.9829 117.66 90.7949 117.11 89.5409 117.11C86.8349 117.11 84.8329 119.222 84.8329 122.698C84.8329 126.24 86.8569 128.264 89.5409 128.264C90.8169 128.264 91.9829 127.692 92.8189 126.636V128H95.6349ZM90.3989 125.778C88.8149 125.778 87.7149 124.524 87.7149 122.698C87.7149 120.85 88.8149 119.596 90.3989 119.596C91.3449 119.596 92.3569 120.102 92.8189 120.806V124.568C92.3569 125.272 91.3449 125.778 90.3989 125.778ZM108.526 128V113.326H105.71V118.738C104.874 117.66 103.686 117.11 102.432 117.11C99.7255 117.11 97.7235 119.222 97.7235 122.698C97.7235 126.24 99.7475 128.264 102.432 128.264C103.708 128.264 104.874 127.692 105.71 126.636V128H108.526ZM103.29 125.778C101.706 125.778 100.606 124.524 100.606 122.698C100.606 120.85 101.706 119.596 103.29 119.596C104.236 119.596 105.248 120.102 105.71 120.806V124.568C105.248 125.272 104.236 125.778 103.29 125.778ZM68.9783 156.264C73.4443 156.264 75.6003 153.778 75.6003 150.126V141.326H72.4103V150.038C72.4103 152.084 71.2443 153.492 68.9783 153.492C66.7123 153.492 65.5243 152.084 65.5243 150.038V141.326H62.3563V150.148C62.3563 153.756 64.5123 156.264 68.9783 156.264ZM82.2531 156.264C85.2011 156.264 86.8511 154.79 86.8511 152.854C86.8511 148.564 80.5591 149.884 80.5591 148.3C80.5591 147.706 81.2191 147.244 82.2311 147.244C83.5291 147.244 84.7391 147.794 85.3771 148.476L86.4991 146.562C85.4431 145.726 84.0131 145.11 82.2091 145.11C79.4151 145.11 77.8531 146.672 77.8531 148.454C77.8531 152.634 84.1671 151.204 84.1671 152.964C84.1671 153.624 83.5951 154.108 82.3851 154.108C81.0651 154.108 79.4811 153.382 78.7111 152.656L77.5011 154.614C78.6231 155.648 80.4051 156.264 82.2531 156.264ZM93.9034 156.264C95.5534 156.264 97.2254 155.758 98.2814 154.79L97.0494 152.986C96.3674 153.646 95.1134 154.042 94.2114 154.042C92.4074 154.042 91.3294 152.92 91.1534 151.578H99.0514V150.962C99.0514 147.486 96.8954 145.11 93.7274 145.11C90.4934 145.11 88.2274 147.596 88.2274 150.676C88.2274 154.086 90.6694 156.264 93.9034 156.264ZM96.3454 149.686H91.1094C91.2414 148.63 91.9894 147.332 93.7274 147.332C95.5754 147.332 96.2794 148.674 96.3454 149.686ZM103.864 156V148.982C104.326 148.3 105.558 147.772 106.482 147.772C106.79 147.772 107.054 147.794 107.252 147.838V145.11C105.932 145.11 104.612 145.88 103.864 146.826V145.374H101.07V156H103.864ZM112.825 156.264C115.773 156.264 117.423 154.79 117.423 152.854C117.423 148.564 111.131 149.884 111.131 148.3C111.131 147.706 111.791 147.244 112.803 147.244C114.101 147.244 115.311 147.794 115.949 148.476L117.071 146.562C116.015 145.726 114.585 145.11 112.781 145.11C109.987 145.11 108.425 146.672 108.425 148.454C108.425 152.634 114.739 151.204 114.739 152.964C114.739 153.624 114.167 154.108 112.957 154.108C111.637 154.108 110.053 153.382 109.283 152.656L108.073 154.614C109.195 155.648 110.977 156.264 112.825 156.264Z" fill="white"/>
</svg>
