<svg width="180" height="256" viewBox="0 0 180 256" fill="none" xmlns="http://www.w3.org/2000/svg">
<g clip-path="url(#clip0)">
<rect width="179.348" height="256" rx="8" fill="#8CBAFE"/>
<g clip-path="url(#clip1)">
<path d="M60.1461 126L65.8001 111.326H62.2361L58.1881 122.612L54.1181 111.326H50.5541L56.2301 126H60.1461ZM69.4751 114.23C70.3991 114.23 71.1471 113.482 71.1471 112.558C71.1471 111.634 70.3991 110.908 69.4751 110.908C68.5731 110.908 67.8031 111.634 67.8031 112.558C67.8031 113.482 68.5731 114.23 69.4751 114.23ZM70.8831 126V115.374H68.0891V126H70.8831ZM79.6476 126.264C81.2976 126.264 82.9696 125.758 84.0256 124.79L82.7936 122.986C82.1116 123.646 80.8576 124.042 79.9556 124.042C78.1516 124.042 77.0736 122.92 76.8976 121.578H84.7956V120.962C84.7956 117.486 82.6396 115.11 79.4716 115.11C76.2376 115.11 73.9716 117.596 73.9716 120.676C73.9716 124.086 76.4136 126.264 79.6476 126.264ZM82.0896 119.686H76.8536C76.9856 118.63 77.7336 117.332 79.4716 117.332C81.3196 117.332 82.0236 118.674 82.0896 119.686ZM100.112 126L103.346 115.374H100.442L98.4617 122.524L96.1297 115.374H93.6437L91.3117 122.524L89.3317 115.374H86.4277L89.6617 126H92.6537L94.8977 118.762L97.1417 126H100.112ZM54.9783 154.264C59.4443 154.264 61.6003 151.778 61.6003 148.126V139.326H58.4103V148.038C58.4103 150.084 57.2443 151.492 54.9783 151.492C52.7123 151.492 51.5243 150.084 51.5243 148.038V139.326H48.3563V148.148C48.3563 151.756 50.5123 154.264 54.9783 154.264ZM69.2531 154.264C72.2011 154.264 73.8511 152.79 73.8511 150.854C73.8511 146.564 67.5591 147.884 67.5591 146.3C67.5591 145.706 68.2191 145.244 69.2311 145.244C70.5291 145.244 71.7391 145.794 72.3771 146.476L73.4991 144.562C72.4431 143.726 71.0131 143.11 69.2091 143.11C66.4151 143.11 64.8531 144.672 64.8531 146.454C64.8531 150.634 71.1671 149.204 71.1671 150.964C71.1671 151.624 70.5951 152.108 69.3851 152.108C68.0651 152.108 66.4811 151.382 65.7111 150.656L64.5011 152.614C65.6231 153.648 67.4051 154.264 69.2531 154.264ZM81.9034 154.264C83.5534 154.264 85.2254 153.758 86.2814 152.79L85.0494 150.986C84.3674 151.646 83.1134 152.042 82.2114 152.042C80.4074 152.042 79.3294 150.92 79.1534 149.578H87.0514V148.962C87.0514 145.486 84.8954 143.11 81.7274 143.11C78.4934 143.11 76.2274 145.596 76.2274 148.676C76.2274 152.086 78.6694 154.264 81.9034 154.264ZM84.3454 147.686H79.1094C79.2414 146.63 79.9894 145.332 81.7274 145.332C83.5754 145.332 84.2794 146.674 84.3454 147.686ZM92.8636 154V146.982C93.3256 146.3 94.5576 145.772 95.4816 145.772C95.7896 145.772 96.0536 145.794 96.2516 145.838V143.11C94.9316 143.11 93.6116 143.88 92.8636 144.826V143.374H90.0696V154H92.8636ZM102.825 154.264C105.773 154.264 107.423 152.79 107.423 150.854C107.423 146.564 101.131 147.884 101.131 146.3C101.131 145.706 101.791 145.244 102.803 145.244C104.101 145.244 105.311 145.794 105.949 146.476L107.071 144.562C106.015 143.726 104.585 143.11 102.781 143.11C99.9873 143.11 98.4253 144.672 98.4253 146.454C98.4253 150.634 104.739 149.204 104.739 150.964C104.739 151.624 104.167 152.108 102.957 152.108C101.637 152.108 100.053 151.382 99.2833 150.656L98.0733 152.614C99.1953 153.648 100.977 154.264 102.825 154.264Z" fill="white"/>
</g>
</g>
<defs>
<clipPath id="clip0">
<rect width="179.348" height="256" rx="8" fill="white"/>
</clipPath>
<clipPath id="clip1">
<rect width="202" height="202" fill="white" transform="translate(34 60)"/>
</clipPath>
</defs>
</svg>
