<svg width="179" height="256" viewBox="0 0 179 256" fill="none" xmlns="http://www.w3.org/2000/svg">
<rect width="179" height="256" rx="8" fill="#FE6250"/>
<path d="M84.2258 121L78.5718 106.326H74.6558L68.9798 121H72.5438L73.4678 118.514H79.7598L80.6618 121H84.2258ZM78.9018 115.764H74.3258L76.6138 109.45L78.9018 115.764ZM95.6349 121V106.326H92.8189V111.738C91.9829 110.66 90.7949 110.11 89.5409 110.11C86.8349 110.11 84.8329 112.222 84.8329 115.698C84.8329 119.24 86.8569 121.264 89.5409 121.264C90.8169 121.264 91.9829 120.692 92.8189 119.636V121H95.6349ZM90.3989 118.778C88.8149 118.778 87.7149 117.524 87.7149 115.698C87.7149 113.85 88.8149 112.596 90.3989 112.596C91.3449 112.596 92.3569 113.102 92.8189 113.806V117.568C92.3569 118.272 91.3449 118.778 90.3989 118.778ZM108.526 121V106.326H105.71V111.738C104.874 110.66 103.686 110.11 102.432 110.11C99.7255 110.11 97.7235 112.222 97.7235 115.698C97.7235 119.24 99.7475 121.264 102.432 121.264C103.708 121.264 104.874 120.692 105.71 119.636V121H108.526ZM103.29 118.778C101.706 118.778 100.606 117.524 100.606 115.698C100.606 113.85 101.706 112.596 103.29 112.596C104.236 112.596 105.248 113.102 105.71 113.806V117.568C105.248 118.272 104.236 118.778 103.29 118.778ZM62.2851 149.264C66.2451 149.264 68.1591 147.24 68.1591 144.556C68.1591 139.078 59.7331 140.64 59.7331 138.308C59.7331 137.428 60.4811 136.834 61.8231 136.834C63.3191 136.834 64.9031 137.34 66.0911 138.44L67.8291 136.152C66.3771 134.81 64.4411 134.106 62.1091 134.106C58.6551 134.106 56.5431 136.13 56.5431 138.572C56.5431 144.094 64.9911 142.312 64.9911 144.908C64.9911 145.744 64.1551 146.536 62.4391 146.536C60.4151 146.536 58.8091 145.634 57.7751 144.556L56.0811 146.932C57.4451 148.318 59.4691 149.264 62.2851 149.264ZM75.1465 149.264C77.3245 149.264 78.6445 148.318 79.3485 147.328L77.5225 145.634C77.0165 146.338 76.2465 146.778 75.2785 146.778C73.5845 146.778 72.3965 145.524 72.3965 143.676C72.3965 141.828 73.5845 140.596 75.2785 140.596C76.2465 140.596 77.0165 140.992 77.5225 141.74L79.3485 140.024C78.6445 139.056 77.3245 138.11 75.1465 138.11C71.8685 138.11 69.5145 140.42 69.5145 143.676C69.5145 146.954 71.8685 149.264 75.1465 149.264ZM91.1631 149V141.454C91.1631 139.386 90.0411 138.11 87.7091 138.11C85.9711 138.11 84.6511 138.946 83.9691 139.76V134.326H81.1751V149H83.9691V141.85C84.4531 141.212 85.3111 140.596 86.3891 140.596C87.5991 140.596 88.3691 141.058 88.3691 142.532V149H91.1631ZM98.8648 149.264C102.385 149.264 104.497 146.712 104.497 143.676C104.497 140.662 102.385 138.11 98.8648 138.11C95.3668 138.11 93.2548 140.662 93.2548 143.676C93.2548 146.712 95.3668 149.264 98.8648 149.264ZM98.8648 146.778C97.1268 146.778 96.1588 145.348 96.1588 143.676C96.1588 142.026 97.1268 140.596 98.8648 140.596C100.603 140.596 101.593 142.026 101.593 143.676C101.593 145.348 100.603 146.778 98.8648 146.778ZM111.498 149.264C115.018 149.264 117.13 146.712 117.13 143.676C117.13 140.662 115.018 138.11 111.498 138.11C108 138.11 105.888 140.662 105.888 143.676C105.888 146.712 108 149.264 111.498 149.264ZM111.498 146.778C109.76 146.778 108.792 145.348 108.792 143.676C108.792 142.026 109.76 140.596 111.498 140.596C113.236 140.596 114.226 142.026 114.226 143.676C114.226 145.348 113.236 146.778 111.498 146.778ZM121.996 149V134.326H119.202V149H121.996Z" fill="white"/>
</svg>
