<svg width="180" height="256" viewBox="0 0 180 256" fill="none" xmlns="http://www.w3.org/2000/svg">
<g clip-path="url(#clip0)">
<rect width="179.348" height="256" rx="8" fill="#8CBAFE"/>
<path d="M71.3316 126L76.9856 111.326H73.4216L69.3736 122.612L65.3036 111.326H61.7396L67.4156 126H71.3316ZM80.6607 114.23C81.5847 114.23 82.3327 113.482 82.3327 112.558C82.3327 111.634 81.5847 110.908 80.6607 110.908C79.7587 110.908 78.9887 111.634 78.9887 112.558C78.9887 113.482 79.7587 114.23 80.6607 114.23ZM82.0687 126V115.374H79.2747V126H82.0687ZM90.8331 126.264C92.4831 126.264 94.1551 125.758 95.2111 124.79L93.9791 122.986C93.2971 123.646 92.0431 124.042 91.1411 124.042C89.3371 124.042 88.2591 122.92 88.0831 121.578H95.9811V120.962C95.9811 117.486 93.8251 115.11 90.6571 115.11C87.4231 115.11 85.1571 117.596 85.1571 120.676C85.1571 124.086 87.5991 126.264 90.8331 126.264ZM93.2751 119.686H88.0391C88.1711 118.63 88.9191 117.332 90.6571 117.332C92.5051 117.332 93.2091 118.674 93.2751 119.686ZM111.297 126L114.531 115.374H111.627L109.647 122.524L107.315 115.374H104.829L102.497 122.524L100.517 115.374H97.6133L100.847 126H103.839L106.083 118.762L108.327 126H111.297ZM61.7851 154.264C65.7451 154.264 67.6591 152.24 67.6591 149.556C67.6591 144.078 59.2331 145.64 59.2331 143.308C59.2331 142.428 59.9811 141.834 61.3231 141.834C62.8191 141.834 64.4031 142.34 65.5911 143.44L67.3291 141.152C65.8771 139.81 63.9411 139.106 61.6091 139.106C58.1551 139.106 56.0431 141.13 56.0431 143.572C56.0431 149.094 64.4911 147.312 64.4911 149.908C64.4911 150.744 63.6551 151.536 61.9391 151.536C59.9151 151.536 58.3091 150.634 57.2751 149.556L55.5811 151.932C56.9451 153.318 58.9691 154.264 61.7851 154.264ZM75.6465 154.264C77.8245 154.264 79.1445 153.318 79.8485 152.328L78.0225 150.634C77.5165 151.338 76.7465 151.778 75.7785 151.778C74.0845 151.778 72.8965 150.524 72.8965 148.676C72.8965 146.828 74.0845 145.596 75.7785 145.596C76.7465 145.596 77.5165 145.992 78.0225 146.74L79.8485 145.024C79.1445 144.056 77.8245 143.11 75.6465 143.11C72.3685 143.11 70.0145 145.42 70.0145 148.676C70.0145 151.954 72.3685 154.264 75.6465 154.264ZM92.6631 154V146.454C92.6631 144.386 91.5411 143.11 89.2091 143.11C87.4711 143.11 86.1511 143.946 85.4691 144.76V139.326H82.6751V154H85.4691V146.85C85.9531 146.212 86.8111 145.596 87.8891 145.596C89.0991 145.596 89.8691 146.058 89.8691 147.532V154H92.6631ZM101.365 154.264C104.885 154.264 106.997 151.712 106.997 148.676C106.997 145.662 104.885 143.11 101.365 143.11C97.8668 143.11 95.7548 145.662 95.7548 148.676C95.7548 151.712 97.8668 154.264 101.365 154.264ZM101.365 151.778C99.6268 151.778 98.6588 150.348 98.6588 148.676C98.6588 147.026 99.6268 145.596 101.365 145.596C103.103 145.596 104.093 147.026 104.093 148.676C104.093 150.348 103.103 151.778 101.365 151.778ZM114.998 154.264C118.518 154.264 120.63 151.712 120.63 148.676C120.63 145.662 118.518 143.11 114.998 143.11C111.5 143.11 109.388 145.662 109.388 148.676C109.388 151.712 111.5 154.264 114.998 154.264ZM114.998 151.778C113.26 151.778 112.292 150.348 112.292 148.676C112.292 147.026 113.26 145.596 114.998 145.596C116.736 145.596 117.726 147.026 117.726 148.676C117.726 150.348 116.736 151.778 114.998 151.778ZM126.496 154V139.326H123.702V154H126.496Z" fill="white"/>
</g>
<defs>
<clipPath id="clip0">
<rect width="179.348" height="256" rx="8" fill="white"/>
</clipPath>
</defs>
</svg>
