<svg width="180" height="257" viewBox="0 0 180 257" fill="none" xmlns="http://www.w3.org/2000/svg">
<g clip-path="url(#clip0)">
<rect width="179.5" height="256.52" rx="8" fill="#FE6250"/>
<path fill-rule="evenodd" clip-rule="evenodd" d="M149.9 231.888C170.929 231.888 189.383 216.303 179.019 195.135C168.656 173.967 207.163 174.65 218.475 160.02C232.27 142.178 228.275 66.4414 139.717 112.614C125.531 120.011 89.0984 105.005 77.0135 112.451C62.7885 121.215 42.7746 139.16 62.7885 157.543C72.6469 166.598 37.3021 190.101 52.7824 211.154C67.8873 231.696 78.4756 212.113 101.473 216.303C124.47 220.493 134.283 231.888 149.9 231.888Z" fill="white" fill-opacity="0.48"/>
<path d="M125.493 195.061C125.493 195.061 130.335 192.792 132.142 191.213C133.95 189.635 136.197 185.712 136.197 185.712C136.197 185.712 160.882 203.474 176.978 200.941C180.686 200.357 187.912 197.901 188.373 193.574C189.631 181.757 172.222 178.738 176.025 172.745C178.346 169.088 185.557 174.531 185.557 174.531L215.467 189.189C215.467 189.189 205.134 214.567 180.058 215.584C149.212 216.835 125.493 195.061 125.493 195.061Z" fill="white"/>
<path fill-rule="evenodd" clip-rule="evenodd" d="M101.779 95.677C101.498 95.5672 99.9907 93.728 98.0768 93.3932C97.207 93.2411 97.9964 94.3445 97.0392 94.3544C94.1884 94.384 89.5556 93.8504 88.6974 94.3544C88.0595 94.7279 89.4643 96.0324 88.6974 96.0923C81.4618 96.6574 70.4234 103.855 68.0285 107.347C67.2663 108.459 73.4305 106.573 72.4484 107.123C71.3461 107.739 70.1235 111.777 69.3925 114.896C68.8865 117.043 68.5679 119.807 68.4554 122.813C68.3617 125.409 68.3992 125.839 68.774 127.258C69.2051 128.845 69.5425 129.312 70.1235 129.088C70.3297 129.013 70.4234 128.733 70.4234 128.21C70.4234 127.799 70.6483 126.567 70.9294 125.465L71.4167 123.486L71.6229 124.307C71.8853 125.26 73.4222 128.21 74.8091 130.358C74.8839 130.472 75.2058 130.327 75.496 129.628C75.7604 128.991 75.6531 127.973 76.1024 126.883C77.1257 124.399 79.1351 121.17 81.4618 118.584C84.9004 114.764 86.0413 110.342 89.2646 106.793C95.2801 100.169 102.83 96.088 101.779 95.677Z" fill="white"/>
<path fill-rule="evenodd" clip-rule="evenodd" d="M72.5339 108.024C71.569 108.797 70.1366 115.068 70.112 115.173C69.606 117.32 69.1182 124.778 69.6168 126.19C70.1154 127.601 71.5116 122.512 71.5116 122.512C71.5116 122.512 73.622 127.972 75.4867 129.469C75.5663 129.533 73.2702 122.714 72.5339 118.733C71.562 113.478 73.0831 107.584 72.5339 108.024Z" fill="#E5E5EA"/>
<path fill-rule="evenodd" clip-rule="evenodd" d="M108.501 217.849C110.3 217.457 113.336 216.091 114.498 215.624C115.661 215.157 119.203 210.174 120.477 204.553C121.395 200.408 121.864 194.507 121.339 193.517C121.262 193.377 120.978 190.693 121.733 191.569C123.41 193.517 125.402 196.575 131.685 191.096C133.396 189.603 135.664 187.678 135.067 185.975C133.396 181.211 126.153 171.619 125.048 170.892C123.728 170.024 117.055 170.762 107.123 167.841C95.8601 164.529 91.1701 154.776 86.7626 156.046C83.1981 157.072 74.658 163.382 72.5147 167.378C62.3962 186.241 74.658 199.459 77.4505 203.256L80.1618 204.423L80.2555 206.831L80.3867 208.344C80.6304 211.238 80.7241 211.5 82.0361 212.471C85.316 214.955 91.7822 217.27 97.6299 218.092C100.348 218.465 106.251 218.335 108.501 217.849Z" fill="white"/>
<path fill-rule="evenodd" clip-rule="evenodd" d="M81.2284 205.95L81.3596 207.462C81.6032 210.357 81.6969 210.618 83.0089 211.589C84.9439 213.054 87.9877 214.461 91.3592 215.537C93.7028 216.285 96.2048 216.873 98.6027 217.21C101.32 217.584 107.224 217.453 109.473 216.967C110.585 216.727 101.441 209.57 96.0537 211.589C91.9167 213.14 82.166 201.309 86.1305 198.218C90.5778 194.751 82.4284 181.075 82.166 178.106C81.9036 175.137 80.8702 174.428 80.8401 174.532C80.8099 174.636 80.8099 174.992 80.891 175.847C81.2407 179.537 81.2284 205.95 81.2284 205.95Z" fill="#E5E5EA"/>
<path fill-rule="evenodd" clip-rule="evenodd" d="M149.573 163.373C149.086 163.205 148.561 162.831 148.224 162.402L147.661 161.711L149.648 159.75C152.703 156.762 155.046 153.7 157.07 150.059C157.745 148.845 159.451 144.793 159.451 144.4C159.451 144.27 159.657 143.747 159.9 143.205C160.275 142.421 160.556 142.122 161.362 141.674C162.318 141.114 163.405 140.927 163.874 141.244C164.773 141.842 164.773 143.728 163.874 146.977C162.88 150.544 161.55 153.102 158.795 156.781C158.363 157.341 157.558 158.443 156.976 159.209C155.421 161.263 154.409 162.253 153.041 163.018C151.691 163.765 150.904 163.859 149.573 163.373ZM163.031 161.692L164.38 162.29C164.66 162.419 167.747 163.896 171.455 165.672C177.433 168.534 185.026 172.168 185.072 172.168C185.147 172.168 185.499 171.358 185.578 170.413C185.766 168.378 186.459 165.614 187.265 163.69C187.64 162.831 187.94 161.758 187.94 161.664C187.94 161.622 187.635 161.499 187.136 161.299C186.542 161.06 185.673 160.711 184.716 160.254C179.993 157.995 170.753 153.382 169.61 152.692C168.485 152.038 168.26 151.982 168.26 152.411C168.26 152.972 167.117 155.567 166.236 156.968C165.767 157.733 164.849 159.115 164.193 160.03L163.031 161.692ZM184.753 168.807C185.291 169.117 184.36 169.573 184.135 169.647C182.81 169.759 181.251 169.511 179.974 168.77C179.306 168.298 174.047 165.387 170.558 163.456C168.963 162.573 167.738 161.895 167.491 161.748C166.704 161.281 165.954 160.777 165.823 160.628C165.43 160.124 165.804 159.9 166.91 159.993C167.575 160.049 183.592 168.137 184.753 168.807ZM108.565 217.695C110.011 217.38 112.255 216.436 113.684 215.836L113.685 215.835C114.034 215.688 114.334 215.562 114.563 215.47C115.725 215.004 119.267 210.02 120.541 204.399C121.46 200.254 121.928 194.353 121.404 193.363C121.087 192.79 122.967 194.713 124.367 196.145L124.367 196.145C124.791 196.579 125.172 196.968 125.433 197.229C133.605 205.314 145.769 211.813 158.401 214.857C164.699 216.388 169.178 216.93 175.195 216.93C185.297 216.93 193.263 214.95 200.497 210.599C200.841 210.392 201.163 210.203 201.47 210.021C203.992 208.534 205.494 207.648 209.606 203.036C214.218 197.864 218.321 185.856 219.69 181.711C220.289 179.843 221.751 172.416 221.751 170.562C221.751 168.368 220.983 167.332 219.933 166.267C218.078 164.456 215.566 163.802 213.486 164.587L212.511 164.96L212.211 163.971C211.78 162.477 210.881 161.281 209.494 160.385C207.432 159.022 207.132 158.929 205.277 158.929C203.833 158.929 203.44 159.003 202.521 159.433L201.453 159.918L201.228 159.246C200.797 157.864 199.351 155.938 198.229 155.381C197.234 154.886 195.512 154.841 194.312 155.063C191.688 155.549 189.814 156.762 189.045 158.462C188.821 158.985 188.539 159.395 188.427 159.395C188.333 159.395 184.641 158.368 180.236 156.426C179.494 156.097 178.796 155.789 178.14 155.5C170.231 152.007 168.517 151.25 168.672 150.301C168.804 149.498 168.766 149.05 168.541 148.359C168.148 147.201 167.698 146.884 166.423 146.884C165.411 146.884 165.411 146.884 165.524 146.38C166.123 143.523 166.105 141.879 165.467 140.834C165.036 140.143 164.53 139.863 163.368 139.695C162.693 139.601 162.375 139.657 161.625 140.068C161.119 140.329 160.688 140.516 160.651 140.479C160.613 140.441 160.744 139.414 160.95 138.201C162.487 129.218 161.3 121.479 157.383 113.263C157.345 113.185 157.302 113.093 157.253 112.987L157.252 112.986L157.252 112.985C156.061 110.438 151.273 100.195 137.578 95.0266C136.959 94.7927 136.372 94.5665 135.808 94.3491C131.144 92.5501 128.042 91.3541 120.56 91.3666C112.174 91.3805 109.333 92.5617 103.804 95.0826C103.036 95.4375 102.361 95.6429 102.305 95.5682C102.249 95.4748 101.893 95.2507 101.537 95.064C101.18 94.8772 100.412 94.4104 99.8497 94.0369C98.2379 92.9538 97.2445 92.5057 96.7384 92.6177C96.1574 92.7671 96.1574 93.2526 96.7384 93.4767C96.9821 93.5701 97.2632 93.8875 97.3757 94.205C97.6193 94.8772 97.9005 94.9519 98.0692 94.3917C98.1441 94.1863 98.2566 94.0369 98.3128 94.0743C98.3341 94.0849 98.4055 94.1182 98.5144 94.169L98.5145 94.169C98.7885 94.2968 99.2999 94.5353 99.8497 94.8025C100.618 95.176 101.462 95.5682 101.686 95.6615C102.099 95.8109 101.968 95.923 100.187 96.9687C93.2336 101.04 87.5733 107.37 84.4059 114.578C83.9186 115.661 83.4875 116.334 83.0377 116.707C81.8944 117.659 79.6452 120.367 79.1205 121.431C78.8393 122.01 78.2396 122.907 77.771 123.43C77.3212 123.952 76.8339 124.625 76.6652 124.905C76.5152 125.204 76.3653 125.409 76.3091 125.372C76.2716 125.316 76.3278 124.401 76.459 123.336C76.7402 120.853 76.7402 120.199 76.5152 120.143C76.1779 120.05 75.6906 121.357 75.4844 122.981C75.3345 123.971 75.297 125.465 75.3907 126.996L75.5031 129.424L74.1724 127.276C73.7143 126.557 73.2632 125.839 72.9431 125.328L72.9426 125.328L72.9422 125.327L72.9415 125.326L72.941 125.325C72.7383 125.002 72.5885 124.763 72.5231 124.662C72.0358 123.952 71.7546 122.888 71.9608 122.533C72.0733 122.328 72.0545 122.234 71.8671 122.234C71.4735 122.234 70.7051 123.486 70.199 124.923C69.9554 125.596 69.7117 126.156 69.6367 126.156C69.3556 126.156 69.4868 119.471 69.7867 117.323C70.4052 113.084 72.0358 107.856 72.7667 107.856C72.9167 107.856 73.0479 107.781 73.0479 107.669C73.0479 107.333 72.5606 107.463 72.167 107.893C71.2861 108.845 70.124 111.777 69.3931 114.896C68.887 117.043 68.5684 119.807 68.456 122.813C68.3622 125.409 68.3997 125.839 68.7746 127.258C69.2057 128.845 69.543 129.312 70.124 129.088C70.3302 129.013 70.4239 128.733 70.4239 128.21C70.4239 127.799 70.6488 126.567 70.93 125.465L71.4173 123.486L71.6234 124.307C71.8858 125.26 73.4227 128.21 74.8097 130.358C75.7655 131.814 75.7843 131.908 76.1029 134.186C76.2716 135.474 76.7964 138.608 78.0146 143.429C79.0911 147.689 85.1424 151.915 86.6533 152.97L86.6535 152.97L86.6542 152.97L86.6546 152.971L86.6549 152.971L86.6554 152.971L86.6555 152.971C86.8533 153.109 86.9728 153.193 86.9923 153.214C87.1798 153.42 87.4421 153.532 87.5921 153.476C87.7608 153.42 87.8545 153.494 87.8545 153.7C87.8545 153.887 87.9857 154.129 88.1356 154.241C88.323 154.372 88.4542 154.876 88.4917 155.754C88.5854 157.509 89.8974 160.871 90.9095 161.972C91.5655 162.682 92.9337 162.981 94.4519 162.719C95.4452 162.57 95.7264 162.458 95.6326 162.234C95.5764 162.084 95.9325 162.271 96.4198 162.645C102.118 166.977 107.89 169.573 114.375 170.693C116.887 171.123 121.048 171.365 123.315 171.197C125.321 171.067 125.321 171.067 125.227 171.459C125.096 171.982 125.265 172.299 128.02 176.949C130.213 180.628 130.4 180.87 132.837 183.354C138.01 188.676 143.651 192.803 150.042 195.996C156.059 198.984 165.664 201.468 174.445 202.252C183.226 203.036 189.533 195.006 189.514 192.952C189.477 190.133 189.083 188.284 188.127 186.491C187.19 184.755 186.571 184.157 183.76 182.29C180.63 180.217 178.7 178.517 177.425 176.706C176.619 175.567 176.319 174.279 176.319 173.588C176.319 173.139 176.9 172.131 177.762 171.926C178.55 171.72 178.7 171.739 179.58 172.168C180.105 172.411 181.473 173.046 182.598 173.588C183.741 174.11 184.847 174.633 185.072 174.745C185.735 174.929 186.015 176.222 186.167 176.923C186.201 177.08 186.229 177.207 186.253 177.285C186.515 178.256 187.757 179.51 188.558 179.937C189.965 180.686 193.432 180.787 194.387 179.759C194.631 179.498 195.439 179.177 195.605 179.274C195.772 179.371 196.374 180.179 196.374 180.833C196.393 181.953 196.974 182.981 198.211 184.008C200.553 185.95 202.371 186.417 204.208 185.558C205.164 185.109 205.947 184.934 205.947 184.934C205.947 184.934 206.729 185.928 206.776 186.267C207.144 188.92 211.087 190.033 212.136 190.145C212.377 190.169 212.845 190.066 213.32 189.962L213.32 189.962C213.956 189.823 214.605 189.681 214.741 189.834C215.009 190.135 210.262 197.957 209.606 198.947C203.365 208.284 191.22 213.998 176.357 214.595C166.704 214.988 154.84 212.298 144.551 207.406C137.972 204.25 132.143 200.385 125.902 194.969C124.815 194.035 123.559 192.971 123.109 192.598C122.659 192.243 121.591 191.029 120.766 189.909C119.379 188.041 118.592 187.369 118.592 188.004C118.592 188.284 119.492 190.002 120.523 191.701C120.935 192.373 121.197 192.84 121.104 192.766C121.01 192.691 120.71 194.035 120.429 195.753C119.511 201.262 117.992 206.696 116.456 210.076C115.612 211.906 113.995 213.273 113.508 213.646C111.708 215.01 109.015 215.622 105.285 215.996C100.562 216.463 93.6084 215.417 88.3043 213.438C86.8986 212.915 83.2813 211.402 83.0377 211.234C83.023 211.22 82.94 210.682 82.8241 209.932L82.7755 209.618L82.719 209.255C82.0443 204.642 81.1072 186.883 81.1072 178.667C81.1072 175.268 81.0697 174.521 80.8448 174.521C80.3762 174.521 80.1888 174.969 79.9826 176.575C79.5141 180.235 79.6078 199.339 80.1138 203.354L80.2263 204.269L79.589 203.914C78.6144 203.354 74.9034 199.6 73.6102 197.864C72.5153 196.379 71.8646 194.477 71.3778 193.055L71.3778 193.055C71.2645 192.724 71.1602 192.419 71.0612 192.151C68.3435 184.644 69.2994 176.221 73.0479 168.639C76.2341 162.178 80.1513 158.592 85.8865 156.856C86.8236 156.576 87.6483 156.277 87.742 156.202C88.0981 155.866 85.8115 156.034 84.5558 156.426C80.4699 157.677 76.1966 161.095 73.2915 165.464C69.2057 171.589 67.3689 180.628 68.6621 188.34C68.962 190.17 70.1803 194.129 70.5176 194.409C70.5475 194.439 70.7016 194.761 70.9348 195.248L70.9348 195.248C71.5794 196.596 72.8279 199.205 73.7226 200.385C74.8097 201.86 78.0896 205.072 79.4578 206.061L80.32 206.678L80.4512 208.19C80.6948 211.085 80.7885 211.346 82.1005 212.317C85.3805 214.801 91.8466 217.116 97.6943 217.938C100.412 218.311 106.316 218.181 108.565 217.695ZM171.915 200.16C161.025 199.208 147.868 194.035 138.347 186.043C134.336 182.663 129.125 176.09 127.064 172.448C126.633 171.701 126.314 171.347 125.939 171.253C125.546 171.141 125.883 171.029 127.495 170.768C134.298 169.61 140.914 166.79 146.256 162.775L147.043 162.196L147.268 162.738C147.774 163.952 149.723 165.184 151.167 165.184C151.748 165.184 153.697 164.307 154.878 163.504L155.684 162.962L156.34 163.616C156.939 164.213 157.052 164.251 158.176 164.251C159.47 164.251 161.025 163.672 161.887 162.85L162.356 162.421L163.687 163.298C164.399 163.802 166.386 164.904 168.091 165.782C170.64 167.089 173.339 168.602 175.907 170.17L176.319 170.432L175.926 170.954C175.513 171.515 174.745 172.579 174.745 174.204C174.745 176.034 176.655 179.322 180.311 181.58C183.184 183.354 188.127 186.843 187.939 191.944C187.917 192.56 187.227 194.091 186.309 195.473C185.709 196.351 184.041 197.658 182.523 198.424C179.936 199.712 175.382 200.459 171.915 200.16ZM71.979 116.333C72.4851 116.446 72.8224 116.614 72.7475 116.688C72.5038 116.931 71.2106 116.819 70.9107 116.52C70.4421 116.072 70.5546 115.755 71.2106 115.624C71.5479 115.568 72.054 115.288 72.3351 115.008C72.6163 114.728 72.8599 114.597 72.8599 114.69C72.8599 114.933 71.9228 115.792 71.4542 115.979C71.1544 116.109 71.2481 116.165 71.979 116.333ZM79.4386 116.632C79.9821 116.333 79.8697 116.128 79.2324 116.221C78.5952 116.315 78.5577 116.24 78.97 115.605C79.1387 115.362 79.2324 115.008 79.1949 114.821C79.1387 114.578 79.0075 114.69 78.7076 115.288C78.4827 115.717 78.1641 116.072 78.0142 116.072C77.5456 116.072 77.5081 116.446 77.9579 116.614C78.5389 116.856 78.9888 116.856 79.4386 116.632ZM72.9541 106.436C72.5043 106.511 71.0986 107.071 69.8616 107.688C68.6058 108.285 67.5375 108.789 67.4625 108.771C65.5508 108.565 68.2122 105.391 73.0478 102.141C77.6772 99.0228 80.8072 97.3795 83.7123 96.5392C85.5304 96.0164 87.5733 95.9417 88.1543 96.3712C88.4729 96.6139 88.3605 96.6326 86.9735 96.6513C83.9747 96.6513 80.5074 98.1825 74.8658 101.936C71.942 103.878 68.5496 106.66 68.5496 107.109C68.5496 107.202 69.0931 107.015 69.7679 106.716C71.2111 106.063 72.6917 105.727 73.3477 105.876C74.0412 106.063 73.8912 106.306 72.9541 106.436ZM80.2071 108.042C81.9689 107.688 82.0438 107.669 82.0438 107.482C82.0438 107.389 81.3691 107.295 80.5257 107.258L79.0076 107.202L80.4132 105.615C81.1817 104.737 82.0813 103.859 82.4 103.654C83.0934 103.206 83.1309 102.888 82.5686 102.702L82.1376 102.571L82.6061 102.403C82.8685 102.309 83.3558 102.272 83.6932 102.328C84.1992 102.403 84.3117 102.365 84.2555 102.104C84.1992 101.843 83.9931 101.787 83.0747 101.805C80.3945 101.843 79.2512 102.552 81.3504 102.888C81.9314 102.982 82.4187 103.131 82.4187 103.224C82.4187 103.299 82.325 103.374 82.2125 103.374C81.8564 103.374 78.8389 106.418 78.464 107.165C77.883 108.266 78.2016 108.434 80.2071 108.042ZM92.577 100.797C92.0335 100.834 91.9023 100.928 91.9398 101.189L91.9455 101.227C91.9666 101.365 91.9787 101.444 91.9477 101.469C91.9058 101.501 91.7852 101.433 91.5016 101.273L91.5016 101.273L91.4525 101.245C91.0963 101.058 91.0589 100.965 91.265 100.816C91.3962 100.703 91.7523 100.535 92.0335 100.479L92.5583 100.349L92.1647 99.9378C91.9585 99.6951 91.846 99.471 91.9023 99.3963C92.0522 99.2469 93.889 99.4523 94.1514 99.6577C94.2638 99.7511 94.4325 99.7324 94.545 99.6204C94.8074 99.3589 95.1635 99.5644 95.1635 99.9752C95.1635 100.199 95.1073 100.218 94.9386 100.05C94.7886 99.9005 94.6574 99.9005 94.4887 100.031C94.3388 100.162 94.2264 100.162 94.1326 100.013C94.0764 99.9192 93.7203 99.8258 93.3455 99.8258C92.9994 99.8258 92.8359 99.8258 92.8027 99.8916C92.7729 99.9505 92.8477 100.062 92.9893 100.274C93.2883 100.739 93.2706 100.741 92.5834 100.796L92.577 100.797ZM89.7288 95.8296C89.7288 95.5868 89.5039 95.1573 89.2227 94.8772L88.6979 94.3544L91.5093 94.4664C93.065 94.5411 94.8268 94.7092 95.4453 94.8772C96.0638 95.0266 96.776 95.1387 97.0384 95.1387C97.432 95.1387 97.357 95.064 96.626 94.6718C95.3515 94.0182 93.7209 93.7008 90.5909 93.4767C86.8424 93.2153 84.9494 93.5701 85.3055 94.5038C85.3618 94.6905 85.6617 94.7839 86.1115 94.7839C87.0299 94.7839 88.5293 95.3254 89.0353 95.8296C89.5788 96.3712 89.7288 96.3712 89.7288 95.8296ZM80.5825 145.278C82.1007 147.22 84.1061 149.424 85.0432 150.171C85.6055 150.619 86.0928 150.992 86.1303 150.992C86.1491 150.992 85.7367 150.133 85.2119 149.087C83.094 144.886 81.857 140.703 81.276 135.885C81.1448 134.821 80.9386 133.924 80.7137 133.551C80.2639 132.804 80.2639 131.833 80.7325 130.918C80.9761 130.432 81.1073 129.816 81.1073 129.144V128.117L80.2077 129.05C79.3268 129.965 78.4834 130.339 78.4834 129.779C78.4834 129.368 79.8703 127.388 80.6013 126.772C81.1823 126.287 81.2573 126.119 81.4447 124.662C81.5759 123.784 81.8758 122.234 82.1194 121.207C82.3818 120.18 82.5317 119.303 82.4943 119.265C82.3631 119.135 77.9586 124.175 77.3588 125.782C77.2271 126.135 76.8715 126.753 76.5904 127.127L76.1031 127.75C76.1031 127.75 76.2544 128.623 76.4217 129.72C76.5907 130.829 76.6699 131.591 76.7406 132.269C76.835 133.177 76.914 133.936 77.1714 135.175C77.4713 136.707 77.7711 138.032 77.8461 138.126C77.9023 138.238 78.146 139.097 78.3896 140.049C78.9144 142.159 79.7953 144.251 80.5825 145.278ZM156.639 162.943L156.246 162.551C156.246 162.551 162.778 154.282 163.949 151.235C164.842 148.91 165.368 148.25 166.077 148.25C166.474 148.25 166.798 148.341 166.948 148.565C167.21 148.957 167.463 149.442 167.126 151.104C166.563 153.793 165.701 155.567 163.115 159.395C162.515 160.273 161.747 161.244 161.409 161.58C160.622 162.309 158.851 163.056 157.82 163.224C157.164 163.317 156.977 163.28 156.639 162.943Z" fill="#2C2C2E"/>
<path fill-rule="evenodd" clip-rule="evenodd" d="M100.787 163.867C105.922 167.098 111.217 169.208 117.252 169.787C122.013 170.235 128.432 169.619 133.042 168.125C136.922 166.873 142.17 163.408 145.675 160.476C152.478 154.799 156.771 145.932 158.645 136.52C158.907 135.194 159.307 131.861 159.289 128.556C159.289 124.709 157.589 114.197 152.441 108.136C141.822 95.6343 124.368 90.0027 109.698 94.8145C104.406 96.5503 98.7722 99.6951 94.5177 103.803C89.1573 109.013 85.2026 116.109 83.6282 123.355C81.9789 131.011 84.1244 140.161 87.8541 147.668C90.8342 153.644 95.7448 160.674 100.787 163.867ZM150.829 141.301C147.306 151.851 138.122 159.732 126.576 162.122C124.815 162.477 123.596 162.607 121.122 162.645C119.379 162.701 117.636 162.682 117.28 162.645C109.202 161.674 103.054 158.705 97.3942 153.065C94.9202 150.581 93.8706 149.237 92.3337 146.585C89.916 142.384 88.6227 138.089 88.2291 132.916C86.8797 115.194 99.6059 100.423 117.524 98.8922C124.552 98.2946 132.349 100.442 138.272 104.625C140.465 106.175 144.438 110.097 145.675 111.927C146.181 112.655 151.092 119.807 151.954 123.915C153.06 129.256 152.629 135.941 150.829 141.301Z" fill="white"/>
<path fill-rule="evenodd" clip-rule="evenodd" d="M159.295 128.556C159.295 141.09 153.344 154.793 145.665 160.645C142.001 163.438 137.212 166.818 133.042 168.125C126.932 170.039 117.252 169.787 117.252 169.787C117.252 169.787 127.127 168.471 130.787 167.004C141.28 162.796 147.008 156.338 150.546 150.14C157.528 137.907 159.295 128.252 159.295 128.556Z" fill="#E5E5EA"/>
<path fill-rule="evenodd" clip-rule="evenodd" d="M117.467 160.404C112.463 159.769 107.496 157.995 103.485 155.362C101.105 153.812 97.5065 150.171 95.7635 147.575C93.2707 143.84 91.6214 139.844 90.8154 135.549C90.2344 132.43 90.2531 127.631 90.8342 124.849C91.4339 122.01 92.2024 119.844 93.5706 117.099C95.1637 113.925 96.8505 111.59 99.3808 109.069C103.692 104.774 108.696 102.048 114.656 100.741C116.586 100.33 123.577 99.9939 123.821 100.311C123.877 100.405 124.252 100.647 124.646 100.853C125.039 101.077 126.089 101.861 126.951 102.627C128.244 103.747 128.825 104.457 129.95 106.212C130.718 107.407 131.337 108.491 131.337 108.584C131.337 108.789 131.937 109.163 132.274 109.163C132.742 109.163 133.061 107.762 133.155 105.297C133.211 103.934 133.324 102.814 133.398 102.814C133.661 102.814 136.547 104.401 137.897 105.297C140.539 107.053 143.182 109.518 145.131 112.095C146.012 113.252 146.143 113.551 146.143 114.261C146.143 114.914 146.331 115.419 146.912 116.427C148.374 118.967 149.517 122.16 150.211 125.689C150.66 128.061 150.66 132.542 150.192 135.026C148.917 141.861 145.131 148.658 140.202 152.972C136.022 156.613 131.58 158.854 126.333 159.956C124.533 160.348 119.135 160.609 117.467 160.404ZM104.067 147.631C104.235 147.444 104.348 147.164 104.292 147.033C104.275 146.994 104.04 146.884 103.697 146.723C102.896 146.348 101.504 145.696 100.9 145.017C98.5013 142.29 97.6204 140.255 97.0769 136.053C96.5521 131.964 96.993 129.199 97.939 124.755C98.4005 122.588 99.6272 120.797 100.39 119.684C100.909 118.926 101.214 118.482 100.918 118.444C100.187 118.332 100.075 118.388 99.3062 119.116C97.6568 120.685 96.9071 121.936 96.1199 124.345C94.9017 128.117 94.6663 138.311 97.0769 142.906C99.4875 147.502 103.636 148.116 104.067 147.631ZM130.718 131.945C130.4 134.846 129.05 139.041 127.476 140.871C126.745 141.73 124.062 143.205 121.797 142.906C119.609 142.618 117.898 141.599 116.437 139.414C115.181 137.528 114.532 135.239 114.094 132.356C113.337 127.377 116.643 121.581 118.067 120.143C119.51 118.668 120.541 118.145 121.853 118.126C123.128 118.126 123.952 118.406 125.246 119.321C127.607 120.965 131.337 126.308 130.718 131.945ZM105.453 116.502C105.828 116.072 105.885 115.867 105.772 115.064C105.697 114.317 105.547 114.018 105.154 113.701C104.46 113.14 103.598 113.14 102.961 113.738C102.511 114.167 102.455 114.317 102.511 115.344C102.567 116.446 102.605 116.52 103.223 116.856C104.048 117.305 104.854 117.174 105.453 116.502ZM117.149 104.98C113.775 107.389 112.313 108.379 110.795 109.312C109.596 110.059 109.221 110.078 109.221 109.406C109.221 109.051 109.483 108.659 110.158 108.042L111.095 107.183L109.277 106.941C107.234 106.679 105.247 106.119 104.816 105.689C104.104 104.961 104.723 104.793 106.747 105.167C107.646 105.316 109.389 105.503 110.626 105.54L112.876 105.633L114.506 104.457C118.086 101.88 121.797 100.423 123.578 100.872C124.683 101.133 124.552 101.432 123.296 101.581C121.853 101.749 120.972 102.235 117.149 104.98Z" fill="white"/>
<path d="M121.965 140.348C121.965 140.255 122.078 140.161 122.228 140.161C122.378 140.161 122.565 140.255 122.621 140.348C122.678 140.46 122.565 140.535 122.359 140.535C122.134 140.535 121.965 140.46 121.965 140.348Z" fill="white"/>
<path d="M123.09 140.18C123.09 139.975 123.559 139.788 124.083 139.788C124.496 139.807 124.496 139.807 124.14 140.068C123.727 140.385 123.09 140.441 123.09 140.18Z" fill="white"/>
<path d="M120.185 139.695C120.129 139.545 120.054 139.284 119.998 139.134C119.942 138.948 120.035 138.854 120.279 138.854C120.485 138.854 120.654 138.966 120.654 139.116C120.654 139.265 120.71 139.508 120.766 139.676C120.841 139.881 120.785 139.975 120.579 139.975C120.41 139.975 120.223 139.844 120.185 139.695Z" fill="white"/>
<path d="M121.178 139.228C121.085 138.667 121.291 138.481 121.966 138.481C122.172 138.481 122.34 138.667 122.415 138.985C122.565 139.526 122.322 139.788 121.666 139.788C121.366 139.788 121.235 139.657 121.178 139.228Z" fill="white"/>
<path d="M119.267 139.321C118.911 139.041 118.911 139.041 119.304 139.041C119.548 139.041 119.717 139.153 119.717 139.321C119.717 139.657 119.717 139.657 119.267 139.321Z" fill="white"/>
<path d="M123.034 139.302C122.79 139.06 122.903 138.331 123.203 138.219C123.746 138.014 123.99 138.107 124.102 138.593C124.177 138.873 124.215 139.116 124.177 139.134C124.027 139.302 123.146 139.414 123.034 139.302Z" fill="white"/>
<path d="M124.702 138.91C124.646 138.854 124.59 138.611 124.59 138.387C124.59 138.07 124.74 137.939 125.19 137.846C125.583 137.771 125.827 137.808 125.939 137.958C126.127 138.257 126.127 138.63 125.958 138.723C125.621 138.91 124.833 139.022 124.702 138.91Z" fill="white"/>
<path d="M118.405 138.331C118.405 138.107 118.573 137.92 118.817 137.864C119.304 137.734 119.286 137.715 119.379 138.201C119.417 138.481 119.323 138.593 118.93 138.63C118.517 138.686 118.405 138.611 118.405 138.331Z" fill="white"/>
<path d="M119.829 138.35C119.566 138.07 119.735 137.547 120.091 137.547C120.335 137.547 120.466 137.678 120.466 137.902C120.466 138.257 120.035 138.555 119.829 138.35Z" fill="white"/>
<path d="M120.954 137.79C120.804 137.435 121.122 137.173 121.741 137.173C122.022 137.173 122.153 137.286 122.153 137.528C122.153 137.734 121.984 137.92 121.741 137.995C121.122 138.145 121.085 138.145 120.954 137.79Z" fill="white"/>
<path d="M126.371 137.734C126.427 137.64 126.521 137.547 126.577 137.547C126.633 137.547 126.614 137.64 126.558 137.734C126.502 137.846 126.408 137.92 126.352 137.92C126.296 137.92 126.314 137.846 126.371 137.734Z" fill="white"/>
<path d="M122.641 137.416C122.491 137.043 122.678 136.856 123.278 136.763C123.615 136.725 123.765 136.8 123.803 137.061C123.934 137.678 122.866 138.014 122.641 137.416Z" fill="white"/>
<path d="M118.142 137.099C117.973 136.483 118.011 136.427 118.498 136.427C118.761 136.427 118.967 136.501 118.967 136.595C118.967 136.688 119.023 136.893 119.079 137.043C119.135 137.23 119.023 137.342 118.704 137.398C118.348 137.472 118.217 137.398 118.142 137.099Z" fill="white"/>
<path d="M124.402 136.893C124.402 136.557 124.533 136.408 124.89 136.315C125.414 136.184 125.714 136.445 125.714 137.043C125.714 137.286 125.564 137.36 125.058 137.36C124.477 137.36 124.402 137.304 124.402 136.893Z" fill="white"/>
<path d="M117.58 136.893C117.524 136.744 117.561 136.613 117.655 136.613C117.767 136.613 117.842 136.744 117.842 136.893C117.842 137.043 117.805 137.174 117.767 137.174C117.73 137.174 117.655 137.043 117.58 136.893Z" fill="white"/>
<path d="M119.473 137.043C119.211 136.8 119.361 136.277 119.698 136.184C119.904 136.128 120.11 136.147 120.167 136.203C120.392 136.408 120.26 136.949 119.979 137.062C119.623 137.192 119.623 137.192 119.473 137.043Z" fill="white"/>
<path d="M126.164 136.912C125.958 136.371 126.183 135.96 126.708 135.904C127.101 135.848 127.214 135.922 127.214 136.221C127.214 136.837 127.008 137.174 126.633 137.174C126.427 137.174 126.22 137.061 126.164 136.912Z" fill="white"/>
<path d="M120.785 136.669C120.56 136.464 120.635 136.09 120.953 135.978C121.31 135.848 122.059 136.221 121.853 136.427C121.591 136.651 120.916 136.819 120.785 136.669Z" fill="white"/>
<path d="M122.416 136.203C122.247 135.941 122.847 135.493 123.334 135.493C123.559 135.493 123.653 135.605 123.615 135.81C123.54 136.184 122.584 136.483 122.416 136.203Z" fill="white"/>
<path d="M117.28 136.072C117.28 135.978 117.224 135.773 117.167 135.605C117.111 135.437 117.13 135.306 117.242 135.306C117.486 135.306 117.673 136.016 117.448 136.165C117.355 136.221 117.28 136.184 117.28 136.072Z" fill="white"/>
<path d="M117.786 135.642C117.674 135.231 117.899 134.933 118.33 134.933C118.573 134.933 118.817 135.661 118.667 135.904C118.461 136.221 117.88 136.034 117.786 135.642Z" fill="white"/>
<path d="M119.098 135.736C118.817 135.456 118.986 134.783 119.361 134.69C119.642 134.615 119.792 134.709 119.942 135.045C120.054 135.288 120.11 135.53 120.073 135.568C119.885 135.736 119.211 135.866 119.098 135.736Z" fill="white"/>
<path d="M124.158 135.736C123.914 135.493 124.027 135.344 124.589 135.138C125.058 134.989 125.189 135.007 125.283 135.231C125.451 135.68 124.514 136.109 124.158 135.736Z" fill="white"/>
<path d="M125.807 135.306C125.62 135.007 125.882 134.746 126.37 134.746C126.951 134.746 127.119 135.231 126.595 135.381C126.032 135.53 125.939 135.512 125.807 135.306Z" fill="white"/>
<path d="M127.401 134.858C127.401 134.578 127.738 134.279 127.888 134.428C128.019 134.559 127.757 135.119 127.57 135.119C127.476 135.119 127.401 135.007 127.401 134.858Z" fill="white"/>
<path d="M117.036 134.615C116.961 134.559 116.905 134.316 116.924 134.111C116.924 133.756 116.943 133.756 117.111 134.167C117.299 134.615 117.261 134.839 117.036 134.615Z" fill="white"/>
<path d="M117.393 134.335C117.224 133.682 117.243 133.625 117.73 133.625C118.273 133.625 118.611 134.316 118.199 134.578C117.767 134.839 117.524 134.765 117.393 134.335Z" fill="white"/>
<path d="M123.839 134.709C123.839 134.653 123.933 134.354 124.046 134.018C124.308 133.271 124.889 133.233 125.02 133.962C125.076 134.242 125.095 134.485 125.076 134.503C124.983 134.615 123.839 134.783 123.839 134.709Z" fill="white"/>
<path d="M118.723 134.242C118.649 134.186 118.592 133.962 118.592 133.756C118.592 133.457 118.649 133.439 118.873 133.625C119.023 133.756 119.155 133.98 119.155 134.111C119.155 134.391 118.93 134.466 118.723 134.242Z" fill="white"/>
<path d="M125.471 133.868C125.359 133.289 125.602 133.028 126.183 133.103C126.464 133.14 126.558 133.308 126.558 133.719C126.558 134.186 126.483 134.298 126.071 134.335C125.658 134.391 125.565 134.298 125.471 133.868Z" fill="white"/>
<path d="M127.308 133.943C127.064 133.196 127.139 132.972 127.645 132.916C128.095 132.86 128.151 132.916 128.151 133.401C128.151 133.812 128.039 133.98 127.757 134.055C127.551 134.111 127.345 134.055 127.308 133.943Z" fill="white"/>
<path d="M116.755 132.879C116.755 132.524 116.792 132.374 116.849 132.561C116.886 132.729 116.886 133.028 116.849 133.215C116.792 133.383 116.755 133.233 116.755 132.879Z" fill="white"/>
<path d="M117.223 133.121C116.98 132.897 117.092 132.169 117.392 132.057C117.823 131.889 118.029 132.094 118.029 132.71C118.029 133.103 117.936 133.252 117.692 133.252C117.505 133.252 117.28 133.196 117.223 133.121Z" fill="white"/>
<path d="M118.348 132.617C118.273 132.337 118.236 132.038 118.311 131.982C118.498 131.795 118.611 132.094 118.554 132.636L118.498 133.159L118.348 132.617Z" fill="white"/>
<path d="M124.402 132.486C124.402 132.281 124.496 132.169 124.59 132.225C124.702 132.281 124.777 132.468 124.777 132.617C124.777 132.766 124.702 132.879 124.59 132.879C124.496 132.879 124.402 132.71 124.402 132.486Z" fill="white"/>
<path d="M125.246 132.729C124.983 132.449 125.189 131.945 125.62 131.833C126.164 131.702 126.183 131.702 126.351 132.244C126.464 132.58 126.389 132.654 125.901 132.729C125.602 132.785 125.302 132.767 125.246 132.729Z" fill="white"/>
<path d="M126.97 132.374C126.764 132.188 126.82 131.571 127.026 131.571C127.138 131.571 127.213 131.497 127.213 131.385C127.213 131.291 127.101 131.198 126.951 131.198C126.632 131.198 126.37 130.283 126.632 130.021C126.97 129.685 127.345 130.04 127.569 130.955C127.701 131.441 127.832 132.001 127.888 132.188C127.963 132.43 127.888 132.505 127.532 132.505C127.288 132.505 127.026 132.449 126.97 132.374Z" fill="white"/>
<path d="M127.982 131.385C127.851 130.824 127.513 129.704 127.27 128.882C126.895 127.687 126.857 127.388 127.063 127.258C127.195 127.164 127.363 127.09 127.42 127.09C127.626 127.09 128.375 130.918 128.3 131.665L128.244 132.412L127.982 131.385Z" fill="white"/>
<path d="M116.568 131.291C116.568 130.992 116.605 130.88 116.661 131.067C116.699 131.235 116.699 131.497 116.661 131.627C116.605 131.739 116.568 131.609 116.568 131.291Z" fill="white"/>
<path d="M116.943 131.254C117.018 130.6 117.561 130.451 117.711 131.048C117.843 131.534 117.88 131.478 117.318 131.665C116.924 131.777 116.887 131.739 116.943 131.254Z" fill="white"/>
<path d="M124.852 131.086C124.702 130.544 125.02 130.227 125.62 130.302C126.07 130.358 126.239 131.161 125.864 131.403C125.395 131.702 124.964 131.571 124.852 131.086Z" fill="white"/>
<path d="M118.03 130.936C118.03 130.619 118.123 130.451 118.33 130.451C118.517 130.451 118.592 130.582 118.554 130.862C118.461 131.459 118.03 131.515 118.03 130.936Z" fill="white"/>
<path d="M116.362 130.152C116.362 129.947 116.418 129.891 116.474 130.04C116.531 130.171 116.512 130.339 116.456 130.395C116.399 130.47 116.343 130.358 116.362 130.152Z" fill="white"/>
<path d="M116.718 130.096C116.718 129.816 116.83 129.704 117.111 129.704C117.374 129.704 117.467 129.797 117.43 130.021C117.336 130.507 116.718 130.563 116.718 130.096Z" fill="white"/>
<path d="M117.749 129.928C117.617 129.592 117.617 129.592 118.18 129.443C118.517 129.331 118.592 129.387 118.592 129.667C118.592 130.115 117.917 130.339 117.749 129.928Z" fill="white"/>
<path d="M124.534 129.667C124.403 129.2 124.646 128.957 125.302 128.957C125.621 128.957 125.715 129.069 125.715 129.424C125.715 129.704 125.602 129.891 125.452 129.891C125.302 129.891 125.059 129.947 124.909 130.003C124.74 130.059 124.609 129.947 124.534 129.667Z" fill="white"/>
<path d="M126.164 129.237C126.014 128.864 126.239 128.584 126.67 128.584C126.932 128.584 127.026 128.714 127.026 129.05C127.026 129.387 126.932 129.517 126.651 129.517C126.445 129.517 126.22 129.387 126.164 129.237Z" fill="white"/>
<path d="M116.531 128.976C116.531 128.584 116.962 128.135 117.149 128.341C117.224 128.397 117.28 128.658 117.28 128.901C117.28 129.2 117.168 129.33 116.906 129.33C116.662 129.33 116.531 129.2 116.531 128.976Z" fill="white"/>
<path d="M117.561 128.752C117.411 128.285 117.58 128.079 118.217 127.986C118.798 127.911 118.985 128.527 118.479 128.901C117.992 129.256 117.692 129.2 117.561 128.752Z" fill="white"/>
<path d="M124.346 128.64C124.215 128.528 124.158 127.837 124.271 127.837C124.289 127.837 124.571 127.762 124.908 127.669C125.47 127.5 125.508 127.519 125.489 128.023C125.47 128.397 125.358 128.584 125.077 128.658C124.571 128.789 124.496 128.789 124.346 128.64Z" fill="white"/>
<path d="M123.653 128.211C123.653 128.079 123.709 128.023 123.784 128.079C123.84 128.154 123.84 128.267 123.784 128.342C123.709 128.398 123.653 128.342 123.653 128.211Z" fill="white"/>
<path d="M125.751 127.911C125.808 127.594 126.389 127.127 126.52 127.276C126.576 127.332 126.67 127.556 126.726 127.799C126.857 128.173 126.801 128.21 126.276 128.21C125.826 128.21 125.695 128.135 125.751 127.911Z" fill="white"/>
<path d="M116.718 127.893C116.718 127.799 116.811 127.613 116.905 127.463C117.055 127.239 117.092 127.258 117.092 127.613C117.092 127.837 117.017 128.023 116.905 128.023C116.811 128.023 116.718 127.967 116.718 127.893Z" fill="white"/>
<path d="M117.28 127.482C117.28 126.959 117.674 126.791 117.974 127.183C118.161 127.463 118.161 127.557 117.974 127.687C117.58 127.93 117.28 127.855 117.28 127.482Z" fill="white"/>
<path d="M122.978 127.239C122.64 126.866 122.64 126.847 122.959 126.959C123.146 127.034 123.39 127.09 123.484 127.09C123.577 127.09 123.652 127.22 123.652 127.37C123.652 127.762 123.39 127.725 122.978 127.239Z" fill="white"/>
<path d="M118.949 127.22C118.143 126.604 118.03 125.222 118.78 125.222C119.286 125.222 119.755 126.007 119.68 126.735C119.623 127.407 119.398 127.556 118.949 127.22Z" fill="white"/>
<path d="M124.084 127.333C124.159 127.276 124.272 127.276 124.346 127.333C124.403 127.407 124.346 127.464 124.215 127.464C124.084 127.464 124.028 127.407 124.084 127.333Z" fill="white"/>
<path d="M126.914 126.604C126.97 126.436 127.026 126.268 127.026 126.231C127.026 126.193 127.12 126.156 127.214 126.156C127.326 126.156 127.401 126.324 127.401 126.529C127.401 126.754 127.27 126.903 127.101 126.903C126.895 126.903 126.839 126.81 126.914 126.604Z" fill="white"/>
<path d="M117.093 126.548C117.093 126.119 117.486 125.409 117.711 125.409C118.105 125.409 117.824 126.604 117.411 126.679C117.243 126.716 117.093 126.66 117.093 126.548Z" fill="white"/>
<path d="M121.31 126.343L120.747 126.212L121.253 126.081C121.778 125.932 122.153 126.044 122.153 126.361C122.153 126.548 122.134 126.548 121.31 126.343Z" fill="white"/>
<path d="M120.654 125.446C120.654 124.681 121.085 124.569 121.479 125.241C121.741 125.689 121.76 125.783 121.516 125.783C121.366 125.783 121.123 125.839 120.954 125.895C120.729 125.988 120.654 125.876 120.654 125.446Z" fill="white"/>
<path d="M123.915 125.708C123.072 125.334 122.528 124.345 122.528 123.168C122.528 122.328 122.603 122.122 123.109 121.656C123.428 121.357 123.746 121.114 123.84 121.114C124.252 121.114 125.771 122.552 126.277 123.448L126.858 124.475L126.239 125.129C125.527 125.876 124.74 126.081 123.915 125.708Z" fill="white"/>
<path d="M119.998 125.222C119.941 125.129 119.979 125.036 120.073 125.036C120.185 125.036 120.279 125.129 120.279 125.222C120.279 125.334 120.241 125.409 120.204 125.409C120.148 125.409 120.054 125.334 119.998 125.222Z" fill="white"/>
<path d="M117.542 124.923C117.599 124.755 117.655 124.587 117.655 124.55C117.655 124.513 117.823 124.475 118.03 124.475C118.498 124.475 118.517 124.774 118.048 125.035C117.542 125.297 117.411 125.278 117.542 124.923Z" fill="white"/>
<path d="M119.023 124.699C118.592 124.643 118.461 124.401 118.742 124.233C118.817 124.177 119.155 124.083 119.492 124.008C119.998 123.896 120.092 123.934 120.092 124.251C120.092 124.643 119.698 124.811 119.023 124.699Z" fill="white"/>
<path d="M120.467 124.064C120.467 123.84 120.485 123.71 120.523 123.747C120.542 123.784 120.691 123.971 120.823 124.158C121.048 124.419 121.029 124.475 120.766 124.475C120.579 124.475 120.467 124.326 120.467 124.064Z" fill="white"/>
<path d="M117.842 123.934C117.842 123.822 117.936 123.691 118.029 123.635C118.142 123.579 118.217 123.654 118.217 123.803C118.217 123.971 118.142 124.102 118.029 124.102C117.936 124.102 117.842 124.027 117.842 123.934Z" fill="white"/>
<path d="M118.536 123.654C118.386 123.28 119.716 122.869 119.941 123.224C120.11 123.523 119.941 123.654 119.229 123.803C118.798 123.896 118.611 123.859 118.536 123.654Z" fill="white"/>
<path d="M120.298 123.056C120.298 122.851 120.354 122.795 120.41 122.944C120.466 123.075 120.448 123.243 120.391 123.299C120.335 123.374 120.279 123.261 120.298 123.056Z" fill="white"/>
<path d="M118.705 122.757C118.93 122.347 119.586 121.674 119.755 121.674C119.942 121.674 119.961 122.552 119.773 122.664C119.68 122.701 119.38 122.795 119.099 122.869C118.686 122.963 118.593 122.944 118.705 122.757Z" fill="white"/>
<path d="M120.204 122.328C119.998 121.768 120.092 121.525 120.541 121.45C121.01 121.357 121.01 121.357 120.71 121.936C120.335 122.683 120.354 122.683 120.204 122.328Z" fill="white"/>
<path d="M120.091 121.207C120.091 121.17 120.466 120.909 120.935 120.647C121.497 120.311 121.891 120.199 122.172 120.274C122.509 120.386 122.415 120.46 121.591 120.853C120.672 121.263 120.091 121.413 120.091 121.207Z" fill="white"/>
<path d="M130.494 104.662C129.988 103.934 128.919 102.758 128.151 102.048C127.382 101.338 126.876 100.76 127.026 100.76C127.439 100.76 130.587 101.619 131.374 101.955C132.03 102.235 132.049 102.272 131.881 102.851C131.787 103.187 131.712 104.027 131.712 104.718C131.712 105.428 131.656 105.988 131.581 105.988C131.487 105.988 131.018 105.391 130.494 104.662Z" fill="white"/>
<path d="M92.3524 161.225C91.584 160.833 91.4153 160.609 90.4407 158.686C89.035 155.959 88.9975 155.324 90.3282 156.874C90.853 157.491 92.0713 158.76 93.0272 159.694C94.6578 161.263 94.7327 161.375 94.1892 161.3C93.7956 161.244 93.6457 161.281 93.7394 161.431C93.9643 161.767 93.2521 161.674 92.3524 161.225Z" fill="white"/>
<path fill-rule="evenodd" clip-rule="evenodd" d="M123.763 195.248C123.607 194.88 123.78 194.455 124.15 194.301L124.554 194.13C128.48 192.456 130.733 191.451 132.264 189.854C133.796 188.258 133.979 185.913 134.266 184.486C134.345 184.094 135.235 184.782 135.628 184.861C136.021 184.94 136.276 185.321 136.197 185.712C135.851 187.428 134.92 189.063 133.42 190.616C131.926 192.163 129.033 193.822 124.713 195.634C124.344 195.789 123.918 195.616 123.763 195.248Z" fill="#2C2C2E"/>
<path fill-rule="evenodd" clip-rule="evenodd" d="M141.517 120.739C141.862 120.535 142.307 120.647 142.512 120.99C144.565 124.427 145.665 128.355 145.665 132.442C145.665 144.823 135.591 154.86 123.164 154.86C119.862 154.86 116.659 154.15 113.727 152.799C113.363 152.631 111.988 151.295 113.373 151.839C114.757 152.382 120.112 153.601 123.203 153.601C134.828 153.601 143.052 144.024 143.052 132.442C143.052 128.617 141.517 125.222 141.265 121.73C141.236 121.325 141.173 120.943 141.517 120.739Z" fill="#2C2C2E"/>
<path fill-rule="evenodd" clip-rule="evenodd" d="M69.6319 175.472C69.8884 175.165 70.3461 174.545 70.6541 174.801C71.9177 175.85 73.2661 177.064 74.7085 177.299C76.2094 177.543 77.99 177.543 80.0479 177.295C80.4459 177.247 80.8076 177.529 80.8558 177.926C80.9039 178.322 80.6204 178.683 80.2224 178.731C78.037 178.994 76.1218 178.994 74.4747 178.726C72.769 178.449 71.1827 177.7 69.7251 176.491C69.417 176.235 69.3753 175.779 69.6319 175.472Z" fill="#2C2C2E"/>
<path d="M85.0433 150.171C84.1062 149.424 82.1008 147.22 80.5826 145.278C79.7954 144.251 78.9145 142.159 78.3897 140.049C78.1461 139.097 77.9024 138.238 77.8462 138.126C77.7712 138.032 77.4714 136.707 77.1715 135.175C76.7217 133.009 76.8168 132.311 76.4218 129.72C76.2545 128.623 76.1031 127.75 76.1031 127.75L76.5905 127.127C76.8716 126.753 77.2272 126.135 77.3589 125.782C77.9587 124.175 82.3632 119.135 82.4944 119.265C82.5318 119.303 82.3819 120.18 82.1195 121.207C81.8759 122.234 81.576 123.784 81.4448 124.662C81.2574 126.119 81.1824 126.287 80.6014 126.772C79.8704 127.388 78.4835 129.368 78.4835 129.779C78.4835 130.339 79.3269 129.965 80.2078 129.05L81.1074 128.117V129.144C81.1074 129.816 80.9762 130.432 80.7326 130.918C80.264 131.833 80.264 132.804 80.7138 133.551C80.9387 133.924 81.1449 134.821 81.2761 135.885C81.8571 140.703 83.0941 144.886 85.212 149.087C85.7368 150.133 86.1492 150.992 86.1304 150.992C86.0929 150.992 85.6056 150.619 85.0433 150.171Z" fill="white"/>
<path fill-rule="evenodd" clip-rule="evenodd" d="M163.031 161.692L164.38 162.29C164.66 162.419 167.747 163.896 171.455 165.672C177.433 168.533 185.026 172.168 185.072 172.168C185.147 172.168 185.499 171.358 185.578 170.413C185.766 168.378 186.459 165.614 187.265 163.69C187.64 162.831 187.94 161.758 187.94 161.664C187.94 161.622 187.635 161.499 187.136 161.299C186.542 161.06 185.673 160.711 184.716 160.254C179.993 157.995 170.753 153.382 169.61 152.692C168.485 152.038 168.26 151.982 168.26 152.411C168.26 152.972 167.117 155.567 166.236 156.968C165.767 157.733 164.849 159.115 164.193 160.03L163.031 161.692ZM184.753 168.807C185.291 169.117 184.36 169.573 184.135 169.647C182.81 169.759 181.251 169.511 179.974 168.77C179.306 168.298 174.047 165.387 170.558 163.456C168.963 162.573 167.738 161.895 167.491 161.748C166.704 161.281 165.954 160.777 165.823 160.628C165.43 160.124 165.804 159.9 166.91 159.993C167.575 160.049 183.592 168.137 184.753 168.807Z" fill="white"/>
<path d="M149.573 163.373C149.086 163.205 148.561 162.831 148.224 162.402L147.661 161.711L149.648 159.75C152.703 156.762 154.952 153.497 156.977 149.856C157.651 148.642 159.657 143.747 159.9 143.205C160.275 142.421 160.556 142.122 161.362 141.674C162.318 141.114 163.405 140.927 163.874 141.244C164.773 141.842 164.773 143.728 163.874 146.977C162.88 150.544 161.55 153.102 158.795 156.781C158.363 157.341 157.558 158.443 156.977 159.209C155.421 161.263 154.409 162.253 153.041 163.018C151.691 163.765 150.904 163.859 149.573 163.373Z" fill="white"/>
<path d="M156.639 162.943L156.246 162.551C156.246 162.551 162.778 154.282 163.949 151.235C164.842 148.91 165.368 148.25 166.077 148.25C166.474 148.25 166.798 148.341 166.948 148.565C167.21 148.957 167.463 149.442 167.126 151.104C166.563 153.793 165.701 155.567 163.115 159.395C162.515 160.273 161.746 161.244 161.409 161.58C160.622 162.309 158.851 163.056 157.82 163.224C157.164 163.317 156.977 163.28 156.639 162.943Z" fill="white"/>
<path fill-rule="evenodd" clip-rule="evenodd" d="M167.612 154.296C167.99 153.435 168.26 152.683 168.26 152.411C168.26 151.982 168.485 152.038 169.609 152.692C170.752 153.382 179.992 157.995 184.716 160.254C186.477 161.095 187.939 161.571 187.939 161.664C187.939 161.758 167.212 155.21 167.612 154.296Z" fill="#E5E5EA"/>
<path fill-rule="evenodd" clip-rule="evenodd" d="M103.485 155.362C101.105 153.812 97.5065 150.171 95.7635 147.575C93.2707 143.84 91.6214 139.844 90.8154 135.549C90.2344 132.43 90.2531 127.631 90.8342 124.849C91.4339 122.01 92.2024 119.844 93.5706 117.099C95.1637 113.925 96.8505 111.59 99.3808 109.069C101.862 106.597 90.8342 116.821 93.5706 135.112C95.7635 150.441 105.188 156.479 103.485 155.362Z" fill="#E5E5EA"/>
<path d="M30.136 41L24.482 26.326H20.566L14.89 41H18.454L19.378 38.514H25.67L26.572 41H30.136ZM24.812 35.764H20.236L22.524 29.45L24.812 35.764ZM36.3751 41.264C38.5531 41.264 39.8731 40.318 40.5771 39.328L38.7511 37.634C38.2451 38.338 37.4751 38.778 36.5071 38.778C34.8131 38.778 33.6251 37.524 33.6251 35.676C33.6251 33.828 34.8131 32.596 36.5071 32.596C37.4751 32.596 38.2451 32.992 38.7511 33.74L40.5771 32.024C39.8731 31.056 38.5531 30.11 36.3751 30.11C33.0971 30.11 30.7431 32.42 30.7431 35.676C30.7431 38.954 33.0971 41.264 36.3751 41.264ZM45.9676 41.264C47.1336 41.264 47.8816 40.956 48.2996 40.582L47.7056 38.47C47.5516 38.624 47.1556 38.778 46.7376 38.778C46.1216 38.778 45.7696 38.272 45.7696 37.612V32.816H47.9256V30.374H45.7696V27.47H42.9536V30.374H41.1936V32.816H42.9536V38.36C42.9536 40.252 44.0096 41.264 45.9676 41.264ZM51.2232 29.23C52.1472 29.23 52.8952 28.482 52.8952 27.558C52.8952 26.634 52.1472 25.908 51.2232 25.908C50.3212 25.908 49.5512 26.634 49.5512 27.558C49.5512 28.482 50.3212 29.23 51.2232 29.23ZM52.6312 41V30.374H49.8372V41H52.6312ZM61.1656 41L65.4336 30.374H62.4196L59.6476 37.766L56.8756 30.374H53.8836L58.1516 41H61.1656ZM68.0669 29.23C68.9909 29.23 69.7389 28.482 69.7389 27.558C69.7389 26.634 68.9909 25.908 68.0669 25.908C67.1649 25.908 66.3949 26.634 66.3949 27.558C66.3949 28.482 67.1649 29.23 68.0669 29.23ZM69.4749 41V30.374H66.6809V41H69.4749ZM75.8094 41.264C76.9754 41.264 77.7234 40.956 78.1414 40.582L77.5474 38.47C77.3934 38.624 76.9974 38.778 76.5794 38.778C75.9634 38.778 75.6114 38.272 75.6114 37.612V32.816H77.7674V30.374H75.6114V27.47H72.7954V30.374H71.0354V32.816H72.7954V38.36C72.7954 40.252 73.8514 41.264 75.8094 41.264ZM81.065 29.23C81.989 29.23 82.737 28.482 82.737 27.558C82.737 26.634 81.989 25.908 81.065 25.908C80.163 25.908 79.393 26.634 79.393 27.558C79.393 28.482 80.163 29.23 81.065 29.23ZM82.473 41V30.374H79.679V41H82.473ZM90.2374 41.264C91.8874 41.264 93.5594 40.758 94.6154 39.79L93.3834 37.986C92.7014 38.646 91.4474 39.042 90.5454 39.042C88.7414 39.042 87.6634 37.92 87.4874 36.578H95.3854V35.962C95.3854 32.486 93.2294 30.11 90.0614 30.11C86.8274 30.11 84.5614 32.596 84.5614 35.676C84.5614 39.086 87.0034 41.264 90.2374 41.264ZM92.6794 34.686H87.4434C87.5754 33.63 88.3234 32.332 90.0614 32.332C91.9094 32.332 92.6134 33.674 92.6794 34.686ZM101.232 41.264C104.18 41.264 105.83 39.79 105.83 37.854C105.83 33.564 99.5376 34.884 99.5376 33.3C99.5376 32.706 100.198 32.244 101.21 32.244C102.508 32.244 103.718 32.794 104.356 33.476L105.478 31.562C104.422 30.726 102.992 30.11 101.188 30.11C98.3936 30.11 96.8316 31.672 96.8316 33.454C96.8316 37.634 103.146 36.204 103.146 37.964C103.146 38.624 102.574 39.108 101.364 39.108C100.044 39.108 98.4596 38.382 97.6896 37.656L96.4796 39.614C97.6016 40.648 99.3836 41.264 101.232 41.264Z" fill="white"/>
</g>
<defs>
<clipPath id="clip0">
<rect width="179.5" height="256.52" rx="8" fill="white"/>
</clipPath>
</defs>
</svg>
