<svg width="180" height="257" viewBox="0 0 180 257" fill="none" xmlns="http://www.w3.org/2000/svg">
<g clip-path="url(#clip0)">
<rect width="179.348" height="256.52" rx="8" fill="#FE6250"/>
<path fill-rule="evenodd" clip-rule="evenodd" d="M148.9 231.888C169.929 231.888 188.383 216.303 178.019 195.135C167.656 173.967 206.163 174.65 217.475 160.02C231.27 142.178 227.275 66.4414 138.717 112.614C124.531 120.011 88.0984 105.005 76.0135 112.451C61.7885 121.215 41.7746 139.16 61.7885 157.543C71.6469 166.598 36.3021 190.101 51.7824 211.154C66.8873 231.696 77.4756 212.113 100.473 216.303C123.47 220.493 133.283 231.888 148.9 231.888Z" fill="white" fill-opacity="0.48"/>
<path d="M124.493 195.061C124.493 195.061 129.335 192.792 131.142 191.213C132.95 189.635 135.197 185.712 135.197 185.712C135.197 185.712 159.882 203.474 175.978 200.941C179.686 200.357 186.912 197.901 187.373 193.574C188.631 181.757 171.222 178.738 175.025 172.745C177.346 169.088 184.557 174.531 184.557 174.531L214.467 189.189C214.467 189.189 204.134 214.567 179.058 215.584C148.212 216.835 124.493 195.061 124.493 195.061Z" fill="white"/>
<path fill-rule="evenodd" clip-rule="evenodd" d="M100.779 95.677C100.498 95.5672 98.9906 93.728 97.0766 93.3932C96.2069 93.2411 96.9963 94.3445 96.0391 94.3544C93.1883 94.384 88.5555 93.8504 87.6972 94.3544C87.0594 94.7279 88.4641 96.0324 87.6972 96.0923C80.4617 96.6574 69.4233 103.855 67.0284 107.347C66.2662 108.459 72.4304 106.573 71.4483 107.123C70.3459 107.739 69.1234 111.777 68.3924 114.896C67.8864 117.043 67.5677 119.807 67.4553 122.813C67.3616 125.409 67.3991 125.839 67.7739 127.258C68.205 128.845 68.5424 129.312 69.1234 129.088C69.3295 129.013 69.4233 128.733 69.4233 128.21C69.4233 127.799 69.6482 126.567 69.9293 125.465L70.4166 123.486L70.6228 124.307C70.8852 125.26 72.4221 128.21 73.809 130.358C73.8838 130.472 74.2056 130.327 74.4959 129.628C74.7603 128.991 74.653 127.973 75.1022 126.883C76.1256 124.399 78.135 121.17 80.4617 118.584C83.9003 114.764 85.0412 110.342 88.2645 106.793C94.2799 100.169 101.83 96.088 100.779 95.677Z" fill="white"/>
<path fill-rule="evenodd" clip-rule="evenodd" d="M71.5339 108.024C70.569 108.797 69.1366 115.068 69.112 115.173C68.606 117.32 68.1182 124.778 68.6168 126.19C69.1154 127.601 70.5116 122.512 70.5116 122.512C70.5116 122.512 72.622 127.972 74.4867 129.469C74.5663 129.533 72.2702 122.714 71.5339 118.733C70.562 113.478 72.0831 107.584 71.5339 108.024Z" fill="#E5E5EA"/>
<path fill-rule="evenodd" clip-rule="evenodd" d="M107.5 217.849C109.3 217.457 112.336 216.091 113.498 215.624C114.66 215.157 118.202 210.174 119.477 204.553C120.395 200.408 120.864 194.507 120.339 193.517C120.262 193.377 119.978 190.693 120.733 191.569C122.41 193.517 124.402 196.575 130.685 191.096C132.396 189.603 134.664 187.678 134.067 185.975C132.396 181.211 125.152 171.619 124.048 170.892C122.728 170.024 116.054 170.762 106.123 167.841C94.8599 164.529 90.17 154.776 85.7624 156.046C82.198 157.072 73.6579 163.382 71.5146 167.378C61.3961 186.241 73.6579 199.459 76.4504 203.256L79.1617 204.423L79.2554 206.831L79.3866 208.344C79.6303 211.238 79.724 211.5 81.0359 212.471C84.3159 214.955 90.7821 217.27 96.6297 218.092C99.3474 218.465 105.251 218.335 107.5 217.849Z" fill="white"/>
<path fill-rule="evenodd" clip-rule="evenodd" d="M80.2284 205.95L80.3596 207.462C80.6032 210.357 80.6969 210.618 82.0089 211.589C83.9439 213.054 86.9877 214.461 90.3592 215.537C92.7028 216.285 95.2048 216.873 97.6027 217.21C100.32 217.584 106.224 217.453 108.473 216.967C109.585 216.727 100.441 209.57 95.0537 211.589C90.9167 213.14 81.166 201.309 85.1305 198.218C89.5778 194.751 81.4284 181.075 81.166 178.106C80.9036 175.137 79.8702 174.428 79.8401 174.532C79.8099 174.636 79.8099 174.992 79.891 175.847C80.2407 179.537 80.2284 205.95 80.2284 205.95Z" fill="#E5E5EA"/>
<path fill-rule="evenodd" clip-rule="evenodd" d="M148.573 163.373C148.086 163.205 147.561 162.831 147.224 162.402L146.661 161.711L148.648 159.75C151.703 156.762 154.046 153.7 156.07 150.059C156.745 148.845 158.45 144.793 158.45 144.4C158.45 144.27 158.657 143.747 158.9 143.205C159.275 142.421 159.556 142.122 160.362 141.674C161.318 141.114 162.405 140.927 162.874 141.244C163.773 141.842 163.773 143.728 162.874 146.977C161.88 150.544 160.55 153.102 157.794 156.781C157.363 157.341 156.557 158.443 155.976 159.209C154.421 161.263 153.409 162.253 152.04 163.018C150.691 163.765 149.904 163.859 148.573 163.373ZM162.031 161.692L163.38 162.29C163.66 162.419 166.747 163.896 170.455 165.672C176.433 168.534 184.026 172.168 184.072 172.168C184.147 172.168 184.499 171.358 184.578 170.413C184.765 168.378 185.459 165.614 186.265 163.69C186.64 162.831 186.94 161.758 186.94 161.664C186.94 161.622 186.635 161.499 186.136 161.299C185.542 161.06 184.673 160.711 183.716 160.254C178.993 157.995 169.753 153.382 168.609 152.692C167.485 152.038 167.26 151.982 167.26 152.411C167.26 152.972 166.117 155.567 165.236 156.968C164.767 157.733 163.849 159.115 163.193 160.03L162.031 161.692ZM183.753 168.807C184.29 169.117 183.359 169.573 183.134 169.647C181.81 169.759 180.251 169.511 178.974 168.77C178.306 168.298 173.046 165.387 169.558 163.456C167.963 162.573 166.738 161.895 166.491 161.748C165.704 161.281 164.954 160.777 164.823 160.628C164.429 160.124 164.804 159.9 165.91 159.993C166.575 160.049 182.592 168.137 183.753 168.807ZM107.565 217.695C109.011 217.38 111.255 216.436 112.684 215.836L112.685 215.835C113.034 215.688 113.334 215.562 113.562 215.47C114.725 215.004 118.267 210.02 119.541 204.399C120.46 200.254 120.928 194.353 120.404 193.363C120.087 192.79 121.967 194.713 123.367 196.145L123.367 196.145C123.791 196.579 124.172 196.968 124.433 197.229C132.605 205.314 144.769 211.813 157.401 214.857C163.699 216.388 168.178 216.93 174.195 216.93C184.297 216.93 192.262 214.95 199.497 210.599C199.841 210.392 200.163 210.203 200.47 210.021C202.992 208.534 204.494 207.648 208.606 203.036C213.218 197.864 217.321 185.856 218.689 181.711C219.289 179.843 220.751 172.416 220.751 170.562C220.751 168.368 219.983 167.332 218.933 166.267C217.078 164.456 214.566 163.802 212.486 164.587L211.511 164.96L211.211 163.971C210.78 162.477 209.88 161.281 208.493 160.385C206.432 159.022 206.132 158.929 204.276 158.929C202.833 158.929 202.44 159.003 201.521 159.433L200.453 159.918L200.228 159.246C199.797 157.864 198.351 155.938 197.229 155.381C196.234 154.886 194.512 154.841 193.312 155.063C190.688 155.549 188.814 156.762 188.045 158.462C187.82 158.985 187.539 159.395 187.427 159.395C187.333 159.395 183.641 158.368 179.236 156.426C178.493 156.097 177.796 155.789 177.14 155.5C169.231 152.007 167.516 151.25 167.672 150.301C167.803 149.498 167.766 149.05 167.541 148.359C167.147 147.201 166.698 146.884 165.423 146.884C164.411 146.884 164.411 146.884 164.523 146.38C165.123 143.523 165.104 141.879 164.467 140.834C164.036 140.143 163.53 139.863 162.368 139.695C161.693 139.601 161.375 139.657 160.625 140.068C160.119 140.329 159.688 140.516 159.65 140.479C159.613 140.441 159.744 139.414 159.95 138.201C161.487 129.218 160.3 121.479 156.383 113.263C156.345 113.185 156.302 113.093 156.253 112.987L156.252 112.986L156.252 112.985C155.061 110.438 150.273 100.195 136.578 95.0266C135.958 94.7927 135.372 94.5665 134.808 94.3491C130.143 92.5501 127.042 91.3541 119.56 91.3666C111.174 91.3805 108.333 92.5617 102.804 95.0826C102.036 95.4375 101.361 95.6429 101.305 95.5682C101.249 95.4748 100.893 95.2507 100.536 95.064C100.18 94.8772 99.4119 94.4104 98.8496 94.0369C97.2377 92.9538 96.2444 92.5057 95.7383 92.6177C95.1573 92.7671 95.1573 93.2526 95.7383 93.4767C95.982 93.5701 96.2631 93.8875 96.3756 94.205C96.6192 94.8772 96.9004 94.9519 97.069 94.3917C97.144 94.1863 97.2565 94.0369 97.3127 94.0743C97.334 94.0849 97.4054 94.1182 97.5143 94.169L97.5144 94.169C97.7884 94.2968 98.2998 94.5353 98.8496 94.8025C99.618 95.176 100.461 95.5682 100.686 95.6615C101.099 95.8109 100.967 95.923 99.187 96.9687C92.2335 101.04 86.5732 107.37 83.4057 114.578C82.9184 115.661 82.4873 116.334 82.0375 116.707C80.8942 117.659 78.6451 120.367 78.1203 121.431C77.8392 122.01 77.2394 122.907 76.7709 123.43C76.3211 123.952 75.8337 124.625 75.6651 124.905C75.5151 125.204 75.3652 125.409 75.309 125.372C75.2715 125.316 75.3277 124.401 75.4589 123.336C75.74 120.853 75.74 120.199 75.5151 120.143C75.1778 120.05 74.6905 121.357 74.4843 122.981C74.3343 123.971 74.2969 125.465 74.3906 126.996L74.503 129.424L73.1723 127.276C72.7142 126.557 72.2631 125.839 71.943 125.328L71.9424 125.328L71.942 125.327L71.9413 125.326L71.9408 125.325C71.7382 125.002 71.5883 124.763 71.523 124.662C71.0357 123.952 70.7545 122.888 70.9607 122.533C71.0731 122.328 71.0544 122.234 70.867 122.234C70.4734 122.234 69.7049 123.486 69.1989 124.923C68.9552 125.596 68.7116 126.156 68.6366 126.156C68.3555 126.156 68.4867 119.471 68.7866 117.323C69.4051 113.084 71.0357 107.856 71.7666 107.856C71.9166 107.856 72.0478 107.781 72.0478 107.669C72.0478 107.333 71.5604 107.463 71.1669 107.893C70.286 108.845 69.1239 111.777 68.393 114.896C67.8869 117.043 67.5683 119.807 67.4558 122.813C67.3621 125.409 67.3996 125.839 67.7745 127.258C68.2055 128.845 68.5429 129.312 69.1239 129.088C69.3301 129.013 69.4238 128.733 69.4238 128.21C69.4238 127.799 69.6487 126.567 69.9298 125.465L70.4172 123.486L70.6233 124.307C70.8857 125.26 72.4226 128.21 73.8096 130.358C74.7654 131.814 74.7842 131.908 75.1028 134.186C75.2715 135.474 75.7963 138.608 77.0145 143.429C78.0909 147.689 84.1423 151.915 85.6532 152.97L85.6533 152.97L85.6541 152.97L85.6545 152.971L85.6548 152.971L85.6552 152.971L85.6554 152.971C85.8532 153.109 85.9726 153.193 85.9922 153.214C86.1796 153.42 86.442 153.532 86.592 153.476C86.7606 153.42 86.8544 153.494 86.8544 153.7C86.8544 153.887 86.9856 154.129 87.1355 154.241C87.3229 154.372 87.4541 154.876 87.4916 155.754C87.5853 157.509 88.8973 160.871 89.9094 161.972C90.5654 162.682 91.9336 162.981 93.4517 162.719C94.4451 162.57 94.7262 162.458 94.6325 162.234C94.5763 162.084 94.9324 162.271 95.4197 162.645C101.117 166.977 106.89 169.573 113.375 170.693C115.887 171.123 120.047 171.365 122.315 171.197C124.321 171.067 124.321 171.067 124.227 171.459C124.096 171.982 124.264 172.299 127.02 176.949C129.213 180.628 129.4 180.87 131.836 183.354C137.009 188.676 142.651 192.803 149.042 195.996C155.058 198.984 164.664 201.468 173.445 202.252C182.226 203.036 188.533 195.006 188.514 192.952C188.476 190.133 188.083 188.284 187.127 186.491C186.19 184.755 185.571 184.157 182.76 182.29C179.63 180.217 177.699 178.517 176.425 176.706C175.619 175.567 175.319 174.279 175.319 173.588C175.319 173.139 175.9 172.131 176.762 171.926C177.55 171.72 177.699 171.739 178.58 172.168C179.105 172.411 180.473 173.046 181.598 173.588C182.741 174.11 183.847 174.633 184.072 174.745C184.735 174.929 185.015 176.222 185.167 176.923C185.201 177.08 185.229 177.207 185.253 177.285C185.515 178.256 186.757 179.51 187.558 179.937C188.965 180.686 192.431 180.787 193.387 179.759C193.631 179.498 194.439 179.177 194.605 179.274C194.772 179.371 195.374 180.179 195.374 180.833C195.392 181.953 195.973 182.981 197.21 184.008C199.553 185.95 201.371 186.417 203.208 185.558C204.164 185.109 204.947 184.934 204.947 184.934C204.947 184.934 205.729 185.928 205.776 186.267C206.144 188.92 210.086 190.033 211.136 190.145C211.377 190.169 211.845 190.066 212.32 189.962L212.32 189.962C212.956 189.823 213.605 189.681 213.741 189.834C214.009 190.135 209.262 197.957 208.606 198.947C202.365 208.284 190.219 213.998 175.357 214.595C165.704 214.988 153.84 212.298 143.551 207.406C136.972 204.25 131.143 200.385 124.902 194.969C123.815 194.035 122.559 192.971 122.109 192.598C121.659 192.243 120.591 191.029 119.766 189.909C118.379 188.041 117.592 187.369 117.592 188.004C117.592 188.284 118.492 190.002 119.523 191.701C119.935 192.373 120.197 192.84 120.104 192.766C120.01 192.691 119.71 194.035 119.429 195.753C118.511 201.262 116.992 206.696 115.455 210.076C114.612 211.906 112.995 213.273 112.508 213.646C110.708 215.01 108.015 215.622 104.285 215.996C99.5618 216.463 92.6083 215.417 87.3042 213.438C85.8985 212.915 82.2812 211.402 82.0375 211.234C82.0229 211.22 81.9399 210.682 81.824 209.932L81.7754 209.618L81.7189 209.255C81.0442 204.642 80.107 186.883 80.107 178.667C80.107 175.268 80.0696 174.521 79.8447 174.521C79.3761 174.521 79.1887 174.969 78.9825 176.575C78.5139 180.235 78.6076 199.339 79.1137 203.354L79.2261 204.269L78.5889 203.914C77.6143 203.354 73.9033 199.6 72.61 197.864C71.5152 196.379 70.8645 194.477 70.3777 193.055L70.3776 193.055C70.2644 192.724 70.1601 192.419 70.061 192.151C67.3434 184.644 68.2992 176.221 72.0478 168.639C75.234 162.178 79.1512 158.592 84.8864 156.856C85.8235 156.576 86.6482 156.277 86.7419 156.202C87.098 155.866 84.8114 156.034 83.5557 156.426C79.4698 157.677 75.1965 161.095 72.2914 165.464C68.2055 171.589 66.3688 180.628 67.662 188.34C67.9619 190.17 69.1801 194.129 69.5175 194.409C69.5474 194.439 69.7015 194.761 69.9347 195.248L69.9347 195.248C70.5793 196.596 71.8278 199.205 72.7225 200.385C73.8096 201.86 77.0895 205.072 78.4577 206.061L79.3199 206.678L79.4511 208.19C79.6947 211.085 79.7884 211.346 81.1004 212.317C84.3803 214.801 90.8465 217.116 96.6942 217.938C99.4119 218.311 105.316 218.181 107.565 217.695ZM170.915 200.16C160.025 199.208 146.868 194.035 137.347 186.043C133.336 182.663 128.125 176.09 126.064 172.448C125.633 171.701 125.314 171.347 124.939 171.253C124.545 171.141 124.883 171.029 126.495 170.768C133.298 169.61 139.914 166.79 145.256 162.775L146.043 162.196L146.268 162.738C146.774 163.952 148.723 165.184 150.167 165.184C150.748 165.184 152.697 164.307 153.878 163.504L154.683 162.962L155.339 163.616C155.939 164.213 156.052 164.251 157.176 164.251C158.469 164.251 160.025 163.672 160.887 162.85L161.356 162.421L162.687 163.298C163.399 163.802 165.385 164.904 167.091 165.782C169.64 167.089 172.339 168.602 174.907 170.17L175.319 170.432L174.925 170.954C174.513 171.515 173.745 172.579 173.745 174.204C173.745 176.034 175.655 179.322 179.311 181.58C182.184 183.354 187.127 186.843 186.939 191.944C186.917 192.56 186.227 194.091 185.309 195.473C184.709 196.351 183.041 197.658 181.523 198.424C178.936 199.712 174.382 200.459 170.915 200.16ZM70.9789 116.333C71.485 116.446 71.8223 116.614 71.7474 116.688C71.5037 116.931 70.2105 116.819 69.9106 116.52C69.442 116.072 69.5545 115.755 70.2105 115.624C70.5478 115.568 71.0539 115.288 71.335 115.008C71.6162 114.728 71.8598 114.597 71.8598 114.69C71.8598 114.933 70.9227 115.792 70.4541 115.979C70.1542 116.109 70.2479 116.165 70.9789 116.333ZM78.4385 116.632C78.982 116.333 78.8695 116.128 78.2323 116.221C77.5951 116.315 77.5576 116.24 77.9699 115.605C78.1386 115.362 78.2323 115.008 78.1948 114.821C78.1386 114.578 78.0074 114.69 77.7075 115.288C77.4826 115.717 77.164 116.072 77.014 116.072C76.5455 116.072 76.508 116.446 76.9578 116.614C77.5388 116.856 77.9886 116.856 78.4385 116.632ZM71.954 106.436C71.5042 106.511 70.0985 107.071 68.8615 107.688C67.6057 108.285 66.5374 108.789 66.4624 108.771C64.5507 108.565 67.2121 105.391 72.0477 102.141C76.6771 99.0228 79.8071 97.3795 82.7122 96.5392C84.5302 96.0164 86.5732 95.9417 87.1542 96.3712C87.4728 96.6139 87.3604 96.6326 85.9734 96.6513C82.9746 96.6513 79.5072 98.1825 73.8657 101.936C70.9419 103.878 67.5495 106.66 67.5495 107.109C67.5495 107.202 68.093 107.015 68.7678 106.716C70.2109 106.063 71.6916 105.727 72.3476 105.876C73.0411 106.063 72.8911 106.306 71.954 106.436ZM79.207 108.042C80.9688 107.688 81.0437 107.669 81.0437 107.482C81.0437 107.389 80.369 107.295 79.5256 107.258L78.0074 107.202L79.4131 105.615C80.1816 104.737 81.0812 103.859 81.3998 103.654C82.0933 103.206 82.1308 102.888 81.5685 102.702L81.1374 102.571L81.606 102.403C81.8684 102.309 82.3557 102.272 82.6931 102.328C83.1991 102.403 83.3116 102.365 83.2553 102.104C83.1991 101.843 82.9929 101.787 82.0746 101.805C79.3944 101.843 78.2511 102.552 80.3502 102.888C80.9313 102.982 81.4186 103.131 81.4186 103.224C81.4186 103.299 81.3249 103.374 81.2124 103.374C80.8563 103.374 77.8387 106.418 77.4639 107.165C76.8829 108.266 77.2015 108.434 79.207 108.042ZM91.5769 100.797C91.0334 100.834 90.9022 100.928 90.9396 101.189L90.9454 101.227C90.9664 101.365 90.9785 101.444 90.9476 101.469C90.9057 101.501 90.7851 101.433 90.5015 101.273L90.5015 101.273L90.4523 101.245C90.0962 101.058 90.0587 100.965 90.2649 100.816C90.3961 100.703 90.7522 100.535 91.0334 100.479L91.5581 100.349L91.1645 99.9378C90.9584 99.6951 90.8459 99.471 90.9022 99.3963C91.0521 99.2469 92.8889 99.4523 93.1513 99.6577C93.2637 99.7511 93.4324 99.7324 93.5449 99.6204C93.8072 99.3589 94.1634 99.5644 94.1634 99.9752C94.1634 100.199 94.1071 100.218 93.9384 100.05C93.7885 99.9005 93.6573 99.9005 93.4886 100.031C93.3387 100.162 93.2262 100.162 93.1325 100.013C93.0763 99.9192 92.7202 99.8258 92.3453 99.8258C91.9993 99.8258 91.8358 99.8258 91.8026 99.8916C91.7728 99.9505 91.8475 100.062 91.9892 100.274C92.2882 100.739 92.2705 100.741 91.5833 100.796L91.5769 100.797ZM88.7287 95.8296C88.7287 95.5868 88.5037 95.1573 88.2226 94.8772L87.6978 94.3544L90.5092 94.4664C92.0648 94.5411 93.8266 94.7092 94.4451 94.8772C95.0636 95.0266 95.7759 95.1387 96.0383 95.1387C96.4318 95.1387 96.3569 95.064 95.6259 94.6718C94.3514 94.0182 92.7208 93.7008 89.5908 93.4767C85.8423 93.2153 83.9493 93.5701 84.3054 94.5038C84.3616 94.6905 84.6615 94.7839 85.1114 94.7839C86.0297 94.7839 87.5291 95.3254 88.0352 95.8296C88.5787 96.3712 88.7287 96.3712 88.7287 95.8296ZM79.5824 145.278C81.1005 147.22 83.106 149.424 84.0431 150.171C84.6054 150.619 85.0927 150.992 85.1302 150.992C85.1489 150.992 84.7366 150.133 84.2118 149.087C82.0939 144.886 80.8569 140.703 80.2759 135.885C80.1447 134.821 79.9385 133.924 79.7136 133.551C79.2638 132.804 79.2638 131.833 79.7323 130.918C79.976 130.432 80.1072 129.816 80.1072 129.144V128.117L79.2075 129.05C78.3266 129.965 77.4832 130.339 77.4832 129.779C77.4832 129.368 78.8702 127.388 79.6011 126.772C80.1822 126.287 80.2571 126.119 80.4446 124.662C80.5758 123.784 80.8756 122.234 81.1193 121.207C81.3817 120.18 81.5316 119.303 81.4941 119.265C81.3629 119.135 76.9584 124.175 76.3587 125.782C76.227 126.135 75.8714 126.753 75.5902 127.127L75.1029 127.75C75.1029 127.75 75.2543 128.623 75.4216 129.72C75.5905 130.829 75.6698 131.591 75.7404 132.269C75.8349 133.177 75.9139 133.936 76.1713 135.175C76.4711 136.707 76.771 138.032 76.846 138.126C76.9022 138.238 77.1459 139.097 77.3895 140.049C77.9143 142.159 78.7952 144.251 79.5824 145.278ZM155.639 162.943L155.246 162.551C155.246 162.551 161.778 154.282 162.949 151.235C163.842 148.91 164.368 148.25 165.077 148.25C165.474 148.25 165.798 148.341 165.948 148.565C166.21 148.957 166.463 149.442 166.126 151.104C165.563 153.793 164.701 155.567 162.115 159.395C161.515 160.273 160.746 161.244 160.409 161.58C159.622 162.309 157.851 163.056 156.82 163.224C156.164 163.317 155.977 163.28 155.639 162.943Z" fill="#2C2C2E"/>
<path fill-rule="evenodd" clip-rule="evenodd" d="M99.7863 163.867C104.922 167.098 110.217 169.208 116.252 169.787C121.013 170.235 127.432 169.619 132.042 168.125C135.922 166.873 141.17 163.408 144.675 160.476C151.478 154.799 155.77 145.932 157.645 136.52C157.907 135.194 158.307 131.861 158.288 128.556C158.288 124.709 156.589 114.197 151.441 108.136C140.822 95.6343 123.367 90.0027 108.698 94.8145C103.406 96.5503 97.772 99.6951 93.5174 103.803C88.157 109.013 84.2024 116.109 82.628 123.355C80.9786 131.011 83.1241 140.161 86.8539 147.668C89.834 153.644 94.7445 160.674 99.7863 163.867ZM149.829 141.301C146.305 151.851 137.122 159.732 125.576 162.122C123.814 162.477 122.596 162.607 120.122 162.645C118.379 162.701 116.636 162.682 116.28 162.645C108.202 161.674 102.054 158.705 96.394 153.065C93.92 150.581 92.8704 149.237 91.3335 146.585C88.9157 142.384 87.6225 138.089 87.2289 132.916C85.8794 115.194 98.6056 100.423 116.523 98.8922C123.552 98.2946 131.349 100.442 137.271 104.625C139.464 106.175 143.438 110.097 144.675 111.927C145.181 112.655 150.091 119.807 150.954 123.915C152.059 129.256 151.628 135.941 149.829 141.301Z" fill="white"/>
<path fill-rule="evenodd" clip-rule="evenodd" d="M158.295 128.556C158.295 141.09 152.344 154.793 144.664 160.645C141 163.438 136.212 166.818 132.042 168.125C125.931 170.039 116.252 169.787 116.252 169.787C116.252 169.787 126.127 168.471 129.786 167.004C140.28 162.796 146.008 156.338 149.546 150.14C156.528 137.907 158.295 128.252 158.295 128.556Z" fill="#E5E5EA"/>
<path fill-rule="evenodd" clip-rule="evenodd" d="M116.467 160.404C111.463 159.769 106.496 157.995 102.485 155.362C100.105 153.812 96.5063 150.171 94.7632 147.575C92.2705 143.84 90.6211 139.844 89.8152 135.549C89.2342 132.43 89.2529 127.631 89.8339 124.849C90.4337 122.01 91.2021 119.844 92.5703 117.099C94.1634 113.925 95.8503 111.59 98.3805 109.069C102.691 104.774 107.696 102.048 113.656 100.741C115.586 100.33 122.577 99.9939 122.821 100.311C122.877 100.405 123.252 100.647 123.645 100.853C124.039 101.077 125.089 101.861 125.951 102.627C127.244 103.747 127.825 104.457 128.95 106.212C129.718 107.407 130.337 108.491 130.337 108.584C130.337 108.789 130.936 109.163 131.274 109.163C131.742 109.163 132.061 107.762 132.155 105.297C132.211 103.934 132.323 102.814 132.398 102.814C132.661 102.814 135.547 104.401 136.896 105.297C139.539 107.053 142.182 109.518 144.131 112.095C145.012 113.252 145.143 113.551 145.143 114.261C145.143 114.914 145.331 115.419 145.912 116.427C147.374 118.967 148.517 122.16 149.21 125.689C149.66 128.061 149.66 132.542 149.192 135.026C147.917 141.861 144.131 148.658 139.202 152.972C135.022 156.613 130.58 158.854 125.332 159.956C123.533 160.348 118.135 160.609 116.467 160.404ZM103.067 147.631C103.235 147.444 103.348 147.164 103.291 147.033C103.275 146.994 103.04 146.884 102.696 146.723C101.896 146.348 100.503 145.696 99.9001 145.017C97.5011 142.29 96.6202 140.255 96.0766 136.053C95.5518 131.964 95.9927 129.199 96.9388 124.755C97.4003 122.588 98.6269 120.797 99.3901 119.684C99.909 118.926 100.214 118.482 99.9178 118.444C99.1868 118.332 99.0744 118.388 98.3059 119.116C96.6566 120.685 95.9069 121.936 95.1197 124.345C93.9014 128.117 93.666 138.311 96.0766 142.906C98.4872 147.502 102.635 148.116 103.067 147.631ZM129.718 131.945C129.4 134.846 128.05 139.041 126.476 140.871C125.745 141.73 123.062 143.205 120.797 142.906C118.609 142.618 116.898 141.599 115.436 139.414C114.181 137.528 113.532 135.239 113.093 132.356C112.336 127.377 115.642 121.581 117.067 120.143C118.51 118.668 119.541 118.145 120.853 118.126C122.127 118.126 122.952 118.406 124.245 119.321C126.607 120.965 130.337 126.308 129.718 131.945ZM104.453 116.502C104.828 116.072 104.884 115.867 104.772 115.064C104.697 114.317 104.547 114.018 104.153 113.701C103.46 113.14 102.598 113.14 101.96 113.738C101.511 114.167 101.454 114.317 101.511 115.344C101.567 116.446 101.604 116.52 102.223 116.856C103.048 117.305 103.853 117.174 104.453 116.502ZM116.149 104.98C112.775 107.389 111.313 108.379 109.795 109.312C108.595 110.059 108.221 110.078 108.221 109.406C108.221 109.051 108.483 108.659 109.158 108.042L110.095 107.183L108.277 106.941C106.234 106.679 104.247 106.119 103.816 105.689C103.104 104.961 103.722 104.793 105.747 105.167C106.646 105.316 108.389 105.503 109.626 105.54L111.875 105.633L113.506 104.457C117.086 101.88 120.797 100.423 122.577 100.872C123.683 101.133 123.552 101.432 122.296 101.581C120.853 101.749 119.972 102.235 116.149 104.98Z" fill="white"/>
<path d="M120.965 140.348C120.965 140.255 121.078 140.161 121.228 140.161C121.378 140.161 121.565 140.255 121.621 140.348C121.678 140.46 121.565 140.535 121.359 140.535C121.134 140.535 120.965 140.46 120.965 140.348Z" fill="white"/>
<path d="M122.09 140.18C122.09 139.975 122.558 139.788 123.083 139.788C123.496 139.807 123.496 139.807 123.139 140.068C122.727 140.385 122.09 140.441 122.09 140.18Z" fill="white"/>
<path d="M119.185 139.695C119.129 139.545 119.054 139.284 118.998 139.134C118.942 138.948 119.035 138.854 119.279 138.854C119.485 138.854 119.654 138.966 119.654 139.116C119.654 139.265 119.71 139.508 119.766 139.676C119.841 139.881 119.785 139.975 119.579 139.975C119.41 139.975 119.223 139.844 119.185 139.695Z" fill="white"/>
<path d="M120.178 139.228C120.084 138.667 120.291 138.481 120.965 138.481C121.171 138.481 121.34 138.667 121.415 138.985C121.565 139.526 121.321 139.788 120.665 139.788C120.366 139.788 120.234 139.657 120.178 139.228Z" fill="white"/>
<path d="M118.267 139.321C117.911 139.041 117.911 139.041 118.304 139.041C118.548 139.041 118.717 139.153 118.717 139.321C118.717 139.657 118.717 139.657 118.267 139.321Z" fill="white"/>
<path d="M122.034 139.302C121.79 139.06 121.903 138.331 122.203 138.219C122.746 138.014 122.99 138.107 123.102 138.593C123.177 138.873 123.215 139.116 123.177 139.134C123.027 139.302 122.146 139.414 122.034 139.302Z" fill="white"/>
<path d="M123.702 138.91C123.646 138.854 123.59 138.611 123.59 138.387C123.59 138.07 123.74 137.939 124.189 137.846C124.583 137.771 124.827 137.808 124.939 137.958C125.126 138.257 125.126 138.63 124.958 138.723C124.62 138.91 123.833 139.022 123.702 138.91Z" fill="white"/>
<path d="M117.405 138.331C117.405 138.107 117.573 137.92 117.817 137.864C118.304 137.734 118.285 137.715 118.379 138.201C118.417 138.481 118.323 138.593 117.929 138.63C117.517 138.686 117.405 138.611 117.405 138.331Z" fill="white"/>
<path d="M118.829 138.35C118.566 138.07 118.735 137.547 119.091 137.547C119.335 137.547 119.466 137.678 119.466 137.902C119.466 138.257 119.035 138.555 118.829 138.35Z" fill="white"/>
<path d="M119.953 137.79C119.804 137.435 120.122 137.173 120.741 137.173C121.022 137.173 121.153 137.286 121.153 137.528C121.153 137.734 120.984 137.92 120.741 137.995C120.122 138.145 120.085 138.145 119.953 137.79Z" fill="white"/>
<path d="M125.371 137.734C125.427 137.64 125.521 137.547 125.577 137.547C125.633 137.547 125.614 137.64 125.558 137.734C125.502 137.846 125.408 137.92 125.352 137.92C125.296 137.92 125.314 137.846 125.371 137.734Z" fill="white"/>
<path d="M121.64 137.416C121.491 137.043 121.678 136.856 122.278 136.763C122.615 136.725 122.765 136.8 122.803 137.061C122.934 137.678 121.865 138.014 121.64 137.416Z" fill="white"/>
<path d="M117.142 137.099C116.973 136.483 117.011 136.427 117.498 136.427C117.761 136.427 117.967 136.501 117.967 136.595C117.967 136.688 118.023 136.893 118.079 137.043C118.135 137.23 118.023 137.342 117.704 137.398C117.348 137.472 117.217 137.398 117.142 137.099Z" fill="white"/>
<path d="M123.402 136.893C123.402 136.557 123.533 136.408 123.889 136.315C124.414 136.184 124.714 136.445 124.714 137.043C124.714 137.286 124.564 137.36 124.058 137.36C123.477 137.36 123.402 137.304 123.402 136.893Z" fill="white"/>
<path d="M116.58 136.893C116.524 136.744 116.561 136.613 116.655 136.613C116.767 136.613 116.842 136.744 116.842 136.893C116.842 137.043 116.805 137.174 116.767 137.174C116.73 137.174 116.655 137.043 116.58 136.893Z" fill="white"/>
<path d="M118.473 137.043C118.211 136.8 118.361 136.277 118.698 136.184C118.904 136.128 119.11 136.147 119.167 136.203C119.392 136.408 119.26 136.949 118.979 137.062C118.623 137.192 118.623 137.192 118.473 137.043Z" fill="white"/>
<path d="M125.164 136.912C124.958 136.371 125.183 135.96 125.708 135.904C126.101 135.848 126.214 135.922 126.214 136.221C126.214 136.837 126.008 137.174 125.633 137.174C125.427 137.174 125.22 137.061 125.164 136.912Z" fill="white"/>
<path d="M119.785 136.669C119.56 136.464 119.635 136.09 119.953 135.978C120.309 135.848 121.059 136.221 120.853 136.427C120.591 136.651 119.916 136.819 119.785 136.669Z" fill="white"/>
<path d="M121.416 136.203C121.247 135.941 121.847 135.493 122.334 135.493C122.559 135.493 122.653 135.605 122.615 135.81C122.54 136.184 121.584 136.483 121.416 136.203Z" fill="white"/>
<path d="M116.28 136.072C116.28 135.978 116.223 135.773 116.167 135.605C116.111 135.437 116.13 135.306 116.242 135.306C116.486 135.306 116.673 136.016 116.448 136.165C116.355 136.221 116.28 136.184 116.28 136.072Z" fill="white"/>
<path d="M116.786 135.642C116.674 135.231 116.899 134.933 117.33 134.933C117.573 134.933 117.817 135.661 117.667 135.904C117.461 136.221 116.88 136.034 116.786 135.642Z" fill="white"/>
<path d="M118.098 135.736C117.817 135.456 117.986 134.783 118.361 134.69C118.642 134.615 118.792 134.709 118.942 135.045C119.054 135.288 119.11 135.53 119.073 135.568C118.885 135.736 118.211 135.866 118.098 135.736Z" fill="white"/>
<path d="M123.158 135.736C122.914 135.493 123.027 135.344 123.589 135.138C124.058 134.989 124.189 135.007 124.282 135.231C124.451 135.68 123.514 136.109 123.158 135.736Z" fill="white"/>
<path d="M124.807 135.306C124.62 135.007 124.882 134.746 125.37 134.746C125.951 134.746 126.119 135.231 125.595 135.381C125.032 135.53 124.939 135.512 124.807 135.306Z" fill="white"/>
<path d="M126.401 134.858C126.401 134.578 126.738 134.279 126.888 134.428C127.019 134.559 126.757 135.119 126.57 135.119C126.476 135.119 126.401 135.007 126.401 134.858Z" fill="white"/>
<path d="M116.036 134.615C115.961 134.559 115.905 134.316 115.924 134.111C115.924 133.756 115.943 133.756 116.111 134.167C116.299 134.615 116.261 134.839 116.036 134.615Z" fill="white"/>
<path d="M116.392 134.335C116.224 133.682 116.242 133.625 116.73 133.625C117.273 133.625 117.611 134.316 117.198 134.578C116.767 134.839 116.524 134.765 116.392 134.335Z" fill="white"/>
<path d="M122.839 134.709C122.839 134.653 122.933 134.354 123.046 134.018C123.308 133.271 123.889 133.233 124.02 133.962C124.076 134.242 124.095 134.485 124.076 134.503C123.983 134.615 122.839 134.783 122.839 134.709Z" fill="white"/>
<path d="M117.723 134.242C117.649 134.186 117.592 133.962 117.592 133.756C117.592 133.457 117.649 133.439 117.873 133.625C118.023 133.756 118.155 133.98 118.155 134.111C118.155 134.391 117.93 134.466 117.723 134.242Z" fill="white"/>
<path d="M124.471 133.868C124.358 133.289 124.602 133.028 125.183 133.103C125.464 133.14 125.558 133.308 125.558 133.719C125.558 134.186 125.483 134.298 125.071 134.335C124.658 134.391 124.565 134.298 124.471 133.868Z" fill="white"/>
<path d="M126.307 133.943C126.064 133.196 126.139 132.972 126.645 132.916C127.095 132.86 127.151 132.916 127.151 133.401C127.151 133.812 127.038 133.98 126.757 134.055C126.551 134.111 126.345 134.055 126.307 133.943Z" fill="white"/>
<path d="M115.755 132.879C115.755 132.524 115.792 132.374 115.849 132.561C115.886 132.729 115.886 133.028 115.849 133.215C115.792 133.383 115.755 133.233 115.755 132.879Z" fill="white"/>
<path d="M116.223 133.121C115.98 132.897 116.092 132.169 116.392 132.057C116.823 131.889 117.029 132.094 117.029 132.71C117.029 133.103 116.936 133.252 116.692 133.252C116.504 133.252 116.28 133.196 116.223 133.121Z" fill="white"/>
<path d="M117.348 132.617C117.273 132.337 117.236 132.038 117.311 131.982C117.498 131.795 117.611 132.094 117.554 132.636L117.498 133.159L117.348 132.617Z" fill="white"/>
<path d="M123.402 132.486C123.402 132.281 123.496 132.169 123.59 132.225C123.702 132.281 123.777 132.468 123.777 132.617C123.777 132.766 123.702 132.879 123.59 132.879C123.496 132.879 123.402 132.71 123.402 132.486Z" fill="white"/>
<path d="M124.245 132.729C123.983 132.449 124.189 131.945 124.62 131.833C125.164 131.702 125.183 131.702 125.351 132.244C125.464 132.58 125.389 132.654 124.901 132.729C124.601 132.785 124.302 132.767 124.245 132.729Z" fill="white"/>
<path d="M125.97 132.374C125.763 132.188 125.82 131.571 126.026 131.571C126.138 131.571 126.213 131.497 126.213 131.385C126.213 131.291 126.101 131.198 125.951 131.198C125.632 131.198 125.37 130.283 125.632 130.021C125.97 129.685 126.344 130.04 126.569 130.955C126.701 131.441 126.832 132.001 126.888 132.188C126.963 132.43 126.888 132.505 126.532 132.505C126.288 132.505 126.026 132.449 125.97 132.374Z" fill="white"/>
<path d="M126.982 131.385C126.85 130.824 126.513 129.704 126.269 128.882C125.895 127.687 125.857 127.388 126.063 127.258C126.194 127.164 126.363 127.09 126.419 127.09C126.625 127.09 127.375 130.918 127.3 131.665L127.244 132.412L126.982 131.385Z" fill="white"/>
<path d="M115.567 131.291C115.567 130.992 115.605 130.88 115.661 131.067C115.699 131.235 115.699 131.497 115.661 131.627C115.605 131.739 115.567 131.609 115.567 131.291Z" fill="white"/>
<path d="M115.943 131.254C116.018 130.6 116.561 130.451 116.711 131.048C116.843 131.534 116.88 131.478 116.318 131.665C115.924 131.777 115.887 131.739 115.943 131.254Z" fill="white"/>
<path d="M123.852 131.086C123.702 130.544 124.02 130.227 124.62 130.302C125.07 130.358 125.239 131.161 124.864 131.403C124.395 131.702 123.964 131.571 123.852 131.086Z" fill="white"/>
<path d="M117.03 130.936C117.03 130.619 117.123 130.451 117.329 130.451C117.517 130.451 117.592 130.582 117.554 130.862C117.461 131.459 117.03 131.515 117.03 130.936Z" fill="white"/>
<path d="M115.362 130.152C115.362 129.947 115.418 129.891 115.474 130.04C115.53 130.171 115.512 130.339 115.455 130.395C115.399 130.47 115.343 130.358 115.362 130.152Z" fill="white"/>
<path d="M115.718 130.096C115.718 129.816 115.83 129.704 116.111 129.704C116.374 129.704 116.467 129.797 116.43 130.021C116.336 130.507 115.718 130.563 115.718 130.096Z" fill="white"/>
<path d="M116.748 129.928C116.617 129.592 116.617 129.592 117.179 129.443C117.517 129.331 117.592 129.387 117.592 129.667C117.592 130.115 116.917 130.339 116.748 129.928Z" fill="white"/>
<path d="M123.534 129.667C123.403 129.2 123.646 128.957 124.302 128.957C124.621 128.957 124.715 129.069 124.715 129.424C124.715 129.704 124.602 129.891 124.452 129.891C124.302 129.891 124.059 129.947 123.909 130.003C123.74 130.059 123.609 129.947 123.534 129.667Z" fill="white"/>
<path d="M125.164 129.237C125.014 128.864 125.239 128.584 125.67 128.584C125.932 128.584 126.026 128.714 126.026 129.05C126.026 129.387 125.932 129.517 125.651 129.517C125.445 129.517 125.22 129.387 125.164 129.237Z" fill="white"/>
<path d="M115.531 128.976C115.531 128.584 115.962 128.135 116.149 128.341C116.224 128.397 116.28 128.658 116.28 128.901C116.28 129.2 116.168 129.33 115.905 129.33C115.662 129.33 115.531 129.2 115.531 128.976Z" fill="white"/>
<path d="M116.561 128.752C116.411 128.285 116.58 128.079 117.217 127.986C117.798 127.911 117.985 128.527 117.479 128.901C116.992 129.256 116.692 129.2 116.561 128.752Z" fill="white"/>
<path d="M123.346 128.64C123.215 128.528 123.158 127.837 123.271 127.837C123.289 127.837 123.571 127.762 123.908 127.669C124.47 127.5 124.508 127.519 124.489 128.023C124.47 128.397 124.358 128.584 124.077 128.658C123.571 128.789 123.496 128.789 123.346 128.64Z" fill="white"/>
<path d="M122.653 128.211C122.653 128.079 122.709 128.023 122.784 128.079C122.84 128.154 122.84 128.267 122.784 128.342C122.709 128.398 122.653 128.342 122.653 128.211Z" fill="white"/>
<path d="M124.751 127.911C124.808 127.594 125.389 127.127 125.52 127.276C125.576 127.332 125.67 127.556 125.726 127.799C125.857 128.173 125.801 128.21 125.276 128.21C124.826 128.21 124.695 128.135 124.751 127.911Z" fill="white"/>
<path d="M115.718 127.893C115.718 127.799 115.811 127.613 115.905 127.463C116.055 127.239 116.092 127.258 116.092 127.613C116.092 127.837 116.017 128.023 115.905 128.023C115.811 128.023 115.718 127.967 115.718 127.893Z" fill="white"/>
<path d="M116.28 127.482C116.28 126.959 116.674 126.791 116.974 127.183C117.161 127.463 117.161 127.557 116.974 127.687C116.58 127.93 116.28 127.855 116.28 127.482Z" fill="white"/>
<path d="M121.978 127.239C121.64 126.866 121.64 126.847 121.959 126.959C122.146 127.034 122.39 127.09 122.484 127.09C122.577 127.09 122.652 127.22 122.652 127.37C122.652 127.762 122.39 127.725 121.978 127.239Z" fill="white"/>
<path d="M117.948 127.22C117.142 126.604 117.03 125.222 117.78 125.222C118.286 125.222 118.754 126.007 118.679 126.735C118.623 127.407 118.398 127.556 117.948 127.22Z" fill="white"/>
<path d="M123.084 127.333C123.159 127.276 123.271 127.276 123.346 127.333C123.403 127.407 123.346 127.464 123.215 127.464C123.084 127.464 123.028 127.407 123.084 127.333Z" fill="white"/>
<path d="M125.914 126.604C125.97 126.436 126.026 126.268 126.026 126.231C126.026 126.193 126.12 126.156 126.213 126.156C126.326 126.156 126.401 126.324 126.401 126.529C126.401 126.754 126.27 126.903 126.101 126.903C125.895 126.903 125.839 126.81 125.914 126.604Z" fill="white"/>
<path d="M116.093 126.548C116.093 126.119 116.486 125.409 116.711 125.409C117.105 125.409 116.823 126.604 116.411 126.679C116.242 126.716 116.093 126.66 116.093 126.548Z" fill="white"/>
<path d="M120.31 126.343L119.747 126.212L120.253 126.081C120.778 125.932 121.153 126.044 121.153 126.361C121.153 126.548 121.134 126.548 120.31 126.343Z" fill="white"/>
<path d="M119.654 125.446C119.654 124.681 120.085 124.569 120.478 125.241C120.741 125.689 120.76 125.783 120.516 125.783C120.366 125.783 120.122 125.839 119.954 125.895C119.729 125.988 119.654 125.876 119.654 125.446Z" fill="white"/>
<path d="M122.915 125.708C122.071 125.334 121.528 124.345 121.528 123.168C121.528 122.328 121.603 122.122 122.109 121.656C122.427 121.357 122.746 121.114 122.84 121.114C123.252 121.114 124.77 122.552 125.276 123.448L125.857 124.475L125.239 125.129C124.527 125.876 123.739 126.081 122.915 125.708Z" fill="white"/>
<path d="M118.998 125.222C118.941 125.129 118.979 125.036 119.073 125.036C119.185 125.036 119.279 125.129 119.279 125.222C119.279 125.334 119.241 125.409 119.204 125.409C119.148 125.409 119.054 125.334 118.998 125.222Z" fill="white"/>
<path d="M116.542 124.923C116.598 124.755 116.655 124.587 116.655 124.55C116.655 124.513 116.823 124.475 117.029 124.475C117.498 124.475 117.517 124.774 117.048 125.035C116.542 125.297 116.411 125.278 116.542 124.923Z" fill="white"/>
<path d="M118.023 124.699C117.592 124.643 117.461 124.401 117.742 124.233C117.817 124.177 118.154 124.083 118.492 124.008C118.998 123.896 119.092 123.934 119.092 124.251C119.092 124.643 118.698 124.811 118.023 124.699Z" fill="white"/>
<path d="M119.466 124.064C119.466 123.84 119.485 123.71 119.523 123.747C119.541 123.784 119.691 123.971 119.822 124.158C120.047 124.419 120.029 124.475 119.766 124.475C119.579 124.475 119.466 124.326 119.466 124.064Z" fill="white"/>
<path d="M116.842 123.934C116.842 123.822 116.936 123.691 117.029 123.635C117.142 123.579 117.217 123.654 117.217 123.803C117.217 123.971 117.142 124.102 117.029 124.102C116.936 124.102 116.842 124.027 116.842 123.934Z" fill="white"/>
<path d="M117.535 123.654C117.385 123.28 118.716 122.869 118.941 123.224C119.11 123.523 118.941 123.654 118.229 123.803C117.798 123.896 117.61 123.859 117.535 123.654Z" fill="white"/>
<path d="M119.297 123.056C119.297 122.851 119.354 122.795 119.41 122.944C119.466 123.075 119.447 123.243 119.391 123.299C119.335 123.374 119.279 123.261 119.297 123.056Z" fill="white"/>
<path d="M117.705 122.757C117.93 122.347 118.586 121.674 118.754 121.674C118.942 121.674 118.961 122.552 118.773 122.664C118.679 122.701 118.38 122.795 118.098 122.869C117.686 122.963 117.592 122.944 117.705 122.757Z" fill="white"/>
<path d="M119.204 122.328C118.998 121.768 119.092 121.525 119.541 121.45C120.01 121.357 120.01 121.357 119.71 121.936C119.335 122.683 119.354 122.683 119.204 122.328Z" fill="white"/>
<path d="M119.091 121.207C119.091 121.17 119.466 120.909 119.934 120.647C120.497 120.311 120.89 120.199 121.171 120.274C121.509 120.386 121.415 120.46 120.59 120.853C119.672 121.263 119.091 121.413 119.091 121.207Z" fill="white"/>
<path d="M129.493 104.662C128.987 103.934 127.919 102.758 127.151 102.048C126.382 101.338 125.876 100.76 126.026 100.76C126.438 100.76 129.587 101.619 130.374 101.955C131.03 102.235 131.049 102.272 130.88 102.851C130.787 103.187 130.712 104.027 130.712 104.718C130.712 105.428 130.655 105.988 130.581 105.988C130.487 105.988 130.018 105.391 129.493 104.662Z" fill="white"/>
<path d="M91.3523 161.225C90.5839 160.833 90.4152 160.609 89.4406 158.686C88.0349 155.959 87.9974 155.324 89.3281 156.874C89.8529 157.491 91.0712 158.76 92.0271 159.694C93.6577 161.263 93.7326 161.375 93.1891 161.3C92.7955 161.244 92.6456 161.281 92.7393 161.431C92.9642 161.767 92.252 161.674 91.3523 161.225Z" fill="white"/>
<path fill-rule="evenodd" clip-rule="evenodd" d="M122.763 195.248C122.607 194.88 122.781 194.455 123.15 194.301L123.554 194.13C127.48 192.456 129.733 191.451 131.265 189.854C132.796 188.258 132.979 185.913 133.267 184.486C133.346 184.094 134.235 184.782 134.628 184.861C135.021 184.94 135.276 185.321 135.197 185.712C134.851 187.428 133.92 189.063 132.42 190.616C130.926 192.163 128.033 193.822 123.713 195.634C123.344 195.789 122.918 195.616 122.763 195.248Z" fill="#2C2C2E"/>
<path fill-rule="evenodd" clip-rule="evenodd" d="M140.517 120.739C140.862 120.535 141.307 120.647 141.512 120.99C143.565 124.427 144.665 128.355 144.665 132.442C144.665 144.823 134.591 154.86 122.164 154.86C118.862 154.86 115.659 154.15 112.726 152.799C112.363 152.631 110.988 151.295 112.372 151.839C113.757 152.382 119.112 153.601 122.203 153.601C133.828 153.601 142.052 144.024 142.052 132.442C142.052 128.617 140.517 125.222 140.265 121.73C140.235 121.325 140.173 120.943 140.517 120.739Z" fill="#2C2C2E"/>
<path fill-rule="evenodd" clip-rule="evenodd" d="M68.632 175.472C68.8886 175.165 69.3462 174.545 69.6543 174.801C70.9178 175.85 72.2662 177.064 73.7086 177.299C75.2095 177.543 76.9901 177.543 79.0481 177.295C79.446 177.247 79.8077 177.529 79.8559 177.926C79.904 178.322 79.6205 178.683 79.2225 178.731C77.0371 178.994 75.1219 178.994 73.4748 178.726C71.7691 178.449 70.1828 177.7 68.7252 176.491C68.4172 176.235 68.3755 175.779 68.632 175.472Z" fill="#2C2C2E"/>
<path d="M84.0432 150.171C83.1061 149.424 81.1006 147.22 79.5825 145.278C78.7953 144.251 77.9144 142.159 77.3896 140.049C77.146 139.097 76.9023 138.238 76.8461 138.126C76.7711 138.032 76.4712 136.707 76.1714 135.175C75.7215 133.009 75.8167 132.311 75.4217 129.72C75.2544 128.623 75.103 127.75 75.103 127.75L75.5903 127.127C75.8715 126.753 76.2271 126.135 76.3588 125.782C76.9585 124.175 81.363 119.135 81.4942 119.265C81.5317 119.303 81.3818 120.18 81.1194 121.207C80.8757 122.234 80.5759 123.784 80.4447 124.662C80.2572 126.119 80.1823 126.287 79.6012 126.772C78.8703 127.388 77.4833 129.368 77.4833 129.779C77.4833 130.339 78.3267 129.965 79.2076 129.05L80.1073 128.117V129.144C80.1073 129.816 79.9761 130.432 79.7324 130.918C79.2639 131.833 79.2639 132.804 79.7137 133.551C79.9386 133.924 80.1448 134.821 80.276 135.885C80.857 140.703 82.094 144.886 84.2119 149.087C84.7367 150.133 85.149 150.992 85.1303 150.992C85.0928 150.992 84.6055 150.619 84.0432 150.171Z" fill="white"/>
<path fill-rule="evenodd" clip-rule="evenodd" d="M162.031 161.692L163.38 162.29C163.66 162.419 166.747 163.896 170.455 165.672C176.433 168.533 184.026 172.168 184.072 172.168C184.147 172.168 184.499 171.358 184.578 170.413C184.766 168.378 185.459 165.614 186.265 163.69C186.64 162.831 186.94 161.758 186.94 161.664C186.94 161.622 186.635 161.499 186.136 161.299C185.542 161.06 184.674 160.711 183.716 160.254C178.993 157.995 169.753 153.382 168.61 152.692C167.485 152.038 167.26 151.982 167.26 152.411C167.26 152.972 166.117 155.567 165.236 156.968C164.767 157.733 163.849 159.115 163.193 160.03L162.031 161.692ZM183.753 168.807C184.291 169.117 183.36 169.573 183.135 169.647C181.81 169.759 180.251 169.511 178.974 168.77C178.306 168.298 173.047 165.387 169.558 163.456C167.963 162.573 166.738 161.895 166.491 161.748C165.704 161.281 164.954 160.777 164.823 160.628C164.43 160.124 164.805 159.9 165.91 159.993C166.575 160.049 182.592 168.137 183.753 168.807Z" fill="white"/>
<path d="M148.573 163.373C148.086 163.205 147.561 162.831 147.224 162.402L146.662 161.711L148.648 159.75C151.703 156.762 153.952 153.497 155.977 149.856C156.651 148.642 158.657 143.747 158.901 143.205C159.275 142.421 159.556 142.122 160.362 141.674C161.318 141.114 162.405 140.927 162.874 141.244C163.774 141.842 163.774 143.728 162.874 146.977C161.881 150.544 160.55 153.102 157.795 156.781C157.364 157.341 156.558 158.443 155.977 159.209C154.421 161.263 153.409 162.253 152.041 163.018C150.691 163.765 149.904 163.859 148.573 163.373Z" fill="white"/>
<path d="M155.639 162.943L155.246 162.551C155.246 162.551 161.778 154.282 162.949 151.235C163.842 148.91 164.368 148.25 165.077 148.25C165.474 148.25 165.798 148.341 165.948 148.565C166.21 148.957 166.463 149.442 166.126 151.104C165.563 153.793 164.701 155.567 162.115 159.395C161.515 160.273 160.747 161.244 160.409 161.58C159.622 162.309 157.851 163.056 156.82 163.224C156.164 163.317 155.977 163.28 155.639 162.943Z" fill="white"/>
<path fill-rule="evenodd" clip-rule="evenodd" d="M166.612 154.296C166.99 153.435 167.26 152.683 167.26 152.411C167.26 151.982 167.485 152.038 168.609 152.692C169.753 153.382 178.993 157.995 183.716 160.254C185.478 161.095 186.939 161.571 186.939 161.664C186.939 161.758 166.212 155.21 166.612 154.296Z" fill="#E5E5EA"/>
<path fill-rule="evenodd" clip-rule="evenodd" d="M102.485 155.362C100.105 153.812 96.5065 150.171 94.7635 147.575C92.2707 143.84 90.6214 139.844 89.8154 135.549C89.2344 132.43 89.2531 127.631 89.8342 124.849C90.4339 122.01 91.2024 119.844 92.5706 117.099C94.1637 113.925 95.8505 111.59 98.3808 109.069C100.862 106.597 89.8342 116.821 92.5706 135.112C94.7635 150.441 104.188 156.479 102.485 155.362Z" fill="#E5E5EA"/>
<path d="M19.576 41V26.326H16.452V41H19.576ZM32.3891 41V33.498C32.3891 31.43 31.2671 30.11 28.9351 30.11C27.1971 30.11 25.8991 30.946 25.2171 31.76V30.374H22.4231V41H25.2171V33.85C25.6791 33.212 26.5371 32.596 27.6371 32.596C28.8251 32.596 29.5951 33.102 29.5951 34.576V41H32.3891ZM38.7273 41.264C39.8933 41.264 40.6413 40.956 41.0593 40.582L40.4653 38.47C40.3113 38.624 39.9153 38.778 39.4973 38.778C38.8813 38.778 38.5293 38.272 38.5293 37.612V32.816H40.6853V30.374H38.5293V27.47H35.7133V30.374H33.9533V32.816H35.7133V38.36C35.7133 40.252 36.7693 41.264 38.7273 41.264ZM47.5909 41.264C49.2409 41.264 50.9129 40.758 51.9689 39.79L50.7369 37.986C50.0549 38.646 48.8009 39.042 47.8989 39.042C46.0949 39.042 45.0169 37.92 44.8409 36.578H52.7389V35.962C52.7389 32.486 50.5829 30.11 47.4149 30.11C44.1809 30.11 41.9149 32.596 41.9149 35.676C41.9149 39.086 44.3569 41.264 47.5909 41.264ZM50.0329 34.686H44.7969C44.9289 33.63 45.6769 32.332 47.4149 32.332C49.2629 32.332 49.9669 33.674 50.0329 34.686ZM57.5511 41V33.982C58.0131 33.3 59.2451 32.772 60.1691 32.772C60.4771 32.772 60.7411 32.794 60.9391 32.838V30.11C59.6191 30.11 58.2991 30.88 57.5511 31.826V30.374H54.7571V41H57.5511ZM71.8588 41V34.136C71.8588 31.078 69.6368 30.11 67.2168 30.11C65.5448 30.11 63.8728 30.638 62.5748 31.782L63.6308 33.652C64.5328 32.816 65.5888 32.398 66.7328 32.398C68.1408 32.398 69.0648 33.102 69.0648 34.18V35.61C68.3608 34.774 67.1068 34.312 65.6988 34.312C64.0048 34.312 62.0028 35.258 62.0028 37.744C62.0028 40.12 64.0048 41.264 65.6988 41.264C67.0848 41.264 68.3388 40.758 69.0648 39.9V41H71.8588ZM66.8208 39.372C65.7208 39.372 64.8188 38.8 64.8188 37.81C64.8188 36.776 65.7208 36.204 66.8208 36.204C67.7228 36.204 68.6028 36.512 69.0648 37.128V38.448C68.6028 39.064 67.7228 39.372 66.8208 39.372ZM79.5801 41.264C81.7581 41.264 83.0781 40.318 83.7821 39.328L81.9561 37.634C81.4501 38.338 80.6801 38.778 79.7121 38.778C78.0181 38.778 76.8301 37.524 76.8301 35.676C76.8301 33.828 78.0181 32.596 79.7121 32.596C80.6801 32.596 81.4501 32.992 81.9561 33.74L83.7821 32.024C83.0781 31.056 81.7581 30.11 79.5801 30.11C76.3021 30.11 73.9481 32.42 73.9481 35.676C73.9481 38.954 76.3021 41.264 79.5801 41.264ZM89.1727 41.264C90.3387 41.264 91.0867 40.956 91.5047 40.582L90.9107 38.47C90.7567 38.624 90.3607 38.778 89.9427 38.778C89.3267 38.778 88.9747 38.272 88.9747 37.612V32.816H91.1307V30.374H88.9747V27.47H86.1587V30.374H84.3987V32.816H86.1587V38.36C86.1587 40.252 87.2147 41.264 89.1727 41.264Z" fill="white"/>
</g>
<defs>
<clipPath id="clip0">
<rect width="179.348" height="256.52" rx="8" fill="white"/>
</clipPath>
</defs>
</svg>
