<svg width="180" height="258" viewBox="0 0 180 258" fill="none" xmlns="http://www.w3.org/2000/svg">
<g clip-path="url(#clip0)">
<rect y="0.869568" width="179.348" height="256.522" rx="8" fill="#FFAB01"/>
<path fill-rule="evenodd" clip-rule="evenodd" d="M114.202 14.8626C133.744 16.7285 150.447 26.4704 166.175 37.1216C181.676 47.619 197.64 58.8774 203.74 75.4978C209.858 92.1707 206.838 110.636 199.061 126.734C191.772 141.822 176.331 151.153 162.184 161.518C147.12 172.554 133.545 187.704 114.202 188.903C94.4532 190.127 76.0809 179.571 61.1888 167.78C47.2501 156.743 38.5052 141.618 33.9713 125.374C29.6729 109.975 33.2949 94.5774 36.3931 78.9436C40.0473 60.5042 38.2744 38.9858 53.5911 26.3714C69.2363 13.4865 93.1568 12.8531 114.202 14.8626Z" fill="white" fill-opacity="0.32"/>
<path fill-rule="evenodd" clip-rule="evenodd" d="M166.261 54.455C143.754 41.5429 126.205 79.4445 113.458 84.2159C87.7698 93.8319 40.0555 102.195 49.1551 120.89C61.6495 146.56 105.123 149.121 136.212 146.56C176.648 143.228 210.513 79.8414 166.261 54.455Z" fill="white" fill-opacity="0.48"/>
<path fill-rule="evenodd" clip-rule="evenodd" d="M172.935 103.778C173.167 103.982 173.246 104.303 173.304 104.609L173.657 106.532C173.706 106.8 173.93 106.927 174.017 106.774C174.108 106.613 174.352 106.68 174.516 106.767L176.56 107.854C175.865 108.353 175.044 108.677 174.195 108.786C173.777 108.84 173.709 109.413 173.754 109.833L173.875 110.974C173.912 111.33 173.353 111.451 173.073 111.228C172.794 111.004 172.688 110.631 172.467 110.349C172.112 109.894 171.483 109.724 170.907 109.777C170.332 109.83 169.793 110.071 169.266 110.309C168.927 110.462 168.553 110.056 168.58 109.684C168.603 109.357 168.813 109.082 169.027 108.826L169.112 108.725C169.352 108.44 169.592 108.102 169.552 107.732C169.518 107.424 169.298 107.175 169.077 106.954L168.948 106.824C168.743 106.615 168.548 106.382 168.513 106.096C168.472 105.769 168.77 105.393 169.084 105.494C170.292 105.884 171.746 105.123 172.114 103.909C172.209 103.593 172.688 103.56 172.935 103.778Z" fill="white"/>
<path fill-rule="evenodd" clip-rule="evenodd" d="M172.935 103.778C173.167 103.982 173.246 104.303 173.304 104.609L173.657 106.532C173.706 106.8 173.598 107.214 173.343 107.12C172.979 106.349 172.785 105.499 172.78 104.647C172.641 104.513 172.435 104.712 172.348 104.883L171.486 106.601C171.334 106.904 170.881 106.837 170.581 106.679L170.421 106.594C170.161 106.459 169.878 106.34 169.632 106.473C169.507 106.849 170.065 107.037 170.355 107.307C170.686 107.617 170.667 108.172 170.435 108.561C170.204 108.95 169.813 109.213 169.435 109.462C169.978 109.552 170.557 109.393 170.979 109.039C171.17 108.879 171.344 108.674 171.588 108.623C171.964 108.544 172.303 108.871 172.498 109.202C172.694 109.533 172.849 109.921 173.183 110.113C173.35 109.849 173.261 109.519 173.155 109.214L173.105 109.072C172.984 108.731 172.93 108.28 173.226 108.074C173.338 107.996 173.476 107.973 173.612 107.959L175.07 107.813L174.23 107.201C174.089 107.098 173.93 106.927 174.017 106.774C174.108 106.613 174.352 106.68 174.516 106.767L176.56 107.854C175.865 108.353 175.044 108.677 174.195 108.786C173.777 108.84 173.709 109.413 173.754 109.833L173.875 110.974C173.912 111.33 173.353 111.451 173.073 111.228C172.794 111.004 172.688 110.631 172.467 110.349C172.112 109.894 171.483 109.724 170.907 109.777C170.332 109.83 169.793 110.071 169.266 110.309C168.927 110.462 168.553 110.056 168.58 109.684C168.603 109.357 168.813 109.082 169.027 108.826L169.112 108.725C169.352 108.44 169.592 108.102 169.552 107.732C169.518 107.424 169.298 107.175 169.077 106.954L168.948 106.824C168.743 106.615 168.548 106.382 168.513 106.096C168.472 105.769 168.77 105.393 169.084 105.494C170.292 105.884 171.746 105.123 172.114 103.909C172.209 103.593 172.688 103.56 172.935 103.778Z" fill="#FFAB01"/>
<path fill-rule="evenodd" clip-rule="evenodd" d="M92.5162 69.2857C91.6416 65.3998 94.0245 58.9494 98.2821 56.3558C102.54 53.7622 107.986 53.5846 112.727 55.1247C112.576 50.5454 117.222 46.6158 121.789 46.9942C126.357 47.3725 130.146 51.4721 130.76 56.0126C131.238 59.5506 129.421 63.7647 125.908 64.4055C127.15 68.8412 127.841 73.5082 127.159 78.0636C126.477 82.619 124.309 87.069 120.649 89.8674C119.639 91.2261 120.402 93.2756 121.732 94.3235C123.062 95.3714 124.784 95.7397 126.376 96.318C133.045 98.7412 137.74 105.319 138.835 112.328C139.929 119.337 137.743 126.606 133.792 132.499C131.086 136.535 127.405 140.119 122.799 141.671C116.335 143.85 109.247 141.729 102.97 139.058C100.577 138.04 98.14 136.883 96.4509 134.907C94.6401 132.788 91.2177 133.932 88.7497 135.228C90.3908 135.909 92.0318 136.589 93.6728 137.27C94.0255 137.416 94.408 137.59 94.5716 137.935C94.9158 138.661 94.0678 139.36 93.35 139.721C92.5788 140.109 91.8075 140.498 91.0362 140.886C86.3018 143.269 81.3712 145.704 76.0725 145.852C70.2795 146.012 64.8073 143.424 59.5937 140.894C59.0142 140.613 58.3999 140.3 58.0848 139.738C57.7697 139.177 57.9458 138.301 58.5686 138.136C64.4174 136.59 69.9548 133.876 74.7597 130.201C74.3921 127.913 74.4787 125.553 75.0131 123.298C75.0903 122.972 75.2015 122.615 75.4922 122.448C76.2069 122.037 76.8277 123.118 76.954 123.933C77.2727 125.988 77.5915 128.043 77.9102 130.099C81.7377 129.676 85.4524 128.27 88.601 126.054C86.1452 124.077 83.6895 122.099 81.2337 120.122C79.8167 118.981 78.449 118.299 77.6837 116.065C77.1736 114.576 77.5853 113.046 78.919 111.476C77.4302 104.058 76.7787 98.4668 76.9647 94.7014C77.0143 93.6964 77.1269 92.6113 77.8036 91.8664C78.9981 90.5514 81.3435 91.1185 82.4338 92.521C83.5241 93.9235 83.7066 95.8057 83.8476 97.5764C87.999 97.0694 92.1505 96.5623 96.3019 96.0553C97.8208 95.8698 99.3936 95.6885 100.856 96.1404C102.69 96.7074 104.163 98.3132 104.569 100.189C106.321 99.7156 108.229 99.1326 109.218 97.6118C110.208 96.091 109.37 93.4459 107.557 93.5243C101.886 93.7696 96.3394 89.5626 95.0487 84.0365C94.7204 82.6311 94.5928 81.0693 93.6059 80.0159C92.042 78.3468 90.8504 76.1949 90.858 73.9079C90.8657 71.6209 91.8241 71.348 92.5162 69.2857ZM58.6644 139.668C58.7921 139.859 59.015 139.959 59.226 140.049C61.3916 140.976 63.5573 141.902 65.7229 142.829C66.7082 143.25 67.6968 143.673 68.7273 143.968C71.6012 144.79 74.6979 144.589 77.5553 145.467C77.9019 145.573 78.2739 145.463 78.6191 145.352C81.1112 144.55 83.574 143.656 86.001 142.674C88.5401 141.647 91.0563 140.513 93.3107 138.958C93.5158 138.816 93.7286 138.659 93.8222 138.428C93.9158 138.197 93.8296 137.876 93.5898 137.808C92.0684 137.376 90.569 136.867 89.0995 136.282C88.627 136.094 88.0952 135.826 87.995 135.328C86.7003 135.38 85.5682 136.196 84.6133 137.072C83.6583 137.947 82.7613 138.936 81.5846 139.478C80.4079 140.021 78.8287 139.974 78.0135 138.967C77.9265 138.859 77.8391 138.736 77.7052 138.701C77.5713 138.666 77.3994 138.799 77.4617 138.922C77.6233 139.242 77.2762 139.647 76.9185 139.625C76.5607 139.602 76.281 139.277 76.193 138.929C76.1049 138.582 75.6269 139.202 74.9342 139.306C74.2414 139.409 73.5065 138.964 73.2763 138.303C73.0867 137.758 72.3432 137.748 71.775 137.646C70.4832 137.415 69.5022 136.061 69.6839 134.762C65.9712 136 62.3259 137.439 58.7693 139.072C58.5606 139.168 58.5368 139.477 58.6644 139.668Z" fill="white"/>
<path d="M110.787 86.2037C111.877 86.2037 112.761 85.3202 112.761 84.2303C112.761 83.1405 111.877 82.257 110.787 82.257C109.697 82.257 108.813 83.1405 108.813 84.2303C108.813 85.3202 109.697 86.2037 110.787 86.2037Z" fill="#FFAB01"/>
<path d="M97.0857 84.5792C97.6629 84.5792 98.1307 84.1114 98.1307 83.5342C98.1307 82.9571 97.6629 82.4892 97.0857 82.4892C96.5086 82.4892 96.0407 82.9571 96.0407 83.5342C96.0407 84.1114 96.5086 84.5792 97.0857 84.5792Z" fill="#FFAB01"/>
<path fill-rule="evenodd" clip-rule="evenodd" d="M120.213 92.1504C120.394 93.0884 120.931 93.997 121.646 94.5606C122.977 95.6085 125.966 96.6874 127.558 97.2657C127.703 97.3183 126.886 97.7794 125.832 98.799C122.978 101.559 116.737 106.502 110.641 104.018C109.928 103.728 109.332 103.393 108.847 103.039C108.4 102.713 112.504 103.183 116.342 102.456C120.2 101.725 123.789 99.7925 122.829 98.2609C121.926 96.8212 119.386 94.3827 119.187 92.9484C118.924 91.0374 120.057 91.3442 120.213 92.1504Z" fill="#E5E5EA"/>
<path fill-rule="evenodd" clip-rule="evenodd" d="M58.5861 139.126C58.5861 138.36 61.0005 137.741 65.128 136.189C67.9668 135.121 73.5002 132.032 76.2226 131.888C78.0342 131.792 85.2738 134.442 89.9985 136.345C92.3741 137.302 94.2067 137.901 94.2067 138.208C94.2067 138.825 89.1625 141.801 84.007 143.758C81.4907 144.713 79.1298 145.568 76.9646 145.51C70.3637 145.334 58.5861 141.064 58.5861 139.126Z" fill="white"/>
<path fill-rule="evenodd" clip-rule="evenodd" d="M151.84 75.5461C142.374 79.5878 134.466 86.494 126.932 93.5169L126.471 93.947C126.032 94.3577 125.365 94.7871 124.89 94.4171L126.354 93.0847C134.015 86.127 141.935 79.228 151.413 75.129C158.699 71.9776 158.622 72.6502 151.84 75.5461ZM111.067 142.868L115.507 147.704C115.725 147.941 115.952 148.195 116.012 148.511C116.073 148.827 115.89 149.212 115.57 149.246L106.428 150.201C104.909 150.36 103.361 149.308 102.923 147.845C102.486 146.383 103.186 144.67 104.509 143.907C105.831 143.144 107.645 143.385 108.743 144.446C109.015 144.708 109.493 144.485 109.686 144.16C109.879 143.835 109.92 143.436 110.12 143.115C110.319 142.794 110.811 142.59 111.067 142.868ZM103.694 145.659C103.127 146.735 103.486 148.192 104.456 148.925C104.932 149.284 105.516 149.476 106.104 149.571C106.935 149.705 107.899 149.604 108.433 148.954C108.628 148.716 108.748 148.425 108.83 148.129C109.101 147.143 108.963 146.051 108.455 145.164C108.316 144.922 108.103 144.67 107.825 144.682C107.693 144.688 107.57 144.755 107.439 144.768C107.22 144.791 107.017 144.666 106.817 144.573C105.715 144.06 104.261 144.584 103.694 145.659ZM110.673 143.838C110.498 144.566 110.137 145.248 109.633 145.801C109.491 145.957 109.526 146.198 109.555 146.407C109.695 147.424 109.463 148.487 108.913 149.354C109.814 149.141 110.736 149.013 111.661 148.974C112.93 148.92 114.254 149.022 115.416 148.511C114.795 148.241 114.268 147.76 113.942 147.167C113.75 146.818 113.484 146.516 113.221 146.217L111.199 143.92C111.053 143.754 110.724 143.623 110.673 143.838ZM87.7122 143.795C88.0021 144.7 89.0925 145.01 90.0372 145.173L96.3416 146.225C97.7994 146.469 99.2956 146.712 100.745 146.424C101.019 146.37 101.163 146.804 100.983 147.017C100.803 147.229 100.489 147.255 100.21 147.255C98.9467 147.26 97.6911 147.092 96.441 146.904L95.1096 146.701C92.7531 146.339 90.3978 145.953 88.0912 145.353C87.6964 145.251 87.2874 145.133 86.9852 144.859C86.683 144.585 86.5258 144.107 86.7384 143.759C86.9511 143.411 87.5878 143.406 87.7122 143.795ZM121.789 46.9942C126.357 47.3725 130.146 51.4721 130.76 56.0127C131.238 59.5506 129.421 63.7647 125.908 64.4055C127.15 68.8412 127.841 73.5082 127.159 78.0636C126.477 82.619 124.309 87.069 120.649 89.8674C119.639 91.2261 120.402 93.2756 121.732 94.3235C123.062 95.3714 124.784 95.7397 126.376 96.3181C133.045 98.7412 137.74 105.319 138.835 112.328C139.929 119.337 137.743 126.606 133.792 132.499C131.086 136.535 127.405 140.119 122.799 141.671C116.399 143.828 109.389 141.771 103.158 139.138L102.97 139.058C100.627 138.061 98.2415 136.931 96.5574 135.029L96.4509 134.907C94.6401 132.788 91.2177 133.932 88.7497 135.228L93.6728 137.27C94.0255 137.416 94.408 137.59 94.5716 137.935C94.9158 138.661 94.0678 139.36 93.35 139.721L90.4594 141.176C85.9014 143.463 81.1564 145.71 76.0725 145.852C70.3468 146.011 64.9346 143.484 59.7757 140.982L59.4483 140.823C58.9139 140.559 58.3736 140.253 58.0848 139.738C57.7697 139.177 57.9458 138.301 58.5686 138.136C64.4174 136.59 69.9548 133.876 74.7597 130.201C74.3921 127.913 74.4787 125.553 75.0131 123.298L75.0403 123.189C75.1173 122.895 75.2338 122.596 75.4922 122.448C76.2069 122.037 76.8277 123.118 76.954 123.933L77.9102 130.099C81.7377 129.676 85.4524 128.27 88.601 126.054L81.0357 119.963C79.6812 118.867 78.3098 117.683 77.6837 116.065C77.0272 114.369 77.5554 112.07 79.2521 111.413C79.386 104.988 79.0472 98.5528 78.2394 92.177C77.1224 98.5449 78.0201 105.074 78.919 111.476C77.3776 106.142 76.7102 100.557 76.9504 95.0096L76.9647 94.7015C77.0143 93.6964 77.1269 92.6114 77.8036 91.8664C78.9981 90.5514 81.3435 91.1185 82.4338 92.521C83.5241 93.9236 83.7066 95.8058 83.8476 97.5764L96.5873 96.0207C98.017 95.8496 99.485 95.7168 100.856 96.1404C102.69 96.7074 104.163 98.3133 104.569 100.189L104.868 100.107C106.534 99.6466 108.285 99.0465 109.218 97.6118C110.197 96.1072 109.387 93.502 107.614 93.5227L107.557 93.5243C101.886 93.7696 96.3394 89.5626 95.0487 84.0366C94.7204 82.6311 94.5928 81.0693 93.6059 80.0159C92.042 78.3468 90.8504 76.1949 90.858 73.9079C90.8657 71.6209 92.3243 69.2624 94.5457 68.7157C96.767 68.169 99.396 70.0218 99.2043 72.3007C100.282 72.191 101.384 72.3313 102.4 72.7073C101.821 71.1458 103.323 69.4222 104.973 69.1955C106.623 68.9689 108.232 69.793 109.604 70.737C110.977 71.6809 112.288 72.7923 113.884 73.2707L113.957 73.1005C114.287 72.3308 114.591 71.5087 114.425 70.6949C114.246 69.8209 113.261 69.0651 112.464 69.4652C111.904 67.8617 111.013 66.3745 109.864 65.1241L106.669 66.63C106.257 66.0136 106.005 65.2918 105.943 64.5533C103.834 65.7585 101.544 66.648 99.1737 67.1829L99.4163 65.3739L92.3336 69.0516C91.2879 64.1782 94.0245 58.9494 98.2821 56.3558C102.54 53.7622 107.986 53.5846 112.727 55.1247C112.576 50.5454 117.222 46.6158 121.789 46.9942ZM156.633 126.425C152.553 127.41 148.592 128.888 144.864 130.817L144.594 130.957C142.529 132.045 140.501 133.349 139.207 135.283C140.081 135.131 141.015 135.359 141.721 135.897C142.167 136.236 142.539 136.745 142.513 137.304C142.499 137.595 142.378 137.871 142.216 138.112C141.581 139.053 140.236 139.435 139.201 138.968C138.166 138.502 137.561 137.242 137.846 136.143C133.455 137.642 129.68 140.867 127.51 144.966L127.437 145.104C127.33 145.311 127.199 145.542 126.973 145.593C126.661 145.664 126.383 145.316 126.398 144.996C126.412 144.677 126.616 144.402 126.814 144.151C129.373 140.903 132.363 137.811 136.19 136.243L136.479 136.127C137.381 135.769 138.326 135.418 138.909 134.654C140.323 132.802 142.359 131.531 144.426 130.455C146.276 129.492 148.19 128.652 150.151 127.941C152.118 127.227 154.13 126.645 156.146 126.081L162.976 124.18C161.129 125.478 158.828 125.896 156.633 126.425ZM69.6839 134.762C65.9712 136 62.3259 137.439 58.7693 139.072C58.5606 139.168 58.5368 139.477 58.6644 139.668C58.7921 139.859 59.015 139.959 59.226 140.049L65.7229 142.829C66.7082 143.25 67.6968 143.673 68.7273 143.968C71.6012 144.79 74.6979 144.589 77.5553 145.467C77.9019 145.573 78.2739 145.463 78.6191 145.352C81.1112 144.55 83.574 143.656 86.001 142.674C88.5401 141.647 91.0563 140.513 93.3107 138.958C93.5158 138.816 93.7286 138.659 93.8222 138.428C93.9158 138.197 93.8296 137.876 93.5898 137.808C92.0684 137.376 90.569 136.867 89.0995 136.282L88.9975 136.241C88.5533 136.055 88.088 135.791 87.995 135.328C86.7003 135.38 85.5682 136.196 84.6133 137.072C83.6583 137.947 82.7613 138.936 81.5846 139.478C80.4079 140.021 78.8287 139.974 78.0135 138.967L77.9609 138.901C77.8896 138.813 77.8123 138.729 77.7052 138.701C77.5713 138.666 77.3994 138.799 77.4617 138.923C77.6233 139.242 77.2762 139.647 76.9185 139.625C76.5607 139.602 76.281 139.277 76.193 138.929C76.1364 138.706 76.1413 138.475 76.1684 138.245L76.1752 138.188C76.0161 138.751 75.5175 139.219 74.9342 139.306C74.2414 139.409 73.5065 138.965 73.2763 138.303C73.0867 137.758 72.3432 137.749 71.775 137.647C70.4832 137.415 69.5022 136.061 69.6839 134.762ZM78.4577 113.072C77.6924 114.432 78.4033 116.155 79.3459 117.399C82.3019 121.303 87.2529 123.176 90.631 126.72C91.4798 127.611 92.2197 128.598 92.9501 129.588L95.2459 132.705C95.6678 133.278 96.0913 133.853 96.5836 134.367C97.8675 135.706 99.5579 136.57 101.23 137.374C104.623 139.006 108.113 140.506 111.796 141.285C115.479 142.064 119.393 142.091 122.937 140.82C126.254 139.631 129.112 137.351 131.333 134.615C133.5 131.945 135.092 128.85 136.367 125.655L136.46 125.421C136.643 124.955 136.824 124.467 136.785 123.968C136.745 123.44 136.464 122.96 136.135 122.544C134.883 120.96 132.79 120.064 130.785 120.312C128.812 120.556 127.005 121.924 126.282 123.774L126.249 123.863C124.678 128.12 120.766 131.321 116.372 132.457C111.978 133.594 107.198 132.779 103.187 130.656C99.1766 128.532 95.9038 125.17 93.4636 121.344L93.3304 121.133C92.8896 120.425 92.4888 119.681 92.3336 118.865C92.1629 117.967 92.3365 116.958 92.9849 116.314C93.4133 115.888 94.0229 115.639 94.3344 115.122C94.646 114.605 94.2801 113.692 93.7053 113.876L93.3219 113.998C90.6801 114.819 87.6152 115.457 85.4898 113.747L85.2856 113.584C84.2939 112.796 83.2342 112.044 82.0023 111.773C80.6853 111.483 79.1185 111.896 78.4577 113.072ZM88.9885 126.867C85.7842 128.891 82.168 130.26 78.4264 130.866C77.9324 130.946 77.7997 131.587 77.7919 132.087C77.7672 133.677 77.8442 135.268 78.0223 136.848C78.4276 136.657 78.5933 136.181 78.8697 135.828C79.146 135.476 79.7765 135.283 79.9901 135.676C80.1393 135.951 79.9402 136.296 79.6859 136.478C79.4317 136.66 79.119 136.759 78.8922 136.975C78.3281 137.511 78.623 138.566 79.3103 138.931C79.9975 139.297 80.8669 139.106 81.5258 138.692C82.1847 138.277 82.6937 137.669 83.2524 137.128C84.4473 135.968 85.9089 135.086 87.4911 134.568C89.4998 133.91 91.7365 133.812 93.5036 132.653C93.6226 132.575 93.7458 132.483 93.7907 132.348C93.852 132.164 93.7483 131.972 93.6382 131.808L91.5239 128.739C91.1871 128.25 90.7995 127.725 90.2224 127.585C89.9586 127.521 89.6773 127.546 89.4184 127.464C89.1594 127.382 88.9155 127.129 88.9885 126.867ZM74.2271 131.326C73.4027 131.71 72.9149 132.615 72.8063 133.518C72.6977 134.421 72.9109 135.33 73.1642 136.204C73.3196 136.74 73.492 137.275 73.7491 137.77C73.913 138.086 74.1301 138.402 74.4586 138.539C74.7871 138.676 75.243 138.553 75.3497 138.213C75.3937 138.073 75.374 137.922 75.3485 137.778C75.2529 137.235 75.0812 136.706 74.8403 136.21L74.7392 136.009C74.5943 135.719 74.4578 135.377 74.6441 135.124C74.822 134.883 75.2593 134.783 75.2175 134.486L74.8092 131.584C74.7973 131.5 74.7833 131.41 74.7282 131.345C74.6122 131.207 74.3904 131.249 74.2271 131.326ZM139.583 135.8C139.311 135.799 139.025 135.837 138.806 135.999C138.678 136.094 138.582 136.227 138.514 136.371C138.227 136.98 138.492 137.762 139.036 138.159C139.58 138.555 140.334 138.592 140.964 138.355C141.446 138.173 141.91 137.762 141.894 137.247C141.881 136.841 141.573 136.502 141.233 136.28C140.747 135.962 140.164 135.803 139.583 135.8ZM75.7738 123.104C75.7041 123.156 75.6697 123.241 75.6402 123.323C75.2116 124.512 75.1591 125.801 75.1709 127.065C75.2006 130.234 75.6078 133.399 76.3812 136.472L76.4197 136.621C76.5778 137.221 76.7939 137.837 77.2835 138.208C77.3746 133.338 77.0585 128.46 76.3397 123.643C76.293 123.33 76.0276 122.915 75.7738 123.104ZM71.9135 133.572C71.8112 133.601 71.7455 133.698 71.6944 133.791C71.2764 134.554 71.2481 135.517 71.6208 136.303C71.7879 136.655 72.0744 136.998 72.462 137.041C72.62 136.844 72.5477 136.561 72.4592 136.32L72.3828 136.116C72.0983 135.345 71.8648 134.511 72.1156 133.736C72.1483 133.635 72.0158 133.543 71.9135 133.572ZM70.519 134.628C70.2258 135.28 70.3564 136.1 70.8375 136.628C71.0361 136.425 70.9488 136.092 70.8809 135.817C70.7748 135.385 70.7508 134.934 70.8107 134.493C70.7368 134.385 70.5728 134.508 70.519 134.628ZM76.6978 111.406C77.1422 111.789 77.4247 112.615 76.897 112.871C76.5589 113.034 76.1758 112.795 75.8565 112.597C74.1975 111.568 72.0763 111.492 70.1954 112.015C68.3146 112.539 66.6331 113.605 65.0549 114.754C63.4833 115.899 61.968 117.154 60.7862 118.698C59.6045 120.241 58.7686 122.101 58.7 124.044C58.6178 126.371 59.6237 128.597 60.7869 130.615C61.5282 131.901 62.3642 133.169 63.515 134.103L63.7516 134.29C64.078 134.552 64.4132 134.877 64.33 135.271C63.202 135.22 62.3833 134.211 61.7621 133.268C60.8788 131.928 60.0736 130.536 59.352 129.102C58.7519 127.91 58.2035 126.668 58.0212 125.345C57.6784 122.859 58.6882 120.33 60.2579 118.371C61.8275 116.412 63.9165 114.942 66.0293 113.585C67.6341 112.555 69.2858 111.567 71.0874 110.941C72.9453 110.296 75.2075 110.123 76.6978 111.406ZM124.377 100.454C121.706 102.947 118.154 104.479 114.507 104.711C112.895 104.813 111.231 104.659 109.772 103.965C108.314 103.272 107.085 101.978 106.746 100.399L106.625 100.437C105.569 100.77 104.361 101.375 104.371 102.462C104.416 107.075 104.309 111.69 104.049 116.295C104 117.179 103.663 118.339 102.778 118.313C99.6333 118.221 96.4682 118.947 93.6784 120.4C96.8185 125.323 101.284 129.628 106.839 131.431C112.394 133.234 119.094 132.107 122.986 127.754C124.234 126.359 125.153 124.709 126.037 123.057L126.241 122.676C126.429 122.323 126.62 121.904 126.453 121.541C126.346 121.31 126.576 121.069 126.788 120.926C129.894 118.824 134.519 119.395 137.021 122.188C136.823 121.8 137.003 121.266 137.396 121.077C137.708 121.579 137.774 122.225 137.57 122.78C137.705 122.971 137.953 122.663 137.974 122.43C138.308 118.799 138.282 115.135 137.896 111.509C137.757 110.202 137.568 108.886 137.101 107.657C136.69 106.58 136.074 105.592 135.398 104.658C133.843 102.508 131.953 100.601 129.817 99.0272L129.662 98.9144C129.323 98.672 128.967 98.4486 128.567 98.3397C126.983 97.9086 125.577 99.3343 124.377 100.454ZM102.795 98.3654C101.029 98.9595 99.1167 98.8453 97.2577 98.9737C94.638 99.1547 92.0537 99.8357 89.6852 100.969C88.6651 101.458 87.6783 102.031 86.5995 102.371C84.3083 103.092 81.6819 102.647 79.7569 101.211C79.3419 104.378 79.4643 107.615 80.1173 110.742C80.1592 110.943 80.2915 111.2 80.4877 111.139C81.7897 110.74 83.19 111.305 84.3476 112.023C85.5052 112.74 86.5932 113.634 87.908 113.989C89.4505 114.406 91.0851 114.021 92.6119 113.537L92.7262 113.501C93.5088 113.249 94.521 113.04 95.0228 113.691C95.4461 114.24 95.1788 115.06 94.7307 115.588C94.2826 116.117 93.6748 116.51 93.3092 117.099C92.8603 117.822 92.858 118.799 93.3035 119.524C96.2193 118.355 99.3401 117.699 102.48 117.596C103.11 117.575 103.331 116.76 103.369 116.131C103.708 110.623 103.812 105.1 103.681 99.5825C103.667 98.9944 103.353 98.1777 102.795 98.3654ZM150.003 113.261L150.128 113.324C150.901 113.717 151.724 114.24 151.839 115.086C151.877 115.365 151.829 115.649 151.763 115.922C151.671 116.3 151.532 116.689 151.237 116.944C150.925 117.215 150.487 117.291 150.074 117.275C149.261 117.244 148.448 116.865 147.977 116.202C147.506 115.539 147.431 114.591 147.87 113.906C148.309 113.222 149.274 112.9 150.003 113.261ZM148.798 114.208C148.316 114.409 148.142 115.06 148.343 115.542C148.545 116.024 149.022 116.341 149.518 116.503C150.026 116.669 150.679 116.655 150.982 116.216C151.082 116.069 151.13 115.893 151.158 115.717C151.218 115.335 151.181 114.912 150.935 114.614C150.63 114.244 150.11 114.17 149.624 114.142L149.503 114.136C149.265 114.126 149.018 114.116 148.798 114.208ZM87.9792 104.252C88.0401 104.483 87.9933 104.727 87.9516 104.962C87.6584 106.621 87.6372 108.326 87.8885 109.992L87.935 110.286C87.9655 110.495 87.9781 110.715 87.8583 110.883C87.7201 111.076 87.3327 111.057 87.3134 110.82C87.1484 108.802 87.0427 106.78 86.9965 104.756C86.9876 104.37 87.0885 103.856 87.4741 103.826C87.7126 103.807 87.9182 104.02 87.9792 104.252ZM74.4086 100.209C74.6938 100.294 74.9677 100.49 75.0503 100.776C75.133 101.062 74.9449 101.423 74.6477 101.442C74.3707 101.459 74.1592 101.207 73.9047 101.097C73.4478 100.898 72.9351 101.175 72.515 101.443L72.3012 101.581C71.8979 101.847 71.5072 102.145 71.2857 102.568C71.0592 103.001 71.0402 103.51 71.0472 103.999C71.0521 104.339 71.068 104.683 71.1731 105.007C71.401 105.708 72.0515 106.233 72.773 106.385C73.4945 106.537 74.2661 106.34 74.8765 105.926L74.996 105.845C75.1037 105.774 75.2167 105.712 75.3435 105.706C75.5178 105.698 75.7086 105.862 75.6494 106.026C75.6316 106.075 75.5951 106.115 75.5586 106.153C74.561 107.177 72.8383 107.396 71.6157 106.655C71.3976 106.522 71.1943 106.362 71.0294 106.168C70.534 105.583 70.4416 104.762 70.4279 103.996C70.4206 103.581 70.4308 103.16 70.5488 102.762C70.8036 101.903 71.5237 101.264 72.2721 100.771C72.9076 100.352 73.6795 99.9894 74.4086 100.209ZM68.6367 98.4454L71.1238 101.398C70.987 101.546 70.7472 101.556 70.5624 101.475C70.3981 101.404 70.267 101.276 70.1435 101.145L68.6843 99.5761C68.4853 101.169 68.0033 102.725 67.2676 104.152C67.196 104.29 67.3989 104.408 67.5543 104.424C67.9339 104.463 68.3177 104.419 68.692 104.345L68.8849 104.306C69.1871 104.246 69.4971 104.199 69.7788 104.311C70.121 104.446 70.3321 104.944 70.0577 105.189C69.8886 105.34 69.6324 105.321 69.4073 105.294L66.9851 104.994L66.9107 104.984C66.6715 104.944 66.4087 104.851 66.3737 104.62C66.3525 104.481 66.4297 104.349 66.5019 104.228C67.3641 102.79 67.9384 101.18 68.1823 99.5208L68.219 99.2576C68.2664 98.9347 68.3503 98.5843 68.6367 98.4454ZM153.373 103.084C153.673 103.297 153.956 103.714 153.723 103.998C153.578 104.176 153.297 104.181 153.088 104.085C152.879 103.989 152.716 103.817 152.536 103.675C151.796 103.09 150.684 103.028 149.884 103.528C149.77 103.599 149.657 103.687 149.611 103.813C149.564 103.939 149.615 104.109 149.744 104.147C150.766 103.714 151.984 103.774 152.957 104.306C153.098 104.383 153.246 104.485 153.28 104.642C153.315 104.798 153.147 104.986 153.007 104.908C152.371 104.552 151.613 104.421 150.896 104.543C150.561 104.6 150.234 104.71 149.894 104.721C149.555 104.732 149.184 104.619 149.004 104.331C148.838 104.066 148.877 103.708 149.039 103.44C149.201 103.172 149.467 102.982 149.745 102.837C150.876 102.249 152.332 102.348 153.373 103.084ZM119.488 88.7295C117.062 90.7674 114.213 92.2979 111.174 93.1952L110.972 93.2541C110.577 93.3667 110.081 93.6164 110.164 94.018L110.215 94.2672C110.366 95.0165 110.495 95.7796 110.387 96.5336C110.27 97.3467 109.822 98.1605 109.08 98.5023L109.011 98.532C107.69 99.0757 107.505 101.049 108.371 102.185C109.237 103.32 110.74 103.76 112.159 103.924C116.325 104.406 120.672 103.01 123.778 100.193C124.904 99.1708 125.912 97.9477 127.306 97.3407L123.819 96.0645C122.878 95.7203 121.925 95.3697 121.106 94.7927C120.287 94.2158 119.605 93.3758 119.437 92.3883C119.232 91.1788 119.812 89.9126 119.488 88.7295ZM79.2594 91.9997C79.1719 92.0386 79.0825 92.0902 79.0404 92.1762C78.9983 92.2623 79.0125 92.3641 79.0274 92.4588L79.8264 97.494C80.0619 98.9778 80.3927 100.622 81.6168 101.494C82.9578 102.448 84.7992 102.074 86.3607 101.529L86.4441 101.5C89.3508 100.468 92.1481 99.0311 95.1945 98.5478C97.3818 98.2008 99.6755 98.3493 101.744 97.5577C100.987 96.4162 99.3482 96.4222 97.9772 96.572L86.7765 97.8446C85.9088 97.9432 84.9974 98.0582 84.2927 98.5739C83.9844 98.7995 83.6924 99.1096 83.3106 99.1253C82.9391 99.1406 82.6162 98.5998 82.9074 98.4009L82.9331 98.3851C83.2523 98.2095 83.2309 97.7512 83.1655 97.3928L82.8267 95.5359C82.6555 94.6148 82.4463 93.6775 81.8951 92.9255C81.2997 92.1133 80.1798 91.5908 79.2594 91.9997ZM156.585 99.5255C156.855 99.8399 156.867 100.322 156.687 100.696C156.507 101.069 156.166 101.343 155.797 101.533C155.352 101.761 154.862 101.88 154.371 101.981L154.126 102.031C154.029 102.051 153.928 102.07 153.835 102.039C153.758 102.013 153.695 101.955 153.644 101.891C153.391 101.574 153.4 101.105 153.571 100.737C153.742 100.369 154.049 100.082 154.364 99.8262C154.686 99.5644 155.037 99.3176 155.441 99.2218C155.845 99.1261 156.315 99.2106 156.585 99.5255ZM155.261 100.078L155.131 100.165C154.938 100.297 154.752 100.442 154.622 100.635C154.463 100.871 154.408 101.2 154.565 101.437L155.604 100.86C155.773 100.765 155.948 100.666 156.058 100.506C156.168 100.347 156.19 100.109 156.054 99.971C155.85 99.7637 155.503 99.9172 155.261 100.078ZM138.688 88.7111C138.761 88.7405 138.81 88.8062 138.852 88.8732L140.374 91.3585C140.646 91.8027 141.265 91.8522 141.785 91.8156C142.781 91.7455 143.767 91.5423 144.709 91.2131C144.868 91.1579 145.017 91.359 144.983 91.5229C144.949 91.6868 144.808 91.8035 144.676 91.9064L142.39 93.6878C142.11 93.668 142.189 93.2086 142.417 93.0432L142.484 92.9963C142.704 92.8482 142.97 92.702 142.956 92.4479L141.635 92.8605C141.383 92.9393 141.102 93.0167 140.862 92.906C140.703 92.8323 140.591 92.688 140.49 92.5426L138.812 90.0934L138.783 92.2381C138.78 92.414 138.773 92.6047 138.661 92.7406C138.582 92.8371 138.463 92.8889 138.345 92.9326L136.029 93.7633C136.648 94.3816 137.805 93.7311 138.545 94.197C139.052 94.5161 139.139 95.2274 139.029 95.8163C138.92 96.4053 138.669 96.9783 138.702 97.5765C139.124 97.2699 139.435 96.8122 139.563 96.3063C139.615 96.1023 139.64 95.8853 139.754 95.7082C140.067 95.2198 140.814 95.3191 141.332 95.5803C141.85 95.8415 142.387 96.2176 142.954 96.0934L142.132 94.7793C142.057 94.6594 141.979 94.5296 141.986 94.3884C141.992 94.2471 142.127 94.1043 142.262 94.1453C142.321 94.1633 142.365 94.2103 142.405 94.2593L144.239 96.636C143.595 97.0606 142.745 96.7931 142.001 96.5882L141.891 96.5594C141.165 96.3799 140.279 96.3621 139.879 96.9767C139.596 97.41 139.265 97.8113 138.893 98.1705C138.736 98.3219 138.558 98.4727 138.341 98.4974C138.125 98.5221 137.876 98.3581 137.895 98.1411L138.108 95.7378C138.122 95.5822 138.133 95.4128 138.046 95.2828C137.954 95.146 137.782 95.0928 137.624 95.049L135.62 94.4958C135.184 94.3755 135.181 93.6976 135.508 93.3855C135.835 93.0734 136.316 93.008 136.751 92.8873C137.187 92.7665 137.658 92.5102 137.736 92.0653L138.245 89.1859C138.288 88.9398 138.457 88.6173 138.688 88.7111ZM84.7814 48.1157L84.4114 48.4163C81.946 50.4249 79.5165 52.5306 77.7083 55.1416C75.8097 57.8832 74.6441 61.2828 75.2093 64.569C76.033 69.3579 80.3178 73.1717 80.501 78.0275C80.5253 78.6725 81.1823 79.0739 81.732 79.4125C83.9012 80.749 85.5087 82.8702 86.5694 85.1863C87.597 87.4301 88.1456 89.8614 88.5445 92.2981L88.5827 92.5339C88.6421 92.9055 88.6855 93.3284 88.4457 93.6185C88.2059 93.9085 87.5895 93.8069 87.6134 93.4314C87.8948 89.0165 86.2898 84.5124 83.2796 81.2697C82.4977 80.4274 81.5893 79.6465 80.4881 79.3167C80.418 81.0172 79.8453 82.7501 78.6329 83.945C77.4205 85.1399 75.5079 85.6857 73.9384 85.0264C72.3688 84.367 71.4086 82.3761 72.115 80.8275C72.7068 79.5303 74.1763 78.8749 75.5755 78.5988C76.9483 78.3278 78.3715 78.3137 79.7494 78.5573C79.9349 78.5901 80.0156 78.331 80.0119 78.1428C79.9123 73.0956 75.2455 69.1441 74.6329 64.1332C74.2981 61.3947 75.2328 58.6381 76.5891 56.2355C78.3703 53.0803 80.9043 50.3531 83.9206 48.3449L83.9996 48.2937C84.2412 48.1416 84.5228 48.0119 84.7814 48.1157ZM100.147 73.8222C99.4719 74.2564 99.4892 75.2201 99.4334 76.0209C99.3567 77.1193 98.979 78.2187 98.2422 79.0372C97.5055 79.8557 96.3861 80.3584 95.2933 80.221C95.0106 80.1855 94.9247 80.5945 94.9618 80.8769C95.597 85.7177 98.5344 90.4703 103.1 92.2036C105.891 93.2633 109.044 93.1225 111.89 92.2193C114.667 91.3376 117.182 89.7694 119.479 87.9744L119.647 87.8426C119.98 87.5796 120.315 87.3054 120.547 86.9496C120.782 86.5888 120.897 86.162 120.954 85.7352C121.255 83.4487 119.727 81.0561 117.525 80.3679C117.266 80.2869 117.326 79.8667 117.553 79.7183C117.78 79.57 118.073 79.58 118.333 79.5007C119.036 79.2859 119.36 78.4849 119.52 77.7673C119.741 76.7814 119.803 75.657 119.192 74.8524C118.366 73.765 116.76 73.7664 115.398 73.8706L113.188 74.0397C112.426 74.0981 111.444 74.3668 111.408 75.1306C111.331 76.7757 110.606 78.4144 109.325 79.4503C108.045 80.4862 106.2 80.8443 104.68 80.2102C103.184 79.5862 102.127 77.9578 102.3 76.3502L102.309 76.2724C102.399 75.5923 102.349 74.8539 101.951 74.2954C101.552 73.7369 100.724 73.451 100.147 73.8222ZM118.398 48.1147C117.413 48.3947 116.466 48.8464 115.689 49.5127C114.601 50.444 113.879 51.7897 113.703 53.21C113.641 53.7133 113.741 54.3623 114.23 54.4975C115.424 54.8278 116.493 55.5937 117.189 56.6184C116.06 55.9467 114.822 55.458 113.538 55.177L118.963 58.2458C119.278 58.4237 119.604 58.6126 119.802 58.915C120 59.2173 120.021 59.6684 119.749 59.9065L119.37 59.6115C118.419 58.8761 117.448 58.1632 116.384 57.6067C115.575 57.1835 114.721 56.8552 113.863 56.5424L113.394 56.3729C111.805 55.7998 110.202 55.223 108.528 54.994C106.975 54.7815 105.38 54.8759 103.862 55.2701L103.563 55.3468C101.513 55.8654 99.3757 56.2894 97.6809 57.5425C96.6727 58.2878 95.8832 59.2857 95.1335 60.2905L94.9567 60.5304C93.4673 62.5747 92.1063 65.0952 92.9777 67.4407C96.9786 66.948 100.095 63.8534 103.72 62.0893C103.997 61.9545 104.454 61.9132 104.496 62.2183L100.44 64.6142C100.553 65.2329 100.446 65.8892 100.144 66.4406C103.107 65.6036 105.877 64.0922 108.185 62.0549L108.332 61.9241C108.698 61.5946 109.404 61.322 109.56 61.7891L109.361 61.8999C108.633 62.3092 107.909 62.7569 107.408 63.4196C106.86 64.1426 106.642 65.1937 107.128 65.9598L112.247 62.9461C112.455 62.8237 112.682 62.6969 112.922 62.7221C113.162 62.7473 113.387 63.0057 113.284 63.2236L113.109 63.2599C112.557 63.3772 111.996 63.5243 111.566 63.8842C111.091 64.2819 110.844 65.0276 111.198 65.5369C111.832 66.4506 112.346 67.447 112.724 68.4928C112.732 68.0355 113.355 67.8016 113.766 68.0024C114.178 68.2032 114.395 68.6564 114.544 69.0889C114.97 70.326 115.083 71.6697 114.868 72.9605C116.156 73.415 117.666 72.8782 118.904 73.453C120.054 73.9866 120.616 75.3707 120.536 76.6351C120.456 77.8995 119.859 79.0687 119.22 80.1633C121.004 81.5448 121.957 83.9245 121.619 86.1549C121.93 86.1042 122.193 85.8359 122.237 85.524L122.945 85.9702C121.838 86.5954 121.051 87.7557 120.879 89.0147C125.741 84.4669 127.355 77.259 126.653 70.64L126.626 70.3931C126.348 68.003 125.686 65.5115 123.888 63.9283C124.852 63.3727 126.089 63.5912 127.12 63.174C128.095 62.7798 128.765 61.866 129.217 60.9173C130.729 57.7454 130.209 53.7098 127.94 51.0256C125.672 48.3415 121.779 47.1539 118.398 48.1147ZM102.506 87.8932C102.659 87.9186 102.833 87.9704 102.893 88.1137C102.989 88.3425 102.721 88.5517 102.488 88.6383C102.15 88.7641 101.796 88.8446 101.437 88.8771C101.136 88.9043 100.756 88.8462 100.663 88.5586C100.602 88.3695 100.708 88.1571 100.869 88.0405C101.03 87.9239 101.233 87.8846 101.431 87.8632C101.789 87.8244 102.151 87.8346 102.506 87.8932ZM97.0067 84.6132C98.0647 85.8562 99.7198 86.5144 101.352 86.5273C102.985 86.5401 104.586 85.9501 105.942 85.0402L106.056 84.9637C106.228 84.8493 106.406 84.7419 106.608 84.7068C106.855 84.6638 107.148 84.7674 107.232 85.0033C105.815 86.207 104.038 87.0018 102.186 87.1699C100.333 87.3379 98.4148 86.8628 96.9034 85.7792C96.6307 85.5837 96.3489 85.3265 96.3376 84.9912C96.3263 84.656 96.7892 84.3577 97.0067 84.6132ZM74.8313 79.3483C74.0956 79.5829 73.3552 79.9267 72.8911 80.5437C72.2017 81.4602 72.3222 82.8508 73.0669 83.7231C73.8115 84.5953 75.0707 84.9436 76.1941 84.7117C77.3175 84.4799 78.2928 83.7222 78.9241 82.7647C79.5553 81.8073 79.8644 80.6642 79.9581 79.5213C79.9738 79.3297 79.9389 79.0761 79.7499 79.0409C78.1184 78.7375 76.4123 78.8441 74.8313 79.3483ZM100.9 74.8824C100.93 75.146 100.828 75.4047 100.735 75.6529C100.205 77.0558 99.8822 78.5368 99.7807 80.0329C99.7643 80.2753 99.7549 80.5266 99.8438 80.7526C99.9278 80.9661 100.123 81.1519 100.349 81.1646L100.389 81.165C100.594 81.1578 100.692 81.4642 100.563 81.6243C100.433 81.7843 100.191 81.8022 99.9933 81.7435C99.5883 81.623 99.298 81.2461 99.1804 80.8403C99.0629 80.4346 99.093 80.0013 99.1518 79.583C99.3513 78.1647 99.8693 76.7896 99.8947 75.3575C99.9018 74.9534 99.9845 74.4087 100.387 74.3765C100.652 74.3554 100.869 74.6188 100.9 74.8824ZM105.934 70.0957C105.092 70.2688 104.45 70.9588 104.014 71.6985C103.12 73.2138 102.865 75.0927 103.324 76.7912C103.529 77.5539 103.881 78.291 104.433 78.8563C104.985 79.4217 105.751 79.8011 106.541 79.788C107.093 79.7789 107.628 79.5833 108.107 79.31C109.707 78.3977 110.723 76.5486 110.636 74.7095C110.548 72.8704 109.361 71.126 107.682 70.3694C107.135 70.123 106.521 69.9749 105.934 70.0957ZM94.3221 69.3417C92.8188 69.8985 91.8484 71.4592 91.6416 73.0485C91.4347 74.6377 91.8806 76.2453 92.5162 77.7166C92.6874 78.1129 92.882 78.5157 93.2106 78.7956C93.5393 79.0755 94.0368 79.201 94.4103 78.9844C94.5841 78.8835 94.7465 79.1193 94.8784 79.2709C95.1412 79.5729 95.6036 79.5987 95.9963 79.5202C97.2899 79.2618 98.284 78.1317 98.6864 76.8757C99.0754 75.6617 98.9924 74.3475 98.7625 73.0912L98.7382 72.9615C98.4958 71.6944 97.9482 70.2705 96.7142 69.8932C96.0673 69.6954 95.2868 69.811 94.7867 69.3555C94.666 69.2455 94.4752 69.285 94.3221 69.3417ZM118.211 74.7139C118.72 75.2771 118.512 76.1518 118.257 76.8745L118.237 76.9327C118.135 77.2162 118.029 77.5063 117.835 77.7361C117.64 77.9659 117.335 78.1264 117.04 78.0651C116.745 78.0037 116.515 77.6618 116.639 77.3874C116.793 77.0467 117.315 77.0294 117.504 76.7066L116.994 76.6586C116.651 76.6262 116.282 76.5826 116.027 76.3499C115.773 76.1172 115.741 75.6247 116.05 75.4722C116.265 75.3665 116.523 75.4701 116.721 75.6033C116.919 75.7365 117.109 75.9052 117.345 75.9415C117.581 75.9778 117.868 75.7923 117.82 75.5585C117.752 75.233 117.919 74.8726 118.211 74.7139ZM106.581 76.9127C106.621 77.1366 106.636 77.3741 106.552 77.5856C106.468 77.7971 106.264 77.9741 106.036 77.9647C105.684 77.95 105.496 77.5445 105.434 77.1976C105.358 76.7689 105.477 76.1789 105.911 76.147C106.283 76.1197 106.515 76.546 106.581 76.9127ZM95.7304 76.0027C95.9058 76.2582 95.8811 76.5997 95.8114 76.9017C95.7222 77.2882 95.498 77.7193 95.1034 77.7597C94.747 77.7961 94.4427 77.4773 94.3262 77.1387C94.184 76.7255 94.253 76.2206 94.5758 75.9258C94.8985 75.631 95.4831 75.6423 95.7304 76.0027ZM96.0589 71.6413C96.2164 71.7137 96.3274 71.9121 96.2477 72.066L96.0954 72.1059C95.2281 72.3373 94.3036 72.6593 93.8894 73.4432C93.7901 73.631 93.7257 73.8383 93.6021 74.0112C93.4785 74.184 93.2701 74.3214 93.0621 74.2776C92.8251 74.2277 92.688 73.955 92.7133 73.7142C92.7386 73.4734 92.8852 73.2635 93.0421 73.0791C93.6805 72.3292 94.5802 71.8061 95.5478 71.6221C95.7181 71.5897 95.9014 71.5689 96.0589 71.6413ZM107.143 72.0743C107.402 72.2832 107.599 72.5616 107.861 72.767C108.083 72.9406 108.362 73.0779 108.463 73.3406C108.564 73.6033 108.261 73.9743 108.041 73.7984C107.468 73.3392 106.832 72.9587 106.156 72.6711C105.849 72.5407 105.919 72.0252 106.218 71.8784C106.517 71.7317 106.884 71.8654 107.143 72.0743ZM103.931 70.4268C103.366 70.613 102.964 71.2075 103.003 71.801C103.219 71.6905 103.383 71.4838 103.443 71.2486L103.434 71.2248C103.685 71.0266 103.864 70.7393 103.931 70.4268Z" fill="#2C2C2E"/>
<path fill-rule="evenodd" clip-rule="evenodd" d="M72.0904 141.566C72.3178 141.568 72.5269 141.673 72.7255 141.789L72.8328 141.853C74.0502 142.582 75.3349 143.198 76.6651 143.692C76.8479 143.76 76.7911 144.067 76.6129 144.146C76.4348 144.225 76.2291 144.154 76.0474 144.084L72.1189 142.555C71.8675 142.457 71.5757 142.308 71.5537 142.039C71.5317 141.772 71.8218 141.563 72.0904 141.566Z" fill="#E5E5EA"/>
<path fill-rule="evenodd" clip-rule="evenodd" d="M65.828 137.287L77.9808 141.597L78.0571 141.625C78.3783 141.751 78.7257 141.965 78.6914 142.297C78.6634 142.567 78.3644 142.741 78.0928 142.732C77.863 142.725 77.6508 142.623 77.4478 142.51L77.3379 142.448C75.6434 141.487 73.8656 140.695 72.0422 140.01C69.9768 139.234 67.853 138.597 65.7258 138.01C65.4005 137.92 64.9882 137.63 65.1748 137.349C65.3056 137.151 65.6049 137.208 65.828 137.287Z" fill="#E5E5EA"/>
<path d="M25.78 181.87V179.12H19.576V167.196H16.452V181.87H25.78ZM29.2876 170.1C30.2116 170.1 30.9596 169.352 30.9596 168.428C30.9596 167.504 30.2116 166.778 29.2876 166.778C28.3856 166.778 27.6156 167.504 27.6156 168.428C27.6156 169.352 28.3856 170.1 29.2876 170.1ZM30.6956 181.87V171.244H27.9016V181.87H30.6956ZM39.2301 181.87L43.4981 171.244H40.4841L37.7121 178.636L34.9401 171.244H31.9481L36.2161 181.87H39.2301ZM49.7394 182.134C51.3894 182.134 53.0614 181.628 54.1174 180.66L52.8854 178.856C52.2034 179.516 50.9494 179.912 50.0474 179.912C48.2434 179.912 47.1654 178.79 46.9894 177.448H54.8874V176.832C54.8874 173.356 52.7314 170.98 49.5634 170.98C46.3294 170.98 44.0634 173.466 44.0634 176.546C44.0634 179.956 46.5054 182.134 49.7394 182.134ZM52.1814 175.556H46.9454C47.0774 174.5 47.8254 173.202 49.5634 173.202C51.4114 173.202 52.1154 174.544 52.1814 175.556ZM21.336 210.134C23.514 210.134 24.834 209.188 25.538 208.198L23.712 206.504C23.206 207.208 22.436 207.648 21.468 207.648C19.774 207.648 18.586 206.394 18.586 204.546C18.586 202.698 19.774 201.466 21.468 201.466C22.436 201.466 23.206 201.862 23.712 202.61L25.538 200.894C24.834 199.926 23.514 198.98 21.336 198.98C18.058 198.98 15.704 201.29 15.704 204.546C15.704 207.824 18.058 210.134 21.336 210.134ZM30.1585 209.87V195.196H27.3645V209.87H30.1585ZM42.103 209.87V203.006C42.103 199.948 39.881 198.98 37.461 198.98C35.789 198.98 34.117 199.508 32.819 200.652L33.875 202.522C34.777 201.686 35.833 201.268 36.977 201.268C38.385 201.268 39.309 201.972 39.309 203.05V204.48C38.605 203.644 37.351 203.182 35.943 203.182C34.249 203.182 32.247 204.128 32.247 206.614C32.247 208.99 34.249 210.134 35.943 210.134C37.329 210.134 38.583 209.628 39.309 208.77V209.87H42.103ZM37.065 208.242C35.965 208.242 35.063 207.67 35.063 206.68C35.063 205.646 35.965 205.074 37.065 205.074C37.967 205.074 38.847 205.382 39.309 205.998V207.318C38.847 207.934 37.967 208.242 37.065 208.242ZM48.7023 210.134C51.6503 210.134 53.3003 208.66 53.3003 206.724C53.3003 202.434 47.0083 203.754 47.0083 202.17C47.0083 201.576 47.6683 201.114 48.6803 201.114C49.9783 201.114 51.1883 201.664 51.8263 202.346L52.9483 200.432C51.8923 199.596 50.4623 198.98 48.6583 198.98C45.8643 198.98 44.3023 200.542 44.3023 202.324C44.3023 206.504 50.6163 205.074 50.6163 206.834C50.6163 207.494 50.0443 207.978 48.8343 207.978C47.5143 207.978 45.9303 207.252 45.1603 206.526L43.9503 208.484C45.0723 209.518 46.8543 210.134 48.7023 210.134ZM59.1867 210.134C62.1347 210.134 63.7847 208.66 63.7847 206.724C63.7847 202.434 57.4927 203.754 57.4927 202.17C57.4927 201.576 58.1527 201.114 59.1647 201.114C60.4627 201.114 61.6727 201.664 62.3107 202.346L63.4327 200.432C62.3767 199.596 60.9467 198.98 59.1427 198.98C56.3487 198.98 54.7867 200.542 54.7867 202.324C54.7867 206.504 61.1007 205.074 61.1007 206.834C61.1007 207.494 60.5287 207.978 59.3187 207.978C57.9987 207.978 56.4147 207.252 55.6447 206.526L54.4347 208.484C55.5567 209.518 57.3387 210.134 59.1867 210.134ZM70.837 210.134C72.487 210.134 74.159 209.628 75.215 208.66L73.983 206.856C73.301 207.516 72.047 207.912 71.145 207.912C69.341 207.912 68.263 206.79 68.087 205.448H75.985V204.832C75.985 201.356 73.829 198.98 70.661 198.98C67.427 198.98 65.161 201.466 65.161 204.546C65.161 207.956 67.603 210.134 70.837 210.134ZM73.279 203.556H68.043C68.175 202.5 68.923 201.202 70.661 201.202C72.509 201.202 73.213 202.544 73.279 203.556ZM81.8312 210.134C84.7792 210.134 86.4292 208.66 86.4292 206.724C86.4292 202.434 80.1372 203.754 80.1372 202.17C80.1372 201.576 80.7972 201.114 81.8092 201.114C83.1072 201.114 84.3172 201.664 84.9552 202.346L86.0772 200.432C85.0212 199.596 83.5912 198.98 81.7872 198.98C78.9932 198.98 77.4312 200.542 77.4312 202.324C77.4312 206.504 83.7452 205.074 83.7452 206.834C83.7452 207.494 83.1732 207.978 81.9632 207.978C80.6432 207.978 79.0592 207.252 78.2892 206.526L77.0792 208.484C78.2012 209.518 79.9832 210.134 81.8312 210.134Z" fill="white"/>
</g>
<defs>
<clipPath id="clip0">
<rect y="0.869568" width="179.348" height="256.522" rx="8" fill="white"/>
</clipPath>
</defs>
</svg>
