<svg width="180" height="257" viewBox="0 0 180 257" fill="none" xmlns="http://www.w3.org/2000/svg">
<g clip-path="url(#clip0)">
<rect width="179.35" height="256.52" rx="8" fill="#EE719E"/>
<path fill-rule="evenodd" clip-rule="evenodd" d="M129.202 13.8626C148.744 15.7285 165.447 25.4704 181.175 36.1216C196.676 46.619 212.64 57.8774 218.74 74.4978C224.858 91.1707 221.838 109.636 214.061 125.734C206.772 140.822 191.331 150.153 177.184 160.518C162.12 171.554 148.545 186.704 129.202 187.903C109.453 189.127 91.0809 178.571 76.1888 166.78C62.2501 155.743 53.5052 140.618 48.9713 124.374C44.6729 108.975 48.2949 93.5774 51.3931 77.9436C55.0473 59.5042 53.2744 37.9858 68.5911 25.3714C84.2363 12.4865 108.157 11.8531 129.202 13.8626Z" fill="white" fill-opacity="0.32"/>
<g opacity="0.5">
<path opacity="0.5" d="M157.828 37.1376C144.38 35.0178 130.753 34.1037 117.253 35.8513C106.073 37.2985 108.466 33.8253 109.875 32.3742C110.244 31.9917 110.743 31.7634 111.273 31.7355C126.42 30.983 141.597 31.0951 156.731 32.0712C157.524 32.1206 158.28 32.4266 158.886 32.9432C159.492 33.4598 159.914 34.1593 160.091 34.9369C160.382 36.2598 160.106 37.4967 157.828 37.1376Z" fill="white"/>
<path opacity="0.5" d="M158.023 36.4199C149.942 35.0946 141.778 34.3512 133.591 34.1954C129.457 34.1403 125.323 34.2987 121.205 34.6702C118.016 34.9631 114.752 35.6734 111.538 35.4111C110.852 35.4298 110.175 35.2542 109.584 34.9045C109.486 34.8492 109.413 34.757 109.383 34.6482C109.352 34.5394 109.365 34.4227 109.42 34.3239C109.528 34.0125 109.69 33.7225 109.898 33.4669C110.732 32.3588 111.973 32.4434 113.268 32.3855C121.423 32.0213 129.585 31.9077 137.753 32.0447C142.417 32.123 147.079 32.2831 151.739 32.525C152.904 32.5855 154.068 32.6511 155.232 32.7218C156.327 32.7883 157.462 32.7369 158.362 33.4715C158.691 33.7347 158.958 34.0674 159.145 34.446C159.331 34.8246 159.433 35.2398 159.441 35.662C159.398 36.6072 158.578 36.4846 157.826 36.3933C156.88 36.2786 156.888 37.7682 157.826 37.8819C158.989 38.0231 160.323 37.8582 160.778 36.6012C160.941 35.9727 160.95 35.3139 160.803 34.6814C160.656 34.049 160.359 33.4616 159.936 32.9699C158.841 31.6171 157.372 31.3654 155.731 31.2638C153.32 31.1144 150.907 30.9869 148.494 30.8813C138.756 30.4552 129.012 30.3862 119.261 30.6744C116.847 30.7459 114.433 30.8393 112.02 30.9547C111.446 30.9252 110.874 31.0276 110.346 31.2541C109.818 31.4805 109.349 31.825 108.974 32.2613C108.328 33.0259 107.645 34.0792 107.985 35.1267C108.498 36.7088 110.689 36.8748 112.055 36.9291C116.248 37.0956 120.488 36.1491 124.67 35.8949C135.694 35.3598 146.744 36.0171 157.628 37.8554C158.563 38.0016 158.965 36.5674 158.023 36.4199Z" fill="#1C1C1E"/>
</g>
<g opacity="0.5">
<path opacity="0.5" d="M97.8266 154.225C97.5464 154.023 97.2782 153.805 97.0235 153.572C96.5963 153.201 96.1815 152.816 95.7731 152.425C94.7953 151.488 93.8559 150.511 92.9349 149.518C90.8342 147.253 88.8266 144.899 86.8917 142.491C82.9456 137.551 79.6132 132.149 76.968 126.403C73.39 118.702 72.2946 110.197 72.8437 101.773C73.3859 93.4544 75.1706 84.6196 79.1746 77.2576C83.2229 69.8142 88.6385 63.1577 94.0614 56.6906C95.8071 54.6087 92.8227 51.5849 91.0633 53.6831C86.0342 59.6805 80.961 65.8379 76.9532 72.5856C72.2649 80.4791 69.9488 89.2767 68.9104 98.3618C67.9072 107.139 68.5072 116.293 71.6423 124.606C74.2538 131.399 77.8529 137.767 82.3226 143.503C84.534 146.366 86.8558 149.148 89.291 151.822C91.2115 154.06 93.3544 156.096 95.6866 157.898C96.1731 158.178 96.75 158.255 97.2927 158.113C97.8355 157.97 98.3004 157.619 98.5871 157.135C98.8587 156.645 98.9312 156.069 98.7895 155.527C98.6477 154.985 98.3028 154.518 97.8266 154.225L97.8266 154.225Z" fill="white"/>
</g>
<path opacity="0.5" d="M121.125 39.4812C108.411 42.1176 96.7624 48.4768 87.6513 57.7545C78.5403 67.0322 72.3764 78.8118 69.9391 91.6037C67.5018 104.396 68.9007 117.625 73.9587 129.619C79.0167 141.614 87.5068 151.834 98.3553 158.988C109.204 166.142 121.923 169.909 134.906 169.811C147.888 169.713 160.55 165.756 171.29 158.44C182.031 151.123 190.367 140.776 195.245 128.707C200.123 116.638 201.324 103.389 198.696 90.6354C195.172 73.5331 185.019 58.5357 170.472 48.9424C155.925 39.3492 138.174 35.9459 121.125 39.4812ZM148.677 161.156C116.692 167.789 86.2076 147.239 79.5957 115.154C72.9839 83.0682 92.7483 51.5972 124.733 44.9646C132.339 43.3861 140.181 43.326 147.81 44.7878C155.439 46.2495 162.706 49.2045 169.197 53.484C175.687 57.7634 181.274 63.2835 185.637 69.7289C190.001 76.1744 193.056 83.419 194.629 91.049C196.201 98.6791 196.26 106.545 194.801 114.198C193.343 121.851 190.396 129.14 186.129 135.65C181.862 142.161 176.358 147.764 169.932 152.14C163.506 156.516 156.283 159.58 148.677 161.156L148.677 161.156Z" fill="white"/>
<path d="M153.82 160.068C177.545 153.262 195.636 130.133 196.581 105.398C197.527 80.6627 181.256 56.2116 158.12 47.6026C134.985 38.9936 106.753 46.8847 91.3895 66.255C76.0257 85.6252 74.7037 114.994 88.2647 135.674C101.826 156.355 129.233 166.766 153.048 160.284" fill="white"/>
<path d="M154.042 160.888C165.703 157.392 176.03 150.427 183.658 140.914C191.409 131.486 196.157 119.938 197.283 107.769C198.144 95.4694 195.173 83.2057 188.781 72.6744C182.539 62.0547 173.243 53.5746 162.113 48.3451C151.011 43.4146 138.662 42.0405 126.752 44.4104C114.727 46.6532 103.64 52.4398 94.9072 61.0317C86.1281 70.0071 80.4622 81.5789 78.748 94.0352C76.8746 106.49 78.8238 119.222 84.3366 130.539C89.9071 141.425 98.7462 150.281 109.605 155.855C120.379 161.547 132.584 163.932 144.699 162.712C147.593 162.396 150.459 161.858 153.271 161.104C153.481 161.038 153.657 160.893 153.762 160.699C153.868 160.505 153.894 160.278 153.835 160.065C153.777 159.853 153.638 159.671 153.449 159.559C153.259 159.446 153.034 159.412 152.82 159.463C130.166 165.547 104.254 156.376 90.4385 137.337C76.0543 117.516 76.3227 88.6398 90.5267 68.7972C104.33 49.5143 130.7 40.7359 153.389 46.9708C176.443 53.3058 193.778 75.3782 195.608 99.1375C197.432 122.831 182.942 146.11 161.712 156.182C159.091 157.419 156.376 158.445 153.592 159.248C153.382 159.314 153.205 159.459 153.1 159.653C152.995 159.847 152.969 160.074 153.027 160.287C153.086 160.499 153.224 160.681 153.414 160.793C153.603 160.905 153.828 160.94 154.042 160.888L154.042 160.888Z" fill="#1C1C1E"/>
<path d="M152.637 168.122C165.61 164.233 177.102 156.487 185.595 145.908C194.185 135.472 199.471 122.7 200.776 109.229C201.962 95.5894 198.374 81.7558 191.428 70.0345C184.49 58.1598 174.132 48.669 161.716 42.8096C149.314 37.2777 135.508 35.7355 122.197 38.3949C108.828 40.8983 96.5028 47.333 86.7885 56.8811C77.0031 66.8775 70.6862 79.7688 68.7729 93.6469C66.6936 107.457 68.8331 121.576 74.9094 134.143C81.0962 146.327 90.9551 156.245 103.084 162.486C115.063 168.827 128.635 171.498 142.115 170.166C145.377 169.816 148.607 169.213 151.776 168.362C151.986 168.296 152.162 168.151 152.268 167.957C152.373 167.763 152.399 167.536 152.341 167.324C152.282 167.111 152.144 166.929 151.954 166.817C151.765 166.705 151.539 166.67 151.326 166.722C138.554 169.921 125.127 169.273 112.72 164.86C100.314 160.448 89.4792 152.465 81.5696 141.911C73.6846 130.738 69.5323 117.346 69.7089 103.658C69.694 90.0046 73.878 76.6786 81.6903 65.4979C89.4117 54.6804 100.796 46.7504 113.305 42.5033C125.759 38.1905 139.21 37.6845 151.951 41.0492C164.804 44.5788 176.107 52.5134 184.431 62.8824C192.847 73.2815 197.965 85.9716 199.124 99.316C200.017 112.543 196.761 125.719 189.81 136.995C182.999 148.322 173.032 157.401 161.138 163.113C158.247 164.47 155.254 165.597 152.186 166.481C151.976 166.547 151.8 166.692 151.695 166.886C151.589 167.08 151.563 167.307 151.622 167.52C151.68 167.733 151.819 167.914 152.008 168.027C152.197 168.139 152.423 168.173 152.637 168.122L152.637 168.122Z" fill="#1C1C1E"/>
<path d="M129.064 143.9C129.123 143.907 129.18 143.928 129.229 143.96C129.279 143.992 129.321 144.035 129.352 144.086C129.939 144.652 130.323 145.398 130.442 146.206C130.518 147.077 130.131 148.062 128.516 148.889C128.369 148.955 128.213 148.997 128.053 149.013C126.561 148.724 125.084 148.358 123.628 147.918C122.891 147.732 122.191 147.431 121.471 147.191C120.763 146.921 120.027 146.717 119.342 146.39C116.334 145.136 113.446 143.609 110.714 141.829C108.01 140.017 105.474 137.966 103.135 135.699C102.504 135.139 101.953 134.496 101.372 133.885C100.804 133.261 100.201 132.669 99.6862 131.997C99.6862 131.997 99.3865 131.572 98.8809 130.856C98.6361 130.493 98.3186 130.078 98.0089 129.573C97.7082 129.066 97.3733 128.501 97.0137 127.894C96.2502 126.573 95.5559 125.214 94.9338 123.82C94.6227 123.088 94.3507 122.333 94.0752 121.606C93.9421 121.244 93.8104 120.884 93.68 120.528C93.5657 120.168 93.4742 119.806 93.3782 119.459C92.8424 117.897 92.5241 116.269 92.4325 114.621C92.4043 113.697 92.6002 113.405 92.9123 113.568C93.5894 113.881 94.6197 116.025 96.0739 118.458C96.0527 118.306 96.3752 119.005 97.0488 120.045C97.3708 120.572 97.7517 121.196 98.1637 121.87C98.6198 122.517 99.1094 123.212 99.6016 123.91C100.066 124.624 100.662 125.254 101.15 125.891C101.596 126.473 102.074 127.031 102.581 127.561C103.455 128.508 104.041 129.142 104.041 129.142C104.942 130.083 105.782 131.085 106.739 131.97C108.846 134.008 111.13 135.853 113.564 137.483C116.016 139.076 118.607 140.442 121.305 141.567C121.917 141.864 122.574 142.038 123.207 142.28C123.85 142.492 124.473 142.768 125.13 142.93C126.424 143.32 127.737 143.644 129.064 143.9Z" fill="#C7C7CC"/>
<path d="M118.657 65.9492C118.68 65.939 118.705 65.9338 118.73 65.934C118.755 65.9342 118.779 65.9398 118.802 65.9504C119.336 66.0688 120.212 66.5541 119.496 67.7719C119.463 67.8235 119.421 67.8692 119.373 67.9071C118.3 68.3016 117.24 68.6995 116.212 69.1399C113.467 70.2402 110.989 71.9202 108.948 74.0658C106.927 76.2257 105.371 78.7807 104.378 81.5712C104.167 82.1458 104.008 82.7385 103.834 83.3246C103.834 83.3246 103.778 83.5038 103.685 83.8084C103.601 84.1136 103.43 84.5333 103.323 85.0355C103.029 86.1413 102.805 87.2647 102.653 88.3988C102.459 90.238 102.353 90.8423 102.115 90.6656C101.725 89.9456 101.515 89.1411 101.504 88.3216C101.456 88.058 101.43 87.7906 101.428 87.5226C101.444 86.9934 101.413 86.2533 101.485 85.5129C101.53 84.8247 101.614 84.1397 101.736 83.4611C101.824 82.8985 101.907 82.5246 101.907 82.5246C102.081 81.975 102.222 81.4134 102.427 80.8745C103.515 77.8117 105.222 75.0072 107.441 72.6366C109.678 70.2842 112.39 68.4386 115.396 67.2236C116.481 66.7584 117.574 66.3482 118.657 65.9492Z" fill="#2C2C2E"/>
<path d="M97.3688 93.1552C97.3458 93.1544 97.3233 93.1484 97.303 93.1376C97.2827 93.1267 97.2651 93.1114 97.2516 93.0927C97.0795 92.9873 96.9401 92.836 96.8488 92.6556C96.7575 92.4753 96.7179 92.2731 96.7345 92.0715C96.7512 91.8699 96.8233 91.677 96.9429 91.5141C97.0625 91.3513 97.2249 91.225 97.4119 91.1494C97.4694 91.1173 97.5317 91.0947 97.5964 91.0824C98.8427 91.2221 100.061 91.5469 101.213 92.0463L101.38 92.126C101.696 92.2713 102.012 92.4268 102.313 92.5959L102.403 92.6452C102.405 92.653 102.408 92.6603 102.413 92.6665C102.418 92.6728 102.425 92.6779 102.432 92.6815C102.44 92.685 102.449 92.6865 102.458 92.6861C102.466 92.6856 102.475 92.6831 102.483 92.6788C102.478 92.7151 102.542 92.5783 102.596 92.4667L102.766 92.1172C103.237 91.1521 103.845 89.9421 104.393 88.9625C106.162 85.6036 106.048 87.1763 105.438 89.4468C105.503 89.3412 105.091 90.6809 104.664 92.0471C104.556 92.3908 104.448 92.7336 104.347 93.0545C104.223 93.5261 104.037 93.9789 103.793 94.4009C103.681 94.5513 103.539 94.6773 103.376 94.7713C103.214 94.8652 103.034 94.9251 102.848 94.9473C102.707 94.9672 102.564 94.9643 102.424 94.9388C102.17 94.883 101.927 94.7804 101.71 94.6363L101.203 94.3549C100.982 94.2334 100.758 94.1258 100.53 94.0208L100.388 93.9592C99.4272 93.5426 98.4095 93.2717 97.3688 93.1552Z" fill="#2C2C2E"/>
<path d="M171.871 134.604C171.852 134.622 171.83 134.636 171.806 134.645C171.782 134.654 171.757 134.657 171.731 134.656C171.168 134.746 170.22 134.557 170.466 133.176C170.478 133.117 170.501 133.061 170.531 133.01C171.378 132.297 172.179 131.531 172.929 130.717C174.963 128.498 176.621 125.961 177.839 123.206C178.097 122.642 178.324 122.067 178.535 121.485C178.535 121.485 178.613 121.313 178.746 121.017C178.867 120.725 179.039 120.312 179.242 119.823C179.605 118.85 180.053 117.607 180.362 116.55C180.852 114.753 181.075 114.186 181.274 114.402C181.528 115.177 181.6 115.999 181.484 116.806C181.444 117.735 181.32 118.659 181.115 119.566C180.924 120.545 180.678 121.512 180.379 122.463C180.188 123.001 179.965 123.527 179.732 124.048C178.424 127.012 176.642 129.742 174.457 132.13C173.647 133.008 172.784 133.835 171.871 134.604Z" fill="#2C2C2E"/>
<path d="M180.079 111.844C180.088 111.834 180.092 111.831 180.141 111.851C180.76 112.104 181.27 112.568 181.581 113.162C181.596 113.19 181.606 113.221 181.611 113.253C181.598 113.267 181.351 113.532 180.987 113.921C180.62 114.308 180.127 114.809 179.622 115.295C178.617 116.272 177.557 117.175 177.557 117.175C177.074 117.421 176.566 117.613 176.04 117.747C174.931 118.062 174.991 117.428 175.337 116.835C175.625 116.391 175.935 115.962 176.266 115.549C176.266 115.549 177.263 114.696 178.208 113.773C178.682 113.313 179.146 112.84 179.491 112.475C179.833 112.108 180.066 111.858 180.079 111.844Z" fill="#2C2C2E"/>
<path d="M134.58 106.615C134.592 106.541 134.631 106.475 134.688 106.428C134.803 106.272 134.962 106.154 135.145 106.09C135.328 106.026 135.526 106.019 135.713 106.07C136.055 106.191 136.202 106.633 136.535 107.037C136.558 107.067 136.578 107.099 136.594 107.133C136.532 107.451 136.584 107.781 136.742 108.064C136.91 108.385 137.18 108.641 137.509 108.79C137.568 108.82 137.627 108.853 137.692 108.879C138.165 109.055 138.668 109.135 139.172 109.115C139.172 109.115 139.337 109.129 139.625 109.127C139.724 109.138 139.738 109.198 139.822 109.127C139.838 109.109 139.851 109.087 139.86 109.064C139.867 108.999 139.858 108.816 139.855 108.691C139.845 108.414 139.829 108.136 139.795 107.866C139.746 107.356 139.6 106.861 139.363 106.407C139.075 105.923 138.647 105.539 138.136 105.303C137.828 105.164 137.706 105.088 137.805 104.975C137.943 104.888 138.098 104.831 138.259 104.808C138.42 104.784 138.584 104.795 138.741 104.838C139.349 104.965 139.9 105.285 140.311 105.751C140.537 105.966 140.721 106.221 140.852 106.504C141.178 107.153 141.403 107.848 141.522 108.565L141.573 108.852C141.596 109.006 141.608 109.163 141.608 109.319C141.616 109.543 141.58 109.767 141.502 109.977C141.424 110.187 141.305 110.379 141.153 110.543C141 110.707 140.817 110.84 140.614 110.933C140.411 111.026 140.191 111.078 139.968 111.086C139.587 111.144 139.383 111.161 139.182 111.177L138.892 111.19C138.217 111.18 137.55 111.051 136.921 110.807C136.806 110.763 136.692 110.708 136.58 110.654C135.861 110.307 135.273 109.738 134.9 109.03C134.503 108.292 134.389 107.432 134.58 106.615Z" fill="#2C2C2E"/>
<path d="M135.802 101.785C135.814 101.807 135.821 101.831 135.822 101.856C135.823 101.881 135.819 101.906 135.81 101.929C135.725 102.465 135.306 103.388 134.046 102.75C133.993 102.719 133.945 102.68 133.903 102.634C133.432 101.574 132.971 100.511 132.529 99.4389C130.537 94.6741 128.785 89.8121 127.279 84.8712C126.529 82.4007 125.824 79.9156 125.202 77.4094C124.88 76.1591 124.591 74.9004 124.301 73.6424L123.841 71.5486C123.841 71.5486 123.401 68.3773 123.334 66.1252C123.14 62.3198 123.847 63.7488 124.477 65.998C124.472 65.8756 124.825 67.2271 125.175 68.6061C125.547 69.9833 125.924 71.3823 125.924 71.3823L126.417 73.6213C126.709 74.8393 126.987 76.061 127.305 77.2724C127.919 79.7013 128.596 82.1127 129.337 84.5066C130.805 89.2965 132.507 94.0054 134.444 98.6334C134.882 99.6905 135.334 100.741 135.802 101.785Z" fill="#2C2C2E"/>
<path d="M142.412 112.75C142.379 112.728 142.367 112.722 142.347 112.657C142.236 112.395 142.201 112.108 142.246 111.828C142.312 111.526 142.542 111.202 143.235 111.138C143.297 111.135 143.359 111.143 143.419 111.16C144.329 111.79 145.171 112.513 145.932 113.316C147.503 114.905 149.182 116.429 150.792 118.03L155.602 122.825L164.1 131.402C164.1 131.402 165.989 133.548 167.235 135.141C169.415 137.776 168.152 137.146 166.468 135.845C166.535 135.936 165.561 135.125 164.581 134.28C163.603 133.427 162.61 132.561 162.61 132.561L154.113 123.988C152.552 122.411 150.981 120.847 149.401 119.296C147.834 117.739 146.191 116.25 144.612 114.653C143.944 113.946 143.207 113.308 142.412 112.75Z" fill="#2C2C2E"/>
<path d="M157.788 63.1409C157.68 63.098 157.641 63.083 157.543 62.9133C157.076 62.2673 156.837 61.4835 156.864 60.6859C156.946 59.833 157.493 58.9493 159.207 58.4292C159.361 58.3907 159.52 58.3769 159.678 58.3882C162.452 59.5084 165.11 60.8987 167.613 62.5393C168.892 63.3723 170.108 64.2995 171.303 65.2529L173.199 66.8995L174.996 68.6645C174.996 68.6645 175.315 69.0723 175.856 69.7627C176.571 70.6837 177.237 71.6416 177.852 72.6325C179.477 75.2515 180.637 78.1331 181.281 81.1494C181.695 82.7425 181.813 84.3988 181.627 86.0347C181.503 86.9403 181.261 87.1825 180.988 86.9704C180.54 86.454 180.208 85.8462 180.016 85.189C179.864 84.727 179.579 84.2247 179.359 83.6658C179.243 83.3823 179.124 83.094 179.004 82.8011C178.857 82.5071 178.709 82.2098 178.559 81.909C177.64 80.0524 176.571 78.2751 175.361 76.5953C174.856 75.949 174.379 75.2867 173.84 74.7245C173.325 74.1472 172.857 73.6014 172.394 73.1793C171.95 72.7448 171.58 72.382 171.321 72.1279C171.044 71.8902 170.885 71.7541 170.885 71.7541C170.429 71.3191 169.996 70.8624 169.525 70.4426L168.091 69.204C167.032 68.3687 165.958 67.5508 164.82 66.8171C162.601 65.3647 160.246 64.1335 157.788 63.1409Z" fill="#C7C7CC"/>
<path d="M137.28 161.107C136.663 158.297 136.926 155.465 137.048 152.621C137.127 150.779 137.113 148.933 137.221 147.093C137.268 146.272 135.996 146.275 135.949 147.093C135.839 148.976 135.859 150.864 135.77 152.749C135.633 155.669 135.42 158.563 136.053 161.446C136.229 162.247 137.456 161.908 137.28 161.107Z" fill="#1C1C1E"/>
<path d="M79.0488 107.366C83.9797 107.839 88.9607 108.12 93.9134 108.204C94.0782 108.198 94.2344 108.128 94.3491 108.009C94.4637 107.89 94.5277 107.731 94.5277 107.566C94.5277 107.4 94.4637 107.241 94.3491 107.122C94.2344 107.003 94.0782 106.933 93.9134 106.928C88.9607 106.844 83.9797 106.563 79.0488 106.09C78.2345 106.011 78.2398 107.288 79.0488 107.366Z" fill="#1C1C1E"/>
<path d="M137.347 45.0807C137.028 49.0976 136.882 53.1426 136.909 57.1721C136.915 57.3374 136.984 57.4941 137.103 57.6091C137.222 57.7241 137.38 57.7883 137.545 57.7883C137.71 57.7883 137.869 57.7241 137.987 57.6091C138.106 57.4941 138.175 57.3374 138.181 57.1721C138.154 53.1426 138.3 49.0976 138.619 45.0807C138.683 44.262 137.411 44.2663 137.347 45.0807Z" fill="#1C1C1E"/>
<path d="M80.1006 116.148C81.1218 116.26 82.1534 116.074 83.0719 115.613C83.1926 115.541 83.2803 115.424 83.3159 115.288C83.3515 115.152 83.3321 115.007 83.262 114.885C83.1887 114.766 83.0725 114.68 82.9375 114.644C82.8025 114.609 82.659 114.627 82.5369 114.695C82.4794 114.723 82.4215 114.75 82.3634 114.777C82.2206 114.842 82.4596 114.741 82.3133 114.798C82.2089 114.839 82.104 114.877 81.9973 114.912C81.7839 114.98 81.5661 115.033 81.3454 115.071C81.2981 115.079 81.2507 115.086 81.2032 115.093C81.3265 115.076 81.1271 115.099 81.1058 115.101C80.9943 115.111 80.8826 115.117 80.7706 115.12C80.5468 115.123 80.3229 115.112 80.1007 115.085C79.9602 115.085 79.8256 115.141 79.7262 115.241C79.6269 115.341 79.571 115.476 79.5707 115.617C79.5746 115.756 79.6318 115.889 79.7303 115.988C79.8289 116.087 79.9614 116.144 80.1007 116.148L80.1006 116.148Z" fill="#1C1C1E"/>
<path d="M82.1229 124.113L85.9435 123.056C86.079 123.019 86.1942 122.929 86.2636 122.806C86.333 122.683 86.351 122.538 86.3136 122.402C86.2763 122.266 86.1866 122.151 86.0643 122.081C85.9421 122.011 85.7972 121.993 85.6617 122.031L81.8411 123.088C81.774 123.106 81.7112 123.138 81.6563 123.181C81.6014 123.224 81.5554 123.277 81.521 123.338C81.4867 123.398 81.4645 123.465 81.456 123.535C81.4474 123.604 81.4525 123.674 81.471 123.742C81.4895 123.809 81.521 123.872 81.5638 123.927C81.6066 123.982 81.6597 124.028 81.7203 124.063C81.7808 124.097 81.8475 124.119 81.9166 124.128C81.9857 124.137 82.0558 124.132 82.1229 124.113Z" fill="#1C1C1E"/>
<path d="M85.6876 131.719C86.1788 131.478 86.6824 131.262 87.1742 131.022C87.7079 130.791 88.207 130.487 88.6573 130.118C88.7559 130.018 88.8111 129.883 88.8111 129.742C88.8111 129.601 88.7559 129.466 88.6573 129.366C88.5564 129.269 88.4222 129.215 88.2826 129.215C88.1429 129.215 88.0087 129.269 87.9078 129.366C87.8693 129.401 87.7284 129.489 87.8729 129.4C87.8223 129.431 87.7756 129.471 87.7262 129.504C87.623 129.573 87.5166 129.638 87.409 129.7C87.1464 129.852 86.8757 129.989 86.6032 130.121C86.123 130.355 85.6318 130.565 85.1526 130.801C85.0318 130.873 84.9441 130.989 84.9085 131.125C84.873 131.262 84.8923 131.406 84.9625 131.528C85.0358 131.647 85.152 131.734 85.287 131.769C85.422 131.805 85.5654 131.787 85.6876 131.719H85.6876Z" fill="#1C1C1E"/>
<path d="M89.5384 137.214C89.9893 136.893 90.4606 136.602 90.9493 136.343C91.4674 136.048 91.9433 135.684 92.3641 135.261C92.4626 135.161 92.5176 135.026 92.5173 134.886C92.5169 134.745 92.4611 134.611 92.362 134.511C92.263 134.412 92.1288 134.356 91.9887 134.356C91.8487 134.355 91.7142 134.41 91.6146 134.509C91.4922 134.631 91.3671 134.749 91.2368 134.862C91.1804 134.911 91.1219 134.957 91.0647 135.005C91.0131 135.048 91.1459 134.945 91.067 135.004C91.0379 135.025 91.0089 135.047 90.9794 135.068C90.7894 135.204 90.5916 135.327 90.3871 135.44C89.9074 135.694 89.4452 135.98 89.0034 136.295C88.8846 136.369 88.7987 136.486 88.7633 136.621C88.7279 136.756 88.7457 136.9 88.8132 137.023C88.8852 137.143 89.0014 137.231 89.137 137.267C89.2725 137.302 89.4166 137.283 89.5383 137.214H89.5384Z" fill="#1C1C1E"/>
<path d="M93.6613 142.539C94.1658 142.167 94.6472 141.765 95.1029 141.335L94.9956 141.418C95.0824 141.351 95.1729 141.289 95.2668 141.232C95.3877 141.161 95.4754 141.044 95.5108 140.908C95.5462 140.772 95.5263 140.627 95.4555 140.506C95.3847 140.384 95.2688 140.296 95.1331 140.26C94.9974 140.224 94.8531 140.244 94.7318 140.314C94.2273 140.686 93.7458 141.088 93.2902 141.518L93.3974 141.435C93.3106 141.502 93.2201 141.564 93.1263 141.621C93.0054 141.692 92.9176 141.809 92.8822 141.945C92.8469 142.081 92.8668 142.226 92.9376 142.347C93.0084 142.469 93.1243 142.557 93.26 142.593C93.3956 142.629 93.54 142.609 93.6613 142.539Z" fill="#1C1C1E"/>
<path d="M98.2465 147.469C98.8455 146.901 99.406 146.294 99.9242 145.651C99.9943 145.529 100.014 145.384 99.9781 145.248C99.9425 145.112 99.8549 144.995 99.7341 144.923C99.612 144.856 99.4685 144.838 99.3335 144.873C99.1985 144.909 99.0823 144.995 99.009 145.114C98.9652 145.179 98.9196 145.242 98.8723 145.304L98.9552 145.196C98.524 145.754 97.9647 146.192 97.4969 146.717C97.4473 146.766 97.4078 146.825 97.3808 146.889C97.3538 146.954 97.3398 147.023 97.3396 147.093C97.3394 147.163 97.353 147.233 97.3797 147.298C97.4063 147.362 97.4454 147.421 97.4948 147.471C97.5442 147.52 97.6029 147.56 97.6675 147.586C97.732 147.613 97.8012 147.627 97.8711 147.627C97.941 147.626 98.0101 147.612 98.0745 147.585C98.1389 147.558 98.1974 147.518 98.2465 147.469L98.2465 147.469Z" fill="#1C1C1E"/>
<path d="M104.569 151.709C104.95 151.188 105.351 150.682 105.734 150.164C106.101 149.661 106.439 149.138 106.745 148.595C106.78 148.535 106.803 148.468 106.813 148.399C106.823 148.33 106.818 148.259 106.801 148.192C106.783 148.124 106.753 148.06 106.71 148.005C106.668 147.949 106.616 147.902 106.555 147.867C106.495 147.831 106.429 147.808 106.36 147.799C106.29 147.789 106.22 147.794 106.153 147.812C106.085 147.829 106.022 147.86 105.967 147.903C105.911 147.945 105.864 147.998 105.829 148.059C105.524 148.601 105.186 149.125 104.819 149.627C104.435 150.145 104.035 150.651 103.654 151.172C103.584 151.294 103.564 151.439 103.6 151.575C103.635 151.711 103.723 151.828 103.844 151.899C103.967 151.967 104.11 151.984 104.245 151.949C104.38 151.913 104.496 151.828 104.569 151.709Z" fill="#1C1C1E"/>
<path d="M110.658 155.658C111.143 154.82 111.627 153.982 112.111 153.144C112.182 153.022 112.201 152.878 112.165 152.741C112.13 152.605 112.042 152.489 111.92 152.418C111.799 152.347 111.655 152.327 111.519 152.363C111.383 152.398 111.267 152.486 111.196 152.607C110.712 153.445 110.227 154.283 109.743 155.121C109.708 155.181 109.685 155.248 109.675 155.317C109.665 155.387 109.669 155.457 109.687 155.525C109.705 155.593 109.735 155.656 109.777 155.712C109.82 155.768 109.872 155.815 109.933 155.85C109.993 155.885 110.059 155.908 110.128 155.918C110.198 155.927 110.268 155.923 110.335 155.905C110.403 155.887 110.466 155.856 110.521 155.814C110.577 155.771 110.623 155.718 110.658 155.658Z" fill="#1C1C1E"/>
<path d="M117.158 158.474C117.247 158.081 117.367 157.695 117.516 157.32C117.526 157.294 117.58 157.149 117.533 157.277C117.552 157.226 117.577 157.176 117.599 157.127C117.638 157.04 117.68 156.953 117.722 156.868C117.814 156.684 117.914 156.505 118.019 156.33C118.09 156.208 118.109 156.063 118.074 155.927C118.038 155.791 117.95 155.675 117.828 155.604C117.707 155.533 117.563 155.513 117.427 155.548C117.292 155.584 117.175 155.672 117.104 155.793C116.656 156.536 116.329 157.345 116.136 158.191C116.099 158.327 116.117 158.473 116.186 158.595C116.256 158.718 116.371 158.808 116.506 158.845C116.642 158.883 116.787 158.865 116.909 158.795C117.031 158.726 117.121 158.61 117.158 158.474Z" fill="#1C1C1E"/>
<path d="M122.823 159.841L123.206 158.247C123.243 158.111 123.225 157.966 123.156 157.843C123.086 157.721 122.971 157.631 122.835 157.593C122.7 157.556 122.555 157.574 122.433 157.643C122.31 157.713 122.221 157.829 122.183 157.964L121.801 159.558C121.782 159.625 121.777 159.696 121.786 159.765C121.795 159.834 121.817 159.901 121.851 159.962C121.885 160.023 121.931 160.076 121.986 160.119C122.041 160.162 122.104 160.193 122.171 160.212C122.238 160.23 122.308 160.236 122.377 160.227C122.446 160.218 122.513 160.196 122.574 160.162C122.634 160.127 122.687 160.081 122.73 160.026C122.773 159.971 122.805 159.908 122.823 159.841Z" fill="#1C1C1E"/>
<path d="M129.261 161.638C129.445 161.083 129.601 160.518 129.726 159.946C129.839 159.337 129.92 158.723 129.971 158.106C129.97 157.965 129.914 157.83 129.815 157.73C129.716 157.631 129.581 157.575 129.441 157.574C129.301 157.578 129.168 157.635 129.07 157.734C128.971 157.833 128.914 157.966 128.911 158.106C128.879 158.424 128.845 158.743 128.806 159.06C128.796 159.144 128.819 158.975 128.806 159.056C128.8 159.093 128.796 159.13 128.79 159.166C128.782 159.223 128.773 159.28 128.764 159.337C128.744 159.46 128.721 159.582 128.696 159.704C128.571 160.262 128.419 160.813 128.238 161.355C128.202 161.491 128.221 161.636 128.29 161.758C128.359 161.881 128.474 161.971 128.609 162.009C128.744 162.044 128.887 162.024 129.009 161.955C129.13 161.886 129.221 161.772 129.26 161.638H129.261Z" fill="#1C1C1E"/>
<path d="M145.61 161.905C145.433 161.251 145.41 160.568 145.259 159.909C145.221 159.773 145.131 159.659 145.009 159.589C144.887 159.52 144.743 159.501 144.607 159.537C144.474 159.578 144.36 159.668 144.291 159.79C144.222 159.912 144.203 160.056 144.237 160.191C144.388 160.851 144.411 161.534 144.588 162.187C144.625 162.323 144.715 162.439 144.837 162.509C144.96 162.578 145.105 162.596 145.24 162.559C145.376 162.521 145.491 162.431 145.56 162.309C145.63 162.186 145.648 162.041 145.61 161.905Z" fill="#1C1C1E"/>
<path d="M151.273 160.541C151.177 160.203 151.061 159.871 150.925 159.547C150.867 159.401 150.812 159.254 150.767 159.104C150.745 159.028 150.724 158.95 150.707 158.872C150.699 158.832 150.691 158.791 150.684 158.75C150.68 158.73 150.677 158.709 150.674 158.688C150.663 158.622 150.691 158.831 150.679 158.717C150.674 158.577 150.619 158.443 150.523 158.341C150.449 158.267 150.355 158.216 150.252 158.195C150.149 158.175 150.043 158.185 149.946 158.226C149.849 158.266 149.766 158.334 149.708 158.421C149.65 158.509 149.619 158.612 149.619 158.717C149.661 159.089 149.753 159.454 149.892 159.802C150.032 160.135 150.152 160.476 150.251 160.823C150.289 160.959 150.378 161.075 150.501 161.144C150.623 161.214 150.768 161.232 150.903 161.195C151.039 161.157 151.154 161.067 151.223 160.944C151.293 160.822 151.311 160.677 151.273 160.541Z" fill="#1C1C1E"/>
<path d="M157.513 158.989C157.408 158.796 157.309 158.598 157.219 158.397C157.201 158.357 157.18 158.316 157.166 158.275C157.208 158.398 157.143 158.22 157.135 158.199C157.097 158.103 157.061 158.007 157.026 157.909C156.883 157.507 156.771 157.095 156.69 156.675C156.652 156.54 156.562 156.425 156.44 156.355C156.318 156.286 156.174 156.267 156.038 156.304C155.905 156.345 155.792 156.435 155.723 156.557C155.654 156.679 155.634 156.822 155.668 156.958C155.845 157.857 156.159 158.723 156.598 159.526C156.67 159.647 156.786 159.735 156.921 159.77C157.057 159.806 157.201 159.787 157.323 159.717C157.442 159.644 157.528 159.527 157.564 159.392C157.599 159.256 157.581 159.112 157.513 158.989V158.989Z" fill="#1C1C1E"/>
<path d="M162.753 156.721C162.449 156.243 162.178 155.746 161.939 155.232C161.884 155.112 161.83 154.992 161.779 154.87C161.803 154.929 161.732 154.755 161.724 154.736C161.696 154.665 161.669 154.595 161.642 154.524C161.542 154.26 161.451 153.992 161.368 153.721C161.35 153.653 161.319 153.59 161.276 153.535C161.233 153.48 161.18 153.434 161.119 153.399C161.059 153.365 160.992 153.342 160.923 153.334C160.854 153.325 160.784 153.33 160.716 153.349C160.649 153.367 160.586 153.399 160.531 153.442C160.476 153.485 160.431 153.538 160.396 153.599C160.362 153.66 160.34 153.727 160.331 153.796C160.323 153.866 160.328 153.936 160.346 154.003C160.696 155.15 161.197 156.245 161.838 157.257C161.873 157.318 161.92 157.37 161.975 157.413C162.031 157.455 162.094 157.486 162.161 157.503C162.228 157.521 162.299 157.525 162.368 157.516C162.437 157.506 162.503 157.483 162.563 157.448C162.623 157.413 162.676 157.366 162.718 157.31C162.76 157.255 162.791 157.191 162.808 157.124C162.826 157.056 162.83 156.986 162.821 156.917C162.811 156.848 162.788 156.781 162.753 156.721Z" fill="#1C1C1E"/>
<path d="M168.767 153.453C168.736 153.416 168.705 153.378 168.675 153.34L168.63 153.283C168.676 153.343 168.682 153.35 168.647 153.305C168.589 153.227 168.532 153.149 168.476 153.07C168.366 152.911 168.262 152.748 168.164 152.581C168.066 152.413 167.975 152.243 167.891 152.068C167.849 151.981 167.808 151.893 167.769 151.804L167.741 151.738C167.771 151.809 167.775 151.818 167.752 151.764C167.735 151.719 167.716 151.674 167.699 151.629C167.658 151.497 167.572 151.384 167.455 151.311C167.364 151.258 167.26 151.233 167.154 151.239C167.049 151.246 166.948 151.284 166.865 151.349C166.781 151.413 166.719 151.501 166.685 151.601C166.652 151.702 166.649 151.81 166.677 151.911C166.997 152.744 167.45 153.518 168.017 154.205C168.117 154.304 168.252 154.36 168.392 154.36C168.532 154.36 168.667 154.304 168.767 154.205C168.863 154.103 168.916 153.969 168.916 153.829C168.916 153.689 168.863 153.555 168.767 153.453H168.767Z" fill="#1C1C1E"/>
<path d="M173.213 150.56C173.016 149.97 172.657 149.448 172.177 149.054C172.076 148.958 171.942 148.903 171.803 148.898C171.662 148.899 171.528 148.955 171.428 149.054C171.329 149.154 171.273 149.289 171.273 149.43C171.272 149.5 171.285 149.569 171.312 149.634C171.338 149.699 171.378 149.757 171.428 149.806C171.604 149.947 171.763 150.108 171.901 150.286L171.818 150.179C171.963 150.369 172.084 150.577 172.178 150.797L172.125 150.67C172.148 150.727 172.17 150.784 172.19 150.842C172.23 150.974 172.317 151.087 172.434 151.16C172.494 151.195 172.561 151.218 172.63 151.228C172.698 151.237 172.769 151.233 172.836 151.215C172.903 151.198 172.967 151.167 173.022 151.125C173.077 151.082 173.124 151.03 173.159 150.969C173.195 150.908 173.218 150.84 173.227 150.77C173.237 150.699 173.232 150.628 173.213 150.56Z" fill="#1C1C1E"/>
<path d="M177.963 145.898C177.866 145.833 177.772 145.765 177.68 145.694L177.787 145.777C177.442 145.509 177.133 145.198 176.866 144.852L176.949 144.96C176.927 144.931 176.905 144.902 176.884 144.872C176.81 144.756 176.698 144.669 176.567 144.628C176.429 144.591 176.282 144.61 176.158 144.682C176.039 144.752 175.952 144.866 175.915 144.999C175.895 145.068 175.89 145.139 175.899 145.21C175.908 145.28 175.932 145.348 175.968 145.409C176.364 145.964 176.859 146.441 177.428 146.816C177.519 146.87 177.624 146.895 177.729 146.888C177.834 146.881 177.935 146.843 178.018 146.779C178.102 146.714 178.164 146.626 178.198 146.526C178.231 146.426 178.234 146.318 178.206 146.216C178.165 146.085 178.079 145.972 177.963 145.898Z" fill="#1C1C1E"/>
<path d="M78.7621 100.492C79.2326 100.574 79.7099 100.622 80.1845 100.675C80.4261 100.702 80.6678 100.729 80.9091 100.758C80.966 100.765 81.0228 100.772 81.0796 100.78C81.1014 100.782 81.1232 100.786 81.145 100.788C80.9814 100.773 81.0949 100.781 81.1291 100.786C81.2201 100.799 81.3109 100.813 81.4015 100.829C81.5369 100.863 81.6802 100.844 81.8017 100.774C81.9231 100.705 82.0133 100.592 82.0534 100.458C82.0891 100.322 82.0703 100.177 82.0011 100.055C81.9319 99.9329 81.8179 99.8426 81.6833 99.8036C81.2127 99.721 80.7354 99.6735 80.2608 99.6203C80.0192 99.5932 79.7776 99.5665 79.5362 99.537C79.4794 99.5301 79.4225 99.523 79.3657 99.5157C79.344 99.5129 79.3221 99.5092 79.3003 99.5072C79.4639 99.5228 79.3504 99.5139 79.3162 99.5091C79.2252 99.4962 79.1344 99.4823 79.0439 99.4664C78.9084 99.4322 78.7651 99.4518 78.6437 99.5209C78.5222 99.5901 78.432 99.7036 78.3919 99.8377C78.3563 99.9736 78.3751 100.118 78.4442 100.24C78.5134 100.363 78.6275 100.453 78.7621 100.492V100.492Z" fill="#1C1C1E"/>
<path d="M79.9896 92.6867C80.4699 92.9445 81.0021 93.09 81.5464 93.1126C82.0319 93.1631 82.5201 93.1654 83.007 93.1957C83.1473 93.1949 83.2816 93.1386 83.3808 93.0391C83.4801 92.9395 83.5362 92.8048 83.537 92.664C83.5339 92.524 83.477 92.3906 83.3783 92.2915C83.2795 92.1925 83.1465 92.1355 83.007 92.1323C82.547 92.1038 82.0858 92.1004 81.6267 92.0571C81.5665 92.0515 81.5064 92.0451 81.4463 92.0381C81.4319 92.0364 81.3412 92.0258 81.4177 92.0351C81.5007 92.0452 81.3873 92.0304 81.3703 92.0278C81.2563 92.0102 81.1427 91.9891 81.0305 91.9624C80.92 91.9356 80.8109 91.903 80.7039 91.8646C80.6883 91.8591 80.6118 91.8307 80.6887 91.8598C80.7695 91.8905 80.6795 91.8545 80.6618 91.8458C80.6148 91.8223 80.569 91.7965 80.5245 91.7685C80.4029 91.6986 80.2587 91.6795 80.1231 91.7151C79.9875 91.7508 79.8713 91.8384 79.7994 91.9592C79.7313 92.0816 79.7131 92.2257 79.7485 92.3613C79.784 92.4969 79.8703 92.6135 79.9895 92.6866L79.9896 92.6867Z" fill="#1C1C1E"/>
<path d="M81.7296 85.5084L83.9905 86.227C84.126 86.2633 84.2703 86.2447 84.3922 86.1752C84.5142 86.1057 84.6041 85.991 84.6425 85.8557C84.6768 85.7198 84.6574 85.5759 84.5884 85.4541C84.5194 85.3322 84.4062 85.2418 84.2723 85.2017L82.0114 84.483C81.8759 84.4468 81.7316 84.4654 81.6097 84.5349C81.4877 84.6043 81.3979 84.7191 81.3595 84.8544C81.3252 84.9902 81.3445 85.1341 81.4135 85.256C81.4825 85.3779 81.5958 85.4683 81.7296 85.5084Z" fill="#1C1C1E"/>
<path d="M84.6186 78.2473C85.0162 78.7067 85.544 79.0335 86.1316 79.1843L86.005 79.1307C86.055 79.1519 86.1048 79.1738 86.1539 79.1972C86.2786 79.2656 86.4242 79.2847 86.5623 79.2508C86.6951 79.2129 86.8084 79.1255 86.879 79.0065C86.9145 78.9451 86.9374 78.8773 86.9466 78.807C86.9558 78.7367 86.951 78.6652 86.9324 78.5968C86.9146 78.5304 86.884 78.4681 86.8422 78.4136C86.8004 78.3591 86.7483 78.3134 86.6889 78.2791C86.4666 78.173 86.2348 78.0879 86.0082 77.992L86.1348 78.0456C85.923 77.9635 85.7221 77.8555 85.5367 77.7241L85.644 77.8072C85.5837 77.7614 85.5293 77.7082 85.4822 77.6489L85.5651 77.7565C85.5541 77.7416 85.5437 77.7264 85.5338 77.7107C85.4621 77.5926 85.3492 77.5056 85.2171 77.4663C85.1155 77.4382 85.0078 77.4412 84.9079 77.4748C84.8079 77.5083 84.7202 77.5711 84.656 77.6549C84.5917 77.7387 84.5539 77.8399 84.5472 77.9454C84.5405 78.0509 84.5654 78.156 84.6186 78.2473Z" fill="#1C1C1E"/>
<path d="M87.6906 73.0867L90.1548 74.5022C90.215 74.5377 90.2815 74.5609 90.3505 74.5706C90.4196 74.5803 90.4899 74.5762 90.5574 74.5585C90.6249 74.5409 90.6883 74.51 90.7439 74.4678C90.7995 74.4255 90.8462 74.3727 90.8814 74.3123C90.9166 74.2519 90.9395 74.1851 90.949 74.1158C90.9584 74.0465 90.9541 73.976 90.9363 73.9083C90.9185 73.8407 90.8876 73.7772 90.8453 73.7216C90.803 73.6659 90.7502 73.6192 90.6899 73.5841L88.2256 72.1686C88.1655 72.1331 88.099 72.1099 88.0299 72.1002C87.9609 72.0905 87.8906 72.0946 87.8231 72.1123C87.7556 72.1299 87.6922 72.1608 87.6366 72.203C87.581 72.2453 87.5343 72.2981 87.4991 72.3585C87.4639 72.4189 87.4409 72.4857 87.4315 72.555C87.4221 72.6243 87.4264 72.6949 87.4442 72.7625C87.462 72.8302 87.4929 72.8936 87.5352 72.9493C87.5775 73.0049 87.6303 73.0516 87.6906 73.0867Z" fill="#1C1C1E"/>
<path d="M90.9498 68.1513L91.6813 68.7366C91.7825 68.8328 91.9166 68.8864 92.056 68.8864C92.1955 68.8864 92.3296 68.8328 92.4308 68.7366C92.5299 68.6367 92.5857 68.5016 92.586 68.3607L92.5671 68.2193C92.5427 68.1306 92.4957 68.0498 92.4308 67.9847L91.6993 67.3995C91.5981 67.3033 91.464 67.2497 91.3245 67.2497C91.1851 67.2497 91.051 67.3033 90.9498 67.3995C90.8507 67.4994 90.7949 67.6345 90.7946 67.7754L90.8135 67.9167C90.8379 68.0055 90.8848 68.0863 90.9498 68.1513H90.9498Z" fill="#1C1C1E"/>
<path d="M95.2282 63.276L96.0766 64.3252C96.1761 64.4248 96.3108 64.4808 96.4514 64.481C96.5917 64.4799 96.7262 64.4241 96.8261 64.3252C96.9252 64.2253 96.981 64.0902 96.9814 63.9493L96.9624 63.808C96.938 63.7192 96.8911 63.6384 96.8261 63.5734L95.9778 62.5241C95.8783 62.4245 95.7435 62.3685 95.603 62.3684C95.4626 62.3694 95.3282 62.4253 95.2282 62.5241C95.1291 62.6241 95.0734 62.7592 95.073 62.9001L95.0919 63.0414C95.1163 63.1302 95.1633 63.211 95.2282 63.276Z" fill="#1C1C1E"/>
<path d="M99.4271 58.8187C99.5016 59.1516 99.6413 59.4664 99.838 59.7448C100.035 60.0232 100.285 60.2597 100.573 60.4405C100.695 60.5104 100.839 60.5296 100.975 60.4939C101.11 60.4582 101.226 60.3705 101.298 60.2497C101.366 60.1273 101.384 59.9832 101.349 59.8477C101.314 59.7121 101.227 59.5955 101.108 59.5223C101.052 59.4869 100.998 59.449 100.946 59.4085L101.053 59.4917C100.918 59.385 100.796 59.2621 100.691 59.1257L100.774 59.2332C100.669 59.0959 100.582 58.9464 100.514 58.788L100.567 58.915C100.516 58.7928 100.476 58.6658 100.449 58.536C100.421 58.4351 100.365 58.3447 100.286 58.2761C100.207 58.2074 100.11 58.1636 100.007 58.15C99.9034 58.1365 99.7983 58.1538 99.7047 58.1998C99.6111 58.2459 99.5331 58.3187 99.4805 58.409C99.4135 58.5345 99.3945 58.6801 99.4271 58.8187L99.4271 58.8187Z" fill="#1C1C1E"/>
<path d="M103.702 55.645C104.083 56.096 104.436 56.5718 104.844 56.9993C104.944 57.0978 105.079 57.153 105.219 57.153C105.359 57.153 105.494 57.0978 105.594 56.9993C105.691 56.8983 105.745 56.7635 105.745 56.6233C105.745 56.4832 105.691 56.3484 105.594 56.2474C105.186 55.8199 104.832 55.3441 104.451 54.8931C104.352 54.7937 104.217 54.7378 104.077 54.7374C103.936 54.7384 103.802 54.7943 103.702 54.8931C103.603 54.993 103.547 55.1281 103.547 55.269C103.553 55.4087 103.608 55.5418 103.702 55.645L103.702 55.645Z" fill="#1C1C1E"/>
<path d="M109.306 52.0442L110.529 54.5033C110.601 54.6244 110.717 54.7124 110.853 54.7481C110.989 54.7838 111.133 54.7644 111.255 54.6941C111.373 54.6206 111.459 54.504 111.495 54.3685C111.53 54.2331 111.512 54.0892 111.445 53.9667L110.221 51.5075C110.149 51.3864 110.033 51.2985 109.898 51.2628C109.762 51.2271 109.617 51.2465 109.496 51.3168C109.377 51.3903 109.291 51.5068 109.256 51.6423C109.22 51.7777 109.238 51.9216 109.306 52.0442Z" fill="#1C1C1E"/>
<path d="M113.808 49.713L114.55 51.1729C114.622 51.2939 114.738 51.3818 114.874 51.4175C115.009 51.4532 115.154 51.4338 115.275 51.3636C115.394 51.2902 115.48 51.1736 115.516 51.0382C115.551 50.9027 115.533 50.7587 115.465 50.6362L114.723 49.1763C114.651 49.0553 114.535 48.9674 114.399 48.9317C114.264 48.896 114.12 48.9154 113.998 48.9856C113.879 49.059 113.793 49.1756 113.757 49.311C113.722 49.4465 113.74 49.5905 113.808 49.713Z" fill="#1C1C1E"/>
<path d="M119.601 47.4933L119.984 48.952C120.021 49.088 120.111 49.2035 120.233 49.2731C120.356 49.3428 120.501 49.3608 120.636 49.3234C120.772 49.2859 120.887 49.1959 120.956 49.0733C121.026 48.9506 121.044 48.8053 121.006 48.6693L120.623 47.2107C120.605 47.1433 120.573 47.0802 120.53 47.025C120.488 46.9698 120.434 46.9237 120.374 46.8891C120.313 46.8546 120.247 46.8324 120.177 46.8237C120.108 46.8151 120.038 46.8202 119.971 46.8388C119.904 46.8574 119.841 46.889 119.786 46.932C119.731 46.9749 119.685 47.0283 119.651 47.0891C119.616 47.1499 119.594 47.2169 119.586 47.2863C119.577 47.3556 119.582 47.426 119.601 47.4933H119.601Z" fill="#1C1C1E"/>
<path d="M125.778 45.4935C125.944 46.1359 126.057 46.7941 126.197 47.4425C126.236 47.5779 126.325 47.6927 126.447 47.7622C126.569 47.8317 126.714 47.8502 126.849 47.8138C126.983 47.7736 127.096 47.6831 127.165 47.5613C127.234 47.4395 127.254 47.2956 127.219 47.1598C127.079 46.5114 126.966 45.8533 126.8 45.2108C126.763 45.0749 126.673 44.9593 126.551 44.8897C126.428 44.8201 126.284 44.802 126.148 44.8395C126.012 44.877 125.897 44.9669 125.828 45.0896C125.758 45.2122 125.74 45.3575 125.778 45.4935Z" fill="#1C1C1E"/>
<path d="M132.286 44.2786L132.368 46.7344C132.368 46.8754 132.424 47.0107 132.523 47.1104C132.623 47.2101 132.757 47.2661 132.898 47.2661C133.039 47.2661 133.173 47.2101 133.273 47.1104C133.372 47.0107 133.428 46.8754 133.428 46.7344L133.346 44.2786C133.346 44.1376 133.29 44.0023 133.19 43.9026C133.091 43.8029 132.956 43.7469 132.816 43.7469C132.675 43.7469 132.54 43.8029 132.441 43.9026C132.341 44.0023 132.286 44.1376 132.286 44.2786Z" fill="#1C1C1E"/>
<path d="M143.359 45.0807L143.144 46.9091C143.143 46.979 143.157 47.0481 143.184 47.1126C143.21 47.1771 143.25 47.2357 143.299 47.2851C143.398 47.3848 143.533 47.4408 143.674 47.4408C143.814 47.4408 143.949 47.3848 144.048 47.2851C144.141 47.1809 144.196 47.0484 144.204 46.9091L144.419 45.0807C144.419 45.0109 144.405 44.9417 144.379 44.8772C144.352 44.8127 144.313 44.7541 144.264 44.7048C144.164 44.6051 144.029 44.5491 143.889 44.5491C143.748 44.5491 143.613 44.6051 143.514 44.7048C143.421 44.8089 143.367 44.9414 143.359 45.0807Z" fill="#1C1C1E"/>
<path d="M150.707 45.5007L150.299 47.6854C150.261 47.8214 150.279 47.9666 150.349 48.0893C150.418 48.2119 150.533 48.3019 150.669 48.3394C150.804 48.3769 150.949 48.3588 151.072 48.2892C151.194 48.2195 151.284 48.104 151.321 47.968L151.73 45.7834C151.748 45.7161 151.753 45.6457 151.745 45.5764C151.736 45.5071 151.714 45.4402 151.68 45.3795C151.645 45.3187 151.599 45.2654 151.544 45.2225C151.489 45.1796 151.427 45.1479 151.359 45.1294C151.292 45.1108 151.222 45.1057 151.153 45.1143C151.084 45.1229 151.017 45.1451 150.957 45.1796C150.896 45.2141 150.843 45.2602 150.8 45.3153C150.758 45.3704 150.726 45.4334 150.707 45.5007Z" fill="#1C1C1E"/>
<path d="M157.464 47.6854C157.368 48.067 157.246 48.4415 157.099 48.8064C157.084 48.8426 157.089 48.8311 157.114 48.7716L157.082 48.845C157.061 48.8939 157.039 48.9425 157.016 48.9909C156.977 49.0755 156.936 49.1595 156.894 49.2427C156.804 49.4211 156.706 49.5956 156.603 49.7666C156.567 49.8269 156.544 49.8936 156.534 49.9629C156.525 50.0322 156.529 50.1028 156.546 50.1705C156.564 50.2382 156.595 50.3017 156.637 50.3575C156.679 50.4133 156.732 50.4601 156.792 50.4955C156.852 50.5308 156.919 50.5538 156.988 50.5632C157.057 50.5727 157.127 50.5684 157.195 50.5505C157.262 50.5327 157.325 50.5017 157.381 50.4592C157.436 50.4168 157.483 50.3638 157.518 50.3033C157.956 49.5783 158.283 48.791 158.486 47.9681C158.524 47.8321 158.506 47.6868 158.436 47.5642C158.367 47.4415 158.252 47.3516 158.116 47.3141C157.981 47.2766 157.836 47.2947 157.714 47.3643C157.591 47.434 157.502 47.5495 157.464 47.6854H157.464Z" fill="#1C1C1E"/>
<path d="M163.04 50.3985C163.002 50.5634 162.956 50.7263 162.901 50.8865C162.873 50.9665 162.844 51.0458 162.812 51.1244L162.788 51.1831C162.821 51.1049 162.827 51.0917 162.804 51.1436C162.789 51.1773 162.774 51.2112 162.758 51.2448C162.617 51.5467 162.446 51.8336 162.247 52.1011C162.212 52.1624 162.189 52.2302 162.179 52.3005C162.17 52.3709 162.175 52.4423 162.194 52.5108C162.232 52.644 162.319 52.7577 162.437 52.8285C162.499 52.8641 162.566 52.8871 162.636 52.8963C162.706 52.9055 162.778 52.9007 162.846 52.8821C162.976 52.8383 163.087 52.7523 163.163 52.6378C163.592 52.0535 163.898 51.3879 164.063 50.6812C164.081 50.6139 164.086 50.5435 164.078 50.4742C164.069 50.4048 164.047 50.3378 164.013 50.277C163.979 50.2162 163.933 50.1628 163.878 50.1199C163.823 50.0769 163.76 50.0453 163.693 50.0267C163.625 50.0081 163.555 50.003 163.486 50.0116C163.417 50.0203 163.35 50.0425 163.29 50.077C163.229 50.1116 163.176 50.1577 163.133 50.2129C163.09 50.2681 163.059 50.3312 163.041 50.3986L163.04 50.3985Z" fill="#1C1C1E"/>
<path d="M168.828 53.477C168.426 53.9204 168.034 54.3712 167.672 54.8482C167.33 55.298 167.025 55.7736 166.726 56.2521C166.656 56.3742 166.637 56.5188 166.672 56.6548C166.708 56.7909 166.795 56.9075 166.916 56.9795C167.038 57.0478 167.181 57.0661 167.317 57.0305C167.452 56.995 167.568 56.9083 167.641 56.7888C167.934 56.3201 168.233 55.854 168.566 55.4125C168.577 55.398 168.637 55.3148 168.588 55.3837C168.539 55.4526 168.599 55.3694 168.61 55.3551C168.646 55.309 168.683 55.2631 168.72 55.2175C168.8 55.1176 168.882 55.0187 168.966 54.921C169.165 54.6864 169.371 54.457 169.578 54.2289C169.676 54.129 169.731 53.9941 169.731 53.8536C169.73 53.7131 169.675 53.5785 169.576 53.4791C169.477 53.3798 169.342 53.3238 169.202 53.3234C169.062 53.323 168.928 53.3782 168.828 53.477L168.828 53.477Z" fill="#1C1C1E"/>
<path d="M174.064 57.074L172.683 58.5265C172.634 58.5757 172.594 58.6344 172.567 58.699C172.54 58.7636 172.526 58.833 172.526 58.903C172.526 58.9731 172.539 59.0425 172.566 59.1073C172.593 59.1721 172.632 59.2309 172.681 59.2805C172.731 59.33 172.789 59.3693 172.854 59.396C172.918 59.4227 172.988 59.4364 173.058 59.4362C173.127 59.436 173.196 59.422 173.261 59.3949C173.325 59.3678 173.384 59.3282 173.433 59.2784L174.813 57.8259C174.912 57.726 174.967 57.5911 174.966 57.4506C174.966 57.3101 174.91 57.1755 174.811 57.0761C174.712 56.9768 174.578 56.9208 174.438 56.9204C174.298 56.92 174.163 56.9752 174.064 57.074Z" fill="#1C1C1E"/>
<path d="M179.237 62.2506C179.234 62.2794 179.231 62.3081 179.227 62.3367L179.246 62.1954C179.225 62.3379 179.186 62.4772 179.13 62.6099L179.184 62.483C179.124 62.622 179.047 62.7531 178.955 62.8735L179.038 62.7659C178.945 62.8855 178.838 62.9934 178.719 63.0874L178.826 63.0043C178.707 63.0968 178.576 63.1737 178.438 63.2331L178.564 63.1795C178.491 63.2096 178.416 63.2347 178.339 63.2545C178.272 63.273 178.209 63.3046 178.154 63.3475C178.099 63.3904 178.053 63.4437 178.019 63.5045C177.984 63.5652 177.962 63.6322 177.954 63.7015C177.945 63.7709 177.95 63.8413 177.969 63.9086C177.987 63.976 178.019 64.039 178.062 64.0942C178.104 64.1493 178.158 64.1954 178.218 64.2299C178.279 64.2644 178.346 64.2865 178.415 64.2951C178.484 64.3036 178.554 64.2984 178.621 64.2798C179.057 64.1653 179.447 63.92 179.74 63.5768C179.886 63.4094 180.007 63.2218 180.099 63.0197C180.207 62.7761 180.274 62.5162 180.297 62.2507C180.297 62.1097 180.241 61.9745 180.142 61.8747C180.042 61.775 179.908 61.719 179.767 61.719C179.626 61.719 179.492 61.775 179.392 61.8747C179.298 61.9781 179.244 62.111 179.237 62.2507L179.237 62.2506Z" fill="#1C1C1E"/>
<path d="M158.023 36.4199C149.942 35.0946 141.778 34.3512 133.591 34.1954C129.457 34.1403 125.323 34.2987 121.205 34.6702C118.016 34.9631 114.752 35.6734 111.538 35.4111C110.852 35.4298 110.175 35.2542 109.584 34.9045C109.486 34.8492 109.413 34.757 109.383 34.6482C109.352 34.5394 109.365 34.4227 109.42 34.3239C109.528 34.0125 109.69 33.7225 109.898 33.4669C110.732 32.3588 111.973 32.4434 113.268 32.3855C121.423 32.0213 129.585 31.9077 137.753 32.0447C142.417 32.123 147.079 32.2831 151.739 32.525C152.904 32.5855 154.068 32.6511 155.232 32.7218C156.327 32.7883 157.462 32.7369 158.362 33.4715C158.691 33.7347 158.958 34.0674 159.145 34.446C159.331 34.8246 159.433 35.2398 159.441 35.662C159.398 36.6072 158.578 36.4846 157.826 36.3933C156.88 36.2786 156.888 37.7682 157.826 37.8819C158.989 38.0231 160.323 37.8582 160.778 36.6012C160.941 35.9727 160.95 35.3139 160.803 34.6814C160.656 34.049 160.359 33.4616 159.936 32.9699C158.841 31.6171 157.372 31.3654 155.731 31.2638C153.32 31.1144 150.907 30.9869 148.494 30.8813C138.756 30.4552 129.012 30.3862 119.261 30.6744C116.847 30.7459 114.433 30.8393 112.02 30.9547C111.446 30.9252 110.874 31.0276 110.346 31.2541C109.818 31.4805 109.349 31.825 108.974 32.2613C108.328 33.0259 107.645 34.0792 107.985 35.1267C108.498 36.7088 110.689 36.8748 112.055 36.9291C116.248 37.0956 120.488 36.1491 124.67 35.8949C135.694 35.3598 146.744 36.0171 157.628 37.8554C158.563 38.0016 158.965 36.5674 158.023 36.4199Z" fill="#1C1C1E"/>
<path d="M23.404 181.264C24.68 181.264 25.846 181 26.88 180.538L28.068 181.902L30.246 180.12L29.168 178.866C30.378 177.546 31.082 175.742 31.082 173.674C31.082 169.252 27.848 166.084 23.404 166.084C18.982 166.084 15.748 169.252 15.748 173.674C15.748 178.096 18.982 181.264 23.404 181.264ZM23.404 178.492C20.698 178.492 18.96 176.402 18.96 173.674C18.96 170.924 20.698 168.856 23.404 168.856C26.11 168.856 27.87 170.924 27.87 173.674C27.87 174.73 27.606 175.698 27.122 176.49L25.494 174.576L23.338 176.358L24.944 178.25C24.46 178.404 23.954 178.492 23.404 178.492ZM48.8583 181C47.8243 179.966 46.9003 178.998 46.0203 178.052C46.8563 176.93 47.5383 175.676 48.0663 174.51L45.8223 173.476C45.5583 174.334 45.0963 175.368 44.4803 176.314C44.0843 175.83 43.6663 175.346 43.2483 174.818C42.8743 174.378 42.4123 173.828 41.9723 173.234C43.7763 172.398 45.5803 171.452 45.5803 169.208C45.5803 167.25 43.7983 166.106 41.7303 166.106C39.2883 166.106 37.5283 167.646 37.5283 169.626C37.5283 170.616 37.9243 171.716 38.4963 172.794C36.8243 173.63 35.3503 174.796 35.3503 177.018C35.3503 179.856 37.5063 181.264 40.1903 181.264C41.7523 181.264 43.0943 180.736 44.1943 179.9C44.6123 180.34 44.9863 180.714 45.2943 181H48.8583ZM40.5863 179.064C39.3763 179.064 38.3203 178.184 38.3203 176.754C38.3203 175.742 38.8263 175.06 39.5963 174.51C40.0803 175.192 40.5863 175.852 41.0703 176.446C41.4223 176.886 42.0383 177.59 42.6983 178.316C42.0603 178.778 41.3343 179.064 40.5863 179.064ZM40.3223 169.692C40.3223 168.79 41.0043 168.13 41.8623 168.13C42.5883 168.13 43.1603 168.592 43.1603 169.362C43.1603 170.44 42.1923 171.078 40.9603 171.672C40.5863 170.968 40.3223 170.286 40.3223 169.692ZM67.1809 181L61.5269 166.326H57.6109L51.9349 181H55.4989L56.4229 178.514H62.7149L63.6169 181H67.1809ZM61.8569 175.764H57.2809L59.5689 169.45L61.8569 175.764Z" fill="white"/>
</g>
<defs>
<clipPath id="clip0">
<rect width="179.35" height="256.52" rx="8" fill="white"/>
</clipPath>
</defs>
</svg>
