<svg width="180" height="258" viewBox="0 0 180 258" fill="none" xmlns="http://www.w3.org/2000/svg">
<g clip-path="url(#clip0)">
<rect y="0.695618" width="179.348" height="256.52" rx="8" fill="#B18CFE"/>
<path d="M206.687 204.742C205.619 225.94 188.938 245.15 168.491 249.282C148.043 253.414 125.664 242.424 115.7 223.779C114.601 221.721 113.622 219.563 112.643 217.406C110.115 211.835 107.588 206.266 102.994 202.434C97.7473 198.059 91.0002 196.888 84.1852 195.706C79.8575 194.956 75.5025 194.201 71.487 192.617C61.807 188.799 54.291 179.754 52.1958 169.402C48.8005 152.626 59.5551 135.498 73.8967 126.546C88.2383 117.593 105.472 115.1 122.188 113.178C128.582 112.444 133.777 107.537 137.487 102.183C138.923 100.11 140.215 97.9325 141.506 95.7562C143.55 92.311 145.592 88.8697 148.199 85.8565C159.238 73.0973 179.795 70.9442 193.855 80.1188C207.916 89.2934 214.645 108.159 210.906 124.731C210.262 127.586 209.348 130.365 208.434 133.144L208.434 133.145C207.559 135.805 206.684 138.466 206.045 141.193C204.681 147.022 204.42 153.054 204.265 159.044C204.08 166.186 204.036 173.346 204.693 180.459C204.922 182.934 205.235 185.405 205.548 187.876C206.26 193.49 206.971 199.102 206.687 204.742Z" fill="white" fill-opacity="0.48"/>
<path d="M122.165 108.115C129.81 104.243 135.895 97.5169 139.727 89.7466C140.23 88.7278 140.706 87.6453 140.688 86.5054C140.671 85.3655 140.019 84.1581 138.936 83.8686C137.384 83.4538 136.05 84.9689 135.082 86.272C128.434 95.2239 118.757 102.252 107.838 103.784C103.644 104.373 99.386 104.152 95.1582 103.93L88.5547 103.582C83.236 103.303 77.8435 103.029 72.6374 104.171C67.4312 105.314 62.3442 108.063 59.4848 112.637C58.5747 114.093 57.893 115.809 58.1448 117.516C58.4028 119.266 59.6239 120.75 61.0948 121.691C62.5657 122.632 64.2746 123.103 65.9681 123.497C67.2081 123.785 68.4745 124.041 69.7433 123.95C71.8175 123.801 73.6999 122.751 75.5314 121.729C75.6534 121.661 75.7752 121.593 75.8968 121.525C79.098 119.747 82.415 118.168 85.8746 116.995C90.9197 115.284 96.2246 114.446 101.516 113.611C108.645 112.486 115.751 111.364 122.165 108.115Z" fill="white" fill-opacity="0.48"/>
<path d="M82.405 211.288L82.4095 211.289C82.7211 211.301 83.0325 211.314 83.3431 211.33C88.2561 211.591 93.1179 212.817 97.5819 214.922C99.284 215.725 101.008 216.729 101.964 218.373C103.147 220.406 104.566 222.296 106.184 223.991C106.811 224.648 107.491 225.291 108.329 225.627C109.167 225.963 110.201 225.932 110.881 225.331C111.707 224.6 111.76 223.304 111.506 222.22C111.089 220.445 110.049 218.898 109.019 217.404C105.641 212.501 102.085 207.599 97.384 203.999C92.6832 200.398 86.6166 198.219 80.8626 199.462C78.8759 199.892 76.9068 200.767 75.5896 202.341C74.2724 203.915 73.7519 206.284 74.7006 208.113C75.4531 209.563 76.9789 210.456 78.5409 210.858C79.7999 211.182 81.1037 211.235 82.4047 211.288H82.405Z" fill="white" fill-opacity="0.48"/>
<path d="M215.295 137.542C213.981 137.038 212.494 137.647 211.382 138.519C209.187 140.243 207.888 142.939 207.297 145.696C206.706 148.454 206.753 151.307 206.804 154.129L207.238 178.379C207.27 180.15 207.347 182.06 208.417 183.457C208.752 183.894 209.21 184.278 209.752 184.335C210.409 184.403 211.016 183.981 211.49 183.513C214.083 180.957 214.424 176.93 214.734 173.259L214.746 173.126C215.202 167.738 215.992 162.379 217.109 157.092C217.423 155.605 217.768 154.109 218.425 152.743C220.486 148.462 219.993 143.027 217.198 139.202C216.692 138.51 216.087 137.846 215.295 137.542Z" fill="white" fill-opacity="0.48"/>
<g clip-path="url(#clip1)">
<path d="M135.19 147.567C136.145 147.831 137 148.628 137.094 149.616C137.275 149.223 137.672 148.939 138.102 148.896L137.478 149.56L138.268 149.576L137.181 150.185C137.855 151.433 137.746 152.974 137.314 154.326C137.05 155.153 136.668 155.982 136.742 156.848C136.816 157.7 137.57 158.57 138.394 158.395L138.435 158.386C139.426 158.135 140.511 158.28 141.401 158.783C142.68 159.506 143.456 160.847 144.335 162.027C145.111 163.067 146.029 164.035 147.178 164.638C148.326 165.241 149.733 165.44 150.929 164.94C151.523 164.691 152.054 164.28 152.684 164.149C153.313 164.018 153.959 164.37 154.19 164.968C154.292 165.233 154.072 166.213 153.512 167.359C153.603 167.333 153.698 167.316 153.798 167.31C156.744 167.118 159.716 166.476 162.251 164.959C163.057 164.477 163.81 163.912 164.557 163.342L164.992 163.01L165.256 162.806C166.896 161.532 168.514 160.112 169.189 158.175L169.224 158.071L169.299 157.842C169.443 157.408 169.625 156.96 170.043 156.825C170.62 156.639 171.146 157.2 171.497 157.696L174.028 161.273C174.092 161.365 174.159 161.46 174.184 161.57C174.293 162.056 173.57 162.301 173.104 162.129C172.256 161.815 171.575 160.88 170.686 161.04C170.061 161.153 169.687 161.76 169.378 162.332L169.3 162.478C167.428 165.993 164.277 168.805 160.579 170.263C159.625 170.638 158.64 170.926 157.657 171.213L155.67 171.794L156.02 171.856C158.985 172.378 162.147 172.696 164.84 171.378C166.632 170.501 168.013 168.991 169.316 167.465L169.788 166.908L169.983 166.676C170.783 165.714 171.542 164.684 171.776 163.465C171.865 162.997 172.454 162.774 172.913 162.901C173.371 163.028 173.72 163.391 174.044 163.739L176.504 166.379C176.697 166.587 176.901 166.817 176.93 167.1C176.958 167.383 176.705 167.703 176.432 167.624L173.765 166.847C173.515 166.774 173.238 166.703 173.002 166.815C172.822 166.9 172.705 167.076 172.602 167.249L169.735 172.105C168.928 173.472 167.431 174.265 165.961 174.858C162.436 176.279 158.61 176.947 154.813 176.804C154.4 176.789 153.987 176.764 153.58 176.699C152.048 176.457 150.664 175.676 149.325 174.886C149.56 175.747 149.351 176.474 147.956 176.529C146.72 176.578 143.694 171.476 142.753 171.212C137.616 169.767 136.772 166.916 135.122 164.968C135.122 164.968 131.787 165.4 129.585 164.94C124.423 163.861 120.954 160.541 119.704 160.33C118.453 160.118 117.629 160.922 117.243 160.435V160.081C117.302 159.984 117.9 159.424 119.605 159.788C121.985 160.296 125.79 162.213 128.696 162.571C131.747 162.947 134.331 162.449 134.317 162.366C134.288 162.196 135.055 161.472 134.442 161.106C133.829 160.741 124.935 157.161 123.002 154.178L122.979 154.14C122.646 153.587 122.394 152.212 123.063 152.842L123.25 152.509C123.97 153.19 126.335 154.746 128.791 156.281C131.388 157.904 135.055 158.943 135.122 158.897C136.616 157.884 135.291 157.15 135.044 156.934C134.465 156.43 133.696 156.155 133.197 155.571C132 154.17 132.855 151.664 131.487 150.431C131.28 150.244 131.029 150.097 130.879 149.862C130.622 149.459 130.748 148.898 131.059 148.536C131.371 148.173 131.826 147.971 132.276 147.813C133.211 147.486 134.236 147.303 135.19 147.567Z" fill="white"/>
<path d="M135.992 155.085C136.187 155.085 136.345 154.926 136.345 154.731C136.345 154.536 136.187 154.377 135.992 154.377C135.797 154.377 135.639 154.536 135.639 154.731C135.639 154.926 135.797 155.085 135.992 155.085Z" fill="#FFAB01"/>
<path d="M133.841 155.085C133.986 155.085 134.103 154.926 134.103 154.731C134.103 154.536 133.986 154.377 133.841 154.377C133.696 154.377 133.579 154.536 133.579 154.731C133.579 154.926 133.696 155.085 133.841 155.085Z" fill="#FFAB01"/>
<path d="M121.051 156.446C117.77 155.596 114.321 155.399 110.965 155.872C111.219 154.614 111.536 153.369 111.917 152.144C110.825 152.497 109.535 151.494 109.606 150.345C109.677 149.196 111.079 148.359 112.12 148.844C112.477 148.018 112.5 147.051 112.181 146.208C112.029 145.803 112.637 145.57 113.068 145.57L115.451 145.569C115.784 145.569 116.248 145.414 116.166 145.09C115.97 144.323 116.496 143.447 117.263 143.261C118.017 143.079 118.866 143.597 119.061 144.347L119.071 144.389C119.252 145.195 120.269 145.451 121.093 145.435L121.503 145.425C122.215 145.41 122.957 145.433 123.434 145.933C124.004 146.53 123.877 147.482 123.689 148.293L123.676 148.347C123.41 149.473 123.126 150.594 122.825 151.711C123.41 156.435 121.961 156.682 121.051 156.446Z" fill="white"/>
<path d="M93.6825 152.503C93.3347 150.232 93.3353 147.909 93.684 145.638L93.7016 145.529C93.7882 145.013 93.9402 144.469 94.3695 144.186C94.6909 143.973 95.0967 143.957 95.4839 143.957L98.4476 143.965C98.5824 143.966 98.7303 143.971 98.8318 144.06C98.9332 144.149 98.9304 144.354 98.8003 144.39C98.4899 144.476 98.3115 144.835 98.3491 145.156C98.3869 145.477 98.5949 145.755 98.8392 145.965C99.4217 146.468 100.327 146.646 100.972 146.227C101.617 145.809 101.769 144.73 101.158 144.263C102.542 144.235 103.927 144.239 105.311 144.276L105.83 144.291C105.998 144.297 106.183 144.31 106.301 144.431C106.389 144.521 106.418 144.653 106.437 144.777C106.591 145.738 106.423 146.748 105.968 147.607C105.895 147.744 105.727 147.895 105.613 147.791C105.126 147.348 104.308 147.408 103.811 147.838C103.313 148.268 103.121 148.982 103.209 149.635C103.293 150.263 103.75 150.934 104.381 150.903C104.879 150.878 105.432 150.442 105.807 150.769L105.174 153.606C105.062 154.11 104.86 154.708 104.356 154.816C101.449 155.44 98.4012 155.392 95.5146 154.679L95.3745 154.644C95.0242 154.552 94.6753 154.433 94.402 154.198C93.9262 153.79 93.7777 153.123 93.6825 152.503Z" fill="white"/>
<path d="M116.49 130.241L123.516 130.383L123.63 130.386C123.841 130.392 124.054 130.411 124.244 130.5C124.673 130.701 124.87 131.196 125.001 131.653C125.698 134.091 125.612 136.749 124.758 139.137L124.722 139.235C124.611 139.528 124.466 139.821 124.204 139.987C123.988 140.123 123.725 140.151 123.469 140.165L123.414 140.168C122.369 140.217 121.321 140.19 120.28 140.087C120.822 139.753 120.959 138.938 120.615 138.401C120.271 137.864 119.544 137.64 118.932 137.815C118.558 137.921 118.211 138.177 118.076 138.541C117.941 138.906 118.071 139.375 118.416 139.553C118.655 139.676 118.614 140.064 118.405 140.233C118.196 140.402 117.905 140.414 117.637 140.418L114.113 140.475C113.848 140.48 113.569 140.481 113.336 140.353C113.007 140.173 112.855 139.784 112.762 139.419C112.538 138.538 112.507 137.608 112.674 136.714C112.874 137.42 113.742 137.849 114.422 137.578C115.102 137.308 115.44 136.399 115.104 135.748C114.767 135.096 113.832 134.849 113.219 135.251L113.194 135.023C113.106 134.225 113.038 133.416 113.19 132.63C113.358 131.769 113.835 130.923 114.618 130.532C115.189 130.247 115.849 130.231 116.49 130.241Z" fill="white"/>
<path d="M95.1834 138.166C94.1941 138.17 93.2047 138.129 92.2191 138.044L92.1235 138.035C91.7704 138 91.4004 137.929 91.169 137.665C90.857 137.31 90.9333 136.775 91.027 136.306L91.0363 136.259C91.4552 134.203 91.6197 132.095 91.5253 129.998L91.5076 129.637C91.4814 128.987 91.5228 128.25 92.0612 127.915C92.2251 127.814 92.4152 127.766 92.6049 127.728L92.6679 127.716C96.1155 127.042 99.7049 127.11 103.124 127.914C103.575 128.02 103.7 128.632 103.551 129.071C103.401 129.51 103.081 129.879 102.961 130.327C102.841 130.775 103.061 131.381 103.523 131.395C104.485 131.426 105.3 132.406 105.171 133.362C105.042 134.319 104.011 135.044 103.067 134.854C102.846 134.81 102.767 135.138 102.792 135.363L103.061 137.86C103.105 138.267 102.528 138.396 102.121 138.364L99.7434 138.179C99.3698 138.15 98.8688 138.214 98.8113 138.585C98.668 139.51 97.7229 140.232 96.7963 140.124C95.8695 140.017 95.1131 139.099 95.1834 138.166Z" fill="white"/>
<path fill-rule="evenodd" clip-rule="evenodd" d="M88.7839 153.532C89.0477 153.596 89.4253 153.711 89.4043 153.961C88.9822 159.002 87.165 158.075 85.5446 159.52C85.1164 159.902 84.8606 160.806 84.6767 160.826C85.3586 161.142 86.3483 162.409 88.0514 162.467C92.797 162.629 94.5243 159.156 94.5243 159.156C94.6358 158.043 94.0727 156.038 94.7755 156.599C95.2608 156.987 95.1648 155.099 95.8276 155.286C96.0267 155.343 95.6789 156.598 95.8276 156.673C95.9097 156.715 96.0313 156.373 96.2432 156.1C96.42 155.873 96.6927 155.705 96.7491 155.755C96.7872 155.788 96.7507 156.113 96.5915 156.387C96.3678 156.773 95.9937 157.145 96.0461 157.207C96.1036 157.275 97.09 156.354 97.1502 156.435C97.5494 156.969 95.0212 163.114 90.7552 164.275L90.4172 164.366C87.9305 165.028 86.886 165.119 84.5819 164.275C83.4895 163.874 82.8101 167.612 82.2027 168.856C81.8192 169.642 79.9568 171.567 79.1064 170.985C77.9843 170.217 77.0695 168.787 76.1147 168.064L76.0533 168.019C75.4026 167.551 73.9308 166.841 71.6378 165.888L71.7412 165.841C72.2196 165.623 73.4517 165.089 74.3979 164.275C75.7422 163.117 76.4703 160.631 77.4075 159.29C78.3328 157.966 79.5744 158.161 78.8252 157.927C78.8252 157.927 76.9262 156.918 76.0533 156.826C73.1379 156.517 69.3375 157.899 68.1218 158.789C66.4536 160.011 68.111 161.809 65.806 160.928C65.0378 160.634 67.0968 156.829 69.937 155.286C73.8847 153.142 77.6174 152.552 81.3599 155.966C82.8829 157.355 83.0336 158.592 83.442 159.535L83.3585 159.303C87.8732 159.005 81.1088 154.472 86.756 153.338C87.3491 153.219 87.9715 153.343 88.566 153.481L88.7839 153.532Z" fill="white"/>
<path d="M85.8765 157.031C86.0714 157.031 86.2294 156.873 86.2294 156.678C86.2294 156.482 86.0714 156.324 85.8765 156.324C85.6816 156.324 85.5236 156.482 85.5236 156.678C85.5236 156.873 85.6816 157.031 85.8765 157.031Z" fill="#FFAB01"/>
<path d="M87.8177 157.739C88.0126 157.739 88.1706 157.581 88.1706 157.385C88.1706 157.19 88.0126 157.032 87.8177 157.032C87.6227 157.032 87.4647 157.19 87.4647 157.385C87.4647 157.581 87.6227 157.739 87.8177 157.739Z" fill="#FFAB01"/>
<path fill-rule="evenodd" clip-rule="evenodd" d="M67.329 170.404C71.1545 173.06 66.2599 169.391 70.4397 173.763C71.2839 174.646 75.5575 169.603 75.9983 172.592C76.159 173.682 75.8084 174.817 76.0221 175.898C76.2217 176.907 80.5962 176.301 80.9341 175.86C82.1592 174.261 78.347 170.153 77.5478 169.496C73.0873 165.832 71.6153 166.086 67.4476 169.877L67.329 170.404Z" fill="white"/>
<path fill-rule="evenodd" clip-rule="evenodd" d="M166.844 104.006C167.595 104.096 168.292 104.179 168.292 103.302C168.292 103.094 165.767 101.261 165.019 101.967C164.057 102.874 163.292 103.915 162.552 104.924C160.998 107.04 159.55 109.013 156.597 109.307L156.561 109.311C155.417 109.45 157.549 110.468 159.944 109.307C161.591 108.508 163.782 105.982 164.822 104.782C165.095 104.468 165.288 104.245 165.373 104.168L165.394 104.149C165.749 103.875 166.31 103.942 166.844 104.006ZM170.407 106.379L172.905 108.368C173.392 108.756 172.822 109.591 172.202 109.631C171.842 109.654 171.497 109.543 171.15 109.431C170.899 109.351 170.647 109.27 170.388 109.239C168.921 109.065 167.802 110.451 166.892 111.618C166.06 112.684 165.149 113.689 164.169 114.621L164.037 114.746L163.899 114.873C163.111 115.592 162.227 116.243 161.187 116.43C159.656 116.706 158.135 115.92 156.884 114.992C156.579 114.766 156.28 114.528 155.98 114.291C155.051 113.555 154.121 112.817 153.019 112.404C152.065 112.926 151.171 113.558 150.356 114.277L150.392 114.249C151.762 115.625 152.719 117.409 153.111 119.313L152.849 119.267L152.676 119.238C151.058 118.965 149.325 118.804 147.957 119.673C147.475 119.979 147.046 120.406 146.62 120.829C146.325 121.123 146.031 121.415 145.724 121.662C145.802 121.709 145.882 121.757 145.963 121.807C147.477 122.428 149.081 122.826 150.708 122.983C150.957 123.007 151.209 123.026 151.461 123.046C152.628 123.135 153.81 123.225 154.808 123.812L155.158 124.022C155.72 124.355 156.345 124.673 156.815 124.287C156.95 124.176 157.039 124.024 157.128 123.871C157.182 123.778 157.236 123.684 157.301 123.6C157.473 123.377 157.814 123.22 158.028 123.403L158.114 124.085C158.177 123.646 158.599 123.29 159.041 123.302C159.483 123.314 159.885 123.694 159.923 124.135C159.993 124.937 159.087 125.416 158.318 125.672L154.332 126.96C152.907 127.42 151.328 127.182 149.955 126.585C148.677 126.029 147.549 125.184 146.471 124.295L146.233 124.097C145.419 123.418 144.319 122.68 143.395 123.2C145 123.298 146.17 124.684 147.127 125.996L147.219 126.122C147.374 126.336 147.533 126.562 147.572 126.824C147.679 127.557 146.849 128.043 146.148 128.276C146.738 128.593 146.446 129.515 145.988 130.006C145.322 130.72 144.449 131.234 143.508 131.489L143.423 131.787C143.417 131.807 143.415 131.817 143.415 131.818C143.859 131.787 144.133 132.385 143.952 132.792C143.771 133.2 143.325 133.417 142.897 133.538C141.486 133.938 139.893 133.623 138.74 132.715L138.515 132.832C137.541 133.338 136.533 133.808 135.451 133.967C134.285 134.139 133.001 133.898 132.158 133.072L132.213 133.194C132.333 133.459 132.44 133.733 132.444 134.022C132.448 134.355 132.276 134.715 131.961 134.822C131.442 134.999 130.988 134.442 130.718 133.963C130.571 134.332 130.723 134.747 130.871 135.15C131.04 135.611 131.203 136.056 130.91 136.401C130.604 136.76 130.024 136.668 129.603 136.456C128.026 135.663 127.285 133.667 127.627 131.931C127.969 130.196 129.213 128.743 130.694 127.783C129.689 127.044 128.953 125.943 128.653 124.729C128.733 124.832 129.089 124.5 129.596 124.028C130.523 123.164 131.951 121.832 133.106 121.845C133.327 121.847 133.684 122.019 134.033 122.187H134.034C134.287 122.308 134.536 122.428 134.727 122.481C134.743 122.46 134.763 122.442 134.785 122.425L134.566 122.268C134.127 121.955 133.668 121.661 133.148 121.531C132.541 121.38 131.823 121.504 131.436 121.997C130.491 123.202 129.293 124.207 127.943 124.928L128.743 126.41C128.413 126.568 128.001 126.539 127.694 126.339L127.656 126.313L127.68 126.343C128.14 126.946 127.735 127.997 126.981 128.116C126.216 128.438 125.444 127.476 125.519 126.647C125.572 126.066 125.859 125.551 126.146 125.035C126.269 124.814 126.392 124.594 126.497 124.368C126.851 123.606 127.006 122.758 127.161 121.916C127.373 120.762 127.583 119.619 128.299 118.717C128.801 118.085 129.504 117.646 130.225 117.285C133.085 115.856 136.47 115.514 139.558 116.343C140.084 114.453 141.126 112.712 142.541 111.358L142.626 111.278C143.167 110.778 143.84 110.331 144.559 110.413L144.615 110.421C145.328 110.53 145.948 109.978 146.467 109.467L146.626 109.31L146.752 109.189C147.78 108.204 148.974 107.295 150.379 107.197C151.629 107.109 152.826 107.685 153.905 108.324C155.126 109.047 156.287 109.871 157.373 110.785L157.564 110.947L157.62 110.995L157.682 111.049L157.717 111.079C158.741 111.962 159.862 112.927 161.195 112.847C162.562 112.765 163.561 111.627 164.481 110.578L164.481 110.578L164.481 110.578C164.556 110.493 164.629 110.409 164.703 110.326C165.838 109.045 167.13 107.917 168.438 106.812L168.999 106.34C169.169 106.197 169.352 106.048 169.572 106.02C169.881 105.979 170.163 106.185 170.407 106.379ZM145.703 128.098C145.425 128.043 145.046 128.067 144.566 128.171C144.882 128.172 145.148 128.166 145.365 128.154C145.469 128.141 145.573 128.125 145.676 128.104L145.703 128.098ZM135.414 121.963C135.516 121.859 135.623 121.749 135.741 121.655C135.962 121.538 136.21 121.479 136.46 121.503C137.307 121.584 137.948 122.486 137.837 123.332C137.39 124.442 136.285 125.076 135.191 125.702C134.517 126.088 133.848 126.472 133.34 126.962C133.468 126.752 133.607 126.584 133.749 126.48C134.19 126.158 134.652 125.879 135.087 125.616L135.087 125.616C135.452 125.394 135.799 125.184 136.1 124.97C136.572 124.633 136.89 124.312 137.136 124.063C137.324 123.873 137.47 123.725 137.612 123.644C137.624 123.638 138.157 122.553 136.868 121.845C135.894 121.31 135.461 121.986 135.227 122.35C135.152 122.468 135.097 122.553 135.052 122.553C135.041 122.553 135.024 122.552 135.004 122.548C135.036 122.433 135.085 122.321 135.148 122.217C135.235 122.148 135.323 122.058 135.414 121.963ZM135.69 121.684C135.468 121.812 135.278 121.999 135.148 122.217L135.116 122.241C135.051 122.288 134.987 122.322 134.921 122.338C134.787 122.37 134.468 122.124 134.197 121.916C134.036 121.792 133.891 121.681 133.815 121.651C133.309 121.452 133.25 121.449 132.899 121.433C132.84 121.43 132.773 121.426 132.693 121.422L132.548 121.413C132.516 121.411 132.481 121.409 132.444 121.408H132.444C132.153 121.396 131.735 121.378 131.818 121.151C133.312 117.099 139.692 116.217 138.637 120.798C138.55 121.177 138.321 121.508 138.092 121.84C137.977 122.006 137.863 122.172 137.766 122.343C137.354 121.756 136.904 121.446 136.418 121.414C136.147 121.396 135.93 121.506 135.741 121.655L135.69 121.684ZM147.262 118.048L147.264 118.045C146.913 118.715 146.536 119.52 146.133 120.462C146.436 119.625 146.815 118.817 147.262 118.048ZM150.107 118.665L150.058 118.667C149.669 118.683 149.32 118.742 149.01 118.842C148.668 118.954 148.302 119.14 147.915 119.401C148.593 119.025 149.341 118.773 150.107 118.665Z" fill="white"/>
<path fill-rule="evenodd" clip-rule="evenodd" d="M130.2 135.639C129.894 135.998 129.451 135.883 129.045 135.485C128.195 134.654 127.853 133.051 128.195 131.316C128.536 129.58 129.867 128.865 131.349 127.906C130.684 127.631 129.48 125.89 129.359 124.198C129.769 124.728 129.79 125.68 130.2 126.21C130.589 126.714 131.366 127.326 131.755 127.829C131.804 127.894 131.847 128.002 131.777 128.042C130.356 128.851 129.436 129.118 128.598 131.316C127.761 133.513 129.461 135.545 129.687 135.485C129.966 135.412 129.867 135.041 129.707 134.801C129.256 134.124 129.685 133.22 130.053 132.494C130.25 132.715 129.777 133.349 129.877 134.008C129.974 134.652 130.472 135.32 130.2 135.639Z" fill="#E5E5EA"/>
<path d="M135.992 128.717C136.187 128.717 136.345 128.559 136.345 128.364C136.345 128.168 136.187 128.01 135.992 128.01C135.797 128.01 135.639 128.168 135.639 128.364C135.639 128.559 135.797 128.717 135.992 128.717Z" fill="#FFAB01"/>
<path d="M134.757 127.301C134.952 127.301 135.11 127.143 135.11 126.948C135.11 126.753 134.952 126.594 134.757 126.594C134.562 126.594 134.404 126.753 134.404 126.948C134.404 127.143 134.562 127.301 134.757 127.301Z" fill="#FFAB01"/>
<path d="M81.9786 130.424C82.1826 130.805 81.8618 131.351 81.4298 131.358C81.0599 129.272 80.661 127.114 79.4571 125.373C77.1522 122.041 72.4021 120.946 70.4286 117.405C69.0849 118.364 67.0302 118.12 65.9476 116.872C65.2743 116.096 64.1007 116.001 63.0896 116.174C62.0785 116.347 61.0907 116.73 60.0654 116.697C59.6206 116.683 59.1359 116.563 58.877 116.2C58.6181 115.837 58.7676 115.198 59.2082 115.135C61.1277 114.86 63.0472 114.584 64.9667 114.309C65.1174 114.287 65.2774 114.261 65.3918 114.16C65.5213 114.046 65.5619 113.864 65.5955 113.695C65.8734 112.292 66.0736 110.62 65.0438 109.631C64.1903 108.812 62.8433 108.84 61.6838 109.069C60.5243 109.297 59.3293 109.674 58.1866 109.372C57.0439 109.07 56.0882 107.708 56.7042 106.697C57.1169 106.02 56.6516 105.116 56.0152 104.645C55.3787 104.173 54.5867 103.94 53.9698 103.443C53.3529 102.946 52.9614 101.986 53.4528 101.364C53.6689 101.09 54.0073 100.946 54.3392 100.841C55.4379 100.494 56.663 100.467 57.7221 100.922C58.7811 101.377 59.6412 102.351 59.8135 103.494C59.9539 104.424 59.6871 105.507 60.3006 106.219C61.1027 107.151 62.5851 106.628 63.8122 106.617C65.0672 106.605 66.3082 107.273 66.9932 108.327C67.6782 109.382 67.7852 110.79 67.2675 111.937C68.7253 110.449 70.6887 109.308 72.7668 109.386C74.6864 109.458 76.4502 110.565 77.734 111.998C79.0177 113.431 79.8935 115.176 80.7524 116.899C81.0723 117.541 81.8839 117.888 82.5677 117.677C83.2514 117.465 83.7263 116.719 83.63 116.008C84.2259 116.138 84.288 116.946 84.3064 117.558C84.3448 118.842 84.8087 120.11 85.6076 121.115C85.8748 120.621 86.0788 120.092 86.2127 119.546C86.7957 120.219 87.0133 121.191 86.7723 122.049C86.5312 122.907 85.8391 123.622 84.9917 123.89C84.5409 124.033 83.9896 124.101 83.7657 124.519C84.6113 126.004 85.3385 127.556 85.9383 129.157C86.2598 130.015 86.4919 131.119 85.8149 131.736C85.0323 131.156 84.5875 130.237 84.1722 129.355C83.5246 127.978 82.8768 126.602 82.229 125.226" fill="white"/>
<path fill-rule="evenodd" clip-rule="evenodd" d="M84.1154 116.648C83.9453 118.314 84.5674 120.045 85.7587 121.219C86.1834 120.962 86.455 120.469 86.4456 119.971C86.8921 120.707 86.642 121.705 86.0869 122.363C85.5317 123.02 84.7353 123.415 83.9624 123.791C83.5197 124.007 83.06 124.226 82.5678 124.241C81.8172 124.264 81.1447 123.811 80.5309 123.377L78.7301 122.104C79.6606 123.845 81.7782 124.859 83.7133 124.489C85.0588 126.382 85.8827 128.644 86.0706 130.961L85.7089 130.291C85.7055 130.283 85.7013 130.275 85.6958 130.267L85.7089 130.291C85.761 130.42 85.5577 130.562 85.4207 130.495C85.2751 130.425 85.2203 130.249 85.1772 130.093C84.6475 128.166 83.6981 126.357 82.4147 124.828L84.3579 128.957C84.7733 129.839 85.218 130.758 86.0006 131.338C86.6777 130.722 86.4456 129.617 86.1239 128.759C85.5241 127.159 84.7969 125.606 83.9515 124.121C84.1331 123.782 84.5308 123.673 84.9153 123.568H84.9155V123.568H84.9157C85.0044 123.544 85.0927 123.519 85.1774 123.493C86.0248 123.225 86.7169 122.509 86.9579 121.651C87.199 120.794 86.9814 119.821 86.3983 119.149C86.2644 119.695 86.0604 120.223 85.7932 120.718C84.9944 119.713 84.5305 118.445 84.492 117.16C84.4736 116.549 84.4115 115.741 83.8156 115.611C83.912 116.322 83.4371 117.068 82.7533 117.279C82.0695 117.491 81.2579 117.143 80.938 116.501C80.0792 114.778 79.2034 113.033 77.9196 111.6C76.6358 110.167 74.8721 109.06 72.9525 108.988C70.8744 108.91 68.9109 110.051 67.4532 111.539C67.9709 110.392 67.8639 108.984 67.1789 107.93C66.4939 106.875 65.2528 106.208 63.9979 106.219C63.6795 106.222 63.344 106.26 63.0076 106.297C62.0474 106.404 61.0803 106.511 60.4863 105.822C60.0668 105.334 60.0589 104.674 60.0509 104.008C60.0473 103.7 60.0436 103.39 59.9992 103.096C59.8268 101.954 58.9668 100.979 57.9077 100.524C56.8487 100.069 55.6236 100.096 54.5249 100.444C54.1929 100.549 53.8546 100.693 53.6385 100.966C53.1471 101.589 53.5386 102.548 54.1555 103.045C54.4801 103.307 54.8533 103.496 55.2268 103.684C55.563 103.854 55.8994 104.023 56.2008 104.247C56.8373 104.719 57.3025 105.622 56.8899 106.3C56.2739 107.311 57.2295 108.672 58.3723 108.974C59.3169 109.224 60.2972 109.01 61.2637 108.799C61.4664 108.755 61.6685 108.711 61.8695 108.671C63.029 108.442 64.376 108.414 65.2295 109.234C66.2593 110.223 66.0591 111.895 65.7812 113.297C65.7476 113.467 65.7069 113.649 65.5775 113.763C65.463 113.864 65.3031 113.889 65.1524 113.911L59.3939 114.737C58.9533 114.801 58.8037 115.44 59.0627 115.803C59.3216 116.166 59.8062 116.286 60.2511 116.3C60.9313 116.321 61.5951 116.16 62.26 115.999C62.5974 115.917 62.935 115.835 63.2753 115.777C64.2864 115.603 65.46 115.699 66.1333 116.475C67.2159 117.722 69.2706 117.967 70.6143 117.008C71.6528 118.871 73.46 120.057 75.2753 121.248C76.9097 122.32 78.5506 123.397 79.6428 124.976C80.8466 126.716 81.2456 128.875 81.6155 130.96C82.0474 130.954 82.3683 130.408 82.1643 130.026L81.7584 130.563C81.6084 127.276 79.9343 124.09 77.3152 122.108C76.6667 121.617 75.9554 121.187 75.2456 120.758C73.6861 119.814 72.1339 118.875 71.2704 117.308C71.1926 117.167 71.1203 117.017 71.1076 116.857C71.0917 116.653 71.1725 116.457 71.2505 116.268L71.2616 116.241C71.5729 115.484 71.7905 114.653 71.6375 113.848C71.4847 113.043 70.8806 112.283 70.0728 112.162C71.4402 113.039 71.7204 115.215 70.6201 116.412C69.5198 117.609 67.3337 117.505 66.3513 116.209C65.564 115.17 63.9896 115.298 62.7223 115.592C61.4551 115.887 59.9628 116.195 58.9838 115.336C61.0782 114.758 63.2334 114.403 65.4019 114.277C65.9185 114.247 66.1211 113.601 66.1907 113.086C66.2976 112.296 66.4046 111.493 66.2874 110.704C66.1702 109.915 65.7963 109.128 65.1287 108.694C64.3269 108.173 63.2919 108.254 62.3419 108.354L59.8172 108.619C59.2732 108.676 58.7141 108.732 58.1867 108.586C57.6593 108.441 57.163 108.047 57.0619 107.508C56.998 107.167 57.0952 106.832 57.1932 106.494C57.2637 106.251 57.3347 106.006 57.3462 105.757C57.3792 105.047 56.9222 104.397 56.3669 103.957C56.0267 103.687 55.6477 103.474 55.2682 103.262C55.0284 103.127 54.7883 102.993 54.5579 102.843C54.1242 102.563 53.6792 102.109 53.7998 101.606C53.8769 101.284 54.1674 101.06 54.4595 100.906C55.4455 100.385 56.6781 100.361 57.6831 100.845C58.6882 101.328 59.4415 102.307 59.6534 103.404C59.7057 103.675 59.7294 103.958 59.7531 104.24C59.808 104.893 59.8625 105.542 60.2692 106.033C60.755 106.618 61.5946 106.766 62.3535 106.73C62.6137 106.717 62.8739 106.688 63.1339 106.659C63.6321 106.603 64.1296 106.547 64.6249 106.61C66.2906 106.82 67.603 108.558 67.3533 110.223C67.3395 110.315 67.3217 110.408 67.3039 110.501C67.2403 110.833 67.1761 111.168 67.2893 111.48C67.4341 111.88 68.0677 112.093 68.2685 111.718C69.1679 110.041 71.2311 109.196 73.1173 109.417C75.0035 109.639 76.6916 110.778 77.93 112.222C79.1683 113.666 80.0107 115.403 80.779 117.145C81.0497 117.758 81.8555 117.981 82.499 117.798C83.1428 117.615 83.6536 117.133 84.1154 116.648ZM80.7353 119.571C80.7536 119.568 80.796 119.652 80.86 119.777C81.0174 120.086 81.3054 120.652 81.685 120.824C81.668 120.984 81.4169 120.898 81.3125 120.776C81.0157 120.428 80.7007 120.028 80.7353 119.571ZM81.6313 122.316C81.8274 122.604 80.6537 122.748 80.2637 122.496C80.3324 122.483 80.4229 122.49 80.5231 122.498C80.6421 122.507 80.7746 122.518 80.9006 122.496C81.085 122.465 81.2631 122.409 81.3975 122.366C81.5279 122.324 81.6172 122.296 81.6313 122.316ZM81.3497 121.246C80.8826 121.327 80.3086 120.703 80.3086 120.116C80.4432 120.55 80.9216 120.894 81.186 121.084C81.3204 121.181 81.3995 121.238 81.3497 121.246ZM83.0235 123.7C82.4013 123.7 82.1193 122.648 82.4013 122.581C82.4687 122.55 82.4718 122.644 82.4766 122.783C82.4815 122.929 82.4881 123.126 82.573 123.278C82.6672 123.448 82.8668 123.561 82.9832 123.627C83.0713 123.677 83.1119 123.7 83.0235 123.7ZM83.7166 122.268C83.8532 122.343 83.9778 122.46 84.0133 122.612C84.0485 122.765 83.9637 122.949 83.8109 122.981C83.763 122.911 83.789 122.866 83.8163 122.819C83.8566 122.749 83.8998 122.674 83.7166 122.505C83.6395 122.434 83.5497 122.403 83.4867 122.381C83.4383 122.365 83.4057 122.353 83.4069 122.333C83.4149 122.207 83.6058 122.206 83.7166 122.268ZM82.552 120.897C82.5213 120.918 82.5001 120.933 82.5183 120.95C82.5744 121.002 82.6405 121.027 82.7067 120.989C82.757 120.96 82.7826 120.901 82.7944 120.844C82.8609 120.525 82.5253 120.196 82.2089 120.27C82.237 120.344 82.2908 120.368 82.3559 120.397C82.4313 120.43 82.5218 120.47 82.606 120.602C82.7192 120.78 82.6153 120.852 82.552 120.897ZM82.4455 123.902C82.0792 123.794 81.7169 122.927 81.9119 122.861C82.0337 122.82 82.033 122.827 82.0259 122.895C82.0194 122.958 82.0076 123.073 82.0792 123.251C82.1683 123.472 82.2929 123.652 82.3723 123.766C82.4267 123.844 82.4598 123.892 82.4455 123.902ZM166.358 104.203C165.572 104.3 164.952 104.936 164.561 105.627C164.372 105.961 164.22 106.315 164.069 106.669C163.908 107.047 163.746 107.424 163.539 107.778C162.549 109.466 160.668 110.389 158.866 111.143C158.556 111.273 158.011 111.211 158.108 110.888C161.059 110.327 163.598 107.984 164.403 105.083C164.498 104.741 164.054 104.452 163.712 104.543C163.403 104.625 163.182 104.883 162.983 105.14L162.921 105.221C161.278 107.365 158.919 109.177 156.225 109.294C156.034 109.302 155.762 109.185 155.845 109.014C157.84 108.947 159.721 107.959 161.203 106.617C162.684 105.275 163.814 103.594 164.871 101.895C165.034 101.633 165.427 101.689 165.719 101.789C166.616 102.095 167.476 102.509 168.276 103.018C168.705 103.292 168.365 104.021 167.877 104.164C167.596 104.246 167.303 104.226 167.009 104.206C166.791 104.191 166.573 104.176 166.358 104.203ZM165.592 102.53L165.523 102.509C165.313 102.449 165.079 102.415 164.91 102.546C164.844 102.597 164.797 102.667 164.754 102.738L164.193 103.687C164.488 103.756 164.77 103.877 165.023 104.043C165.23 104.179 165.514 104.184 165.726 104.056C165.937 103.928 166.065 103.672 166.041 103.426C166.032 103.334 166.182 103.309 166.245 103.376C166.292 103.427 166.306 103.496 166.32 103.565C166.324 103.589 166.329 103.612 166.335 103.635C166.359 103.724 166.432 103.82 166.522 103.802C166.614 103.715 166.664 103.585 166.655 103.459C166.688 103.328 166.891 103.445 166.922 103.576C166.953 103.706 167.012 103.892 167.142 103.857C167.332 103.81 167.392 103.544 167.299 103.371C167.207 103.198 167.02 103.1 166.842 103.017C166.436 102.828 166.018 102.666 165.592 102.53ZM163.885 104.074C164.178 104.369 164.605 104.527 165.019 104.492C164.765 104.171 164.333 104.004 163.93 104.066L163.885 104.074ZM142.897 133.538C141.486 133.938 139.893 133.623 138.74 132.715C137.696 133.264 136.617 133.796 135.451 133.967C134.285 134.139 133.001 133.898 132.158 133.072C132.298 133.375 132.44 133.689 132.444 134.022C132.448 134.355 132.276 134.715 131.962 134.822C131.442 134.999 130.988 134.442 130.719 133.963C130.571 134.332 130.723 134.746 130.871 135.15C131.04 135.61 131.204 136.056 130.91 136.401C130.604 136.759 130.024 136.668 129.603 136.456C128.027 135.663 127.286 133.667 127.627 131.931C127.969 130.196 129.213 128.743 130.695 127.783C129.689 127.044 128.953 125.943 128.653 124.729C128.858 124.994 129.01 125.302 129.162 125.61C129.314 125.918 129.466 126.226 129.671 126.491C129.865 126.743 130.113 126.951 130.36 127.16L130.36 127.16C130.607 127.369 130.855 127.578 131.049 127.829C131.099 127.893 131.142 128.001 131.071 128.042C129.651 128.851 128.436 130.14 128.033 131.727C127.63 133.315 128.191 135.189 129.582 136.047C129.827 136.199 130.119 136.32 130.397 136.247C130.676 136.173 130.885 135.822 130.725 135.582C130.274 134.905 130.219 133.981 130.587 133.255L131.752 134.566C132.02 134.497 132.086 134.135 132.015 133.867C131.993 133.782 131.962 133.698 131.931 133.614V133.614C131.864 133.434 131.798 133.254 131.816 133.066C131.842 132.789 132.201 132.542 132.391 132.744C133.149 133.55 134.367 133.778 135.457 133.601C136.548 133.424 137.546 132.899 138.523 132.381L139.676 131.771C139.593 132.104 139.323 132.384 138.994 132.479C140.106 133.281 141.594 133.533 142.908 133.142C143.134 133.075 143.366 132.982 143.513 132.796C143.66 132.611 143.684 132.309 143.506 132.153C143.485 132.134 143.461 132.117 143.436 132.1C143.389 132.068 143.342 132.035 143.315 131.985C143.274 131.91 143.337 131.783 143.416 131.818C143.859 131.787 144.133 132.385 143.952 132.792C143.772 133.2 143.325 133.417 142.897 133.538ZM135.022 127.622C134.768 127.54 134.484 127.715 134.374 127.958C134.263 128.201 134.295 128.487 134.378 128.74C134.404 128.454 134.441 128.239 134.549 128.051C134.595 127.97 134.739 127.893 134.866 127.826C135.03 127.739 135.164 127.668 135.022 127.622ZM134.807 126.903C135.176 126.811 135.594 126.953 135.83 127.253C136.067 127.552 136.11 127.993 135.935 128.332C135.893 128.282 135.883 128.19 135.871 128.074C135.834 127.733 135.776 127.189 134.807 126.903ZM134.486 129.536C134.369 129.683 134.776 130.07 135.414 129.803C135.532 129.753 135.435 129.748 135.284 129.739C135.145 129.731 134.961 129.72 134.85 129.671C134.757 129.629 134.71 129.562 134.674 129.512C134.621 129.438 134.594 129.401 134.486 129.536ZM135.777 130.026C136.186 129.822 135.929 130.42 135.075 130.347C134.998 130.34 134.897 130.311 134.898 130.233C134.898 130.205 134.971 130.199 135.083 130.189C135.257 130.174 135.529 130.15 135.777 130.026ZM133.258 128.891C133.411 129.041 133.635 129.045 133.784 129.016C133.875 128.999 133.92 128.917 133.836 128.891C133.817 128.885 133.785 128.88 133.746 128.873C133.657 128.859 133.535 128.84 133.452 128.79C133.4 128.758 133.37 128.649 133.344 128.556C133.317 128.46 133.295 128.38 133.258 128.418C133.184 128.491 133.104 128.74 133.258 128.891ZM133.394 129.4C133.468 129.514 133.185 129.475 133.124 129.4C133.063 129.326 133.003 129.045 133.105 129.045C133.135 129.045 133.145 129.09 133.157 129.142C133.168 129.191 133.181 129.248 133.213 129.283C133.274 129.353 133.315 129.363 133.345 129.371C133.365 129.376 133.381 129.38 133.394 129.4ZM146.138 128.836C146.291 129.142 146.024 129.486 145.766 129.71C144.718 130.622 143.466 131.297 142.13 131.669C143.57 131.679 145.004 131.061 145.988 130.006C146.446 129.515 146.739 128.593 146.148 128.276C146.849 128.043 147.679 127.557 147.572 126.824C147.534 126.562 147.374 126.336 147.219 126.122L147.128 125.996C146.17 124.684 145 123.297 143.396 123.2C144.319 122.68 145.419 123.418 146.233 124.097L146.472 124.295C147.55 125.184 148.678 126.029 149.956 126.585C151.329 127.182 152.908 127.42 154.332 126.96L158.318 125.672C159.087 125.416 159.993 124.937 159.924 124.135C159.885 123.694 159.483 123.314 159.042 123.302C158.6 123.29 158.178 123.646 158.115 124.085L158.028 123.403C157.815 123.22 157.474 123.377 157.302 123.6C157.237 123.684 157.182 123.777 157.128 123.871C157.039 124.023 156.951 124.176 156.816 124.287C156.345 124.673 155.72 124.355 155.159 124.022L154.809 123.812C153.811 123.224 152.629 123.134 151.461 123.046C151.209 123.026 150.958 123.007 150.709 122.983C149.081 122.825 147.477 122.428 145.964 121.807C147.352 122.948 149.165 123.14 150.994 123.333C151.916 123.43 152.842 123.528 153.719 123.748C154.415 123.923 155.184 124.278 155.355 124.977C155.603 125.992 154.401 126.778 153.364 126.873C151.667 127.028 150.014 126.304 148.574 125.381L148.412 125.275C147.891 124.932 147.385 124.563 146.88 124.194L146.88 124.194L146.88 124.194C145.953 123.517 145.028 122.84 144.005 122.326C145.061 122.379 145.833 121.612 146.621 120.829C147.046 120.406 147.476 119.979 147.958 119.673C149.374 118.773 151.183 118.978 152.85 119.267L153.112 119.313C152.72 117.409 151.762 115.625 150.392 114.249L152.746 118.889C150.268 118.061 147.296 119.095 145.863 121.285C146.969 117.54 149.601 114.274 153.02 112.404C154.121 112.817 155.051 113.554 155.98 114.291L155.98 114.291L155.981 114.291C156.28 114.528 156.58 114.766 156.885 114.992C158.135 115.92 159.656 116.706 161.187 116.43C162.288 116.231 163.215 115.513 164.037 114.745L164.17 114.621C165.15 113.689 166.061 112.684 166.892 111.618C167.803 110.451 168.921 109.065 170.389 109.239C170.648 109.269 170.9 109.35 171.151 109.431C171.498 109.543 171.843 109.654 172.202 109.631C172.823 109.591 173.393 108.756 172.906 108.368L170.407 106.379C170.163 106.185 169.881 105.979 169.572 106.02C169.352 106.048 169.17 106.197 169 106.34L168.439 106.812C167.131 107.917 165.838 109.045 164.703 110.326C164.63 110.409 164.556 110.494 164.481 110.578C163.561 111.627 162.562 112.765 161.196 112.847C159.863 112.927 158.742 111.961 157.718 111.079C157.666 111.035 157.615 110.991 157.564 110.947L157.373 110.785C156.287 109.871 155.126 109.047 153.905 108.324C152.826 107.685 151.63 107.109 150.38 107.196C148.917 107.299 147.684 108.279 146.627 109.31L146.467 109.467C145.949 109.978 145.329 110.53 144.616 110.421L144.559 110.413C143.841 110.331 143.167 110.778 142.626 111.278L142.542 111.357C141.127 112.711 140.084 114.453 139.558 116.343C136.471 115.514 133.086 115.856 130.225 117.285C129.504 117.646 128.802 118.085 128.3 118.717C127.583 119.619 127.373 120.762 127.161 121.916L127.161 121.916C127.007 122.758 126.851 123.605 126.497 124.368C126.392 124.594 126.269 124.814 126.147 125.035C125.859 125.55 125.572 126.065 125.519 126.647C125.444 127.476 126.216 128.438 126.982 128.116C127.748 127.994 128.154 126.91 127.656 126.313C127.967 126.536 128.399 126.574 128.744 126.409L127.943 124.928C129.293 124.207 130.491 123.202 131.437 121.997C131.823 121.504 132.542 121.38 133.149 121.531C133.669 121.661 134.127 121.955 134.567 122.268L134.785 122.425C134.531 122.611 134.677 123.104 134.992 123.12C134.789 122.292 135.614 121.422 136.461 121.503C137.307 121.584 137.948 122.486 137.838 123.332C137.391 124.442 136.285 125.076 135.191 125.702C134.004 126.382 132.832 127.054 132.531 128.318C132.228 129.591 133.207 131.017 134.502 131.187C135.796 131.357 137.108 130.233 137.143 128.924C137.143 128.924 137.334 128.944 137.402 128.74C137.509 128.419 137.61 128.064 137.71 127.712C137.899 127.049 138.084 126.398 138.298 126.009C138.898 124.918 140.015 124.055 141.257 124.025C141.651 124.015 142.043 123.956 142.434 123.898C142.934 123.823 143.434 123.748 143.937 123.776C144.834 123.826 145.818 124.352 145.947 125.244C144.952 125.05 143.914 125.083 142.933 125.339L146.405 125.753C147.168 125.844 147.311 127.028 146.767 127.572C146.255 128.085 145.474 128.17 144.743 128.202L144.611 128.208C144.739 128.469 145.056 128.496 145.374 128.523C145.691 128.55 146.009 128.577 146.138 128.836ZM164.609 113.62C163.533 114.818 162.274 116.107 160.667 116.167C159.261 116.219 158.032 115.311 156.894 114.471L156.81 114.409L156.539 114.21C155.268 113.285 153.952 112.424 152.597 111.629C151.548 111.014 150.341 110.42 149.164 110.725L151.028 111.313C150.713 111.482 150.601 111.942 150.803 112.237C150.846 111.795 151.355 111.514 151.793 111.583C152.23 111.652 152.586 111.974 152.857 112.325C150.508 113.228 148.51 115.016 147.348 117.254C147.132 117.67 146.945 118.101 146.757 118.531C146.502 119.114 146.248 119.697 145.924 120.243C145.361 121.193 144.527 122.057 143.454 122.309C143.304 122.344 143.149 122.367 142.996 122.39C142.687 122.437 142.38 122.483 142.105 122.626C142.081 122.639 142.057 122.652 142.031 122.665L142.01 122.677C141.688 122.849 141.291 123.062 141.092 122.782C140.767 122.322 140.248 122.005 139.692 121.926C140.612 118.827 142.978 116.194 145.956 114.955C146.124 114.885 146.06 114.632 145.968 114.474L144.613 112.15C144.488 111.935 144.635 111.643 144.855 111.529C145.075 111.415 145.338 111.432 145.584 111.463C147.151 111.659 148.66 112.303 149.885 113.301C150.081 113.461 150.403 113.618 150.546 113.409C149.148 111.995 147.147 111.339 145.179 111.075C146.88 110.908 148.64 111.445 149.96 112.535L150.025 112.588C150.34 112.845 150.722 113.118 151.085 112.96C149.611 111.542 147.595 110.705 145.553 110.663C145.973 110.35 146.365 110.001 146.758 109.653L146.758 109.653L146.758 109.653C147.157 109.299 147.555 108.945 147.983 108.628C148.832 107.998 149.847 107.506 150.901 107.568C151.667 107.613 152.384 107.944 153.061 108.305C154.493 109.067 155.84 109.987 157.072 111.042C157.157 111.115 157.243 111.189 157.329 111.264L157.336 111.269C158.506 112.281 159.784 113.385 161.297 113.243C162.22 113.156 163.038 112.597 163.687 111.933C164.047 111.566 164.367 111.165 164.687 110.763L164.688 110.762C164.946 110.438 165.205 110.113 165.485 109.807C165.888 109.365 166.354 108.95 166.928 108.781C167.501 108.612 168.199 108.752 168.539 109.244L164.609 113.62ZM127.522 121.829C127.729 120.69 127.935 119.563 128.702 118.734C129.078 118.328 129.559 118.036 130.048 117.779C132.553 116.466 135.473 115.966 138.27 116.372C138.955 116.471 139.803 116.856 139.792 117.508C139.787 117.548 139.784 117.587 139.78 117.627C139.787 117.586 139.791 117.547 139.792 117.508C140.07 114.783 141.653 112.219 143.965 110.759C144.171 112.193 144.797 113.564 145.746 114.656C143.23 115.719 141.141 117.762 140.019 120.258L140.001 120.297C139.683 120.997 139.177 121.856 138.439 121.682L138.804 119.417C138.838 119.21 138.869 118.985 138.771 118.799C138.661 118.592 138.427 118.496 138.198 118.427L138.118 118.403C136.795 118.028 135.311 117.667 134.103 118.325C133.463 118.674 133.005 119.257 132.576 119.856L132.257 120.305C131.501 121.364 130.654 122.357 129.73 123.272C129.357 123.64 128.955 124.006 128.456 124.164C127.958 124.323 127.338 124.216 127.042 123.784C127.278 123.166 127.4 122.495 127.522 121.829ZM135.675 130.652C134.89 130.944 134.251 130.8 133.638 130.442C133.375 130.289 133.128 130.092 132.98 129.826C132.759 129.427 132.792 128.932 132.92 128.494C133.111 127.839 133.502 127.243 134.027 126.809C134.389 126.509 134.807 126.288 135.225 126.067H135.225C135.37 125.991 135.514 125.915 135.655 125.836C137.041 125.061 138.236 123.946 139.108 122.617C139.282 122.351 139.648 122.265 139.955 122.344C140.262 122.422 140.518 122.633 140.739 122.86C140.897 123.023 141.015 123.346 140.804 123.428C139.324 124.002 138.133 125.277 137.657 126.795C137.644 126.836 137.631 126.878 137.619 126.92C137.546 127.16 137.473 127.403 137.318 127.597C137.135 127.825 136.769 128.628 136.956 129.009C136.956 129.009 136.461 130.36 135.675 130.652ZM137.728 118.63C137.968 118.684 138.229 118.762 138.36 118.97C138.468 119.14 138.461 119.357 138.444 119.558C138.377 120.353 138.211 121.139 137.949 121.893C137.905 122.02 137.769 122.173 137.669 122.082C137.556 121.512 137.037 121.048 136.459 121.002C135.881 120.956 135.294 121.332 135.093 121.877C135.054 121.985 134.914 122.025 134.804 121.995C134.721 121.973 134.65 121.923 134.582 121.868L134.515 121.814C133.827 121.253 132.894 121.004 132.019 121.147C132.485 120.359 133.077 119.647 133.765 119.044C134.046 118.798 134.352 118.565 134.707 118.45C135.042 118.341 135.401 118.342 135.753 118.36C136.417 118.394 137.079 118.484 137.728 118.63ZM169.129 108.61C168.794 108.252 168.336 108.013 167.851 107.945L168.401 107.244C168.575 107.025 168.779 106.799 169.054 106.765C169.252 106.74 169.448 106.821 169.628 106.908C170.232 107.196 170.802 107.558 171.32 107.982C171.493 108.124 171.667 108.282 171.742 108.492C171.817 108.703 171.757 108.979 171.555 109.076C171.354 109.172 171.064 108.961 171.146 108.753L171.154 108.73C171.188 108.611 171.135 108.472 171.028 108.409L170.833 108.784C170.815 108.816 170.794 108.848 170.762 108.866C170.632 108.938 170.527 108.735 170.519 108.587L170.517 108.566C170.503 108.42 170.426 108.233 170.292 108.279C170.274 108.529 170.095 108.761 169.858 108.841C169.62 108.922 169.338 108.846 169.172 108.657L169.129 108.61ZM127.198 127.089L126.963 126.195C126.851 126.163 126.742 126.275 126.726 126.391C126.715 126.468 126.733 126.544 126.755 126.619L126.792 126.73C126.912 127.11 126.909 127.528 126.783 127.906C126.55 127.427 126.429 126.895 126.431 126.363C126.279 126.279 126.175 126.534 126.186 126.708L126.252 127.743C125.933 127.455 125.821 126.988 125.876 126.561C125.93 126.135 126.13 125.741 126.354 125.374C126.472 125.183 126.601 124.991 126.788 124.867C126.974 124.743 127.231 124.7 127.421 124.818C127.58 124.916 127.653 125.091 127.728 125.267C127.784 125.4 127.841 125.535 127.935 125.64C127.969 125.677 128.008 125.714 128.048 125.753C128.202 125.902 128.366 126.061 128.258 126.221C127.927 126.017 127.624 125.767 127.36 125.48C127.265 126.072 127.352 126.693 127.607 127.236C127.66 127.348 127.487 127.453 127.379 127.397C127.27 127.34 127.229 127.208 127.198 127.089ZM159.029 124.163C159.199 124.013 159.354 123.875 159.429 123.912C159.648 124.022 159.053 124.503 158.739 124.639C158.762 124.791 158.982 124.723 159.111 124.639C159.24 124.555 159.6 124.464 159.53 124.556C159.09 125.126 158.241 125.579 157.456 125.668C157.137 125.704 156.744 125.619 156.643 125.314C156.55 125.036 156.756 124.762 156.974 124.556L157.026 124.507C157.118 124.425 157.265 124.345 157.349 124.435C157.573 124.673 157.965 124.478 158.224 124.278C158.224 124.278 158.895 123.628 159.008 123.67C159.12 123.711 158.673 124.443 158.673 124.443C158.784 124.381 158.91 124.269 159.029 124.163ZM155.814 124.767C155.895 124.748 155.979 124.781 156.048 124.825C156.3 124.988 156.421 125.33 156.326 125.616C156.231 125.901 155.93 126.102 155.631 126.081C155.588 126.077 155.544 126.069 155.511 126.043C155.441 125.987 155.45 125.88 155.465 125.791L155.578 125.145C155.605 124.989 155.66 124.802 155.814 124.767ZM141.59 123.299C142.023 123.226 142.471 123.244 142.896 123.351C142.872 123.527 142.667 123.607 142.493 123.643C141.958 123.754 141.405 123.778 140.862 123.714C140.998 123.458 141.305 123.347 141.59 123.299ZM168.713 108.97L167.578 108.297C168.137 108.213 168.734 108.508 169.008 109.004C168.93 109.076 168.805 109.024 168.713 108.97ZM143.833 122.455C143.352 122.583 142.876 122.731 142.407 122.9C142.894 123.17 143.585 122.954 143.833 122.455ZM139.128 121.845C139.261 121.872 139.201 122.081 139.095 122.166C138.773 122.423 138.284 122.445 137.941 122.218L139.128 121.845ZM169.343 106.248C169.421 106.229 169.501 106.261 169.574 106.294C170.048 106.509 170.482 106.811 170.848 107.182L169.217 106.347C169.242 106.298 169.289 106.26 169.343 106.248ZM144.484 110.761L144.5 110.773C144.648 110.751 144.8 110.764 144.941 110.809C144.818 111.043 144.646 111.252 144.439 111.418C144.335 111.212 144.354 110.951 144.484 110.761ZM172.405 108.466L172.408 108.476C172.588 108.549 172.711 108.745 172.699 108.94C172.327 108.747 172.027 108.42 171.865 108.034C172.087 108.111 172.28 108.266 172.405 108.466ZM138.622 122.747L138.595 122.784C138.501 122.912 138.389 123.051 138.231 123.07C138.074 123.088 137.912 122.883 138.023 122.77C138.21 122.686 138.429 122.677 138.622 122.747ZM127.455 124.335C127.596 124.367 127.755 124.47 127.733 124.613C127.41 124.571 127.093 124.497 126.785 124.391C126.995 124.303 127.233 124.283 127.455 124.335ZM157.38 124.307C157.307 124.339 157.24 124.205 157.31 124.166C157.31 124.166 157.791 123.321 157.811 123.912C157.822 124.06 157.511 124.24 157.38 124.307ZM137.078 128.646C137.114 128.389 137.181 127.906 137.318 127.906C137.511 127.885 137.437 128.216 137.384 128.449C137.37 128.513 137.357 128.57 137.352 128.61C137.334 128.75 137.204 128.86 137.055 128.792C137.061 128.772 137.068 128.718 137.078 128.646V128.646ZM92.0431 137.513C93.0286 137.598 94.0181 137.639 95.0073 137.635C94.9371 138.568 95.6934 139.486 96.6202 139.593C97.5468 139.701 98.4919 138.979 98.6352 138.054C98.6928 137.683 99.1937 137.619 99.5673 137.648L101.945 137.833C102.352 137.865 102.929 137.736 102.885 137.329L102.616 134.832C102.591 134.607 102.67 134.279 102.891 134.323C103.835 134.513 104.866 133.788 104.995 132.831C105.124 131.875 104.309 130.895 103.347 130.864C102.885 130.85 102.665 130.244 102.785 129.796C102.849 129.555 102.972 129.337 103.094 129.119C103.2 128.931 103.306 128.743 103.375 128.54C103.524 128.101 103.399 127.489 102.948 127.383C99.5288 126.579 95.9394 126.511 92.4918 127.185L92.4288 127.197C92.2391 127.235 92.0491 127.283 91.8851 127.384C91.3467 127.719 91.3053 128.456 91.3316 129.106L91.3492 129.467C91.4436 131.564 91.2792 133.672 90.8602 135.728L90.8509 135.775C90.7572 136.244 90.6809 136.779 90.9929 137.134C91.2243 137.398 91.5943 137.469 91.9474 137.504L92.0431 137.513ZM98.108 138.015C98.1355 138.15 98.1011 138.291 98.0469 138.418L98.0296 138.456C97.7114 139.13 96.7644 139.419 96.1298 139.025C95.4831 138.623 95.3246 137.615 95.8167 137.033C94.5661 137.183 93.299 137.193 92.0462 137.063C91.6586 137.022 91.1517 136.812 91.231 136.429C91.7763 133.798 91.9465 131.088 91.7351 128.408C91.6968 127.923 92.2929 127.671 92.7708 127.583C95.8535 127.015 99.0432 127.039 102.117 127.652C102.511 127.73 103.017 128.03 102.842 128.392C102.432 129.244 102.268 130.214 102.375 131.155C102.403 131.395 102.59 131.709 102.799 131.589C103.361 131.265 104.175 131.524 104.447 132.115C104.719 132.705 104.39 133.495 103.78 133.715C103.17 133.935 102.414 133.536 102.249 132.907C102.101 134.203 102.154 135.52 102.404 136.8C102.491 137.243 101.847 137.41 101.398 137.377L97.811 137.109C97.701 137.282 97.8136 137.462 97.9322 137.651C98.0061 137.768 98.0822 137.89 98.108 138.015ZM116.667 129.887L123.692 130.029L123.807 130.031C124.018 130.038 124.231 130.057 124.421 130.146C124.85 130.346 125.047 130.842 125.178 131.299C125.875 133.737 125.789 136.395 124.935 138.783L124.899 138.88C124.788 139.174 124.643 139.467 124.381 139.633C124.165 139.769 123.902 139.797 123.646 139.811L123.591 139.814C122.546 139.863 121.498 139.836 120.457 139.733C120.999 139.399 121.136 138.584 120.792 138.047C120.448 137.51 119.721 137.286 119.108 137.461C118.735 137.567 118.388 137.823 118.253 138.187C118.117 138.552 118.248 139.02 118.593 139.199C118.832 139.322 118.79 139.71 118.581 139.879C118.373 140.048 118.082 140.06 117.814 140.064L114.289 140.121C114.024 140.126 113.746 140.127 113.513 139.999C113.183 139.819 113.032 139.43 112.939 139.065C112.715 138.184 112.684 137.254 112.851 136.36C113.051 137.066 113.918 137.495 114.599 137.224C115.279 136.954 115.617 136.045 115.281 135.394C114.944 134.742 114.009 134.495 113.396 134.897L113.37 134.669C113.283 133.871 113.214 133.062 113.367 132.276C113.535 131.415 114.012 130.569 114.795 130.178C115.366 129.893 116.026 129.877 116.667 129.887ZM124.336 130.624C124.16 130.518 123.948 130.5 123.742 130.491L123.69 130.489C121.505 130.407 119.318 130.365 117.131 130.365L116.402 130.366C115.941 130.367 115.465 130.374 115.043 130.56C114.413 130.838 114.005 131.483 113.839 132.153C113.672 132.823 113.712 133.524 113.753 134.213C114.86 133.907 116.052 135.035 115.92 136.18C115.789 137.324 114.524 138.151 113.396 137.93C113.345 138.291 113.295 138.667 113.401 139.016C113.507 139.365 113.816 139.681 114.18 139.67L117.448 139.564C117.65 139.558 117.93 139.453 117.871 139.258C117.537 138.155 118.5 136.868 119.65 136.881C120.799 136.894 121.733 138.203 121.375 139.298C122.093 139.46 122.84 139.494 123.57 139.398C123.807 139.367 124.054 139.317 124.236 139.161C124.414 139.007 124.502 138.775 124.576 138.552C125.335 136.273 125.418 133.773 124.812 131.448C124.734 131.148 124.626 130.824 124.375 130.649L124.336 130.624ZM93.33 152.326C92.9822 150.055 92.9827 147.732 93.3314 145.461L93.3491 145.351C93.4357 144.836 93.5877 144.292 94.017 144.008C94.3383 143.796 94.7442 143.78 95.1314 143.78L98.0951 143.788C98.2299 143.789 98.3778 143.794 98.4792 143.883C98.5807 143.972 98.5779 144.177 98.4478 144.213C98.1374 144.299 97.959 144.658 97.9966 144.979C98.0344 145.3 98.2424 145.578 98.4866 145.788C99.0692 146.29 99.9748 146.469 100.62 146.05C101.264 145.631 101.416 144.553 100.805 144.086C102.189 144.058 103.574 144.062 104.959 144.099L105.478 144.114C105.645 144.12 105.831 144.133 105.948 144.254C106.036 144.344 106.065 144.476 106.085 144.6C106.238 145.561 106.071 146.571 105.615 147.43C105.543 147.567 105.375 147.718 105.26 147.614C104.774 147.171 103.956 147.231 103.458 147.661C102.961 148.091 102.768 148.805 102.856 149.458C102.941 150.086 103.397 150.757 104.029 150.726C104.207 150.717 104.392 150.655 104.573 150.595L104.573 150.595C104.899 150.486 105.214 150.382 105.455 150.592L104.822 153.429C104.709 153.933 104.507 154.531 104.004 154.639C101.097 155.262 98.0487 155.215 95.1621 154.502L95.022 154.466C94.6717 154.375 94.3228 154.255 94.0495 154.021C93.5737 153.613 93.4251 152.946 93.33 152.326ZM104.894 151.099C104.071 151.487 103 151.154 102.485 150.403C101.971 149.652 102.021 148.579 102.549 147.837C103.077 147.095 104.026 146.701 104.932 146.778L105.008 146.785C105.134 146.796 105.265 146.801 105.372 146.737C105.509 146.657 105.567 146.491 105.605 146.337C105.756 145.723 105.748 145.069 105.581 144.459L101.749 144.487C101.819 145.554 100.944 146.594 99.8835 146.705C98.8233 146.816 97.7527 145.978 97.6019 144.92L97.5807 144.763C97.5579 144.604 97.5224 144.448 97.4042 144.347C97.3213 144.276 97.2122 144.248 97.1046 144.227L97.0642 144.219C95.9494 144.007 94.5361 143.92 93.9512 144.895C93.7519 145.227 93.6985 145.624 93.6579 146.009C93.4251 148.221 93.4804 150.463 93.8222 152.661L93.8388 152.764C93.8944 153.091 93.9813 153.426 94.224 153.646C94.3909 153.797 94.6099 153.871 94.8273 153.933L94.8815 153.948C97.6615 154.715 100.621 154.817 103.447 154.246L103.604 154.213C103.743 154.184 103.888 154.15 103.997 154.059C104.139 153.94 104.194 153.749 104.241 153.57L104.894 151.099ZM125.57 156.72C125.57 156.72 125.586 156.278 125.642 156.133C125.742 155.87 126.038 155.498 126.038 155.498C126.018 155.598 125.989 155.707 125.959 155.818C125.857 156.2 125.745 156.622 125.916 156.934C126.048 157.175 127.978 158.444 128.642 158.741C131.479 160.013 134.33 161.163 137.195 162.319V162.319H137.195L137.195 162.319L137.197 162.32C138.368 162.792 139.541 163.266 140.716 163.749C138.697 163.502 136.837 162.559 135.025 161.631C134.634 163.807 135.843 166 137.475 167.488C138.662 168.571 140.06 169.374 141.458 170.176V170.176C141.98 170.476 142.502 170.776 143.013 171.09L143.2 171.207C145.013 172.344 146.746 173.78 147.546 175.761C147.693 176.124 148.143 176.331 148.513 176.205C148.884 176.079 149.116 175.64 149.011 175.262C149.399 175.581 149.175 176.294 148.706 176.47C148.236 176.646 147.698 176.407 147.352 176.044C147.091 175.77 146.909 175.436 146.727 175.102V175.102L146.727 175.102L146.726 175.101L146.726 175.1C146.667 174.992 146.607 174.883 146.545 174.776C145.427 172.853 143.451 171.658 141.49 170.565L140.57 170.054C138.442 168.863 136.262 167.432 135.351 165.177C132.043 165.703 128.599 165.346 125.468 164.152C124.799 163.897 124.143 163.604 123.488 163.311C122.443 162.845 121.4 162.379 120.303 162.065C119.691 161.891 118.848 161.872 118.619 162.467C118.619 162.467 118.619 162.467 118.618 162.468C118.612 162.48 118.568 162.556 118.373 162.573C118.281 162.581 118.197 162.42 118.171 162.314C118.149 162.284 118.142 162.199 118.142 162.026C118.142 161.933 118.331 161.526 118.687 161.274C118.935 161.099 119.214 161.035 119.36 161.002C119.426 160.987 119.465 160.978 119.462 160.968C119.455 160.944 119.201 160.878 118.971 160.99C118.793 161.077 118.625 161.191 118.47 161.296C118.23 161.458 118.023 161.599 117.865 161.58C117.649 161.555 117.496 161.454 117.494 161.237C117.491 161.02 117.549 160.755 117.716 160.619C118.074 160.327 118.535 160.166 118.996 160.172C119.096 160.174 119.206 160.188 119.271 160.264C119.336 160.339 119.304 160.49 119.205 160.495C118.607 160.522 117.916 160.622 117.684 161.237C117.616 161.416 118.043 161.445 118.209 161.349C118.305 161.294 118.387 161.219 118.47 161.145C118.529 161.091 118.589 161.037 118.654 160.99C118.848 160.85 119.09 160.777 119.329 160.785C119.425 160.789 119.532 160.811 119.588 160.889C119.645 160.967 119.605 161.109 119.509 161.111C118.889 161.121 118.324 161.66 118.281 162.279C118.284 162.302 118.301 162.404 118.373 162.428C118.457 162.457 118.55 162.388 118.554 162.381C118.877 161.803 119.466 161.418 120.099 161.611C120.338 161.684 120.568 161.795 120.798 161.906C121.198 162.1 121.596 162.292 122.034 162.276L121.771 160.88C120.707 159.902 119.104 159.557 117.734 160.012C117.587 160.06 117.428 160.131 117.369 160.274C117.309 160.417 117.44 160.624 117.584 160.569C117.358 160.779 116.974 160.422 117.06 160.124C117.147 159.827 117.472 159.674 117.771 159.596C119.45 159.158 121.122 159.921 122.739 160.658C123.039 160.794 123.337 160.93 123.633 161.058C126.924 162.472 130.643 162.868 134.158 162.178C134.005 162.596 133.486 162.722 133.044 162.772C129.914 163.125 126.699 162.693 123.771 161.526C123.414 161.982 123.584 162.69 123.991 163.101C124.398 163.513 124.974 163.7 125.527 163.866C128.631 164.796 131.922 165.508 135.093 164.846L134.579 161.831L134.569 161.775C134.543 161.655 134.497 161.531 134.384 161.493L134.356 161.483C130.291 160.099 127.193 159.043 123.171 155.198C123.162 155.19 123.155 155.182 123.147 155.174C123.117 156.33 122.752 156.584 121.228 156.269C117.902 155.582 114.498 155.222 111.141 155.695C111.395 154.437 111.713 153.192 112.093 151.967C111.001 152.32 109.712 151.317 109.783 150.168C109.853 149.019 111.256 148.182 112.296 148.667C112.654 147.84 112.676 146.874 112.358 146.03C112.205 145.626 112.814 145.393 113.245 145.393L115.628 145.392C115.961 145.392 116.425 145.237 116.342 144.913C116.146 144.146 116.672 143.27 117.44 143.084C118.194 142.902 119.043 143.42 119.238 144.17L119.248 144.212C119.429 145.018 120.446 145.274 121.27 145.258L121.68 145.248C122.392 145.233 123.134 145.256 123.611 145.756C124.181 146.353 124.053 147.305 123.866 148.116L123.853 148.17C123.761 148.557 123.628 148.872 123.493 149.189C123.237 149.792 122.978 150.402 123.001 151.534C123.011 151.996 123.027 152.419 123.046 152.807C123.112 152.534 123.171 152.354 123.171 152.354C123.171 152.354 130.936 158.153 135.733 158.94C136.307 158.431 135.976 157.439 135.397 156.934C135.153 156.722 134.875 156.55 134.598 156.379C134.218 156.143 133.839 155.909 133.55 155.571C132.977 154.9 132.875 153.975 132.773 153.058C132.662 152.061 132.553 151.073 131.84 150.43C131.777 150.373 131.709 150.319 131.642 150.266L131.641 150.266C131.489 150.145 131.336 150.025 131.232 149.862C130.975 149.459 131.102 148.898 131.413 148.536C131.724 148.173 132.179 147.971 132.63 147.813C133.564 147.486 134.589 147.303 135.544 147.567C136.498 147.831 137.353 148.628 137.447 149.616C137.628 149.223 138.026 148.939 138.455 148.895L137.832 149.56L138.621 149.576L137.535 150.184C138.208 151.433 138.099 152.974 137.667 154.326C137.615 154.491 137.557 154.656 137.5 154.822V154.822L137.499 154.823C137.269 155.486 137.036 156.156 137.096 156.848C137.169 157.7 137.923 158.569 138.747 158.395L138.789 158.386C139.779 158.134 140.864 158.28 141.754 158.783C142.792 159.369 143.499 160.364 144.198 161.348C144.361 161.576 144.523 161.804 144.688 162.026C145.464 163.067 146.383 164.035 147.531 164.638C148.679 165.241 150.087 165.44 151.283 164.94C151.503 164.848 151.714 164.733 151.925 164.619C152.283 164.425 152.641 164.232 153.037 164.149C153.667 164.018 154.469 164.327 154.543 164.968C154.217 164.422 153.446 164.325 152.839 164.509C152.496 164.613 152.18 164.783 151.864 164.953L151.863 164.953C151.619 165.084 151.375 165.215 151.118 165.317C149.83 165.824 148.33 165.516 147.144 164.801C145.995 164.109 145.096 163.074 144.284 162.002L144.205 161.898C144.123 161.789 144.041 161.678 143.959 161.568V161.568L143.959 161.567L143.959 161.567L143.958 161.567L143.958 161.567L143.958 161.566L143.958 161.566L143.958 161.566C143.387 160.797 142.812 160.022 142.059 159.437C141.214 158.78 140.079 158.393 139.062 158.708L138.999 158.728C138.026 159.058 136.995 158.125 136.82 157.109C136.645 156.094 137.058 155.08 137.462 154.132C137.879 153.155 137.113 152.015 136.149 151.574C135.254 151.165 134.179 151.175 133.291 151.599C133.003 151.736 132.951 152.115 132.961 152.438L132.962 152.474C133.012 153.616 133.316 154.817 134.148 155.6C134.395 155.832 134.681 156.02 134.966 156.208C135.323 156.443 135.679 156.677 135.958 156.997C136.46 157.574 136.537 158.655 135.84 158.967C137.036 159.183 138.219 159.47 139.382 159.825C133.127 159.183 127.375 156.224 123.245 152.65C123.161 152.816 123.101 152.991 123.065 153.171C123.075 153.35 123.084 153.52 123.094 153.683C123.107 153.912 123.119 154.125 123.129 154.322C123.327 154.978 123.792 155.556 124.43 155.811C124.38 155.35 124.534 154.87 124.845 154.527C124.644 154.978 124.324 155.844 125.57 156.72ZM135.179 147.889C134.622 147.785 134.057 147.729 133.49 147.724C133.452 147.795 133.437 147.879 133.45 147.96C134.081 148.012 134.703 148.179 135.276 148.45C135.036 148.69 134.64 148.546 134.319 148.429L134.3 148.422C133.75 148.223 133.147 148.174 132.573 148.284C132.281 148.34 131.988 148.441 131.762 148.636C131.537 148.831 131.389 149.135 131.44 149.43C131.504 149.806 131.857 150.063 132.209 150.208C133.082 150.567 134.129 150.465 134.918 149.946C134.981 149.904 135.072 149.974 135.075 150.051C135.079 150.128 135.028 150.195 134.973 150.249C134.659 150.563 134.191 150.663 133.748 150.689C133.619 150.697 133.489 150.699 133.359 150.702H133.359C133.044 150.708 132.729 150.714 132.424 150.791C132.465 151.043 132.779 151.13 133.033 151.148C134.003 151.219 134.986 151.088 135.904 150.766C136.134 150.686 136.346 150.917 136.481 151.12L137.47 152.599C137.795 152.293 137.775 151.763 137.622 151.343C137.562 151.178 137.486 151.02 137.41 150.862C137.291 150.616 137.173 150.37 137.117 150.103C137.087 149.956 137.075 149.805 137.064 149.654C137.049 149.443 137.033 149.232 136.964 149.033C136.718 148.332 135.907 148.025 135.179 147.889ZM123.235 161.396L122.337 160.879C122.238 160.821 122.054 160.812 122.064 160.927C122.034 161.391 122.072 161.96 122.369 162.347C122.557 162.591 122.693 162.716 123.355 162.881L123.306 161.58C123.304 161.511 123.294 161.43 123.235 161.396ZM136.901 154.318C137.011 154.254 137.08 154.142 137.145 154.033C137.261 153.839 137.381 153.634 137.386 153.407C137.391 153.181 137.235 152.934 137.01 152.926C136.898 152.921 136.791 152.975 136.7 153.04C136.496 153.184 136.339 153.393 136.257 153.629C136.361 153.779 136.596 153.645 136.7 153.495C136.805 153.346 136.959 153.157 137.126 153.232C137.016 153.613 136.822 153.97 136.562 154.269C136.631 154.374 136.792 154.381 136.901 154.318ZM138.697 165.308C138.447 164.91 138.178 164.481 137.733 164.352C138.72 166.214 140.249 167.783 142.083 168.815C142.723 169.175 143.398 169.471 144.073 169.767C145.014 170.179 145.954 170.591 146.795 171.176C147.85 171.909 148.722 172.903 149.312 174.046C149.08 172.417 147.722 171.17 146.271 170.399C145.615 170.051 144.925 169.77 144.236 169.489V169.489C143.403 169.149 142.57 168.81 141.797 168.351C140.564 167.62 139.508 166.593 138.742 165.38C138.727 165.356 138.712 165.332 138.697 165.308ZM141.796 165.859L141.824 165.92C141.945 166.202 142.029 166.556 141.801 166.747C141.62 166.899 141.344 166.841 141.13 166.74C140.666 166.522 140.284 166.137 140.068 165.671C140.338 165.618 140.591 165.481 140.786 165.285C140.947 165.122 141.232 165.155 141.414 165.295C141.596 165.434 141.699 165.651 141.796 165.859ZM141.649 166.526C141.882 166.105 141.406 165.485 141.174 165.445C141.073 165.428 140.968 165.528 140.856 165.636C140.741 165.747 140.618 165.865 140.481 165.872C140.481 165.872 141.416 166.946 141.649 166.526ZM153.42 167.734C159.088 167.547 164.621 164.778 168.177 160.349C168.361 160.12 168.726 160.116 168.982 160.26C169.238 160.404 169.411 160.657 169.574 160.902C169.753 160.875 169.758 160.598 169.635 160.466C169.574 160.401 169.498 160.353 169.422 160.306C169.344 160.257 169.266 160.208 169.205 160.141C168.957 159.866 169.089 159.433 169.234 159.092L169.881 157.574C169.968 157.371 170.103 157.133 170.324 157.136C170.485 157.139 170.609 157.274 170.712 157.399C171.827 158.762 172.862 160.192 173.81 161.678C173.226 161.768 172.664 161.48 172.111 161.195C171.492 160.878 170.883 160.565 170.263 160.79C169.722 160.987 169.404 161.533 169.118 162.032C168.182 163.668 167.109 165.243 165.751 166.548C162.596 169.576 158.194 170.887 153.906 171.716C156.558 172.723 159.481 173.005 162.276 172.525C163.876 172.25 165.471 171.709 166.718 170.667C167.223 170.245 167.661 169.749 168.097 169.256L171.308 165.621C171.496 165.408 171.843 165.612 172.018 165.836C172.194 166.059 172.431 166.338 172.698 166.243C172.507 165.813 172.175 165.448 171.766 165.218C171.742 164.705 171.727 164.156 171.999 163.721C172.27 163.286 172.948 163.074 173.301 163.446C174.457 164.666 175.565 165.932 176.622 167.24C176.002 167.338 175.413 167.07 174.828 166.805H174.828H174.828V166.805H174.828C174.647 166.723 174.467 166.641 174.287 166.57C173.522 166.27 172.45 166.277 172.101 167.022C171.147 169.062 170.156 171.153 168.518 172.695C165.783 175.27 161.787 175.852 158.059 176.276C156.406 176.464 154.708 176.642 153.098 176.22C151.927 175.913 150.861 175.301 149.81 174.697L148.977 174.217C148.732 174.278 148.929 174.651 149.146 174.78C150.542 175.605 151.98 176.446 153.58 176.699C153.988 176.763 154.401 176.789 154.813 176.804C158.61 176.947 162.436 176.279 165.962 174.857C167.432 174.264 168.928 173.472 169.736 172.104L172.581 167.286C172.69 167.101 172.81 166.906 173.003 166.815C173.239 166.703 173.516 166.774 173.766 166.847L176.433 167.624C176.705 167.703 176.959 167.383 176.93 167.1C176.902 166.817 176.698 166.587 176.504 166.379L174.044 163.739C173.72 163.391 173.371 163.028 172.913 162.901C172.455 162.774 171.866 162.997 171.776 163.465C171.512 164.847 170.57 165.986 169.662 167.058C168.256 168.718 166.792 170.423 164.84 171.378C162.042 172.748 158.734 172.35 155.67 171.794L157.657 171.213C158.641 170.926 159.626 170.638 160.579 170.262C164.278 168.805 167.428 165.993 169.3 162.478C169.625 161.868 170.007 161.162 170.686 161.04C171.244 160.939 171.72 161.27 172.206 161.607C172.495 161.808 172.788 162.012 173.104 162.129C173.57 162.301 174.294 162.055 174.184 161.57C174.159 161.46 174.093 161.365 174.028 161.273L171.498 157.696C171.147 157.199 170.621 156.639 170.043 156.825C169.579 156.975 169.405 157.512 169.252 157.986L169.238 158.029L169.231 158.048L169.224 158.07C168.504 160.271 166.568 161.808 164.73 163.211C163.926 163.825 163.119 164.44 162.252 164.959C159.717 166.475 156.744 167.118 153.799 167.309C152.966 167.364 152.443 168.146 151.965 168.863C151.908 168.948 151.851 169.033 151.795 169.114C150.975 170.312 149.808 171.268 148.473 171.834C148.697 172.081 149.103 171.933 149.386 171.756C150.725 170.917 151.861 169.754 152.67 168.394C152.848 168.094 153.072 167.745 153.42 167.734ZM135.639 154.895C135.508 155.181 135.218 155.387 134.905 155.415C134.593 155.443 134.271 155.291 134.092 155.033C134.026 154.938 134.027 154.752 134.142 154.762C134.381 155.08 134.879 155.162 135.207 154.938C135.349 154.84 135.596 154.727 135.639 154.895ZM133.127 152.815C133.155 152.575 133.356 152.367 133.594 152.331C133.833 152.295 134.086 152.436 134.183 152.657C134.009 152.657 133.892 152.625 133.795 152.599C133.597 152.545 133.481 152.514 133.127 152.815ZM134.972 154.15L134.701 154.267L134.685 154.258C134.615 154.392 134.408 154.24 134.392 154.089C134.389 154.058 134.387 154.025 134.386 153.992C134.38 153.864 134.373 153.731 134.268 153.674C134.137 153.864 134.076 154.114 134.153 154.332C134.23 154.55 134.462 154.716 134.689 154.675C134.916 154.634 135.079 154.355 134.972 154.15ZM135.297 152.298C135.64 152.326 135.731 152.344 135.825 152.57C135.844 152.615 135.698 152.573 135.558 152.533H135.558C135.455 152.503 135.356 152.475 135.33 152.483C134.183 152.824 134.954 152.27 135.297 152.298ZM135.2 152.892C135.389 153.042 135.335 153.642 135.055 153.529C134.938 153.482 134.798 152.572 135.2 152.892ZM144.265 168.949C144.175 168.836 144.277 168.634 144.422 168.641C144.485 168.683 144.529 168.754 144.536 168.83C144.481 168.919 144.368 168.968 144.266 168.946L144.265 168.949ZM141.69 167.78L141.887 167.75L141.903 167.744C141.971 167.616 141.747 167.47 141.658 167.584C141.639 167.65 141.651 167.724 141.69 167.78ZM143.092 168.559C142.978 168.59 142.962 168.393 143.027 168.294L143.299 168.418C143.257 168.492 143.179 168.544 143.095 168.554L143.092 168.559ZM139.688 165.693C139.658 165.618 139.549 165.59 139.486 165.64L139.504 165.657C139.449 165.729 139.492 165.851 139.58 165.872C139.66 165.865 139.718 165.768 139.688 165.693ZM133.699 153.543C133.59 153.543 133.475 153.435 133.481 153.249C133.486 153.062 133.537 152.889 133.699 152.981C133.862 153.072 133.813 153.543 133.699 153.543ZM82.5902 130.825C82.6564 130.912 82.8075 130.873 82.8655 130.781C82.9238 130.688 82.9164 130.57 82.9059 130.461C82.7538 128.886 82.346 127.335 81.7035 125.889C81.5205 125.478 81.328 124.964 81.6082 124.611C82.256 126.235 82.9091 127.879 83.1451 129.611C83.2095 130.084 83.2326 130.602 82.9696 131C82.7067 131.397 82.0517 131.55 81.7596 131.173C82.2089 131.079 82.5527 130.623 82.5202 130.164C82.7277 130.306 82.7634 130.642 82.5902 130.825ZM87.8261 162.109C90.1766 161.98 92.8994 161.64 94.1324 159.629C94.452 159.107 94.3839 158.288 94.3276 157.612C94.2826 157.069 94.2452 156.62 94.4229 156.493C94.8217 156.208 95.1407 156.943 95.1407 156.943C95.1525 156.894 95.166 156.834 95.181 156.766C95.2925 156.265 95.4975 155.342 95.8199 155.515C95.9524 155.587 95.9069 156.035 95.8755 156.344V156.344C95.8681 156.416 95.8616 156.481 95.8582 156.531C95.8508 156.579 95.8497 156.618 95.8554 156.647C95.8598 156.645 95.8646 156.642 95.8693 156.639C95.8713 156.638 95.8736 156.637 95.8759 156.635C95.8776 156.634 95.8797 156.632 95.8817 156.629C95.9339 156.585 96.0052 156.476 96.0846 156.355H96.0848C96.2493 156.104 96.4483 155.8 96.5817 155.911C96.7912 156.087 96.0465 157.207 96.0465 157.207C96.0465 157.207 96.9309 156.232 97.0056 156.647C97.0802 157.061 95.0659 160.808 93.2476 162.278C91.4293 163.747 88.8672 164.57 86.5506 164.275C86.6023 163.354 86.9073 162.16 87.8261 162.109ZM95.8817 156.629C95.8775 156.633 95.8734 156.636 95.8693 156.639C95.8554 156.641 95.8538 156.6 95.8582 156.531C95.8753 156.423 95.9258 156.274 96.0066 156.132C95.9913 156.181 95.9761 156.228 95.9616 156.272C95.897 156.471 95.8503 156.615 95.8988 156.603C95.8953 156.61 95.8919 156.615 95.8889 156.62C95.8863 156.623 95.884 156.627 95.8817 156.629ZM96.3195 155.784C96.1893 155.867 96.0841 155.996 96.0066 156.132C96.1273 155.749 96.2494 155.265 95.9524 155.227C95.4486 155.161 94.9563 155.983 95.0437 156.42C94.9039 156.072 94.3221 156.223 94.1813 156.57C94.0731 156.837 94.1192 157.129 94.1649 157.419C94.1786 157.507 94.1924 157.595 94.2019 157.681C94.3533 159.067 93.3171 160.363 92.0611 160.961C90.8768 161.524 89.5329 161.603 88.2182 161.644L87.9117 161.653C87.1612 161.673 86.3484 161.656 85.7756 161.175C85.1855 160.68 85.1862 159.506 85.9272 159.298C87.8083 158.771 89.2431 156.933 89.3015 154.975C89.3188 154.397 89.6931 153.915 90.0547 153.45C90.0871 153.408 90.1196 153.367 90.1516 153.325L90.231 153.221C90.6358 152.682 90.9686 151.94 90.6287 151.358C90.1021 152.036 89.1155 152.309 88.3169 151.999C87.9835 151.869 87.6883 151.653 87.3948 151.438C87.002 151.15 86.6124 150.864 86.1391 150.792C85.2137 150.653 84.2958 151.592 84.4542 152.517C84.2037 152.306 83.8149 152.626 83.7877 152.953C83.7719 153.145 83.8221 153.331 83.8728 153.519C83.9083 153.651 83.9439 153.783 83.9568 153.917C83.9718 154.074 83.9557 154.231 83.9398 154.388C83.9289 154.494 83.9181 154.6 83.9169 154.707C83.9102 155.257 84.1548 155.767 84.3957 156.269L84.396 156.269L84.3962 156.27C84.4204 156.32 84.4444 156.37 84.4682 156.42L84.5326 156.558C84.807 157.154 85.0105 157.864 84.7181 158.452C84.4258 159.04 83.4307 159.224 83.1489 158.631C81.7674 155.726 78.636 153.747 75.4263 153.752C71.71 153.758 68.3663 156.214 66.1762 159.225C65.903 159.6 65.6357 160.005 65.5762 160.466C65.5166 160.927 65.7299 161.456 66.1672 161.61C66.6045 161.764 67.1714 161.333 67.029 160.891C67.2508 161.15 67.7045 160.905 67.809 160.579C67.8677 160.396 67.867 160.203 67.8663 160.01C67.8657 159.859 67.8652 159.708 67.8928 159.56C68.0283 158.838 68.7689 158.421 69.4354 158.116L69.5698 158.055C71.14 157.343 72.7759 156.706 74.4932 156.585C76.2598 156.461 78.1448 156.953 79.3587 158.246C77.7022 158.64 76.7403 160.307 75.9736 161.847L75.8672 162.061C75.093 163.62 74.079 165.321 72.3813 165.652C72.4459 165.988 72.7414 166.266 73.0799 166.308L66.856 170.019L67.3335 170.613C65.8181 172.942 64.1042 175.141 62.2166 177.178C61.1903 178.286 59.8577 179.434 58.372 179.176C58.1034 179.13 57.8429 179.037 57.5833 178.945C57.2033 178.81 56.8251 178.676 56.426 178.687C55.7544 178.706 55.0804 179.526 55.5363 180.02C56.5459 181.117 57.6982 182.08 58.9548 182.88L58.9873 182.9C59.1403 182.996 59.3085 183.085 59.4859 183.065C59.6652 183.044 59.8112 182.916 59.9445 182.794L68.3738 175.087C69.0641 174.461 69.8239 173.834 70.7435 173.742L70.8211 173.733C71.5013 173.638 72.0615 173.207 72.6236 172.774C72.8681 172.586 73.1131 172.397 73.3684 172.236C74.2324 171.691 75.6653 171.635 76.0013 172.602C76.1797 173.115 75.946 173.638 75.7157 174.153C75.6471 174.306 75.5786 174.459 75.5216 174.61C75.2732 175.271 75.4768 176.287 76.1807 176.275L80.1201 176.205C80.2616 176.203 80.4107 176.211 80.5209 176.298C80.6361 176.389 80.6765 176.54 80.6986 176.688L80.7077 176.757C80.8561 177.966 80.8357 179.197 80.6472 180.401C80.4429 181.707 79.8994 183.142 78.6713 183.621C77.8968 183.922 77.0341 183.766 76.2183 183.578L71.2614 182.417C71.2531 181.815 71.7961 181.325 72.3751 181.166C72.866 181.031 73.3815 181.072 73.892 181.113H73.8922C73.9234 181.115 73.9548 181.118 73.9862 181.12L74.1662 181.134C75.4207 181.22 76.6889 181.103 77.9067 180.789L76.1495 176.379C76.3286 177.843 76.7235 179.28 77.3173 180.63L71.541 180.818C71.0379 180.832 70.4794 180.81 70.1413 180.441C70.0545 180.347 69.9822 180.231 69.9105 180.115C69.7633 179.879 69.6188 179.647 69.3574 179.616C69.1316 179.59 68.9269 179.741 68.754 179.889C67.6246 180.855 66.6869 182.046 66.0113 183.371C66.2549 183.976 67.0619 184.145 67.6889 183.972C68.0556 183.87 68.3904 183.687 68.7257 183.504C68.9637 183.374 69.202 183.244 69.4522 183.142C70.8486 182.576 72.3836 182.96 73.8583 183.405L74.7341 183.672C76.465 184.194 78.5755 184.461 79.8727 183.199C80.638 182.454 80.917 181.346 81.0686 180.288C81.5059 177.233 81.1514 174.067 80.0492 171.186C81.2781 170.71 81.8579 169.332 82.3088 168.091L83.1918 165.66C83.4867 164.848 84.1569 163.851 84.9547 164.178C87.2351 165.114 89.9287 164.718 92.0517 163.465C94.1749 162.211 95.7642 160.18 96.8348 157.955L96.8634 157.895C97.0728 157.453 97.3398 156.421 97.1014 156.306C97.0125 156.237 96.854 156.353 96.7462 156.432C96.6878 156.475 96.6442 156.507 96.6343 156.493C96.6281 156.484 96.6477 156.427 96.6754 156.346C96.7845 156.027 97.0199 155.34 96.3195 155.784ZM81.2287 169.428C80.9528 170.05 80.4963 170.782 79.8224 170.7C79.4615 170.655 79.1891 170.382 78.944 170.102L78.8125 169.949C77.3884 168.291 75.4539 167.189 73.5094 166.175L72.8614 165.84C74.4454 165.527 75.4225 163.956 76.1202 162.497L76.3425 162.031C76.9805 160.705 77.7064 159.34 79.0223 158.743C79.2043 158.661 79.4128 158.595 79.6004 158.663C79.6288 158.674 79.6595 158.686 79.6915 158.698C79.923 158.787 80.2212 158.902 80.2165 158.682C79.7944 158.512 79.7248 157.894 79.9683 157.508C80.1907 157.156 80.5759 156.953 80.9573 156.778L81.066 156.729C80.8228 156.392 80.2955 156.675 80.0201 156.985L79.9973 157.011C79.7209 157.315 79.2965 157.648 78.9775 157.401C77.659 156.379 75.9019 156.051 74.2433 156.211C72.5849 156.372 71.0026 156.98 69.4875 157.675C68.9322 157.93 68.3681 158.208 67.956 158.66C67.6372 159.009 67.6042 159.475 67.571 159.942C67.5613 160.079 67.5515 160.216 67.5346 160.351C67.4937 160.676 67.3153 160.689 67.1582 160.699C67.074 160.705 66.9959 160.711 66.9483 160.764C66.9445 160.768 66.9321 160.787 66.9136 160.815C66.8193 160.961 66.564 161.354 66.4487 161.315C66.2794 161.257 66.3657 160.891 66.3657 160.891C66.3657 160.891 65.8632 161.035 65.8258 160.891C65.6949 160.387 66.4487 159.355 66.4487 159.355C67.7161 157.486 69.5955 155.934 71.6618 155.032C73.7663 154.114 76.2222 153.937 78.3736 154.738C80.7991 155.643 82.7199 157.802 83.339 160.322C83.4934 160.95 84.222 161.227 84.8587 161.331C84.8802 161.335 84.9019 161.339 84.9236 161.342C84.9619 161.348 85.0006 161.354 85.0394 161.36L85.0403 161.36C85.6279 161.452 86.2526 161.55 86.627 162C86.7375 162.133 86.707 162.329 86.669 162.498L86.6579 162.546C86.5183 163.147 86.2746 163.819 85.6925 164.002C85.1633 164.167 84.5365 163.74 84.4959 163.185C84.4924 163.137 84.4913 163.085 84.4902 163.032C84.4858 162.817 84.4811 162.59 84.3007 162.501L81.2287 169.428ZM76.225 172.714C76.027 171.695 75.4258 170.777 74.6367 170.104C74.6675 170.505 74.8366 170.894 75.1085 171.189C73.7715 171.615 72.5105 172.281 71.403 173.145C71.1067 173.376 70.603 173.587 70.4294 173.253C69.7464 171.939 68.659 170.84 67.3543 170.145L72.7185 167.054C72.9608 166.914 73.2174 166.771 73.4969 166.768C73.7136 166.766 73.9195 166.849 74.1156 166.946L74.2128 166.995C76.2201 168.032 78.017 169.477 79.4628 171.216C79.8208 171.647 79.9874 172.198 80.1293 172.743L80.7672 175.243C80.8096 175.409 80.8404 175.614 80.7111 175.725C80.6384 175.788 80.5359 175.799 80.4402 175.806L80.3283 175.814C78.74 175.937 77.4585 176.036 75.8672 175.806C75.6298 175.349 75.8091 174.784 75.9944 174.199C76.1532 173.699 76.3163 173.185 76.225 172.714ZM68.2449 171.177C68.8401 171.703 69.3767 172.295 69.8414 172.939C69.8911 173.008 69.9423 173.085 69.937 173.17C69.9308 173.269 69.8508 173.346 69.7763 173.411L62.8433 179.496C62.5542 179.75 62.093 179.705 61.7692 179.498C61.4859 179.317 61.2833 179.039 61.0974 178.755L61.0186 178.633C62.8254 177.681 63.9845 175.975 65.1538 174.254C65.8873 173.175 66.6248 172.089 67.5288 171.18C67.6167 171.092 67.7158 171 67.8395 170.986C67.9925 170.969 68.1294 171.075 68.2449 171.177ZM88.4347 154.203L88.6117 154.258C88.9565 154.365 89.0137 154.828 88.9699 155.187C88.7882 156.674 87.8665 158.146 86.4453 158.608L86.3945 158.626C85.4684 158.953 84.8063 159.925 84.8458 160.911C84.2241 161.027 83.5576 160.529 83.4923 159.898C83.4793 159.772 83.5165 159.609 83.6411 159.589C84.206 159.502 84.7253 159.155 85.0223 158.665C85.3193 158.176 85.3881 157.553 85.2053 157.01C85.168 156.899 85.1206 156.788 85.0731 156.677C84.9379 156.361 84.8024 156.044 84.8973 155.725C85.1137 155.745 85.1548 156.043 85.132 156.259L85.1296 156.286C85.1119 156.5 85.1495 156.774 85.3563 156.802C85.4925 156.488 85.521 156.137 85.549 155.788C85.5845 155.348 85.6198 154.912 85.8714 154.561C86.1592 154.16 86.6756 153.976 87.1683 153.97C87.5994 153.965 88.0207 154.077 88.4347 154.203ZM57.2838 179.277L57.3282 179.225C57.5764 179.171 57.8133 179.489 57.6904 179.712C57.6116 179.855 57.8541 179.997 57.9894 179.906C58.1248 179.815 58.1521 179.63 58.167 179.467C58.3032 179.424 58.421 179.581 58.4467 179.722C58.4535 179.759 58.4577 179.797 58.462 179.836C58.4737 179.943 58.4855 180.051 58.5529 180.131C58.6446 180.241 58.8876 180.184 58.8478 180.047C58.7883 179.842 59.0298 179.674 59.2406 179.644C59.2913 179.637 59.3436 179.633 59.3961 179.628C59.5618 179.615 59.7289 179.601 59.8496 179.493L59.8678 179.478C60.0209 179.369 60.2105 179.571 60.326 179.75L60.3798 179.837C60.6339 180.233 61.0659 180.51 61.5316 180.573C61.6228 180.586 61.5764 180.729 61.5094 180.792L59.9377 182.276C59.8615 182.348 59.738 182.297 59.6488 182.242C58.7158 181.669 57.8546 180.979 57.0916 180.193C56.8512 179.946 57.0551 179.55 57.2838 179.277ZM71.0283 182.039C70.9832 182.226 70.8542 182.436 70.6627 182.421C70.201 182.387 69.7329 182.443 69.2921 182.585C69.3325 182.397 69.2503 182.187 69.0925 182.077C68.9773 182.243 69.0244 182.498 69.1907 182.612L68.7513 183.047L68.5409 182.562C68.4372 182.59 68.4342 182.718 68.4413 182.835L68.4465 182.907C68.4675 183.214 68.2079 183.513 67.9019 183.533C67.5958 183.554 67.2986 183.293 67.2784 182.986C67.2563 182.652 67.5117 182.371 67.7491 182.136L69.435 180.461C69.4709 180.427 69.5119 180.395 69.5603 180.396C69.6138 180.397 69.6572 180.438 69.6948 180.476L70.3527 181.142C70.4802 181.271 70.3996 181.469 70.321 181.661C70.2402 181.859 70.1615 182.052 70.3142 182.159C70.4629 182.168 70.5867 182.039 70.6439 181.901C70.6731 181.83 70.6908 181.756 70.7085 181.682C70.7255 181.61 70.7425 181.539 70.7697 181.471C70.8252 181.333 70.9449 181.201 71.0938 181.204C71.2427 181.207 71.3576 181.42 71.2424 181.515C71.1196 181.616 71.0846 181.78 71.0504 181.94V181.94C71.0433 181.974 71.0363 182.007 71.0283 182.039ZM59.5017 182.779C57.9864 181.967 56.647 180.826 55.6015 179.458C55.7385 179.328 55.9447 179.466 56.0773 179.614L56.1101 179.653C57.1035 180.885 58.3511 181.911 59.7512 182.646C59.7399 182.757 59.5997 182.832 59.5017 182.779ZM66.769 182.468C67.4254 181.607 68.1527 180.801 68.941 180.059C69.0632 179.945 69.317 179.867 69.3479 180.032C68.4302 180.911 67.5524 181.831 66.7182 182.79C66.6276 182.711 66.6961 182.564 66.769 182.468ZM61.7278 180.316C61.2698 180.152 60.8614 179.851 60.5689 179.462C60.4588 179.316 60.3894 179.061 60.5562 178.986C60.688 178.926 60.8146 179.051 60.9066 179.172L60.9755 179.266C61.2718 179.659 61.6944 179.953 62.1644 180.094C62.1652 180.22 62.0614 180.338 61.9369 180.353C61.866 180.361 61.7951 180.34 61.7278 180.316ZM84.2052 154.84C84.4205 154.845 84.6028 155.07 84.5638 155.282L84.5688 155.285C84.5986 155.439 84.579 155.603 84.5137 155.745C84.2781 155.513 84.1602 155.167 84.2052 154.84ZM88.3075 154.845C88.3347 154.842 88.3633 154.84 88.3922 154.84C88.4286 154.839 88.4706 154.846 88.5101 154.852C88.6167 154.868 88.7058 154.882 88.6216 154.75C88.506 154.569 88.1681 154.548 88.1127 154.756C88.1282 154.861 88.2087 154.854 88.3075 154.845ZM88.5796 155.742C88.5812 155.735 88.5828 155.729 88.5844 155.723C88.6666 155.411 88.619 155.164 88.3922 155.164C88.3049 155.171 88.1713 155.618 88.184 155.753C88.1967 155.889 88.349 156.014 88.4669 155.947C88.5369 155.907 88.5593 155.82 88.5796 155.742ZM87.0837 155.647C86.9256 155.427 86.909 155.113 87.043 154.877C87.0629 154.842 87.0871 154.808 87.1222 154.787C87.211 154.736 87.3295 154.805 87.3687 154.9C87.4077 154.995 87.3906 155.102 87.3729 155.203C87.3729 155.203 87.2418 155.867 87.0837 155.647ZM120.574 155.653C117.686 154.943 114.669 154.763 111.717 155.126C112.229 153.93 112.454 152.61 112.367 151.31C111.598 151.851 110.336 151.217 110.306 150.275C110.277 149.334 111.498 148.623 112.3 149.114C112.512 149.245 112.745 148.974 112.83 148.74C113.119 147.94 113.122 147.04 112.838 146.239C112.727 145.926 113.197 145.757 113.527 145.764L116.33 145.819C116.518 145.823 116.718 145.824 116.879 145.726C117.04 145.627 117.131 145.391 117.013 145.244C116.528 144.64 117.085 143.56 117.857 143.609C118.628 143.658 119.046 144.799 118.49 145.337C118.386 145.437 118.588 145.566 118.732 145.57L122.396 145.654C123.125 145.671 123.64 146.45 123.67 147.181C123.695 147.799 123.476 148.391 123.26 148.975C123.241 149.026 123.222 149.077 123.204 149.128L123.144 149.294C122.495 151.12 122.286 153.102 122.54 155.024C122.59 155.399 122.245 155.733 121.877 155.814C121.552 155.886 121.217 155.815 120.892 155.733L120.574 155.653Z" fill="#2C2C2E"/>
<path fill-rule="evenodd" clip-rule="evenodd" d="M81.511 122.015C81.5378 121.842 81.7679 121.742 81.9343 121.802C82.1007 121.861 82.2493 122.1 82.1274 122.235C81.9343 122.449 81.4593 122.351 81.511 122.015Z" fill="#FFAB01"/>
<path fill-rule="evenodd" clip-rule="evenodd" d="M153.933 166.872C153.824 166.964 153.606 166.997 153.586 166.856C154.011 166.423 154.303 165.861 154.413 165.264C154.552 165.227 154.592 165.448 154.557 165.588C154.44 166.058 154.304 166.561 153.933 166.872Z" fill="#2C2C2E"/>
<path d="M60.2239 115.273C60.2196 115.413 60.008 115.404 59.8801 115.349C59.9261 115.224 60.1128 115.183 60.2074 115.276L60.2239 115.273Z" fill="#1C1C1E"/>
<path fill-rule="evenodd" clip-rule="evenodd" d="M120.487 153.628C120.34 153.76 120.093 153.559 120.115 153.363C120.136 153.167 120.31 153.026 120.476 152.92C121.072 152.542 121.763 152.313 122.467 152.262C122.486 152.531 122.138 152.643 121.874 152.694C121.313 152.804 120.779 153.048 120.329 153.399C120.41 153.449 120.469 153.535 120.487 153.628Z" fill="#2C2C2E"/>
<path fill-rule="evenodd" clip-rule="evenodd" d="M122.487 153.972C122.157 154.132 121.82 154.28 121.479 154.415C121.518 154.559 121.725 154.554 121.865 154.504C122.005 154.453 122.19 154.399 122.28 154.518C122.05 154.871 121.478 154.926 121.185 154.623C121.057 154.492 120.826 154.578 120.662 154.499C120.426 154.384 120.47 154.027 120.609 153.805C120.898 153.34 121.451 153.053 121.997 153.085C122.205 153.097 122.453 153.2 122.467 153.408C121.815 153.367 121.15 153.636 120.71 154.12C120.96 154.314 121.319 154.169 121.601 154.026C121.883 153.883 122.255 153.756 122.487 153.972Z" fill="#2C2C2E"/>
<path fill-rule="evenodd" clip-rule="evenodd" d="M87.7869 155.826C87.974 156.014 88.0516 156.1 88.0516 156.376C88.0516 156.652 87.9023 156.829 87.6502 156.91C87.5341 156.948 87.3731 156.919 87.343 156.8C88.1829 156.628 87.8743 156.261 87.7869 155.826Z" fill="#2C2C2E"/>
<path fill-rule="evenodd" clip-rule="evenodd" d="M86.6664 154.651C86.7559 154.354 87.1457 154.193 87.4185 154.341C87.5265 154.399 87.6163 154.506 87.6219 154.629C87.3034 154.636 87.041 154.43 86.6664 154.651Z" fill="#2C2C2E"/>
<path fill-rule="evenodd" clip-rule="evenodd" d="M87.4289 157.313C85.6521 156.325 87.0431 157.591 87.4289 157.313V157.313Z" fill="#2C2C2E"/>
</g>
<path d="M22.986 41.6956V29.7716H27.254V27.0216H15.55V29.7716H19.84V41.6956H22.986ZM32.0363 41.9596C33.6863 41.9596 35.3583 41.4536 36.4143 40.4856L35.1823 38.6816C34.5003 39.3416 33.2463 39.7376 32.3443 39.7376C30.5403 39.7376 29.4623 38.6156 29.2863 37.2736H37.1843V36.6576C37.1843 33.1816 35.0283 30.8056 31.8603 30.8056C28.6263 30.8056 26.3603 33.2916 26.3603 36.3716C26.3603 39.7816 28.8023 41.9596 32.0363 41.9596ZM34.4783 35.3816H29.2423C29.3743 34.3256 30.1223 33.0276 31.8603 33.0276C33.7083 33.0276 34.4123 34.3696 34.4783 35.3816ZM48.9044 41.6956L45.0984 36.2396L48.6624 31.0696H45.5384L43.3604 34.3476L41.1604 31.0696H38.0364L41.5784 36.2396L37.8164 41.6956H40.9184L43.3604 38.1096L45.7804 41.6956H48.9044ZM53.8523 41.9596C55.0183 41.9596 55.7663 41.6516 56.1843 41.2776L55.5903 39.1656C55.4363 39.3196 55.0403 39.4736 54.6223 39.4736C54.0063 39.4736 53.6543 38.9676 53.6543 38.3076V33.5116H55.8103V31.0696H53.6543V28.1656H50.8383V31.0696H49.0783V33.5116H50.8383V39.0556C50.8383 40.9476 51.8943 41.9596 53.8523 41.9596ZM60.5159 38.2856V34.5236C60.9779 33.8196 62.0119 33.2916 62.9139 33.2916C64.5419 33.2916 65.6199 34.5456 65.6199 36.3936C65.6199 38.2416 64.5419 39.4736 62.9139 39.4736C62.0119 39.4736 60.9779 38.9676 60.5159 38.2856ZM60.5159 41.6956V40.3316C61.3519 41.3876 62.5179 41.9596 63.7939 41.9596C66.4779 41.9596 68.5019 39.9356 68.5019 36.3936C68.5019 32.9176 66.4999 30.8056 63.7939 30.8056C62.5399 30.8056 61.3519 31.3556 60.5159 32.4336V27.0216H57.7219V41.6956H60.5159ZM75.5406 41.9596C79.0606 41.9596 81.1726 39.4076 81.1726 36.3716C81.1726 33.3576 79.0606 30.8056 75.5406 30.8056C72.0426 30.8056 69.9306 33.3576 69.9306 36.3716C69.9306 39.4076 72.0426 41.9596 75.5406 41.9596ZM75.5406 39.4736C73.8026 39.4736 72.8346 38.0436 72.8346 36.3716C72.8346 34.7216 73.8026 33.2916 75.5406 33.2916C77.2786 33.2916 78.2686 34.7216 78.2686 36.3716C78.2686 38.0436 77.2786 39.4736 75.5406 39.4736ZM88.1734 41.9596C91.6934 41.9596 93.8054 39.4076 93.8054 36.3716C93.8054 33.3576 91.6934 30.8056 88.1734 30.8056C84.6754 30.8056 82.5634 33.3576 82.5634 36.3716C82.5634 39.4076 84.6754 41.9596 88.1734 41.9596ZM88.1734 39.4736C86.4354 39.4736 85.4674 38.0436 85.4674 36.3716C85.4674 34.7216 86.4354 33.2916 88.1734 33.2916C89.9114 33.2916 90.9014 34.7216 90.9014 36.3716C90.9014 38.0436 89.9114 39.4736 88.1734 39.4736ZM106.262 41.6956L101.928 35.8876L106.13 31.0696H102.698L98.6722 35.7996V27.0216H95.8782V41.6956H98.6722V38.9676L99.9482 37.6036L102.764 41.6956H106.262ZM19.576 69.6956V64.4816H23.316C26.484 64.4816 28.244 62.3036 28.244 59.7516C28.244 57.1776 26.506 55.0216 23.316 55.0216H16.452V69.6956H19.576ZM22.898 61.7316H19.576V57.7716H22.898C24.13 57.7716 25.054 58.5196 25.054 59.7516C25.054 60.9616 24.13 61.7316 22.898 61.7316ZM35.9665 69.6956C40.5645 69.6956 43.7545 66.7916 43.7545 62.3696C43.7545 57.9476 40.5645 55.0216 35.9665 55.0216H30.1805V69.6956H35.9665ZM35.9665 66.9456H33.3045V57.7716H35.9665C38.9805 57.7716 40.5645 59.7736 40.5645 62.3696C40.5645 64.8556 38.8705 66.9456 35.9665 66.9456ZM49.0955 69.6956V63.6236H56.2015V60.8736H49.0955V57.7716H56.3555V55.0216H45.9715V69.6956H49.0955ZM61.8179 57.0456C61.8179 55.6156 60.8719 54.8016 59.8379 54.8016C58.9139 54.8016 58.1219 55.5936 58.1219 56.5616C58.1219 57.4856 58.7819 58.1456 59.6179 58.1456C59.7719 58.1456 59.9699 58.1016 60.0359 58.0576C59.8599 58.8496 59.0459 59.7736 58.3419 60.1476L59.5519 61.1376C60.8939 60.1696 61.8179 58.6956 61.8179 57.0456ZM67.2433 69.9596C70.1913 69.9596 71.8413 68.4856 71.8413 66.5496C71.8413 62.2596 65.5493 63.5796 65.5493 61.9956C65.5493 61.4016 66.2093 60.9396 67.2213 60.9396C68.5193 60.9396 69.7293 61.4896 70.3673 62.1716L71.4893 60.2576C70.4333 59.4216 69.0033 58.8056 67.1993 58.8056C64.4053 58.8056 62.8433 60.3676 62.8433 62.1496C62.8433 66.3296 69.1573 64.8996 69.1573 66.6596C69.1573 67.3196 68.5853 67.8036 67.3753 67.8036C66.0553 67.8036 64.4713 67.0776 63.7013 66.3516L62.4913 68.3096C63.6133 69.3436 65.3953 69.9596 67.2433 69.9596Z" fill="white"/>
</g>
<defs>
<clipPath id="clip0">
<rect y="0.695618" width="179.348" height="256.52" rx="8" fill="white"/>
</clipPath>
<clipPath id="clip1">
<rect width="123.701" height="84.057" fill="white" transform="translate(53.2307 100.05)"/>
</clipPath>
</defs>
</svg>
