<svg width="124" height="124" viewBox="0 0 124 124" fill="none" xmlns="http://www.w3.org/2000/svg">
<path d="M62.2422 0C28.1882 0 0 27.7038 0 61.7578C0 95.8118 28.1882 124 62.2422 124C96.2962 124 124 95.8118 124 61.7578C124 27.7038 96.2962 0 62.2422 0ZM92.8111 82.0507C95.6447 84.8843 95.6447 89.4931 92.8111 92.3291C89.9993 95.1385 85.3905 95.1845 82.5327 92.3291L62.2422 72.0314L41.4649 92.3316C38.6313 95.1652 34.0225 95.1652 31.1865 92.3316C28.3529 89.498 28.3529 84.8891 31.1865 82.0531L51.4818 61.7578L31.1865 41.4625C28.3529 38.6265 28.3529 34.0177 31.1865 31.1841C34.0225 28.3505 38.6313 28.3505 41.4649 31.1841L62.2422 51.4842L82.5327 31.1841C85.3614 28.3553 89.9702 28.3456 92.8111 31.1841C95.6447 34.0177 95.6447 38.6265 92.8111 41.4625L72.5158 61.7578L92.8111 82.0507Z" fill="#FF4545"/>
</svg>
