<svg width="179" height="256" viewBox="0 0 179 256" fill="none" xmlns="http://www.w3.org/2000/svg">
<g clip-path="url(#clip0)">
<rect width="179" height="256" rx="8" fill="#FE6250"/>
<path fill-rule="evenodd" clip-rule="evenodd" d="M148.9 231.888C169.929 231.888 188.383 216.303 178.019 195.135C167.656 173.967 206.163 174.65 217.475 160.02C231.27 142.178 227.275 66.4414 138.717 112.614C124.531 120.011 88.0984 105.005 76.0135 112.451C61.7885 121.215 41.7746 139.16 61.7885 157.543C71.6469 166.598 36.3021 190.101 51.7824 211.154C66.8873 231.696 77.4756 212.113 100.473 216.303C123.47 220.493 133.283 231.888 148.9 231.888Z" fill="white" fill-opacity="0.48"/>
<path d="M124.493 195.061C124.493 195.061 129.335 192.792 131.142 191.213C132.95 189.635 135.197 185.712 135.197 185.712C135.197 185.712 159.882 203.474 175.978 200.941C179.686 200.357 186.912 197.901 187.373 193.574C188.631 181.757 171.222 178.738 175.025 172.745C177.346 169.088 184.557 174.531 184.557 174.531L214.467 189.189C214.467 189.189 204.134 214.567 179.058 215.584C148.212 216.835 124.493 195.061 124.493 195.061Z" fill="white"/>
<path fill-rule="evenodd" clip-rule="evenodd" d="M100.779 95.677C100.498 95.5672 98.9907 93.728 97.0768 93.3932C96.207 93.2411 96.9964 94.3445 96.0392 94.3544C93.1884 94.384 88.5556 93.8504 87.6974 94.3544C87.0595 94.7279 88.4643 96.0324 87.6974 96.0923C80.4618 96.6574 69.4234 103.855 67.0285 107.347C66.2663 108.459 72.4305 106.573 71.4484 107.123C70.3461 107.739 69.1235 111.777 68.3925 114.896C67.8865 117.043 67.5679 119.807 67.4554 122.813C67.3617 125.409 67.3992 125.839 67.774 127.258C68.2051 128.845 68.5425 129.312 69.1235 129.088C69.3297 129.013 69.4234 128.733 69.4234 128.21C69.4234 127.799 69.6483 126.567 69.9294 125.465L70.4167 123.486L70.6229 124.307C70.8853 125.26 72.4222 128.21 73.8091 130.358C73.8839 130.472 74.2058 130.327 74.496 129.628C74.7604 128.991 74.6531 127.973 75.1024 126.883C76.1257 124.399 78.1351 121.17 80.4618 118.584C83.9004 114.764 85.0413 110.342 88.2646 106.793C94.2801 100.169 101.83 96.088 100.779 95.677Z" fill="white"/>
<path fill-rule="evenodd" clip-rule="evenodd" d="M71.5339 108.024C70.569 108.797 69.1366 115.068 69.112 115.173C68.606 117.32 68.1182 124.778 68.6168 126.19C69.1154 127.601 70.5116 122.512 70.5116 122.512C70.5116 122.512 72.622 127.972 74.4867 129.469C74.5663 129.533 72.2702 122.714 71.5339 118.733C70.562 113.478 72.0831 107.584 71.5339 108.024Z" fill="#E5E5EA"/>
<path fill-rule="evenodd" clip-rule="evenodd" d="M107.501 217.849C109.3 217.457 112.336 216.091 113.498 215.624C114.661 215.157 118.203 210.174 119.477 204.553C120.395 200.408 120.864 194.507 120.339 193.517C120.262 193.377 119.978 190.693 120.733 191.569C122.41 193.517 124.402 196.575 130.685 191.096C132.396 189.603 134.664 187.678 134.067 185.975C132.396 181.211 125.153 171.619 124.048 170.892C122.728 170.024 116.055 170.762 106.123 167.841C94.8601 164.529 90.1701 154.776 85.7626 156.046C82.1981 157.072 73.658 163.382 71.5147 167.378C61.3962 186.241 73.658 199.459 76.4505 203.256L79.1618 204.423L79.2555 206.831L79.3867 208.344C79.6304 211.238 79.7241 211.5 81.0361 212.471C84.316 214.955 90.7822 217.27 96.6299 218.092C99.3475 218.465 105.251 218.335 107.501 217.849Z" fill="white"/>
<path fill-rule="evenodd" clip-rule="evenodd" d="M80.2284 205.95L80.3596 207.462C80.6032 210.357 80.6969 210.618 82.0089 211.589C83.9439 213.054 86.9877 214.461 90.3592 215.537C92.7028 216.285 95.2048 216.873 97.6027 217.21C100.32 217.584 106.224 217.453 108.473 216.967C109.585 216.727 100.441 209.57 95.0537 211.589C90.9167 213.14 81.166 201.309 85.1305 198.218C89.5778 194.751 81.4284 181.075 81.166 178.106C80.9036 175.137 79.8702 174.428 79.8401 174.532C79.8099 174.636 79.8099 174.992 79.891 175.847C80.2407 179.537 80.2284 205.95 80.2284 205.95Z" fill="#E5E5EA"/>
<path fill-rule="evenodd" clip-rule="evenodd" d="M148.573 163.373C148.086 163.205 147.561 162.831 147.224 162.402L146.661 161.711L148.648 159.75C151.703 156.762 154.046 153.7 156.07 150.059C156.745 148.845 158.451 144.793 158.451 144.4C158.451 144.27 158.657 143.747 158.9 143.205C159.275 142.421 159.556 142.122 160.362 141.674C161.318 141.114 162.405 140.927 162.874 141.244C163.773 141.842 163.773 143.728 162.874 146.977C161.88 150.544 160.55 153.102 157.795 156.781C157.363 157.341 156.558 158.443 155.976 159.209C154.421 161.263 153.409 162.253 152.041 163.018C150.691 163.765 149.904 163.859 148.573 163.373ZM162.031 161.692L163.38 162.29C163.66 162.419 166.747 163.896 170.455 165.672C176.433 168.534 184.026 172.168 184.072 172.168C184.147 172.168 184.499 171.358 184.578 170.413C184.766 168.378 185.459 165.614 186.265 163.69C186.64 162.831 186.94 161.758 186.94 161.664C186.94 161.622 186.635 161.499 186.136 161.299C185.542 161.06 184.673 160.711 183.716 160.254C178.993 157.995 169.753 153.382 168.61 152.692C167.485 152.038 167.26 151.982 167.26 152.411C167.26 152.972 166.117 155.567 165.236 156.968C164.767 157.733 163.849 159.115 163.193 160.03L162.031 161.692ZM183.753 168.807C184.291 169.117 183.36 169.573 183.135 169.647C181.81 169.759 180.251 169.511 178.974 168.77C178.306 168.298 173.047 165.387 169.558 163.456C167.963 162.573 166.738 161.895 166.491 161.748C165.704 161.281 164.954 160.777 164.823 160.628C164.43 160.124 164.804 159.9 165.91 159.993C166.575 160.049 182.592 168.137 183.753 168.807ZM107.565 217.695C109.011 217.38 111.255 216.436 112.684 215.836L112.685 215.835C113.034 215.688 113.334 215.562 113.563 215.47C114.725 215.004 118.267 210.02 119.541 204.399C120.46 200.254 120.928 194.353 120.404 193.363C120.087 192.79 121.967 194.713 123.367 196.145L123.367 196.145C123.791 196.579 124.172 196.968 124.433 197.229C132.605 205.314 144.769 211.813 157.401 214.857C163.699 216.388 168.178 216.93 174.195 216.93C184.297 216.93 192.263 214.95 199.497 210.599C199.841 210.392 200.163 210.203 200.47 210.021C202.992 208.534 204.494 207.648 208.606 203.036C213.218 197.864 217.321 185.856 218.69 181.711C219.289 179.843 220.751 172.416 220.751 170.562C220.751 168.368 219.983 167.332 218.933 166.267C217.078 164.456 214.566 163.802 212.486 164.587L211.511 164.96L211.211 163.971C210.78 162.477 209.881 161.281 208.494 160.385C206.432 159.022 206.132 158.929 204.277 158.929C202.833 158.929 202.44 159.003 201.521 159.433L200.453 159.918L200.228 159.246C199.797 157.864 198.351 155.938 197.229 155.381C196.234 154.886 194.512 154.841 193.312 155.063C190.688 155.549 188.814 156.762 188.045 158.462C187.821 158.985 187.539 159.395 187.427 159.395C187.333 159.395 183.641 158.368 179.236 156.426C178.494 156.097 177.796 155.789 177.14 155.5C169.231 152.007 167.517 151.25 167.672 150.301C167.804 149.498 167.766 149.05 167.541 148.359C167.148 147.201 166.698 146.884 165.423 146.884C164.411 146.884 164.411 146.884 164.524 146.38C165.123 143.523 165.105 141.879 164.467 140.834C164.036 140.143 163.53 139.863 162.368 139.695C161.693 139.601 161.375 139.657 160.625 140.068C160.119 140.329 159.688 140.516 159.651 140.479C159.613 140.441 159.744 139.414 159.95 138.201C161.487 129.218 160.3 121.479 156.383 113.263C156.345 113.185 156.302 113.093 156.253 112.987L156.252 112.986L156.252 112.985C155.061 110.438 150.273 100.195 136.578 95.0266C135.959 94.7927 135.372 94.5665 134.808 94.3491C130.144 92.5501 127.042 91.3541 119.56 91.3666C111.174 91.3805 108.333 92.5617 102.804 95.0826C102.036 95.4375 101.361 95.6429 101.305 95.5682C101.249 95.4748 100.893 95.2507 100.537 95.064C100.18 94.8772 99.412 94.4104 98.8497 94.0369C97.2379 92.9538 96.2445 92.5057 95.7384 92.6177C95.1574 92.7671 95.1574 93.2526 95.7384 93.4767C95.9821 93.5701 96.2632 93.8875 96.3757 94.205C96.6193 94.8772 96.9005 94.9519 97.0692 94.3917C97.1441 94.1863 97.2566 94.0369 97.3128 94.0743C97.3341 94.0849 97.4055 94.1182 97.5144 94.169L97.5145 94.169C97.7885 94.2968 98.2999 94.5353 98.8497 94.8025C99.6182 95.176 100.462 95.5682 100.686 95.6615C101.099 95.8109 100.968 95.923 99.1871 96.9687C92.2336 101.04 86.5733 107.37 83.4059 114.578C82.9186 115.661 82.4875 116.334 82.0377 116.707C80.8944 117.659 78.6452 120.367 78.1205 121.431C77.8393 122.01 77.2396 122.907 76.771 123.43C76.3212 123.952 75.8339 124.625 75.6652 124.905C75.5152 125.204 75.3653 125.409 75.3091 125.372C75.2716 125.316 75.3278 124.401 75.459 123.336C75.7402 120.853 75.7402 120.199 75.5152 120.143C75.1779 120.05 74.6906 121.357 74.4844 122.981C74.3345 123.971 74.297 125.465 74.3907 126.996L74.5031 129.424L73.1724 127.276C72.7143 126.557 72.2632 125.839 71.9431 125.328L71.9426 125.328L71.9422 125.327L71.9415 125.326L71.941 125.325C71.7383 125.002 71.5885 124.763 71.5231 124.662C71.0358 123.952 70.7546 122.888 70.9608 122.533C71.0733 122.328 71.0545 122.234 70.8671 122.234C70.4735 122.234 69.7051 123.486 69.199 124.923C68.9554 125.596 68.7117 126.156 68.6367 126.156C68.3556 126.156 68.4868 119.471 68.7867 117.323C69.4052 113.084 71.0358 107.856 71.7667 107.856C71.9167 107.856 72.0479 107.781 72.0479 107.669C72.0479 107.333 71.5606 107.463 71.167 107.893C70.2861 108.845 69.124 111.777 68.3931 114.896C67.887 117.043 67.5684 119.807 67.456 122.813C67.3622 125.409 67.3997 125.839 67.7746 127.258C68.2057 128.845 68.543 129.312 69.124 129.088C69.3302 129.013 69.4239 128.733 69.4239 128.21C69.4239 127.799 69.6488 126.567 69.93 125.465L70.4173 123.486L70.6234 124.307C70.8858 125.26 72.4227 128.21 73.8097 130.358C74.7655 131.814 74.7843 131.908 75.1029 134.186C75.2716 135.474 75.7964 138.608 77.0146 143.429C78.0911 147.689 84.1424 151.915 85.6533 152.97L85.6535 152.97L85.6542 152.97L85.6546 152.971L85.6549 152.971L85.6554 152.971L85.6555 152.971C85.8533 153.109 85.9728 153.193 85.9923 153.214C86.1798 153.42 86.4421 153.532 86.5921 153.476C86.7608 153.42 86.8545 153.494 86.8545 153.7C86.8545 153.887 86.9857 154.129 87.1356 154.241C87.323 154.372 87.4542 154.876 87.4917 155.754C87.5854 157.509 88.8974 160.871 89.9095 161.972C90.5655 162.682 91.9337 162.981 93.4519 162.719C94.4452 162.57 94.7264 162.458 94.6326 162.234C94.5764 162.084 94.9325 162.271 95.4198 162.645C101.118 166.977 106.89 169.573 113.375 170.693C115.887 171.123 120.048 171.365 122.315 171.197C124.321 171.067 124.321 171.067 124.227 171.459C124.096 171.982 124.265 172.299 127.02 176.949C129.213 180.628 129.4 180.87 131.837 183.354C137.01 188.676 142.651 192.803 149.042 195.996C155.059 198.984 164.664 201.468 173.445 202.252C182.226 203.036 188.533 195.006 188.514 192.952C188.477 190.133 188.083 188.284 187.127 186.491C186.19 184.755 185.571 184.157 182.76 182.29C179.63 180.217 177.7 178.517 176.425 176.706C175.619 175.567 175.319 174.279 175.319 173.588C175.319 173.139 175.9 172.131 176.762 171.926C177.55 171.72 177.7 171.739 178.58 172.168C179.105 172.411 180.473 173.046 181.598 173.588C182.741 174.11 183.847 174.633 184.072 174.745C184.735 174.929 185.015 176.222 185.167 176.923C185.201 177.08 185.229 177.207 185.253 177.285C185.515 178.256 186.757 179.51 187.558 179.937C188.965 180.686 192.432 180.787 193.387 179.759C193.631 179.498 194.439 179.177 194.605 179.274C194.772 179.371 195.374 180.179 195.374 180.833C195.393 181.953 195.974 182.981 197.211 184.008C199.553 185.95 201.371 186.417 203.208 185.558C204.164 185.109 204.947 184.934 204.947 184.934C204.947 184.934 205.729 185.928 205.776 186.267C206.144 188.92 210.087 190.033 211.136 190.145C211.377 190.169 211.845 190.066 212.32 189.962L212.32 189.962C212.956 189.823 213.605 189.681 213.741 189.834C214.009 190.135 209.262 197.957 208.606 198.947C202.365 208.284 190.22 213.998 175.357 214.595C165.704 214.988 153.84 212.298 143.551 207.406C136.972 204.25 131.143 200.385 124.902 194.969C123.815 194.035 122.559 192.971 122.109 192.598C121.659 192.243 120.591 191.029 119.766 189.909C118.379 188.041 117.592 187.369 117.592 188.004C117.592 188.284 118.492 190.002 119.523 191.701C119.935 192.373 120.197 192.84 120.104 192.766C120.01 192.691 119.71 194.035 119.429 195.753C118.511 201.262 116.992 206.696 115.456 210.076C114.612 211.906 112.995 213.273 112.508 213.646C110.708 215.01 108.015 215.622 104.285 215.996C99.5619 216.463 92.6084 215.417 87.3043 213.438C85.8986 212.915 82.2813 211.402 82.0377 211.234C82.023 211.22 81.94 210.682 81.8241 209.932L81.7755 209.618L81.719 209.255C81.0443 204.642 80.1072 186.883 80.1072 178.667C80.1072 175.268 80.0697 174.521 79.8448 174.521C79.3762 174.521 79.1888 174.969 78.9826 176.575C78.5141 180.235 78.6078 199.339 79.1138 203.354L79.2263 204.269L78.589 203.914C77.6144 203.354 73.9034 199.6 72.6102 197.864C71.5153 196.379 70.8646 194.477 70.3778 193.055L70.3778 193.055C70.2645 192.724 70.1602 192.419 70.0612 192.151C67.3435 184.644 68.2994 176.221 72.0479 168.639C75.2341 162.178 79.1513 158.592 84.8865 156.856C85.8236 156.576 86.6483 156.277 86.742 156.202C87.0981 155.866 84.8115 156.034 83.5558 156.426C79.4699 157.677 75.1966 161.095 72.2915 165.464C68.2057 171.589 66.3689 180.628 67.6621 188.34C67.962 190.17 69.1803 194.129 69.5176 194.409C69.5475 194.439 69.7016 194.761 69.9348 195.248L69.9348 195.248C70.5794 196.596 71.8279 199.205 72.7226 200.385C73.8097 201.86 77.0896 205.072 78.4578 206.061L79.32 206.678L79.4512 208.19C79.6948 211.085 79.7885 211.346 81.1005 212.317C84.3805 214.801 90.8466 217.116 96.6943 217.938C99.412 218.311 105.316 218.181 107.565 217.695ZM170.915 200.16C160.025 199.208 146.868 194.035 137.347 186.043C133.336 182.663 128.125 176.09 126.064 172.448C125.633 171.701 125.314 171.347 124.939 171.253C124.546 171.141 124.883 171.029 126.495 170.768C133.298 169.61 139.914 166.79 145.256 162.775L146.043 162.196L146.268 162.738C146.774 163.952 148.723 165.184 150.167 165.184C150.748 165.184 152.697 164.307 153.878 163.504L154.684 162.962L155.34 163.616C155.939 164.213 156.052 164.251 157.176 164.251C158.47 164.251 160.025 163.672 160.887 162.85L161.356 162.421L162.687 163.298C163.399 163.802 165.386 164.904 167.091 165.782C169.64 167.089 172.339 168.602 174.907 170.17L175.319 170.432L174.926 170.954C174.513 171.515 173.745 172.579 173.745 174.204C173.745 176.034 175.655 179.322 179.311 181.58C182.184 183.354 187.127 186.843 186.939 191.944C186.917 192.56 186.227 194.091 185.309 195.473C184.709 196.351 183.041 197.658 181.523 198.424C178.936 199.712 174.382 200.459 170.915 200.16ZM70.979 116.333C71.4851 116.446 71.8224 116.614 71.7475 116.688C71.5038 116.931 70.2106 116.819 69.9107 116.52C69.4421 116.072 69.5546 115.755 70.2106 115.624C70.5479 115.568 71.054 115.288 71.3351 115.008C71.6163 114.728 71.8599 114.597 71.8599 114.69C71.8599 114.933 70.9228 115.792 70.4542 115.979C70.1544 116.109 70.2481 116.165 70.979 116.333ZM78.4386 116.632C78.9821 116.333 78.8697 116.128 78.2324 116.221C77.5952 116.315 77.5577 116.24 77.97 115.605C78.1387 115.362 78.2324 115.008 78.1949 114.821C78.1387 114.578 78.0075 114.69 77.7076 115.288C77.4827 115.717 77.1641 116.072 77.0142 116.072C76.5456 116.072 76.5081 116.446 76.9579 116.614C77.5389 116.856 77.9888 116.856 78.4386 116.632ZM71.9541 106.436C71.5043 106.511 70.0986 107.071 68.8616 107.688C67.6058 108.285 66.5375 108.789 66.4625 108.771C64.5508 108.565 67.2122 105.391 72.0478 102.141C76.6772 99.0228 79.8072 97.3795 82.7123 96.5392C84.5304 96.0164 86.5733 95.9417 87.1543 96.3712C87.4729 96.6139 87.3605 96.6326 85.9735 96.6513C82.9747 96.6513 79.5074 98.1825 73.8658 101.936C70.942 103.878 67.5496 106.66 67.5496 107.109C67.5496 107.202 68.0931 107.015 68.7679 106.716C70.2111 106.063 71.6917 105.727 72.3477 105.876C73.0412 106.063 72.8912 106.306 71.9541 106.436ZM79.2071 108.042C80.9689 107.688 81.0438 107.669 81.0438 107.482C81.0438 107.389 80.3691 107.295 79.5257 107.258L78.0076 107.202L79.4132 105.615C80.1817 104.737 81.0813 103.859 81.4 103.654C82.0934 103.206 82.1309 102.888 81.5686 102.702L81.1376 102.571L81.6061 102.403C81.8685 102.309 82.3558 102.272 82.6932 102.328C83.1992 102.403 83.3117 102.365 83.2555 102.104C83.1992 101.843 82.9931 101.787 82.0747 101.805C79.3945 101.843 78.2512 102.552 80.3504 102.888C80.9314 102.982 81.4187 103.131 81.4187 103.224C81.4187 103.299 81.325 103.374 81.2125 103.374C80.8564 103.374 77.8389 106.418 77.464 107.165C76.883 108.266 77.2016 108.434 79.2071 108.042ZM91.577 100.797C91.0335 100.834 90.9023 100.928 90.9398 101.189L90.9455 101.227C90.9666 101.365 90.9787 101.444 90.9477 101.469C90.9058 101.501 90.7852 101.433 90.5016 101.273L90.5016 101.273L90.4525 101.245C90.0963 101.058 90.0589 100.965 90.265 100.816C90.3962 100.703 90.7523 100.535 91.0335 100.479L91.5583 100.349L91.1647 99.9378C90.9585 99.6951 90.846 99.471 90.9023 99.3963C91.0522 99.2469 92.889 99.4523 93.1514 99.6577C93.2638 99.7511 93.4325 99.7324 93.545 99.6204C93.8074 99.3589 94.1635 99.5644 94.1635 99.9752C94.1635 100.199 94.1073 100.218 93.9386 100.05C93.7886 99.9005 93.6574 99.9005 93.4887 100.031C93.3388 100.162 93.2264 100.162 93.1326 100.013C93.0764 99.9192 92.7203 99.8258 92.3455 99.8258C91.9994 99.8258 91.8359 99.8258 91.8027 99.8916C91.7729 99.9505 91.8477 100.062 91.9893 100.274C92.2883 100.739 92.2706 100.741 91.5834 100.796L91.577 100.797ZM88.7288 95.8296C88.7288 95.5868 88.5039 95.1573 88.2227 94.8772L87.6979 94.3544L90.5093 94.4664C92.065 94.5411 93.8268 94.7092 94.4453 94.8772C95.0638 95.0266 95.776 95.1387 96.0384 95.1387C96.432 95.1387 96.357 95.064 95.626 94.6718C94.3515 94.0182 92.7209 93.7008 89.5909 93.4767C85.8424 93.2153 83.9494 93.5701 84.3055 94.5038C84.3618 94.6905 84.6617 94.7839 85.1115 94.7839C86.0299 94.7839 87.5293 95.3254 88.0353 95.8296C88.5788 96.3712 88.7288 96.3712 88.7288 95.8296ZM79.5825 145.278C81.1007 147.22 83.1061 149.424 84.0432 150.171C84.6055 150.619 85.0928 150.992 85.1303 150.992C85.1491 150.992 84.7367 150.133 84.2119 149.087C82.094 144.886 80.857 140.703 80.276 135.885C80.1448 134.821 79.9386 133.924 79.7137 133.551C79.2639 132.804 79.2639 131.833 79.7325 130.918C79.9761 130.432 80.1073 129.816 80.1073 129.144V128.117L79.2077 129.05C78.3268 129.965 77.4834 130.339 77.4834 129.779C77.4834 129.368 78.8703 127.388 79.6013 126.772C80.1823 126.287 80.2573 126.119 80.4447 124.662C80.5759 123.784 80.8758 122.234 81.1194 121.207C81.3818 120.18 81.5317 119.303 81.4943 119.265C81.3631 119.135 76.9586 124.175 76.3588 125.782C76.2271 126.135 75.8715 126.753 75.5904 127.127L75.1031 127.75C75.1031 127.75 75.2544 128.623 75.4217 129.72C75.5907 130.829 75.6699 131.591 75.7406 132.269C75.835 133.177 75.914 133.936 76.1714 135.175C76.4713 136.707 76.7711 138.032 76.8461 138.126C76.9023 138.238 77.146 139.097 77.3896 140.049C77.9144 142.159 78.7953 144.251 79.5825 145.278ZM155.639 162.943L155.246 162.551C155.246 162.551 161.778 154.282 162.949 151.235C163.842 148.91 164.368 148.25 165.077 148.25C165.474 148.25 165.798 148.341 165.948 148.565C166.21 148.957 166.463 149.442 166.126 151.104C165.563 153.793 164.701 155.567 162.115 159.395C161.515 160.273 160.747 161.244 160.409 161.58C159.622 162.309 157.851 163.056 156.82 163.224C156.164 163.317 155.977 163.28 155.639 162.943Z" fill="#2C2C2E"/>
<path fill-rule="evenodd" clip-rule="evenodd" d="M99.7865 163.867C104.922 167.098 110.217 169.208 116.252 169.787C121.013 170.235 127.432 169.619 132.042 168.125C135.922 166.873 141.17 163.408 144.675 160.476C151.478 154.799 155.771 145.932 157.645 136.52C157.907 135.194 158.307 131.861 158.289 128.556C158.289 124.709 156.589 114.197 151.441 108.136C140.822 95.6343 123.368 90.0027 108.698 94.8145C103.406 96.5503 97.7722 99.6951 93.5177 103.803C88.1573 109.013 84.2026 116.109 82.6282 123.355C80.9789 131.011 83.1244 140.161 86.8541 147.668C89.8342 153.644 94.7448 160.674 99.7865 163.867ZM149.829 141.301C146.306 151.851 137.122 159.732 125.576 162.122C123.815 162.477 122.596 162.607 120.122 162.645C118.379 162.701 116.636 162.682 116.28 162.645C108.202 161.674 102.054 158.705 96.3942 153.065C93.9202 150.581 92.8706 149.237 91.3337 146.585C88.916 142.384 87.6227 138.089 87.2291 132.916C85.8797 115.194 98.6059 100.423 116.524 98.8922C123.552 98.2946 131.349 100.442 137.272 104.625C139.465 106.175 143.438 110.097 144.675 111.927C145.181 112.655 150.092 119.807 150.954 123.915C152.06 129.256 151.629 135.941 149.829 141.301Z" fill="white"/>
<path fill-rule="evenodd" clip-rule="evenodd" d="M158.295 128.556C158.295 141.09 152.344 154.793 144.665 160.645C141.001 163.438 136.212 166.818 132.042 168.125C125.932 170.039 116.252 169.787 116.252 169.787C116.252 169.787 126.127 168.471 129.787 167.004C140.28 162.796 146.008 156.338 149.546 150.14C156.528 137.907 158.295 128.252 158.295 128.556Z" fill="#E5E5EA"/>
<path fill-rule="evenodd" clip-rule="evenodd" d="M116.467 160.404C111.463 159.769 106.496 157.995 102.485 155.362C100.105 153.812 96.5065 150.171 94.7635 147.575C92.2707 143.84 90.6214 139.844 89.8154 135.549C89.2344 132.43 89.2531 127.631 89.8342 124.849C90.4339 122.01 91.2024 119.844 92.5706 117.099C94.1637 113.925 95.8505 111.59 98.3808 109.069C102.692 104.774 107.696 102.048 113.656 100.741C115.586 100.33 122.577 99.9939 122.821 100.311C122.877 100.405 123.252 100.647 123.646 100.853C124.039 101.077 125.089 101.861 125.951 102.627C127.244 103.747 127.825 104.457 128.95 106.212C129.718 107.407 130.337 108.491 130.337 108.584C130.337 108.789 130.937 109.163 131.274 109.163C131.742 109.163 132.061 107.762 132.155 105.297C132.211 103.934 132.324 102.814 132.398 102.814C132.661 102.814 135.547 104.401 136.897 105.297C139.539 107.053 142.182 109.518 144.131 112.095C145.012 113.252 145.143 113.551 145.143 114.261C145.143 114.914 145.331 115.419 145.912 116.427C147.374 118.967 148.517 122.16 149.211 125.689C149.66 128.061 149.66 132.542 149.192 135.026C147.917 141.861 144.131 148.658 139.202 152.972C135.022 156.613 130.58 158.854 125.333 159.956C123.533 160.348 118.135 160.609 116.467 160.404ZM103.067 147.631C103.235 147.444 103.348 147.164 103.292 147.033C103.275 146.994 103.04 146.884 102.697 146.723C101.896 146.348 100.504 145.696 99.9003 145.017C97.5013 142.29 96.6204 140.255 96.0769 136.053C95.5521 131.964 95.993 129.199 96.939 124.755C97.4005 122.588 98.6272 120.797 99.3904 119.684C99.9093 118.926 100.214 118.482 99.918 118.444C99.1871 118.332 99.0746 118.388 98.3062 119.116C96.6568 120.685 95.9071 121.936 95.1199 124.345C93.9017 128.117 93.6663 138.311 96.0769 142.906C98.4875 147.502 102.636 148.116 103.067 147.631ZM129.718 131.945C129.4 134.846 128.05 139.041 126.476 140.871C125.745 141.73 123.062 143.205 120.797 142.906C118.609 142.618 116.898 141.599 115.437 139.414C114.181 137.528 113.532 135.239 113.094 132.356C112.337 127.377 115.643 121.581 117.067 120.143C118.51 118.668 119.541 118.145 120.853 118.126C122.128 118.126 122.952 118.406 124.246 119.321C126.607 120.965 130.337 126.308 129.718 131.945ZM104.453 116.502C104.828 116.072 104.885 115.867 104.772 115.064C104.697 114.317 104.547 114.018 104.154 113.701C103.46 113.14 102.598 113.14 101.961 113.738C101.511 114.167 101.455 114.317 101.511 115.344C101.567 116.446 101.605 116.52 102.223 116.856C103.048 117.305 103.854 117.174 104.453 116.502ZM116.149 104.98C112.775 107.389 111.313 108.379 109.795 109.312C108.596 110.059 108.221 110.078 108.221 109.406C108.221 109.051 108.483 108.659 109.158 108.042L110.095 107.183L108.277 106.941C106.234 106.679 104.247 106.119 103.816 105.689C103.104 104.961 103.723 104.793 105.747 105.167C106.646 105.316 108.389 105.503 109.626 105.54L111.876 105.633L113.506 104.457C117.086 101.88 120.797 100.423 122.578 100.872C123.683 101.133 123.552 101.432 122.296 101.581C120.853 101.749 119.972 102.235 116.149 104.98Z" fill="white"/>
<path d="M120.965 140.348C120.965 140.255 121.078 140.161 121.228 140.161C121.378 140.161 121.565 140.255 121.621 140.348C121.678 140.46 121.565 140.535 121.359 140.535C121.134 140.535 120.965 140.46 120.965 140.348Z" fill="white"/>
<path d="M122.09 140.18C122.09 139.975 122.559 139.788 123.083 139.788C123.496 139.807 123.496 139.807 123.14 140.068C122.727 140.385 122.09 140.441 122.09 140.18Z" fill="white"/>
<path d="M119.185 139.695C119.129 139.545 119.054 139.284 118.998 139.134C118.942 138.948 119.035 138.854 119.279 138.854C119.485 138.854 119.654 138.966 119.654 139.116C119.654 139.265 119.71 139.508 119.766 139.676C119.841 139.881 119.785 139.975 119.579 139.975C119.41 139.975 119.223 139.844 119.185 139.695Z" fill="white"/>
<path d="M120.178 139.228C120.085 138.667 120.291 138.481 120.966 138.481C121.172 138.481 121.34 138.667 121.415 138.985C121.565 139.526 121.322 139.788 120.666 139.788C120.366 139.788 120.235 139.657 120.178 139.228Z" fill="white"/>
<path d="M118.267 139.321C117.911 139.041 117.911 139.041 118.304 139.041C118.548 139.041 118.717 139.153 118.717 139.321C118.717 139.657 118.717 139.657 118.267 139.321Z" fill="white"/>
<path d="M122.034 139.302C121.79 139.06 121.903 138.331 122.203 138.219C122.746 138.014 122.99 138.107 123.102 138.593C123.177 138.873 123.215 139.116 123.177 139.134C123.027 139.302 122.146 139.414 122.034 139.302Z" fill="white"/>
<path d="M123.702 138.91C123.646 138.854 123.59 138.611 123.59 138.387C123.59 138.07 123.74 137.939 124.19 137.846C124.583 137.771 124.827 137.808 124.939 137.958C125.127 138.257 125.127 138.63 124.958 138.723C124.621 138.91 123.833 139.022 123.702 138.91Z" fill="white"/>
<path d="M117.405 138.331C117.405 138.107 117.573 137.92 117.817 137.864C118.304 137.734 118.286 137.715 118.379 138.201C118.417 138.481 118.323 138.593 117.93 138.63C117.517 138.686 117.405 138.611 117.405 138.331Z" fill="white"/>
<path d="M118.829 138.35C118.566 138.07 118.735 137.547 119.091 137.547C119.335 137.547 119.466 137.678 119.466 137.902C119.466 138.257 119.035 138.555 118.829 138.35Z" fill="white"/>
<path d="M119.954 137.79C119.804 137.435 120.122 137.173 120.741 137.173C121.022 137.173 121.153 137.286 121.153 137.528C121.153 137.734 120.984 137.92 120.741 137.995C120.122 138.145 120.085 138.145 119.954 137.79Z" fill="white"/>
<path d="M125.371 137.734C125.427 137.64 125.521 137.547 125.577 137.547C125.633 137.547 125.614 137.64 125.558 137.734C125.502 137.846 125.408 137.92 125.352 137.92C125.296 137.92 125.314 137.846 125.371 137.734Z" fill="white"/>
<path d="M121.641 137.416C121.491 137.043 121.678 136.856 122.278 136.763C122.615 136.725 122.765 136.8 122.803 137.061C122.934 137.678 121.866 138.014 121.641 137.416Z" fill="white"/>
<path d="M117.142 137.099C116.973 136.483 117.011 136.427 117.498 136.427C117.761 136.427 117.967 136.501 117.967 136.595C117.967 136.688 118.023 136.893 118.079 137.043C118.135 137.23 118.023 137.342 117.704 137.398C117.348 137.472 117.217 137.398 117.142 137.099Z" fill="white"/>
<path d="M123.402 136.893C123.402 136.557 123.533 136.408 123.89 136.315C124.414 136.184 124.714 136.445 124.714 137.043C124.714 137.286 124.564 137.36 124.058 137.36C123.477 137.36 123.402 137.304 123.402 136.893Z" fill="white"/>
<path d="M116.58 136.893C116.524 136.744 116.561 136.613 116.655 136.613C116.767 136.613 116.842 136.744 116.842 136.893C116.842 137.043 116.805 137.174 116.767 137.174C116.73 137.174 116.655 137.043 116.58 136.893Z" fill="white"/>
<path d="M118.473 137.043C118.211 136.8 118.361 136.277 118.698 136.184C118.904 136.128 119.11 136.147 119.167 136.203C119.392 136.408 119.26 136.949 118.979 137.062C118.623 137.192 118.623 137.192 118.473 137.043Z" fill="white"/>
<path d="M125.164 136.912C124.958 136.371 125.183 135.96 125.708 135.904C126.101 135.848 126.214 135.922 126.214 136.221C126.214 136.837 126.008 137.174 125.633 137.174C125.427 137.174 125.22 137.061 125.164 136.912Z" fill="white"/>
<path d="M119.785 136.669C119.56 136.464 119.635 136.09 119.953 135.978C120.31 135.848 121.059 136.221 120.853 136.427C120.591 136.651 119.916 136.819 119.785 136.669Z" fill="white"/>
<path d="M121.416 136.203C121.247 135.941 121.847 135.493 122.334 135.493C122.559 135.493 122.653 135.605 122.615 135.81C122.54 136.184 121.584 136.483 121.416 136.203Z" fill="white"/>
<path d="M116.28 136.072C116.28 135.978 116.224 135.773 116.167 135.605C116.111 135.437 116.13 135.306 116.242 135.306C116.486 135.306 116.673 136.016 116.448 136.165C116.355 136.221 116.28 136.184 116.28 136.072Z" fill="white"/>
<path d="M116.786 135.642C116.674 135.231 116.899 134.933 117.33 134.933C117.573 134.933 117.817 135.661 117.667 135.904C117.461 136.221 116.88 136.034 116.786 135.642Z" fill="white"/>
<path d="M118.098 135.736C117.817 135.456 117.986 134.783 118.361 134.69C118.642 134.615 118.792 134.709 118.942 135.045C119.054 135.288 119.11 135.53 119.073 135.568C118.885 135.736 118.211 135.866 118.098 135.736Z" fill="white"/>
<path d="M123.158 135.736C122.914 135.493 123.027 135.344 123.589 135.138C124.058 134.989 124.189 135.007 124.283 135.231C124.451 135.68 123.514 136.109 123.158 135.736Z" fill="white"/>
<path d="M124.807 135.306C124.62 135.007 124.882 134.746 125.37 134.746C125.951 134.746 126.119 135.231 125.595 135.381C125.032 135.53 124.939 135.512 124.807 135.306Z" fill="white"/>
<path d="M126.401 134.858C126.401 134.578 126.738 134.279 126.888 134.428C127.019 134.559 126.757 135.119 126.57 135.119C126.476 135.119 126.401 135.007 126.401 134.858Z" fill="white"/>
<path d="M116.036 134.615C115.961 134.559 115.905 134.316 115.924 134.111C115.924 133.756 115.943 133.756 116.111 134.167C116.299 134.615 116.261 134.839 116.036 134.615Z" fill="white"/>
<path d="M116.393 134.335C116.224 133.682 116.243 133.625 116.73 133.625C117.273 133.625 117.611 134.316 117.199 134.578C116.767 134.839 116.524 134.765 116.393 134.335Z" fill="white"/>
<path d="M122.839 134.709C122.839 134.653 122.933 134.354 123.046 134.018C123.308 133.271 123.889 133.233 124.02 133.962C124.076 134.242 124.095 134.485 124.076 134.503C123.983 134.615 122.839 134.783 122.839 134.709Z" fill="white"/>
<path d="M117.723 134.242C117.649 134.186 117.592 133.962 117.592 133.756C117.592 133.457 117.649 133.439 117.873 133.625C118.023 133.756 118.155 133.98 118.155 134.111C118.155 134.391 117.93 134.466 117.723 134.242Z" fill="white"/>
<path d="M124.471 133.868C124.359 133.289 124.602 133.028 125.183 133.103C125.464 133.14 125.558 133.308 125.558 133.719C125.558 134.186 125.483 134.298 125.071 134.335C124.658 134.391 124.565 134.298 124.471 133.868Z" fill="white"/>
<path d="M126.308 133.943C126.064 133.196 126.139 132.972 126.645 132.916C127.095 132.86 127.151 132.916 127.151 133.401C127.151 133.812 127.039 133.98 126.757 134.055C126.551 134.111 126.345 134.055 126.308 133.943Z" fill="white"/>
<path d="M115.755 132.879C115.755 132.524 115.792 132.374 115.849 132.561C115.886 132.729 115.886 133.028 115.849 133.215C115.792 133.383 115.755 133.233 115.755 132.879Z" fill="white"/>
<path d="M116.223 133.121C115.98 132.897 116.092 132.169 116.392 132.057C116.823 131.889 117.029 132.094 117.029 132.71C117.029 133.103 116.936 133.252 116.692 133.252C116.505 133.252 116.28 133.196 116.223 133.121Z" fill="white"/>
<path d="M117.348 132.617C117.273 132.337 117.236 132.038 117.311 131.982C117.498 131.795 117.611 132.094 117.554 132.636L117.498 133.159L117.348 132.617Z" fill="white"/>
<path d="M123.402 132.486C123.402 132.281 123.496 132.169 123.59 132.225C123.702 132.281 123.777 132.468 123.777 132.617C123.777 132.766 123.702 132.879 123.59 132.879C123.496 132.879 123.402 132.71 123.402 132.486Z" fill="white"/>
<path d="M124.246 132.729C123.983 132.449 124.189 131.945 124.62 131.833C125.164 131.702 125.183 131.702 125.351 132.244C125.464 132.58 125.389 132.654 124.901 132.729C124.602 132.785 124.302 132.767 124.246 132.729Z" fill="white"/>
<path d="M125.97 132.374C125.764 132.188 125.82 131.571 126.026 131.571C126.138 131.571 126.213 131.497 126.213 131.385C126.213 131.291 126.101 131.198 125.951 131.198C125.632 131.198 125.37 130.283 125.632 130.021C125.97 129.685 126.345 130.04 126.569 130.955C126.701 131.441 126.832 132.001 126.888 132.188C126.963 132.43 126.888 132.505 126.532 132.505C126.288 132.505 126.026 132.449 125.97 132.374Z" fill="white"/>
<path d="M126.982 131.385C126.851 130.824 126.513 129.704 126.27 128.882C125.895 127.687 125.857 127.388 126.063 127.258C126.195 127.164 126.363 127.09 126.42 127.09C126.626 127.09 127.375 130.918 127.3 131.665L127.244 132.412L126.982 131.385Z" fill="white"/>
<path d="M115.568 131.291C115.568 130.992 115.605 130.88 115.661 131.067C115.699 131.235 115.699 131.497 115.661 131.627C115.605 131.739 115.568 131.609 115.568 131.291Z" fill="white"/>
<path d="M115.943 131.254C116.018 130.6 116.561 130.451 116.711 131.048C116.843 131.534 116.88 131.478 116.318 131.665C115.924 131.777 115.887 131.739 115.943 131.254Z" fill="white"/>
<path d="M123.852 131.086C123.702 130.544 124.02 130.227 124.62 130.302C125.07 130.358 125.239 131.161 124.864 131.403C124.395 131.702 123.964 131.571 123.852 131.086Z" fill="white"/>
<path d="M117.03 130.936C117.03 130.619 117.123 130.451 117.33 130.451C117.517 130.451 117.592 130.582 117.554 130.862C117.461 131.459 117.03 131.515 117.03 130.936Z" fill="white"/>
<path d="M115.362 130.152C115.362 129.947 115.418 129.891 115.474 130.04C115.531 130.171 115.512 130.339 115.456 130.395C115.399 130.47 115.343 130.358 115.362 130.152Z" fill="white"/>
<path d="M115.718 130.096C115.718 129.816 115.83 129.704 116.111 129.704C116.374 129.704 116.467 129.797 116.43 130.021C116.336 130.507 115.718 130.563 115.718 130.096Z" fill="white"/>
<path d="M116.749 129.928C116.617 129.592 116.617 129.592 117.18 129.443C117.517 129.331 117.592 129.387 117.592 129.667C117.592 130.115 116.917 130.339 116.749 129.928Z" fill="white"/>
<path d="M123.534 129.667C123.403 129.2 123.646 128.957 124.302 128.957C124.621 128.957 124.715 129.069 124.715 129.424C124.715 129.704 124.602 129.891 124.452 129.891C124.302 129.891 124.059 129.947 123.909 130.003C123.74 130.059 123.609 129.947 123.534 129.667Z" fill="white"/>
<path d="M125.164 129.237C125.014 128.864 125.239 128.584 125.67 128.584C125.932 128.584 126.026 128.714 126.026 129.05C126.026 129.387 125.932 129.517 125.651 129.517C125.445 129.517 125.22 129.387 125.164 129.237Z" fill="white"/>
<path d="M115.531 128.976C115.531 128.584 115.962 128.135 116.149 128.341C116.224 128.397 116.28 128.658 116.28 128.901C116.28 129.2 116.168 129.33 115.906 129.33C115.662 129.33 115.531 129.2 115.531 128.976Z" fill="white"/>
<path d="M116.561 128.752C116.411 128.285 116.58 128.079 117.217 127.986C117.798 127.911 117.985 128.527 117.479 128.901C116.992 129.256 116.692 129.2 116.561 128.752Z" fill="white"/>
<path d="M123.346 128.64C123.215 128.528 123.158 127.837 123.271 127.837C123.289 127.837 123.571 127.762 123.908 127.669C124.47 127.5 124.508 127.519 124.489 128.023C124.47 128.397 124.358 128.584 124.077 128.658C123.571 128.789 123.496 128.789 123.346 128.64Z" fill="white"/>
<path d="M122.653 128.211C122.653 128.079 122.709 128.023 122.784 128.079C122.84 128.154 122.84 128.267 122.784 128.342C122.709 128.398 122.653 128.342 122.653 128.211Z" fill="white"/>
<path d="M124.751 127.911C124.808 127.594 125.389 127.127 125.52 127.276C125.576 127.332 125.67 127.556 125.726 127.799C125.857 128.173 125.801 128.21 125.276 128.21C124.826 128.21 124.695 128.135 124.751 127.911Z" fill="white"/>
<path d="M115.718 127.893C115.718 127.799 115.811 127.613 115.905 127.463C116.055 127.239 116.092 127.258 116.092 127.613C116.092 127.837 116.017 128.023 115.905 128.023C115.811 128.023 115.718 127.967 115.718 127.893Z" fill="white"/>
<path d="M116.28 127.482C116.28 126.959 116.674 126.791 116.974 127.183C117.161 127.463 117.161 127.557 116.974 127.687C116.58 127.93 116.28 127.855 116.28 127.482Z" fill="white"/>
<path d="M121.978 127.239C121.64 126.866 121.64 126.847 121.959 126.959C122.146 127.034 122.39 127.09 122.484 127.09C122.577 127.09 122.652 127.22 122.652 127.37C122.652 127.762 122.39 127.725 121.978 127.239Z" fill="white"/>
<path d="M117.949 127.22C117.143 126.604 117.03 125.222 117.78 125.222C118.286 125.222 118.755 126.007 118.68 126.735C118.623 127.407 118.398 127.556 117.949 127.22Z" fill="white"/>
<path d="M123.084 127.333C123.159 127.276 123.272 127.276 123.346 127.333C123.403 127.407 123.346 127.464 123.215 127.464C123.084 127.464 123.028 127.407 123.084 127.333Z" fill="white"/>
<path d="M125.914 126.604C125.97 126.436 126.026 126.268 126.026 126.231C126.026 126.193 126.12 126.156 126.214 126.156C126.326 126.156 126.401 126.324 126.401 126.529C126.401 126.754 126.27 126.903 126.101 126.903C125.895 126.903 125.839 126.81 125.914 126.604Z" fill="white"/>
<path d="M116.093 126.548C116.093 126.119 116.486 125.409 116.711 125.409C117.105 125.409 116.824 126.604 116.411 126.679C116.243 126.716 116.093 126.66 116.093 126.548Z" fill="white"/>
<path d="M120.31 126.343L119.747 126.212L120.253 126.081C120.778 125.932 121.153 126.044 121.153 126.361C121.153 126.548 121.134 126.548 120.31 126.343Z" fill="white"/>
<path d="M119.654 125.446C119.654 124.681 120.085 124.569 120.479 125.241C120.741 125.689 120.76 125.783 120.516 125.783C120.366 125.783 120.123 125.839 119.954 125.895C119.729 125.988 119.654 125.876 119.654 125.446Z" fill="white"/>
<path d="M122.915 125.708C122.072 125.334 121.528 124.345 121.528 123.168C121.528 122.328 121.603 122.122 122.109 121.656C122.428 121.357 122.746 121.114 122.84 121.114C123.252 121.114 124.771 122.552 125.277 123.448L125.858 124.475L125.239 125.129C124.527 125.876 123.74 126.081 122.915 125.708Z" fill="white"/>
<path d="M118.998 125.222C118.941 125.129 118.979 125.036 119.073 125.036C119.185 125.036 119.279 125.129 119.279 125.222C119.279 125.334 119.241 125.409 119.204 125.409C119.148 125.409 119.054 125.334 118.998 125.222Z" fill="white"/>
<path d="M116.542 124.923C116.599 124.755 116.655 124.587 116.655 124.55C116.655 124.513 116.823 124.475 117.03 124.475C117.498 124.475 117.517 124.774 117.048 125.035C116.542 125.297 116.411 125.278 116.542 124.923Z" fill="white"/>
<path d="M118.023 124.699C117.592 124.643 117.461 124.401 117.742 124.233C117.817 124.177 118.155 124.083 118.492 124.008C118.998 123.896 119.092 123.934 119.092 124.251C119.092 124.643 118.698 124.811 118.023 124.699Z" fill="white"/>
<path d="M119.467 124.064C119.467 123.84 119.485 123.71 119.523 123.747C119.542 123.784 119.691 123.971 119.823 124.158C120.048 124.419 120.029 124.475 119.766 124.475C119.579 124.475 119.467 124.326 119.467 124.064Z" fill="white"/>
<path d="M116.842 123.934C116.842 123.822 116.936 123.691 117.029 123.635C117.142 123.579 117.217 123.654 117.217 123.803C117.217 123.971 117.142 124.102 117.029 124.102C116.936 124.102 116.842 124.027 116.842 123.934Z" fill="white"/>
<path d="M117.536 123.654C117.386 123.28 118.716 122.869 118.941 123.224C119.11 123.523 118.941 123.654 118.229 123.803C117.798 123.896 117.611 123.859 117.536 123.654Z" fill="white"/>
<path d="M119.298 123.056C119.298 122.851 119.354 122.795 119.41 122.944C119.466 123.075 119.448 123.243 119.391 123.299C119.335 123.374 119.279 123.261 119.298 123.056Z" fill="white"/>
<path d="M117.705 122.757C117.93 122.347 118.586 121.674 118.755 121.674C118.942 121.674 118.961 122.552 118.773 122.664C118.68 122.701 118.38 122.795 118.099 122.869C117.686 122.963 117.593 122.944 117.705 122.757Z" fill="white"/>
<path d="M119.204 122.328C118.998 121.768 119.092 121.525 119.541 121.45C120.01 121.357 120.01 121.357 119.71 121.936C119.335 122.683 119.354 122.683 119.204 122.328Z" fill="white"/>
<path d="M119.091 121.207C119.091 121.17 119.466 120.909 119.935 120.647C120.497 120.311 120.891 120.199 121.172 120.274C121.509 120.386 121.415 120.46 120.591 120.853C119.672 121.263 119.091 121.413 119.091 121.207Z" fill="white"/>
<path d="M129.494 104.662C128.988 103.934 127.919 102.758 127.151 102.048C126.382 101.338 125.876 100.76 126.026 100.76C126.439 100.76 129.587 101.619 130.374 101.955C131.03 102.235 131.049 102.272 130.881 102.851C130.787 103.187 130.712 104.027 130.712 104.718C130.712 105.428 130.656 105.988 130.581 105.988C130.487 105.988 130.018 105.391 129.494 104.662Z" fill="white"/>
<path d="M91.3524 161.225C90.584 160.833 90.4153 160.609 89.4407 158.686C88.035 155.959 87.9975 155.324 89.3282 156.874C89.853 157.491 91.0713 158.76 92.0272 159.694C93.6578 161.263 93.7327 161.375 93.1892 161.3C92.7956 161.244 92.6457 161.281 92.7394 161.431C92.9643 161.767 92.2521 161.674 91.3524 161.225Z" fill="white"/>
<path fill-rule="evenodd" clip-rule="evenodd" d="M122.763 195.248C122.607 194.88 122.78 194.455 123.15 194.301L123.554 194.13C127.48 192.456 129.733 191.451 131.264 189.854C132.796 188.258 132.979 185.913 133.266 184.486C133.345 184.094 134.235 184.782 134.628 184.861C135.021 184.94 135.276 185.321 135.197 185.712C134.851 187.428 133.92 189.063 132.42 190.616C130.926 192.163 128.033 193.822 123.713 195.634C123.344 195.789 122.918 195.616 122.763 195.248Z" fill="#2C2C2E"/>
<path fill-rule="evenodd" clip-rule="evenodd" d="M140.517 120.739C140.862 120.535 141.307 120.647 141.512 120.99C143.565 124.427 144.665 128.355 144.665 132.442C144.665 144.823 134.591 154.86 122.164 154.86C118.862 154.86 115.659 154.15 112.727 152.799C112.363 152.631 110.988 151.295 112.373 151.839C113.757 152.382 119.112 153.601 122.203 153.601C133.828 153.601 142.052 144.024 142.052 132.442C142.052 128.617 140.517 125.222 140.265 121.73C140.236 121.325 140.173 120.943 140.517 120.739Z" fill="#2C2C2E"/>
<path fill-rule="evenodd" clip-rule="evenodd" d="M68.6319 175.472C68.8884 175.165 69.3461 174.545 69.6541 174.801C70.9177 175.85 72.2661 177.064 73.7085 177.299C75.2094 177.543 76.99 177.543 79.0479 177.295C79.4459 177.247 79.8076 177.529 79.8558 177.926C79.9039 178.322 79.6204 178.683 79.2224 178.731C77.037 178.994 75.1218 178.994 73.4747 178.726C71.769 178.449 70.1827 177.7 68.7251 176.491C68.417 176.235 68.3753 175.779 68.6319 175.472Z" fill="#2C2C2E"/>
<path d="M84.0433 150.171C83.1062 149.424 81.1008 147.22 79.5826 145.278C78.7954 144.251 77.9145 142.159 77.3897 140.049C77.1461 139.097 76.9024 138.238 76.8462 138.126C76.7712 138.032 76.4714 136.707 76.1715 135.175C75.7217 133.009 75.8168 132.311 75.4218 129.72C75.2545 128.623 75.1031 127.75 75.1031 127.75L75.5905 127.127C75.8716 126.753 76.2272 126.135 76.3589 125.782C76.9587 124.175 81.3632 119.135 81.4944 119.265C81.5318 119.303 81.3819 120.18 81.1195 121.207C80.8759 122.234 80.576 123.784 80.4448 124.662C80.2574 126.119 80.1824 126.287 79.6014 126.772C78.8704 127.388 77.4835 129.368 77.4835 129.779C77.4835 130.339 78.3269 129.965 79.2078 129.05L80.1074 128.117V129.144C80.1074 129.816 79.9762 130.432 79.7326 130.918C79.264 131.833 79.264 132.804 79.7138 133.551C79.9387 133.924 80.1449 134.821 80.2761 135.885C80.8571 140.703 82.0941 144.886 84.212 149.087C84.7368 150.133 85.1492 150.992 85.1304 150.992C85.0929 150.992 84.6056 150.619 84.0433 150.171Z" fill="white"/>
<path fill-rule="evenodd" clip-rule="evenodd" d="M162.031 161.692L163.38 162.29C163.66 162.419 166.747 163.896 170.455 165.672C176.433 168.533 184.026 172.168 184.072 172.168C184.147 172.168 184.499 171.358 184.578 170.413C184.766 168.378 185.459 165.614 186.265 163.69C186.64 162.831 186.94 161.758 186.94 161.664C186.94 161.622 186.635 161.499 186.136 161.299C185.542 161.06 184.673 160.711 183.716 160.254C178.993 157.995 169.753 153.382 168.61 152.692C167.485 152.038 167.26 151.982 167.26 152.411C167.26 152.972 166.117 155.567 165.236 156.968C164.767 157.733 163.849 159.115 163.193 160.03L162.031 161.692ZM183.753 168.807C184.291 169.117 183.36 169.573 183.135 169.647C181.81 169.759 180.251 169.511 178.974 168.77C178.306 168.298 173.047 165.387 169.558 163.456C167.963 162.573 166.738 161.895 166.491 161.748C165.704 161.281 164.954 160.777 164.823 160.628C164.43 160.124 164.804 159.9 165.91 159.993C166.575 160.049 182.592 168.137 183.753 168.807Z" fill="white"/>
<path d="M148.573 163.373C148.086 163.205 147.561 162.831 147.224 162.402L146.661 161.711L148.648 159.75C151.703 156.762 153.952 153.497 155.977 149.856C156.651 148.642 158.657 143.747 158.9 143.205C159.275 142.421 159.556 142.122 160.362 141.674C161.318 141.114 162.405 140.927 162.874 141.244C163.773 141.842 163.773 143.728 162.874 146.977C161.88 150.544 160.55 153.102 157.795 156.781C157.363 157.341 156.558 158.443 155.977 159.209C154.421 161.263 153.409 162.253 152.041 163.018C150.691 163.765 149.904 163.859 148.573 163.373Z" fill="white"/>
<path d="M155.639 162.943L155.246 162.551C155.246 162.551 161.778 154.282 162.949 151.235C163.842 148.91 164.368 148.25 165.077 148.25C165.474 148.25 165.798 148.341 165.948 148.565C166.21 148.957 166.463 149.442 166.126 151.104C165.563 153.793 164.701 155.567 162.115 159.395C161.515 160.273 160.746 161.244 160.409 161.58C159.622 162.309 157.851 163.056 156.82 163.224C156.164 163.317 155.977 163.28 155.639 162.943Z" fill="white"/>
<path fill-rule="evenodd" clip-rule="evenodd" d="M166.612 154.296C166.99 153.435 167.26 152.683 167.26 152.411C167.26 151.982 167.485 152.038 168.609 152.692C169.752 153.382 178.992 157.995 183.716 160.254C185.477 161.095 186.939 161.571 186.939 161.664C186.939 161.758 166.212 155.21 166.612 154.296Z" fill="#E5E5EA"/>
<path fill-rule="evenodd" clip-rule="evenodd" d="M102.485 155.362C100.105 153.812 96.5065 150.171 94.7635 147.575C92.2707 143.84 90.6214 139.844 89.8154 135.549C89.2344 132.43 89.2531 127.631 89.8342 124.849C90.4339 122.01 91.2024 119.844 92.5706 117.099C94.1637 113.925 95.8505 111.59 98.3808 109.069C100.862 106.597 89.8342 116.821 92.5706 135.112C94.7635 150.441 104.188 156.479 102.485 155.362Z" fill="#E5E5EA"/>
<path d="M30.136 41L24.482 26.326H20.566L14.89 41H18.454L19.378 38.514H25.67L26.572 41H30.136ZM24.812 35.764H20.236L22.524 29.45L24.812 35.764ZM41.5451 41V26.326H38.7291V31.738C37.8931 30.66 36.7051 30.11 35.4511 30.11C32.7451 30.11 30.7431 32.222 30.7431 35.698C30.7431 39.24 32.7671 41.264 35.4511 41.264C36.7271 41.264 37.8931 40.692 38.7291 39.636V41H41.5451ZM36.3091 38.778C34.7251 38.778 33.6251 37.524 33.6251 35.698C33.6251 33.85 34.7251 32.596 36.3091 32.596C37.2551 32.596 38.2671 33.102 38.7291 33.806V37.568C38.2671 38.272 37.2551 38.778 36.3091 38.778ZM54.4357 41V26.326H51.6197V31.738C50.7837 30.66 49.5957 30.11 48.3417 30.11C45.6357 30.11 43.6337 32.222 43.6337 35.698C43.6337 39.24 45.6577 41.264 48.3417 41.264C49.6177 41.264 50.7837 40.692 51.6197 39.636V41H54.4357ZM49.1997 38.778C47.6157 38.778 46.5157 37.524 46.5157 35.698C46.5157 33.85 47.6157 32.596 49.1997 32.596C50.1457 32.596 51.1577 33.102 51.6197 33.806V37.568C51.1577 38.272 50.1457 38.778 49.1997 38.778ZM30.136 69L24.482 54.326H20.566L14.89 69H18.454L19.378 66.514H25.67L26.572 69H30.136ZM24.812 63.764H20.236L22.524 57.45L24.812 63.764ZM36.3751 69.264C38.5531 69.264 39.8731 68.318 40.5771 67.328L38.7511 65.634C38.2451 66.338 37.4751 66.778 36.5071 66.778C34.8131 66.778 33.6251 65.524 33.6251 63.676C33.6251 61.828 34.8131 60.596 36.5071 60.596C37.4751 60.596 38.2451 60.992 38.7511 61.74L40.5771 60.024C39.8731 59.056 38.5531 58.11 36.3751 58.11C33.0971 58.11 30.7431 60.42 30.7431 63.676C30.7431 66.954 33.0971 69.264 36.3751 69.264ZM45.9676 69.264C47.1336 69.264 47.8816 68.956 48.2996 68.582L47.7056 66.47C47.5516 66.624 47.1556 66.778 46.7376 66.778C46.1216 66.778 45.7696 66.272 45.7696 65.612V60.816H47.9256V58.374H45.7696V55.47H42.9536V58.374H41.1936V60.816H42.9536V66.36C42.9536 68.252 44.0096 69.264 45.9676 69.264ZM52.2232 57.23C53.1472 57.23 53.8952 56.482 53.8952 55.558C53.8952 54.634 53.1472 53.908 52.2232 53.908C51.3212 53.908 50.5512 54.634 50.5512 55.558C50.5512 56.482 51.3212 57.23 52.2232 57.23ZM53.6312 69V58.374H50.8372V69H53.6312ZM62.1656 69L66.4336 58.374H63.4196L60.6476 65.766L57.8756 58.374H54.8836L59.1516 69H62.1656ZM69.0669 57.23C69.9909 57.23 70.7389 56.482 70.7389 55.558C70.7389 54.634 69.9909 53.908 69.0669 53.908C68.1649 53.908 67.3949 54.634 67.3949 55.558C67.3949 56.482 68.1649 57.23 69.0669 57.23ZM70.4749 69V58.374H67.6809V69H70.4749ZM76.8094 69.264C77.9754 69.264 78.7234 68.956 79.1414 68.582L78.5474 66.47C78.3934 66.624 77.9974 66.778 77.5794 66.778C76.9634 66.778 76.6114 66.272 76.6114 65.612V60.816H78.7674V58.374H76.6114V55.47H73.7954V58.374H72.0354V60.816H73.7954V66.36C73.7954 68.252 74.8514 69.264 76.8094 69.264ZM82.065 57.23C82.989 57.23 83.737 56.482 83.737 55.558C83.737 54.634 82.989 53.908 82.065 53.908C81.163 53.908 80.393 54.634 80.393 55.558C80.393 56.482 81.163 57.23 82.065 57.23ZM83.473 69V58.374H80.679V69H83.473ZM91.2374 69.264C92.8874 69.264 94.5594 68.758 95.6154 67.79L94.3834 65.986C93.7014 66.646 92.4474 67.042 91.5454 67.042C89.7414 67.042 88.6634 65.92 88.4874 64.578H96.3854V63.962C96.3854 60.486 94.2294 58.11 91.0614 58.11C87.8274 58.11 85.5614 60.596 85.5614 63.676C85.5614 67.086 88.0034 69.264 91.2374 69.264ZM93.6794 62.686H88.4434C88.5754 61.63 89.3234 60.332 91.0614 60.332C92.9094 60.332 93.6134 61.674 93.6794 62.686ZM102.232 69.264C105.18 69.264 106.83 67.79 106.83 65.854C106.83 61.564 100.538 62.884 100.538 61.3C100.538 60.706 101.198 60.244 102.21 60.244C103.508 60.244 104.718 60.794 105.356 61.476L106.478 59.562C105.422 58.726 103.992 58.11 102.188 58.11C99.3936 58.11 97.8316 59.672 97.8316 61.454C97.8316 65.634 104.146 64.204 104.146 65.964C104.146 66.624 103.574 67.108 102.364 67.108C101.044 67.108 99.4596 66.382 98.6896 65.656L97.4796 67.614C98.6016 68.648 100.384 69.264 102.232 69.264Z" fill="white"/>
</g>
<defs>
<clipPath id="clip0">
<rect width="179" height="256" rx="8" fill="white"/>
</clipPath>
</defs>
</svg>
