<svg width="180" height="256" viewBox="0 0 180 256" fill="none" xmlns="http://www.w3.org/2000/svg">
<rect width="179.348" height="256" rx="8" fill="#FE6250"/>
<path d="M59.136 121L53.482 106.326H49.566L43.89 121H47.454L48.378 118.514H54.67L55.572 121H59.136ZM53.812 115.764H49.236L51.524 109.45L53.812 115.764ZM70.5451 121V106.326H67.7291V111.738C66.8931 110.66 65.7051 110.11 64.4511 110.11C61.7451 110.11 59.7431 112.222 59.7431 115.698C59.7431 119.24 61.7671 121.264 64.4511 121.264C65.7271 121.264 66.8931 120.692 67.7291 119.636V121H70.5451ZM65.3091 118.778C63.7251 118.778 62.6251 117.524 62.6251 115.698C62.6251 113.85 63.7251 112.596 65.3091 112.596C66.2551 112.596 67.2671 113.102 67.7291 113.806V117.568C67.2671 118.272 66.2551 118.778 65.3091 118.778ZM83.4357 121V106.326H80.6197V111.738C79.7837 110.66 78.5957 110.11 77.3417 110.11C74.6357 110.11 72.6337 112.222 72.6337 115.698C72.6337 119.24 74.6577 121.264 77.3417 121.264C78.6177 121.264 79.7837 120.692 80.6197 119.636V121H83.4357ZM78.1997 118.778C76.6157 118.778 75.5157 117.524 75.5157 115.698C75.5157 113.85 76.6157 112.596 78.1997 112.596C79.1457 112.596 80.1577 113.102 80.6197 113.806V117.568C80.1577 118.272 79.1457 118.778 78.1997 118.778ZM50.666 149.264C54.626 149.264 56.54 147.24 56.54 144.556C56.54 139.078 48.114 140.64 48.114 138.308C48.114 137.428 48.862 136.834 50.204 136.834C51.7 136.834 53.284 137.34 54.472 138.44L56.21 136.152C54.758 134.81 52.822 134.106 50.49 134.106C47.036 134.106 44.924 136.13 44.924 138.572C44.924 144.094 53.372 142.312 53.372 144.908C53.372 145.744 52.536 146.536 50.82 146.536C48.796 146.536 47.19 145.634 46.156 144.556L44.462 146.932C45.826 148.318 47.85 149.264 50.666 149.264ZM61.8406 149.264C63.0066 149.264 63.7546 148.956 64.1726 148.582L63.5786 146.47C63.4246 146.624 63.0286 146.778 62.6106 146.778C61.9946 146.778 61.6426 146.272 61.6426 145.612V140.816H63.7986V138.374H61.6426V135.47H58.8266V138.374H57.0666V140.816H58.8266V146.36C58.8266 148.252 59.8826 149.264 61.8406 149.264ZM75.6762 149V138.374H72.8822V145.568C72.3982 146.184 71.5402 146.778 70.4622 146.778C69.2742 146.778 68.5042 146.294 68.5042 144.82V138.374H65.7102V145.92C65.7102 147.988 66.8102 149.264 69.1422 149.264C70.8802 149.264 72.1562 148.472 72.8822 147.658V149H75.6762ZM88.5705 149V134.326H85.7545V139.738C84.9185 138.66 83.7305 138.11 82.4765 138.11C79.7705 138.11 77.7685 140.222 77.7685 143.698C77.7685 147.24 79.7925 149.264 82.4765 149.264C83.7525 149.264 84.9185 148.692 85.7545 147.636V149H88.5705ZM83.3345 146.778C81.7505 146.778 80.6505 145.524 80.6505 143.698C80.6505 141.85 81.7505 140.596 83.3345 140.596C84.2805 140.596 85.2925 141.102 85.7545 141.806V145.568C85.2925 146.272 84.2805 146.778 83.3345 146.778ZM96.3351 149.264C97.9851 149.264 99.6571 148.758 100.713 147.79L99.4811 145.986C98.7991 146.646 97.5451 147.042 96.6431 147.042C94.8391 147.042 93.7611 145.92 93.5851 144.578H101.483V143.962C101.483 140.486 99.3271 138.11 96.1591 138.11C92.9251 138.11 90.6591 140.596 90.6591 143.676C90.6591 147.086 93.1011 149.264 96.3351 149.264ZM98.7771 142.686H93.5411C93.6731 141.63 94.4211 140.332 96.1591 140.332C98.0071 140.332 98.7111 141.674 98.7771 142.686ZM113.467 149V141.498C113.467 139.43 112.345 138.11 110.013 138.11C108.275 138.11 106.977 138.946 106.295 139.76V138.374H103.501V149H106.295V141.85C106.757 141.212 107.615 140.596 108.715 140.596C109.903 140.596 110.673 141.102 110.673 142.576V149H113.467ZM119.805 149.264C120.971 149.264 121.719 148.956 122.137 148.582L121.543 146.47C121.389 146.624 120.993 146.778 120.575 146.778C119.959 146.778 119.607 146.272 119.607 145.612V140.816H121.763V138.374H119.607V135.47H116.791V138.374H115.031V140.816H116.791V146.36C116.791 148.252 117.847 149.264 119.805 149.264ZM127.503 149.264C130.451 149.264 132.101 147.79 132.101 145.854C132.101 141.564 125.809 142.884 125.809 141.3C125.809 140.706 126.469 140.244 127.481 140.244C128.779 140.244 129.989 140.794 130.627 141.476L131.749 139.562C130.693 138.726 129.263 138.11 127.459 138.11C124.665 138.11 123.103 139.672 123.103 141.454C123.103 145.634 129.417 144.204 129.417 145.964C129.417 146.624 128.845 147.108 127.635 147.108C126.315 147.108 124.731 146.382 123.961 145.656L122.751 147.614C123.873 148.648 125.655 149.264 127.503 149.264Z" fill="white"/>
</svg>
