<svg width="180" height="257" viewBox="0 0 180 257" fill="none" xmlns="http://www.w3.org/2000/svg">
<g clip-path="url(#clip0)">
<rect y="0.869568" width="179.348" height="256" rx="8" fill="#FFAB01"/>
<path fill-rule="evenodd" clip-rule="evenodd" d="M129.202 14.7321C148.744 16.5981 165.447 26.34 181.175 36.9911C196.676 47.4886 212.64 58.747 218.74 75.3673C224.858 92.0402 221.838 110.506 214.061 126.604C206.772 141.691 191.331 151.022 177.184 161.387C162.12 172.423 148.545 187.573 129.202 188.773C109.453 189.997 91.0809 179.441 76.1888 167.649C62.2501 156.612 53.5052 141.488 48.9713 125.244C44.6729 109.844 48.2949 94.447 51.3931 78.8132C55.0473 60.3738 53.2744 38.8553 68.5911 26.241C84.2363 13.3561 108.157 12.7226 129.202 14.7321Z" fill="white" fill-opacity="0.32"/>
<path fill-rule="evenodd" clip-rule="evenodd" d="M181.261 54.3246C158.754 41.4124 141.205 79.3141 128.458 84.0855C102.77 93.7015 55.0555 102.065 64.1551 120.76C76.6495 146.429 120.123 148.991 151.212 146.429C191.648 143.098 225.513 79.711 181.261 54.3246Z" fill="white" fill-opacity="0.48"/>
<path fill-rule="evenodd" clip-rule="evenodd" d="M107.516 69.1553C106.641 65.2694 109.024 58.8189 113.282 56.2254C117.54 53.6318 122.986 53.4541 127.727 54.9943C127.576 50.415 132.222 46.4854 136.789 46.8637C141.357 47.2421 145.146 51.3416 145.76 55.8822C146.238 59.4201 144.421 63.6343 140.908 64.2751C142.15 68.7108 142.841 73.3777 142.159 77.9332C141.477 82.4886 139.309 86.9385 135.649 89.737C134.639 91.0956 135.402 93.1452 136.732 94.1931C138.062 95.241 139.784 95.6093 141.376 96.1876C148.045 98.6107 152.74 105.188 153.835 112.198C154.929 119.207 152.743 126.475 148.792 132.368C146.086 136.404 142.405 139.989 137.799 141.541C131.335 143.72 124.247 141.598 117.97 138.928C115.577 137.91 113.14 136.753 111.451 134.776C109.64 132.657 106.218 133.802 103.75 135.098C105.391 135.778 107.032 136.459 108.673 137.14C109.025 137.286 109.408 137.46 109.571 137.805C109.916 138.531 109.068 139.229 108.35 139.591C107.579 139.979 106.807 140.367 106.036 140.755C101.302 143.139 96.3711 145.574 91.0725 145.721C85.2794 145.882 79.8073 143.293 74.5936 140.764C74.0141 140.483 73.3998 140.169 73.0847 139.608C72.7696 139.046 72.9458 138.17 73.5685 138.006C79.4173 136.459 84.9548 133.745 89.7596 130.07C89.3921 127.782 89.4787 125.423 90.013 123.168C90.0903 122.842 90.2014 122.484 90.4921 122.317C91.2068 121.907 91.8276 122.988 91.9539 123.802C92.2726 125.858 92.5914 127.913 92.9101 129.968C96.7376 129.545 100.452 128.14 103.601 125.923C101.145 123.946 98.6894 121.969 96.2336 119.992C94.8167 118.851 93.4489 118.169 92.6837 115.935C92.1735 114.446 92.5853 112.916 93.919 111.345C92.4301 103.928 91.7787 98.3364 91.9646 94.571C92.0143 93.5659 92.1268 92.4809 92.8035 91.7359C93.998 90.421 96.3435 90.988 97.4338 92.3906C98.5241 93.7931 98.7066 95.6753 98.8475 97.446C102.999 96.9389 107.15 96.4319 111.302 95.9248C112.821 95.7393 114.394 95.5581 115.855 96.01C117.69 96.577 119.163 98.1828 119.569 100.058C121.321 99.5851 123.229 99.0022 124.218 97.4814C125.208 95.9605 124.37 93.3154 122.557 93.3938C116.886 93.6392 111.339 89.4322 110.049 83.9061C109.72 82.5007 109.593 80.9388 108.606 79.8855C107.042 78.2163 105.85 76.0645 105.858 73.7775C105.866 71.4905 106.824 71.2176 107.516 69.1553ZM73.6644 139.538C73.7921 139.729 74.0149 139.828 74.226 139.919C76.3916 140.845 78.5572 141.772 80.7228 142.698C81.7082 143.12 82.6968 143.543 83.7272 143.837C86.6011 144.659 89.6979 144.459 92.5553 145.336C92.9019 145.443 93.2739 145.333 93.619 145.222C96.1111 144.419 98.574 143.526 101.001 142.544C103.54 141.516 106.056 140.383 108.311 138.828C108.516 138.686 108.729 138.529 108.822 138.298C108.916 138.067 108.829 137.746 108.59 137.678C107.068 137.246 105.569 136.736 104.099 136.152C103.627 135.964 103.095 135.696 102.995 135.198C101.7 135.25 100.568 136.066 99.6132 136.941C98.6583 137.817 97.7612 138.806 96.5845 139.348C95.4079 139.89 93.8286 139.843 93.0135 138.836C92.9264 138.729 92.839 138.605 92.7051 138.57C92.5712 138.535 92.3993 138.669 92.4617 138.792C92.6233 139.112 92.2762 139.516 91.9184 139.494C91.5607 139.472 91.281 139.146 91.1929 138.799C91.1048 138.451 90.6269 139.072 89.9341 139.175C89.2413 139.278 88.5064 138.834 88.2763 138.173C88.0866 137.628 87.3431 137.618 86.775 137.516C85.4831 137.284 84.5021 135.931 84.6838 134.631C80.9711 135.869 77.3258 137.309 73.7692 138.942C73.5606 139.037 73.5367 139.347 73.6644 139.538Z" fill="white"/>
<path d="M125.787 86.0733C126.877 86.0733 127.761 85.1898 127.761 84.0999C127.761 83.0101 126.877 82.1266 125.787 82.1266C124.697 82.1266 123.813 83.0101 123.813 84.0999C123.813 85.1898 124.697 86.0733 125.787 86.0733Z" fill="#FFAB01"/>
<path d="M112.086 84.4488C112.663 84.4488 113.131 83.9809 113.131 83.4038C113.131 82.8266 112.663 82.3588 112.086 82.3588C111.509 82.3588 111.041 82.8266 111.041 83.4038C111.041 83.9809 111.509 84.4488 112.086 84.4488Z" fill="#FFAB01"/>
<path fill-rule="evenodd" clip-rule="evenodd" d="M135.213 92.0199C135.394 92.9579 135.931 93.8666 136.646 94.4301C137.976 95.478 140.966 96.557 142.558 97.1353C142.703 97.1879 141.886 97.649 140.832 98.6685C137.978 101.429 131.737 106.372 125.641 103.888C124.928 103.597 124.332 103.263 123.847 102.909C123.4 102.582 127.504 103.053 131.342 102.325C135.2 101.594 138.789 99.6621 137.829 98.1304C136.925 96.6907 134.385 94.2522 134.187 92.8179C133.923 90.907 135.057 91.2138 135.213 92.0199Z" fill="#E5E5EA"/>
<path fill-rule="evenodd" clip-rule="evenodd" d="M73.5859 138.995C73.5859 138.23 76.0004 137.61 80.1278 136.058C82.9667 134.991 88.5001 131.902 91.2225 131.758C93.0341 131.662 100.274 134.312 104.998 136.215C107.374 137.171 109.207 137.771 109.207 138.078C109.207 138.694 104.162 141.671 99.0069 143.627C96.4906 144.582 94.1297 145.438 91.9645 145.38C85.3636 145.204 73.5859 140.933 73.5859 138.995Z" fill="white"/>
<path fill-rule="evenodd" clip-rule="evenodd" d="M166.84 75.4157C157.374 79.4574 149.466 86.3635 141.932 93.3865L141.471 93.8166C141.032 94.2273 140.365 94.6567 139.89 94.2866L141.354 92.9543C149.015 85.9966 156.935 79.0975 166.412 74.9986C173.699 71.8472 173.622 72.5198 166.84 75.4157ZM126.067 142.738L130.507 147.573C130.725 147.81 130.952 148.064 131.012 148.38C131.073 148.696 130.89 149.082 130.57 149.115L121.428 150.071C119.909 150.23 118.361 149.177 117.923 147.715C117.486 146.252 118.186 144.539 119.509 143.776C120.831 143.014 122.645 143.254 123.743 144.315C124.015 144.578 124.493 144.355 124.686 144.03C124.879 143.704 124.92 143.306 125.12 142.984C125.319 142.663 125.811 142.459 126.067 142.738ZM118.694 145.529C118.127 146.604 118.486 148.061 119.456 148.794C119.932 149.153 120.516 149.346 121.104 149.441C121.935 149.575 122.899 149.473 123.433 148.823C123.628 148.586 123.748 148.295 123.829 147.999C124.101 147.013 123.963 145.921 123.455 145.033C123.316 144.792 123.103 144.54 122.825 144.552C122.693 144.558 122.57 144.624 122.439 144.638C122.22 144.66 122.017 144.536 121.817 144.443C120.715 143.929 119.261 144.453 118.694 145.529ZM125.672 143.708C125.498 144.435 125.137 145.118 124.633 145.671C124.491 145.827 124.526 146.068 124.554 146.276C124.695 147.293 124.463 148.357 123.913 149.224C124.814 149.01 125.736 148.883 126.661 148.843C127.93 148.789 129.254 148.891 130.416 148.381C129.795 148.111 129.268 147.63 128.942 147.036C128.75 146.687 128.484 146.385 128.221 146.086L126.199 143.79C126.053 143.624 125.724 143.493 125.672 143.708ZM102.712 143.664C103.002 144.569 104.092 144.879 105.037 145.042L111.342 146.095C112.799 146.338 114.295 146.581 115.745 146.294C116.019 146.24 116.163 146.674 115.983 146.886C115.802 147.099 115.488 147.124 115.21 147.125C113.947 147.129 112.691 146.961 111.441 146.774L110.11 146.571C107.753 146.209 105.398 145.823 103.091 145.223C102.696 145.12 102.287 145.003 101.985 144.729C101.683 144.455 101.526 143.976 101.738 143.628C101.951 143.28 102.588 143.276 102.712 143.664ZM136.789 46.8637C141.357 47.2421 145.146 51.3416 145.76 55.8822C146.238 59.4201 144.421 63.6343 140.908 64.2751C142.15 68.7108 142.841 73.3778 142.159 77.9332C141.477 82.4886 139.309 86.9386 135.649 89.737C134.639 91.0956 135.402 93.1452 136.732 94.1931C138.062 95.241 139.784 95.6093 141.376 96.1876C148.045 98.6107 152.74 105.189 153.835 112.198C154.929 119.207 152.743 126.475 148.792 132.368C146.086 136.404 142.405 139.989 137.799 141.541C131.399 143.698 124.389 141.64 118.158 139.008L117.97 138.928C115.627 137.931 113.241 136.801 111.557 134.899L111.451 134.776C109.64 132.657 106.218 133.802 103.75 135.098L108.673 137.14C109.025 137.286 109.408 137.46 109.571 137.805C109.916 138.531 109.068 139.229 108.35 139.591L105.459 141.045C100.901 143.333 96.1563 145.58 91.0725 145.721C85.3468 145.88 79.9346 143.353 74.7756 140.852L74.4482 140.693C73.9138 140.429 73.3736 140.123 73.0847 139.608C72.7696 139.046 72.9458 138.17 73.5685 138.006C79.4173 136.459 84.9548 133.745 89.7596 130.07C89.3921 127.782 89.4787 125.423 90.013 123.168L90.0402 123.058C90.1172 122.765 90.2337 122.466 90.4921 122.317C91.2068 121.907 91.8276 122.988 91.9539 123.802L92.9101 129.968C96.7376 129.545 100.452 128.14 103.601 125.923L96.0356 119.832C94.6811 118.737 93.3097 117.552 92.6837 115.935C92.0271 114.239 92.5553 111.939 94.252 111.283C94.3859 104.857 94.0471 98.4224 93.2393 92.0465C92.1223 98.4144 93.02 104.943 93.919 111.345C92.3776 106.011 91.7101 100.426 91.9504 94.8791L91.9646 94.571C92.0143 93.5659 92.1268 92.4809 92.8035 91.736C93.998 90.421 96.3435 90.988 97.4338 92.3906C98.5241 93.7931 98.7066 95.6753 98.8475 97.446L111.587 95.8903C113.017 95.7192 114.485 95.5863 115.855 96.01C117.69 96.577 119.163 98.1828 119.569 100.058L119.868 99.9769C121.534 99.5161 123.285 98.9161 124.218 97.4814C125.197 95.9767 124.387 93.3716 122.614 93.3923L122.557 93.3939C116.886 93.6392 111.339 89.4322 110.049 83.9061C109.72 82.5007 109.593 80.9388 108.606 79.8855C107.042 78.2164 105.85 76.0645 105.858 73.7775C105.866 71.4905 107.324 69.132 109.546 68.5852C111.767 68.0385 114.396 69.8913 114.204 72.1703C115.282 72.0606 116.384 72.2008 117.4 72.5768C116.821 71.0153 118.323 69.2918 119.973 69.0651C121.623 68.8385 123.232 69.6626 124.604 70.6066C125.977 71.5505 127.288 72.6618 128.884 73.1403L128.957 72.9701C129.287 72.2004 129.591 71.3782 129.425 70.5645C129.246 69.6905 128.261 68.9346 127.464 69.3348C126.904 67.7313 126.013 66.2441 124.863 64.9936L121.668 66.4995C121.257 65.8832 121.005 65.1614 120.943 64.4228C118.833 65.6281 116.544 66.5176 114.174 67.0525L114.416 65.2435L107.334 68.9212C106.288 64.0477 109.024 58.8189 113.282 56.2254C117.54 53.6318 122.986 53.4541 127.727 54.9943C127.576 50.415 132.222 46.4854 136.789 46.8637ZM171.633 126.295C167.552 127.279 163.591 128.757 159.864 130.686L159.594 130.827C157.529 131.915 155.501 133.218 154.207 135.153C155.081 135.001 156.014 135.229 156.721 135.766C157.167 136.105 157.539 136.614 157.513 137.174C157.499 137.464 157.378 137.741 157.216 137.982C156.581 138.922 155.236 139.304 154.201 138.838C153.166 138.372 152.561 137.112 152.846 136.013C148.454 137.512 144.68 140.736 142.509 144.836L142.437 144.974C142.33 145.18 142.199 145.411 141.973 145.463C141.661 145.533 141.383 145.185 141.398 144.866C141.412 144.547 141.616 144.272 141.814 144.021C144.373 140.772 147.363 137.68 151.19 136.113L151.479 135.997C152.381 135.639 153.326 135.287 153.909 134.524C155.323 132.672 157.359 131.401 159.426 130.325C161.276 129.362 163.19 128.521 165.151 127.81C167.118 127.097 169.13 126.515 171.146 125.951L177.976 124.05C176.129 125.348 173.828 125.765 171.633 126.295ZM84.6838 134.631C80.9711 135.869 77.3258 137.309 73.7692 138.942C73.5606 139.037 73.5367 139.347 73.6644 139.538C73.7921 139.729 74.0149 139.828 74.226 139.919L80.7228 142.698C81.7082 143.12 82.6968 143.543 83.7272 143.837C86.6011 144.659 89.6979 144.459 92.5553 145.336C92.9019 145.443 93.2739 145.333 93.619 145.222C96.1111 144.419 98.574 143.526 101.001 142.544C103.54 141.516 106.056 140.383 108.311 138.828C108.516 138.686 108.729 138.529 108.822 138.298C108.916 138.067 108.829 137.746 108.59 137.678C107.068 137.246 105.569 136.736 104.099 136.152L103.997 136.11C103.553 135.924 103.088 135.66 102.995 135.198C101.7 135.25 100.568 136.066 99.6132 136.941C98.6583 137.817 97.7612 138.806 96.5845 139.348C95.4079 139.89 93.8286 139.843 93.0135 138.837L92.9608 138.771C92.8896 138.683 92.8122 138.598 92.7051 138.57C92.5712 138.535 92.3993 138.669 92.4617 138.792C92.6233 139.112 92.2762 139.516 91.9184 139.494C91.5607 139.472 91.281 139.146 91.1929 138.799C91.1363 138.575 91.1413 138.345 91.1683 138.114L91.1751 138.058C91.0161 138.621 90.5175 139.088 89.9341 139.175C89.2413 139.279 88.5064 138.834 88.2763 138.173C88.0866 137.628 87.3431 137.618 86.775 137.516C85.4831 137.284 84.5021 135.931 84.6838 134.631ZM93.4577 112.941C92.6924 114.302 93.4032 116.024 94.3458 117.269C97.3018 121.172 102.253 123.046 105.631 126.59C106.48 127.481 107.22 128.467 107.95 129.458L110.246 132.575C110.668 133.148 111.091 133.722 111.584 134.236C112.867 135.575 114.558 136.44 116.23 137.244C119.622 138.876 123.112 140.376 126.796 141.155C130.479 141.934 134.393 141.96 137.937 140.69C141.254 139.501 144.112 137.22 146.333 134.485C148.5 131.815 150.092 128.72 151.367 125.525L151.46 125.291C151.643 124.825 151.824 124.337 151.785 123.838C151.745 123.31 151.464 122.829 151.135 122.414C149.883 120.83 147.789 119.934 145.785 120.182C143.812 120.425 142.005 121.794 141.282 123.644L141.248 123.732C139.678 127.989 135.766 131.191 131.372 132.327C126.978 133.463 122.198 132.649 118.187 130.525C114.177 128.401 110.904 125.039 108.464 121.214L108.33 121.002C107.89 120.295 107.489 119.551 107.334 118.735C107.163 117.837 107.336 116.827 107.985 116.183C108.413 115.758 109.023 115.508 109.334 114.991C109.646 114.474 109.28 113.561 108.705 113.746L108.322 113.867C105.68 114.689 102.615 115.326 100.49 113.616L100.286 113.453C99.2939 112.665 98.2342 111.913 97.0022 111.642C95.6853 111.353 94.1185 111.766 93.4577 112.941ZM103.988 126.737C100.784 128.761 97.1679 130.13 93.4263 130.736C92.9323 130.816 92.7996 131.456 92.7918 131.956C92.7671 133.546 92.8441 135.138 93.0222 136.718C93.4275 136.527 93.5933 136.05 93.8696 135.698C94.1459 135.345 94.7765 135.152 94.99 135.546C95.1392 135.821 94.9401 136.165 94.6859 136.348C94.4316 136.53 94.1189 136.629 93.8922 136.844C93.3281 137.381 93.6229 138.435 94.3102 138.801C94.9975 139.166 95.8668 138.976 96.5257 138.561C97.1846 138.147 97.6937 137.539 98.2524 136.997C99.4473 135.838 100.909 134.955 102.491 134.437C104.5 133.779 106.736 133.682 108.504 132.522C108.623 132.444 108.746 132.353 108.791 132.218C108.852 132.033 108.748 131.842 108.638 131.678L106.524 128.608C106.187 128.119 105.799 127.594 105.222 127.454C104.959 127.39 104.677 127.415 104.418 127.333C104.159 127.252 103.915 126.998 103.988 126.737ZM89.227 131.195C88.4027 131.58 87.9148 132.485 87.8062 133.388C87.6977 134.291 87.9109 135.2 88.1641 136.073C88.3195 136.61 88.4919 137.144 88.749 137.64C88.9129 137.956 89.13 138.271 89.4585 138.408C89.787 138.546 90.2429 138.422 90.3497 138.083C90.3936 137.943 90.3739 137.792 90.3485 137.647C90.2528 137.104 90.0812 136.575 89.8403 136.079L89.7391 135.878C89.5942 135.589 89.4577 135.247 89.6441 134.994C89.822 134.752 90.2592 134.652 90.2174 134.355L89.8092 131.454C89.7973 131.369 89.7832 131.28 89.7282 131.214C89.6122 131.076 89.3903 131.119 89.227 131.195ZM154.583 135.67C154.311 135.669 154.025 135.706 153.806 135.869C153.678 135.963 153.582 136.096 153.514 136.24C153.227 136.849 153.491 137.632 154.036 138.028C154.58 138.425 155.334 138.462 155.964 138.224C156.446 138.043 156.91 137.631 156.894 137.117C156.881 136.711 156.573 136.372 156.233 136.149C155.747 135.831 155.164 135.673 154.583 135.67ZM90.7737 122.974C90.7041 123.025 90.6696 123.111 90.6402 123.193C90.2115 124.382 90.159 125.67 90.1709 126.934C90.2005 130.103 90.6077 133.268 91.3812 136.341L91.4196 136.491C91.5777 137.091 91.7938 137.706 92.2835 138.078C92.3745 133.208 92.0585 128.33 91.3396 123.512C91.293 123.2 91.0275 122.785 90.7737 122.974ZM86.9134 133.441C86.8111 133.47 86.7454 133.568 86.6943 133.661C86.2763 134.423 86.2481 135.387 86.6207 136.173C86.7878 136.525 87.0743 136.867 87.4619 136.91C87.6199 136.714 87.5477 136.43 87.4592 136.189L87.3827 135.986C87.0982 135.215 86.8647 134.38 87.1155 133.605C87.1482 133.504 87.0158 133.413 86.9134 133.441ZM85.5189 134.498C85.2258 135.149 85.3564 135.969 85.8375 136.497C86.0361 136.294 85.9487 135.962 85.8809 135.686C85.7748 135.255 85.7508 134.803 85.8106 134.363C85.7367 134.255 85.5728 134.378 85.5189 134.498ZM91.6978 111.276C92.1421 111.659 92.4247 112.484 91.8969 112.74C91.5588 112.904 91.1757 112.664 90.8564 112.466C89.1974 111.437 87.0762 111.361 85.1954 111.885C83.3145 112.408 81.633 113.475 80.0549 114.624C78.4833 115.768 76.9679 117.024 75.7862 118.567C74.6044 120.111 73.7686 121.971 73.7 123.913C73.6178 126.241 74.6237 128.466 75.7868 130.484C76.5282 131.77 77.3641 133.038 78.5149 133.972L78.7515 134.159C79.078 134.421 79.4131 134.746 79.3299 135.14C78.2019 135.089 77.3832 134.081 76.762 133.138C75.8787 131.797 75.0735 130.406 74.3519 128.972C73.7519 127.779 73.2034 126.537 73.0211 125.215C72.6783 122.728 73.6882 120.2 75.2578 118.241C76.8275 116.281 78.9164 114.811 81.0292 113.455C82.6341 112.425 84.2858 111.437 86.0873 110.811C87.9452 110.165 90.2075 109.993 91.6978 111.276ZM139.377 100.324C136.706 102.817 133.154 104.348 129.507 104.58C127.895 104.683 126.231 104.529 124.772 103.835C123.314 103.141 122.085 101.848 121.746 100.269L121.625 100.306C120.569 100.64 119.361 101.244 119.371 102.332C119.416 106.945 119.309 111.559 119.049 116.165C118.999 117.049 118.663 118.209 117.778 118.183C114.633 118.091 111.468 118.816 108.678 120.27C111.818 125.193 116.284 129.497 121.839 131.3C127.394 133.104 134.094 131.977 137.986 127.624C139.234 126.229 140.153 124.579 141.037 122.926L141.241 122.545C141.429 122.193 141.62 121.774 141.453 121.411C141.346 121.179 141.576 120.939 141.787 120.796C144.894 118.694 149.519 119.264 152.021 122.057C151.823 121.67 152.003 121.135 152.396 120.947C152.708 121.448 152.774 122.095 152.57 122.649C152.705 122.84 152.953 122.533 152.974 122.299C153.308 118.668 153.282 115.004 152.896 111.379C152.757 110.071 152.568 108.756 152.1 107.527C151.69 106.449 151.073 105.462 150.398 104.527C148.843 102.377 146.953 100.471 144.817 98.8968L144.662 98.7839C144.323 98.5415 143.967 98.3182 143.567 98.2093C141.983 97.7781 140.577 99.2039 139.377 100.324ZM117.795 98.2349C116.029 98.8291 114.117 98.7148 112.258 98.8433C109.638 99.0242 107.054 99.7053 104.685 100.839C103.665 101.327 102.678 101.901 101.599 102.241C99.3083 102.962 96.6819 102.516 94.7568 101.08C94.3418 104.247 94.4642 107.485 95.1172 110.611C95.1592 110.812 95.2915 111.069 95.4877 111.009C96.7896 110.609 98.19 111.175 99.3476 111.892C100.505 112.61 101.593 113.504 102.908 113.859C104.45 114.275 106.085 113.891 107.612 113.407L107.726 113.37C108.509 113.119 109.521 112.91 110.023 113.56C110.446 114.109 110.179 114.929 109.731 115.458C109.283 115.987 108.675 116.38 108.309 116.969C107.86 117.692 107.858 118.668 108.303 119.394C111.219 118.224 114.34 117.569 117.48 117.465C118.11 117.444 118.33 116.63 118.369 116.001C118.708 110.492 118.812 104.969 118.681 99.452C118.667 98.864 118.353 98.0473 117.795 98.2349ZM165.003 113.131L165.128 113.193C165.901 113.586 166.724 114.11 166.839 114.956C166.877 115.235 166.829 115.518 166.763 115.792C166.671 116.17 166.532 116.558 166.237 116.814C165.925 117.084 165.487 117.161 165.074 117.145C164.261 117.113 163.448 116.735 162.977 116.072C162.506 115.409 162.431 114.46 162.87 113.776C163.309 113.091 164.274 112.77 165.003 113.131ZM163.798 114.078C163.316 114.279 163.142 114.93 163.343 115.412C163.545 115.893 164.022 116.21 164.518 116.372C165.025 116.539 165.679 116.525 165.981 116.085C166.082 115.939 166.13 115.762 166.158 115.587C166.218 115.205 166.181 114.782 165.935 114.483C165.63 114.114 165.11 114.039 164.624 114.012L164.503 114.006C164.265 113.995 164.018 113.986 163.798 114.078ZM102.979 104.121C103.04 104.352 102.993 104.596 102.952 104.832C102.658 106.49 102.637 108.196 102.888 109.861L102.935 110.156C102.965 110.364 102.978 110.584 102.858 110.752C102.72 110.946 102.333 110.926 102.313 110.689C102.148 108.672 102.043 106.649 101.996 104.626C101.988 104.239 102.088 103.725 102.474 103.695C102.713 103.677 102.918 103.89 102.979 104.121ZM89.4085 100.078C89.6937 100.164 89.9676 100.359 90.0503 100.645C90.1329 100.931 89.9448 101.293 89.6476 101.312C89.3706 101.329 89.1592 101.077 88.9047 100.966C88.4477 100.767 87.9351 101.045 87.515 101.313L87.3011 101.451C86.8978 101.716 86.5071 102.014 86.2857 102.438C86.0591 102.871 86.0401 103.38 86.0472 103.869C86.052 104.208 86.0679 104.553 86.173 104.876C86.401 105.577 87.0514 106.102 87.7729 106.254C88.4944 106.406 89.2661 106.209 89.8764 105.796L89.9959 105.715C90.1037 105.644 90.2166 105.582 90.3434 105.576C90.5177 105.567 90.7086 105.732 90.6493 105.896C90.6315 105.945 90.595 105.985 90.5585 106.022C89.5609 107.047 87.8383 107.266 86.6156 106.524C86.3975 106.392 86.1942 106.232 86.0294 106.037C85.5339 105.452 85.4415 104.632 85.4279 103.866C85.4205 103.451 85.4308 103.03 85.5487 102.632C85.8035 101.772 86.5236 101.134 87.2721 100.64C87.9076 100.221 88.6794 99.859 89.4085 100.078ZM83.6367 98.3149L86.1238 101.268C85.987 101.416 85.7472 101.425 85.5623 101.345C85.398 101.274 85.2669 101.146 85.1434 101.015L83.6842 99.4456C83.4852 101.038 83.0033 102.595 82.2676 104.021C82.196 104.16 82.3989 104.277 82.5543 104.293C82.9338 104.332 83.3177 104.289 83.6919 104.215L83.8848 104.176C84.1871 104.116 84.497 104.069 84.7788 104.18C85.1209 104.316 85.332 104.814 85.0577 105.059C84.8886 105.21 84.6324 105.191 84.4072 105.163L81.985 104.864L81.9106 104.853C81.6715 104.814 81.4086 104.72 81.3736 104.49C81.3525 104.351 81.4296 104.218 81.5018 104.098C82.364 102.659 82.9384 101.049 83.1822 99.3903L83.2189 99.1272C83.2663 98.8043 83.3502 98.4539 83.6367 98.3149ZM168.372 102.954C168.673 103.166 168.956 103.583 168.723 103.868C168.578 104.046 168.297 104.05 168.088 103.955C167.879 103.859 167.716 103.687 167.536 103.544C166.796 102.959 165.684 102.898 164.884 103.397C164.77 103.468 164.657 103.557 164.611 103.683C164.564 103.809 164.615 103.978 164.744 104.016C165.766 103.583 166.983 103.644 167.957 104.176C168.098 104.253 168.245 104.355 168.28 104.511C168.315 104.668 168.147 104.856 168.007 104.777C167.371 104.422 166.613 104.291 165.895 104.413C165.561 104.47 165.234 104.58 164.894 104.591C164.555 104.601 164.184 104.488 164.004 104.201C163.838 103.935 163.877 103.577 164.039 103.309C164.201 103.041 164.467 102.851 164.745 102.707C165.876 102.119 167.332 102.218 168.372 102.954ZM134.487 88.599C132.062 90.637 129.213 92.1674 126.174 93.0648L125.971 93.1237C125.577 93.2362 125.081 93.486 125.164 93.8876L125.215 94.1368C125.366 94.8861 125.495 95.6492 125.387 96.4031C125.27 97.2162 124.822 98.0301 124.08 98.3718L124.011 98.4016C122.69 98.9453 122.504 100.918 123.371 102.054C124.237 103.19 125.74 103.63 127.159 103.794C131.325 104.276 135.672 102.879 138.778 100.062C139.904 99.0404 140.912 97.8173 142.306 97.2103L138.819 95.9341C137.878 95.5898 136.925 95.2392 136.106 94.6623C135.287 94.0853 134.604 93.2453 134.437 92.2579C134.232 91.0483 134.812 89.7821 134.487 88.599ZM94.2594 91.8692C94.1718 91.9081 94.0825 91.9598 94.0404 92.0458C93.9982 92.1319 94.0125 92.2336 94.0273 92.3283L94.8264 97.3635C95.0618 98.8474 95.3926 100.492 96.6168 101.363C97.9577 102.318 99.7991 101.944 101.361 101.399L101.444 101.369C104.351 100.337 107.148 98.9007 110.194 98.4173C112.382 98.0703 114.675 98.2189 116.744 97.4273C115.987 96.2858 114.348 96.2918 112.977 96.4416L101.776 97.7141C100.909 97.8127 99.9973 97.9278 99.2926 98.4435C98.9843 98.6691 98.6923 98.9791 98.3105 98.9949C97.9391 99.0102 97.6162 98.4694 97.9073 98.2704L97.933 98.2547C98.2523 98.079 98.2308 97.6208 98.1655 97.2624L97.8267 95.4055C97.6554 94.4844 97.4462 93.547 96.895 92.795C96.2997 91.9829 95.1797 91.4604 94.2594 91.8692ZM171.585 99.3951C171.855 99.7095 171.867 100.192 171.687 100.565C171.507 100.938 171.166 101.213 170.797 101.402C170.352 101.63 169.862 101.749 169.371 101.851L169.126 101.901C169.029 101.92 168.928 101.939 168.835 101.908C168.758 101.882 168.695 101.824 168.644 101.761C168.391 101.443 168.4 100.975 168.571 100.606C168.742 100.238 169.049 99.952 169.364 99.6958C169.686 99.4339 170.037 99.1872 170.441 99.0914C170.845 98.9956 171.315 99.0802 171.585 99.3951ZM170.261 99.9476L170.131 100.034C169.938 100.167 169.752 100.311 169.622 100.505C169.463 100.741 169.408 101.07 169.565 101.307L170.604 100.729C170.773 100.635 170.948 100.535 171.058 100.376C171.168 100.217 171.19 99.9786 171.054 99.8405C170.85 99.6333 170.503 99.7867 170.261 99.9476ZM153.688 88.5807C153.761 88.6101 153.81 88.6757 153.852 88.7428L155.374 91.2281C155.646 91.6723 156.265 91.7218 156.785 91.6852C157.781 91.615 158.767 91.4118 159.709 91.0827C159.867 91.0274 160.017 91.2285 159.983 91.3925C159.949 91.5564 159.808 91.6731 159.676 91.776L157.39 93.5574C157.11 93.5375 157.189 93.0781 157.417 92.9128L157.484 92.8658C157.704 92.7178 157.97 92.5716 157.956 92.3174L156.635 92.73C156.383 92.8088 156.102 92.8863 155.862 92.7755C155.703 92.7019 155.591 92.5575 155.49 92.4121L153.812 89.963L153.783 92.1077C153.78 92.2835 153.773 92.4743 153.661 92.6102C153.582 92.7067 153.463 92.7585 153.345 92.8022L151.029 93.6329C151.648 94.2512 152.805 93.6006 153.545 94.0665C154.052 94.3857 154.139 95.0969 154.029 95.6859C153.92 96.2749 153.669 96.8479 153.702 97.446C154.124 97.1395 154.435 96.6818 154.563 96.1758C154.615 95.9719 154.64 95.7549 154.754 95.5777C155.067 95.0894 155.814 95.1887 156.332 95.4499C156.85 95.7111 157.387 96.0871 157.954 95.9629L157.132 94.6489C157.057 94.529 156.979 94.3992 156.986 94.2579C156.992 94.1167 157.126 93.9739 157.262 94.0149C157.321 94.0329 157.365 94.0798 157.405 94.1289L159.239 96.5056C158.594 96.9302 157.745 96.6627 157.001 96.4578L156.891 96.429C156.165 96.2494 155.279 96.2316 154.879 96.8463C154.596 97.2795 154.265 97.6808 153.893 98.0401C153.736 98.1914 153.557 98.3423 153.341 98.367C153.124 98.3917 152.876 98.2276 152.895 98.0106L153.108 95.6073C153.122 95.4517 153.132 95.2824 153.046 95.1524C152.954 95.0156 152.782 94.9623 152.624 94.9185L150.62 94.3654C150.184 94.2451 150.181 93.5672 150.508 93.2551C150.835 92.943 151.316 92.8776 151.751 92.7568C152.187 92.6361 152.658 92.3798 152.736 91.9349L153.245 89.0555C153.288 88.8093 153.456 88.4869 153.688 88.5807ZM99.7814 47.9853L99.4113 48.2859C96.9459 50.2945 94.5164 52.4002 92.7082 55.0112C90.8096 57.7528 89.644 61.1524 90.2093 64.4386C91.033 69.2275 95.3177 73.0413 95.5009 77.897C95.5252 78.542 96.1822 78.9434 96.7319 79.2821C98.9012 80.6186 100.509 82.7397 101.569 85.0559C102.597 87.2997 103.146 89.731 103.544 92.1677L103.583 92.4035C103.642 92.7751 103.685 93.198 103.446 93.488C103.206 93.7781 102.589 93.6765 102.613 93.301C102.895 88.886 101.29 84.382 98.2796 81.1393C97.4976 80.2969 96.5893 79.5161 95.4881 79.1862C95.418 80.8868 94.8452 82.6197 93.6328 83.8146C92.4205 85.0094 90.5078 85.5553 88.9383 84.8959C87.3688 84.2366 86.4086 82.2457 87.115 80.6971C87.7067 79.3999 89.1763 78.7445 90.5754 78.4683C91.9483 78.1973 93.3714 78.1832 94.7494 78.4269C94.9348 78.4597 95.0156 78.2006 95.0119 78.0124C94.9122 72.9652 90.2455 69.0137 89.6329 64.0028C89.2981 61.2643 90.2327 58.5076 91.5891 56.105C93.3703 52.9498 95.9042 50.2227 98.9206 48.2144L98.9995 48.1632C99.2411 48.0112 99.5228 47.8815 99.7814 47.9853ZM115.147 73.6917C114.472 74.126 114.489 75.0897 114.433 75.8905C114.357 76.9889 113.979 78.0883 113.242 78.9068C112.505 79.7252 111.386 80.228 110.293 80.0906C110.011 80.0551 109.925 80.464 109.962 80.7465C110.597 85.5873 113.534 90.3399 118.1 92.0732C120.891 93.1329 124.044 92.9921 126.889 92.0889C129.667 91.2072 132.182 89.639 134.479 87.8439L134.647 87.7122C134.98 87.4491 135.315 87.175 135.547 86.8192C135.782 86.4584 135.897 86.0316 135.954 85.6048C136.255 83.3182 134.727 80.9257 132.525 80.2375C132.266 80.1565 132.326 79.7362 132.553 79.5879C132.78 79.4395 133.073 79.4496 133.333 79.3703C134.036 79.1554 134.36 78.3545 134.52 77.6369C134.741 76.6509 134.803 75.5265 134.192 74.7219C133.366 73.6346 131.76 73.6359 130.398 73.7402L128.188 73.9093C127.425 73.9676 126.444 74.2363 126.408 75.0002C126.331 76.6453 125.606 78.284 124.325 79.3199C123.045 80.3557 121.2 80.7139 119.68 80.0798C118.184 79.4558 117.127 77.8274 117.299 76.2197L117.309 76.142C117.399 75.4619 117.349 74.7234 116.951 74.165C116.552 73.6065 115.724 73.3206 115.147 73.6917ZM133.398 47.9843C132.413 48.2643 131.466 48.716 130.689 49.3823C129.601 50.3135 128.879 51.6592 128.703 53.0796C128.64 53.5828 128.741 54.2319 129.23 54.3671C130.424 54.6974 131.492 55.4633 132.189 56.488C131.06 55.8163 129.822 55.3276 128.538 55.0466L133.963 58.1154C134.278 58.2933 134.604 58.4822 134.802 58.7845C135 59.0868 135.021 59.538 134.749 59.7761L134.37 59.4811C133.419 58.7457 132.448 58.0328 131.384 57.4763C130.575 57.0531 129.721 56.7248 128.863 56.412L128.394 56.2425C126.805 55.6693 125.202 55.0926 123.528 54.8636C121.975 54.6511 120.38 54.7454 118.862 55.1397L118.563 55.2164C116.513 55.735 114.376 56.159 112.681 57.412C111.673 58.1574 110.883 59.1552 110.133 60.1601L109.957 60.3999C108.467 62.4443 107.106 64.9647 107.978 67.3103C111.978 66.8176 115.095 63.723 118.72 61.9589C118.997 61.824 119.454 61.7828 119.496 62.0879L115.44 64.4838C115.553 65.1025 115.446 65.7588 115.144 66.3102C118.107 65.4732 120.877 63.9618 123.185 61.9244L123.332 61.7937C123.698 61.4642 124.404 61.1916 124.56 61.6587L124.361 61.7695C123.633 62.1788 122.909 62.6264 122.408 63.2892C121.86 64.0122 121.642 65.0632 122.128 65.8293L127.247 62.8157C127.455 62.6933 127.682 62.5665 127.922 62.5916C128.162 62.6168 128.387 62.8753 128.283 63.0931L128.109 63.1294C127.557 63.2468 126.996 63.3939 126.566 63.7537C126.09 64.1515 125.844 64.8972 126.198 65.4065C126.831 66.3202 127.346 67.3166 127.724 68.3624C127.732 67.9051 128.355 67.6712 128.766 67.872C129.177 68.0728 129.395 68.526 129.544 68.9584C129.97 70.1956 130.083 71.5393 129.868 72.8301C131.156 73.2846 132.666 72.7477 133.904 73.3226C135.054 73.8562 135.616 75.2402 135.536 76.5047C135.456 77.7691 134.859 78.9382 134.22 80.0328C136.004 81.4144 136.957 83.7941 136.619 86.0245C136.93 85.9738 137.193 85.7055 137.237 85.3935L137.945 85.8398C136.838 86.465 136.051 87.6253 135.879 88.8843C140.741 84.3364 142.354 77.1285 141.653 70.5096L141.626 70.2627C141.348 67.8725 140.686 65.3811 138.888 63.7979C139.852 63.2422 141.089 63.4608 142.12 63.0435C143.095 62.6493 143.764 61.7356 144.217 60.7868C145.729 57.615 145.208 53.5794 142.94 50.8952C140.672 48.211 136.779 47.0234 133.398 47.9843ZM117.506 87.7628C117.659 87.7881 117.833 87.84 117.893 87.9833C117.989 88.2121 117.721 88.4213 117.488 88.5079C117.15 88.6337 116.796 88.7142 116.437 88.7466C116.136 88.7739 115.756 88.7158 115.663 88.4282C115.602 88.2391 115.708 88.0267 115.869 87.9101C116.03 87.7935 116.233 87.7541 116.431 87.7327C116.789 87.694 117.151 87.7042 117.506 87.7628ZM112.007 84.4828C113.065 85.7258 114.72 86.384 116.352 86.3968C117.985 86.4097 119.586 85.8197 120.942 84.9098L121.056 84.8332C121.228 84.7189 121.406 84.6115 121.608 84.5763C121.855 84.5334 122.148 84.637 122.232 84.8729C120.815 86.0765 119.038 86.8714 117.185 87.0394C115.333 87.2075 113.415 86.7324 111.903 85.6488C111.631 85.4533 111.349 85.196 111.338 84.8608C111.326 84.5255 111.789 84.2273 112.007 84.4828ZM89.8312 79.2179C89.0956 79.4525 88.3552 79.7963 87.8911 80.4133C87.2016 81.3298 87.3222 82.7204 88.0668 83.5926C88.8115 84.4649 90.0706 84.8131 91.194 84.5813C92.3174 84.3495 93.2927 83.5918 93.924 82.6343C94.5553 81.6768 94.8644 80.5338 94.958 79.3909C94.9737 79.1993 94.9389 78.9456 94.7498 78.9105C93.1184 78.607 91.4122 78.7136 89.8312 79.2179ZM115.9 74.752C115.93 75.0156 115.828 75.2742 115.734 75.5225C115.205 76.9254 114.882 78.4064 114.781 79.9025C114.764 80.1448 114.755 80.3961 114.844 80.6222C114.928 80.8357 115.123 81.0214 115.348 81.0342L115.389 81.0346C115.594 81.0273 115.692 81.3338 115.563 81.4938C115.433 81.6538 115.19 81.6718 114.993 81.6131C114.588 81.4925 114.298 81.1157 114.18 80.7099C114.063 80.3041 114.093 79.8709 114.152 79.4526C114.351 78.0343 114.869 76.6591 114.895 75.2271C114.902 74.823 114.984 74.2782 115.387 74.2461C115.652 74.225 115.869 74.4884 115.9 74.752ZM120.934 69.9653C120.092 70.1384 119.45 70.8284 119.014 71.568C118.12 73.0834 117.865 74.9623 118.323 76.6608C118.529 77.4235 118.881 78.1606 119.433 78.7259C119.985 79.2912 120.751 79.6707 121.541 79.6576C122.093 79.6485 122.628 79.4528 123.107 79.1796C124.707 78.2672 125.723 76.4181 125.636 74.5791C125.548 72.74 124.361 70.9956 122.682 70.2389C122.135 69.9925 121.521 69.8445 120.934 69.9653ZM109.322 69.2113C107.819 69.7681 106.848 71.3288 106.641 72.918C106.435 74.5073 106.881 76.1149 107.516 77.5862C107.687 77.9824 107.882 78.3853 108.211 78.6652C108.539 78.9451 109.037 79.0706 109.41 78.8539C109.584 78.7531 109.746 78.9889 109.878 79.1405C110.141 79.4425 110.604 79.4682 110.996 79.3898C112.29 79.1314 113.284 78.0013 113.686 76.7453C114.075 75.5312 113.992 74.2171 113.762 72.9608L113.738 72.831C113.496 71.564 112.948 70.1401 111.714 69.7628C111.067 69.565 110.287 69.6806 109.787 69.2251C109.666 69.1151 109.475 69.1546 109.322 69.2113ZM133.211 74.5834C133.72 75.1467 133.512 76.0214 133.257 76.7441L133.237 76.8023C133.135 77.0857 133.029 77.3758 132.835 77.6057C132.64 77.8355 132.335 77.996 132.04 77.9346C131.745 77.8733 131.515 77.5314 131.639 77.257C131.793 76.9163 132.315 76.8989 132.504 76.5762L131.994 76.5281C131.651 76.4957 131.282 76.4522 131.027 76.2195C130.773 75.9868 130.741 75.4943 131.05 75.3418C131.265 75.2361 131.523 75.3397 131.721 75.4729C131.919 75.6061 132.109 75.7748 132.345 75.811C132.581 75.8473 132.868 75.6619 132.82 75.428C132.752 75.1025 132.919 74.7422 133.211 74.5834ZM121.581 76.7822C121.621 77.0061 121.636 77.2437 121.552 77.4552C121.468 77.6667 121.264 77.8437 121.036 77.8342C120.684 77.8196 120.496 77.4141 120.434 77.0671C120.358 76.6385 120.477 76.0485 120.911 76.0166C121.283 75.9893 121.515 76.4155 121.581 76.7822ZM110.73 75.8722C110.906 76.1278 110.881 76.4693 110.811 76.7713C110.722 77.1577 110.498 77.5889 110.103 77.6292C109.747 77.6657 109.443 77.3469 109.326 77.0083C109.184 76.595 109.253 76.0901 109.576 75.7954C109.898 75.5006 110.483 75.5119 110.73 75.8722ZM111.059 71.5109C111.216 71.5832 111.327 71.7817 111.248 71.9356L111.095 71.9755C110.228 72.2069 109.304 72.5288 108.889 73.3127C108.79 73.5006 108.726 73.7079 108.602 73.8807C108.478 74.0536 108.27 74.1909 108.062 74.1472C107.825 74.0973 107.688 73.8246 107.713 73.5838C107.739 73.343 107.885 73.133 108.042 72.9487C108.68 72.1988 109.58 71.6756 110.548 71.4916C110.718 71.4593 110.901 71.4385 111.059 71.5109ZM122.143 71.9438C122.402 72.1527 122.599 72.4311 122.861 72.6366C123.083 72.8102 123.362 72.9475 123.463 73.2102C123.564 73.4729 123.261 73.8439 123.041 73.668C122.468 73.2087 121.832 72.8283 121.156 72.5407C120.849 72.4103 120.919 71.8948 121.218 71.748C121.517 71.6012 121.883 71.7349 122.143 71.9438ZM118.931 70.2964C118.366 70.4826 117.964 71.077 118.002 71.6706C118.219 71.56 118.383 71.3534 118.443 71.1181L118.434 71.0943C118.685 70.8962 118.864 70.6089 118.931 70.2964Z" fill="#2C2C2E"/>
<path fill-rule="evenodd" clip-rule="evenodd" d="M87.0904 141.435C87.3178 141.437 87.5269 141.543 87.7255 141.659L87.8328 141.722C89.0502 142.451 90.3349 143.068 91.6651 143.561C91.8479 143.629 91.7911 143.936 91.6129 144.015C91.4348 144.095 91.2291 144.024 91.0474 143.953L87.1189 142.425C86.8675 142.327 86.5757 142.178 86.5537 141.909C86.5317 141.641 86.8218 141.433 87.0904 141.435Z" fill="#E5E5EA"/>
<path fill-rule="evenodd" clip-rule="evenodd" d="M80.8279 137.156L92.9808 141.466L93.0571 141.495C93.3783 141.62 93.7257 141.835 93.6914 142.167C93.6634 142.437 93.3644 142.611 93.0928 142.602C92.863 142.594 92.6508 142.492 92.4478 142.38L92.3379 142.318C90.6434 141.357 88.8656 140.564 87.0422 139.88C84.9768 139.104 82.853 138.466 80.7258 137.88C80.4005 137.79 79.9882 137.499 80.1748 137.218C80.3056 137.021 80.6049 137.077 80.8279 137.156Z" fill="#E5E5EA"/>
<path d="M30.136 181.87L24.482 167.196H20.566L14.89 181.87H18.454L19.378 179.384H25.67L26.572 181.87H30.136ZM24.812 176.634H20.236L22.524 170.32L24.812 176.634Z" fill="white"/>
<path d="M36.2531 182.134C39.2011 182.134 40.8511 180.66 40.8511 178.724C40.8511 174.434 34.5591 175.754 34.5591 174.17C34.5591 173.576 35.2191 173.114 36.2311 173.114C37.5291 173.114 38.7391 173.664 39.3771 174.346L40.4991 172.432C39.4431 171.596 38.0131 170.98 36.2091 170.98C33.4151 170.98 31.8531 172.542 31.8531 174.324C31.8531 178.504 38.1671 177.074 38.1671 178.834C38.1671 179.494 37.5951 179.978 36.3851 179.978C35.0651 179.978 33.4811 179.252 32.7111 178.526L31.5011 180.484C32.6231 181.518 34.4051 182.134 36.2531 182.134Z" fill="white"/>
<path d="M47.7375 182.134C50.6855 182.134 52.3355 180.66 52.3355 178.724C52.3355 174.434 46.0435 175.754 46.0435 174.17C46.0435 173.576 46.7035 173.114 47.7155 173.114C49.0135 173.114 50.2235 173.664 50.8615 174.346L51.9835 172.432C50.9275 171.596 49.4975 170.98 47.6935 170.98C44.8995 170.98 43.3375 172.542 43.3375 174.324C43.3375 178.504 49.6515 177.074 49.6515 178.834C49.6515 179.494 49.0795 179.978 47.8695 179.978C46.5495 179.978 44.9655 179.252 44.1955 178.526L42.9855 180.484C44.1075 181.518 45.8895 182.134 47.7375 182.134Z" fill="white"/>
<path d="M56.7798 170.1C57.7038 170.1 58.4518 169.352 58.4518 168.428C58.4518 167.504 57.7038 166.778 56.7798 166.778C55.8778 166.778 55.1078 167.504 55.1078 168.428C55.1078 169.352 55.8778 170.1 56.7798 170.1ZM58.1878 181.87V171.244H55.3938V181.87H58.1878Z" fill="white"/>
<path d="M66.3143 186.182C68.9323 186.182 72.0563 185.192 72.0563 181.144V171.244H69.2403V172.608C68.3823 171.53 67.2383 170.98 65.9623 170.98C63.2783 170.98 61.2763 172.916 61.2763 176.392C61.2763 179.934 63.3003 181.804 65.9623 181.804C67.2603 181.804 68.4043 181.188 69.2403 180.132V181.21C69.2403 183.3 67.6563 183.894 66.3143 183.894C64.9723 183.894 63.8503 183.52 62.9923 182.574L61.7383 184.598C63.0803 185.764 64.4883 186.182 66.3143 186.182ZM66.8423 179.318C65.2583 179.318 64.1583 178.218 64.1583 176.392C64.1583 174.566 65.2583 173.466 66.8423 173.466C67.7663 173.466 68.7783 173.972 69.2403 174.676V178.108C68.7783 178.79 67.7663 179.318 66.8423 179.318Z" fill="white"/>
<path d="M85.7934 181.87V174.368C85.7934 172.3 84.6714 170.98 82.3394 170.98C80.6014 170.98 79.3034 171.816 78.6214 172.63V171.244H75.8274V181.87H78.6214V174.72C79.0834 174.082 79.9414 173.466 81.0414 173.466C82.2294 173.466 82.9994 173.972 82.9994 175.446V181.87H85.7934Z" fill="white"/>
<path d="M21.336 210.134C23.514 210.134 24.834 209.188 25.538 208.198L23.712 206.504C23.206 207.208 22.436 207.648 21.468 207.648C19.774 207.648 18.586 206.394 18.586 204.546C18.586 202.698 19.774 201.466 21.468 201.466C22.436 201.466 23.206 201.862 23.712 202.61L25.538 200.894C24.834 199.926 23.514 198.98 21.336 198.98C18.058 198.98 15.704 201.29 15.704 204.546C15.704 207.824 18.058 210.134 21.336 210.134Z" fill="white"/>
<path d="M31.1585 209.87V195.196H28.3645V209.87H31.1585Z" fill="white"/>
<path d="M44.103 209.87V203.006C44.103 199.948 41.881 198.98 39.461 198.98C37.789 198.98 36.117 199.508 34.819 200.652L35.875 202.522C36.777 201.686 37.833 201.268 38.977 201.268C40.385 201.268 41.309 201.972 41.309 203.05V204.48C40.605 203.644 39.351 203.182 37.943 203.182C36.249 203.182 34.247 204.128 34.247 206.614C34.247 208.99 36.249 210.134 37.943 210.134C39.329 210.134 40.583 209.628 41.309 208.77V209.87H44.103ZM39.065 208.242C37.965 208.242 37.063 207.67 37.063 206.68C37.063 205.646 37.965 205.074 39.065 205.074C39.967 205.074 40.847 205.382 41.309 205.998V207.318C40.847 207.934 39.967 208.242 39.065 208.242Z" fill="white"/>
<path d="M51.7023 210.134C54.6503 210.134 56.3003 208.66 56.3003 206.724C56.3003 202.434 50.0083 203.754 50.0083 202.17C50.0083 201.576 50.6683 201.114 51.6803 201.114C52.9783 201.114 54.1883 201.664 54.8263 202.346L55.9483 200.432C54.8923 199.596 53.4623 198.98 51.6583 198.98C48.8643 198.98 47.3023 200.542 47.3023 202.324C47.3023 206.504 53.6163 205.074 53.6163 206.834C53.6163 207.494 53.0443 207.978 51.8343 207.978C50.5143 207.978 48.9303 207.252 48.1603 206.526L46.9503 208.484C48.0723 209.518 49.8543 210.134 51.7023 210.134Z" fill="white"/>
<path d="M63.1867 210.134C66.1347 210.134 67.7847 208.66 67.7847 206.724C67.7847 202.434 61.4927 203.754 61.4927 202.17C61.4927 201.576 62.1527 201.114 63.1647 201.114C64.4627 201.114 65.6727 201.664 66.3107 202.346L67.4327 200.432C66.3767 199.596 64.9467 198.98 63.1427 198.98C60.3487 198.98 58.7867 200.542 58.7867 202.324C58.7867 206.504 65.1007 205.074 65.1007 206.834C65.1007 207.494 64.5287 207.978 63.3187 207.978C61.9987 207.978 60.4147 207.252 59.6447 206.526L58.4347 208.484C59.5567 209.518 61.3387 210.134 63.1867 210.134Z" fill="white"/>
<path d="M75.837 210.134C77.487 210.134 79.159 209.628 80.215 208.66L78.983 206.856C78.301 207.516 77.047 207.912 76.145 207.912C74.341 207.912 73.263 206.79 73.087 205.448H80.985V204.832C80.985 201.356 78.829 198.98 75.661 198.98C72.427 198.98 70.161 201.466 70.161 204.546C70.161 207.956 72.603 210.134 75.837 210.134ZM78.279 203.556H73.043C73.175 202.5 73.923 201.202 75.661 201.202C77.509 201.202 78.213 202.544 78.279 203.556Z" fill="white"/>
<path d="M87.8312 210.134C90.7792 210.134 92.4292 208.66 92.4292 206.724C92.4292 202.434 86.1372 203.754 86.1372 202.17C86.1372 201.576 86.7972 201.114 87.8092 201.114C89.1072 201.114 90.3172 201.664 90.9552 202.346L92.0772 200.432C91.0212 199.596 89.5912 198.98 87.7872 198.98C84.9932 198.98 83.4312 200.542 83.4312 202.324C83.4312 206.504 89.7452 205.074 89.7452 206.834C89.7452 207.494 89.1732 207.978 87.9632 207.978C86.6432 207.978 85.0592 207.252 84.2892 206.526L83.0792 208.484C84.2012 209.518 85.9832 210.134 87.8312 210.134Z" fill="white"/>
</g>
<defs>
<clipPath id="clip0">
<rect y="0.869568" width="179.348" height="256" rx="8" fill="white"/>
</clipPath>
</defs>
</svg>
