<svg width="180" height="257" viewBox="0 0 180 257" fill="none" xmlns="http://www.w3.org/2000/svg">
<g clip-path="url(#clip0)">
<rect y="0.695618" width="179.348" height="256" rx="8" fill="#8CBAFE"/>
<g clip-path="url(#clip1)">
<path d="M43.482 134L49.136 119.326H45.572L41.524 130.612L37.454 119.326H33.89L39.566 134H43.482ZM52.8111 122.23C53.7351 122.23 54.4831 121.482 54.4831 120.558C54.4831 119.634 53.7351 118.908 52.8111 118.908C51.9091 118.908 51.1391 119.634 51.1391 120.558C51.1391 121.482 51.9091 122.23 52.8111 122.23ZM54.2191 134V123.374H51.4251V134H54.2191ZM62.9835 134.264C64.6335 134.264 66.3055 133.758 67.3615 132.79L66.1295 130.986C65.4475 131.646 64.1935 132.042 63.2915 132.042C61.4875 132.042 60.4095 130.92 60.2335 129.578H68.1315V128.962C68.1315 125.486 65.9755 123.11 62.8075 123.11C59.5735 123.11 57.3075 125.596 57.3075 128.676C57.3075 132.086 59.7495 134.264 62.9835 134.264ZM65.4255 127.686H60.1895C60.3215 126.63 61.0695 125.332 62.8075 125.332C64.6555 125.332 65.3595 126.674 65.4255 127.686ZM83.4477 134L86.6817 123.374H83.7777L81.7977 130.524L79.4657 123.374H76.9797L74.6477 130.524L72.6677 123.374H69.7637L72.9977 134H75.9897L78.2337 126.762L80.4777 134H83.4477ZM40.666 162.264C44.626 162.264 46.54 160.24 46.54 157.556C46.54 152.078 38.114 153.64 38.114 151.308C38.114 150.428 38.862 149.834 40.204 149.834C41.7 149.834 43.284 150.34 44.472 151.44L46.21 149.152C44.758 147.81 42.822 147.106 40.49 147.106C37.036 147.106 34.924 149.13 34.924 151.572C34.924 157.094 43.372 155.312 43.372 157.908C43.372 158.744 42.536 159.536 40.82 159.536C38.796 159.536 37.19 158.634 36.156 157.556L34.462 159.932C35.826 161.318 37.85 162.264 40.666 162.264ZM52.8406 162.264C54.0066 162.264 54.7546 161.956 55.1726 161.582L54.5786 159.47C54.4246 159.624 54.0286 159.778 53.6106 159.778C52.9946 159.778 52.6426 159.272 52.6426 158.612V153.816H54.7986V151.374H52.6426V148.47H49.8266V151.374H48.0666V153.816H49.8266V159.36C49.8266 161.252 50.8826 162.264 52.8406 162.264ZM67.6762 162V151.374H64.8822V158.568C64.3982 159.184 63.5402 159.778 62.4622 159.778C61.2742 159.778 60.5042 159.294 60.5042 157.82V151.374H57.7102V158.92C57.7102 160.988 58.8102 162.264 61.1422 162.264C62.8802 162.264 64.1562 161.472 64.8822 160.658V162H67.6762ZM81.5705 162V147.326H78.7545V152.738C77.9185 151.66 76.7305 151.11 75.4765 151.11C72.7705 151.11 70.7685 153.222 70.7685 156.698C70.7685 160.24 72.7925 162.264 75.4765 162.264C76.7525 162.264 77.9185 161.692 78.7545 160.636V162H81.5705ZM76.3345 159.778C74.7505 159.778 73.6505 158.524 73.6505 156.698C73.6505 154.85 74.7505 153.596 76.3345 153.596C77.2805 153.596 78.2925 154.102 78.7545 154.806V158.568C78.2925 159.272 77.2805 159.778 76.3345 159.778ZM90.3351 162.264C91.9851 162.264 93.6571 161.758 94.7131 160.79L93.4811 158.986C92.7991 159.646 91.5451 160.042 90.6431 160.042C88.8391 160.042 87.7611 158.92 87.5851 157.578H95.4831V156.962C95.4831 153.486 93.3271 151.11 90.1591 151.11C86.9251 151.11 84.6591 153.596 84.6591 156.676C84.6591 160.086 87.1011 162.264 90.3351 162.264ZM92.7771 155.686H87.5411C87.6731 154.63 88.4211 153.332 90.1591 153.332C92.0071 153.332 92.7111 154.674 92.7771 155.686ZM108.467 162V154.498C108.467 152.43 107.345 151.11 105.013 151.11C103.275 151.11 101.977 151.946 101.295 152.76V151.374H98.5012V162H101.295V154.85C101.757 154.212 102.615 153.596 103.715 153.596C104.903 153.596 105.673 154.102 105.673 155.576V162H108.467ZM115.805 162.264C116.971 162.264 117.719 161.956 118.137 161.582L117.543 159.47C117.389 159.624 116.993 159.778 116.575 159.778C115.959 159.778 115.607 159.272 115.607 158.612V153.816H117.763V151.374H115.607V148.47H112.791V151.374H111.031V153.816H112.791V159.36C112.791 161.252 113.847 162.264 115.805 162.264ZM124.503 162.264C127.451 162.264 129.101 160.79 129.101 158.854C129.101 154.564 122.809 155.884 122.809 154.3C122.809 153.706 123.469 153.244 124.481 153.244C125.779 153.244 126.989 153.794 127.627 154.476L128.749 152.562C127.693 151.726 126.263 151.11 124.459 151.11C121.665 151.11 120.103 152.672 120.103 154.454C120.103 158.634 126.417 157.204 126.417 158.964C126.417 159.624 125.845 160.108 124.635 160.108C123.315 160.108 121.731 159.382 120.961 158.656L119.751 160.614C120.873 161.648 122.655 162.264 124.503 162.264Z" fill="white"/>
</g>
</g>
<defs>
<clipPath id="clip0">
<rect y="0.695618" width="179.348" height="256" rx="8" fill="white"/>
</clipPath>
<clipPath id="clip1">
<rect width="202" height="202" fill="white" transform="translate(34 60.6956)"/>
</clipPath>
</defs>
</svg>
